<svg width="32" height="32" viewBox="0 0 32 32" fill="none" xmlns="http://www.w3.org/2000/svg">
<path d="M16 0.25C20.1772 0.25 24.1832 1.90937 27.1369 4.86307C30.0906 7.81677 31.75 11.8228 31.75 16C31.75 20.1772 30.0906 24.1832 27.1369 27.1369C24.1832 30.0906 20.1772 31.75 16 31.75C11.8228 31.75 7.81677 30.0906 4.86307 27.1369C1.90937 24.1832 0.25 20.1772 0.25 16C0.25 11.8228 1.90937 7.81677 4.86307 4.86307C7.81677 1.90937 11.8228 0.25 16 0.25V0.25ZM16 14.0898L12.3415 10.4313C12.0882 10.1779 11.7446 10.0356 11.3864 10.0356C11.0281 10.0356 10.6846 10.1779 10.4313 10.4313C10.1779 10.6846 10.0356 11.0281 10.0356 11.3864C10.0356 11.7446 10.1779 12.0882 10.4313 12.3415L14.0898 16L10.4313 19.6585C10.3058 19.7839 10.2063 19.9328 10.1384 20.0967C10.0706 20.2606 10.0356 20.4362 10.0356 20.6136C10.0356 20.791 10.0706 20.9667 10.1384 21.1305C10.2063 21.2944 10.3058 21.4433 10.4313 21.5688C10.5567 21.6942 10.7056 21.7937 10.8695 21.8616C11.0333 21.9294 11.209 21.9644 11.3864 21.9644C11.5638 21.9644 11.7394 21.9294 11.9033 21.8616C12.0672 21.7937 12.2161 21.6942 12.3415 21.5688L16 17.9102L19.6585 21.5688C19.7839 21.6942 19.9328 21.7937 20.0967 21.8616C20.2606 21.9294 20.4362 21.9644 20.6136 21.9644C20.791 21.9644 20.9667 21.9294 21.1305 21.8616C21.2944 21.7937 21.4433 21.6942 21.5688 21.5688C21.6942 21.4433 21.7937 21.2944 21.8616 21.1305C21.9294 20.9667 21.9644 20.791 21.9644 20.6136C21.9644 20.4362 21.9294 20.2606 21.8616 20.0967C21.7937 19.9328 21.6942 19.7839 21.5688 19.6585L17.9102 16L21.5688 12.3415C21.6942 12.2161 21.7937 12.0672 21.8616 11.9033C21.9294 11.7394 21.9644 11.5638 21.9644 11.3864C21.9644 11.209 21.9294 11.0333 21.8616 10.8695C21.7937 10.7056 21.6942 10.5567 21.5688 10.4313C21.4433 10.3058 21.2944 10.2063 21.1305 10.1384C20.9667 10.0706 20.791 10.0356 20.6136 10.0356C20.4362 10.0356 20.2606 10.0706 20.0967 10.1384C19.9328 10.2063 19.7839 10.3058 19.6585 10.4313L16 14.0898Z" fill="black"/>
</svg>
