<svg width="136" height="36" viewBox="0 0 136 36" fill="none" xmlns="http://www.w3.org/2000/svg">
<path d="M0 5C0 2.23858 2.23858 0 5 0H131C133.761 0 136 2.23858 136 5V31C136 33.7614 133.761 36 131 36H5C2.23857 36 0 33.7614 0 31V5Z" fill="url(#paint0_linear_432_5411)"/>
<path d="M27.976 10.704H32.12C33.336 10.704 34.3493 10.9333 35.16 11.392C35.9813 11.8507 36.584 12.5173 36.968 13.392C37.3307 14.192 37.512 15.1787 37.512 16.352C37.512 16.96 37.4693 17.504 37.384 17.984C37.2987 18.464 37.16 18.9067 36.968 19.312C36.584 20.1867 35.9813 20.8533 35.16 21.312C34.3493 21.7707 33.336 22 32.12 22H27.976V10.704ZM31.848 20.4C32.712 20.4 33.416 20.2507 33.96 19.952C34.5147 19.6533 34.92 19.2107 35.176 18.624C35.304 18.3253 35.4 17.9947 35.464 17.632C35.528 17.2693 35.56 16.8427 35.56 16.352C35.56 15.8613 35.528 15.4347 35.464 15.072C35.4 14.7093 35.304 14.3787 35.176 14.08C34.92 13.4933 34.5147 13.0507 33.96 12.752C33.416 12.4533 32.712 12.304 31.848 12.304H29.816V20.4H31.848ZM42.7148 22.192C41.8188 22.192 41.0614 22.0053 40.4428 21.632C39.8241 21.2587 39.3654 20.7413 39.0668 20.08C38.8001 19.5147 38.6668 18.848 38.6668 18.08C38.6668 17.312 38.8001 16.64 39.0668 16.064C39.3654 15.4027 39.8241 14.8853 40.4428 14.512C41.0614 14.1387 41.8188 13.952 42.7148 13.952C43.6108 13.952 44.3681 14.1387 44.9868 14.512C45.6161 14.8853 46.0801 15.4027 46.3788 16.064C46.6454 16.6613 46.7788 17.3333 46.7788 18.08C46.7788 18.8053 46.6454 19.4773 46.3788 20.096C46.0801 20.7573 45.6161 21.2747 44.9868 21.648C44.3681 22.0107 43.6108 22.192 42.7148 22.192ZM42.7148 20.704C43.1948 20.704 43.5948 20.608 43.9148 20.416C44.2454 20.2133 44.4908 19.936 44.6508 19.584C44.8108 19.2213 44.8908 18.72 44.8908 18.08C44.8908 17.4293 44.8108 16.928 44.6508 16.576C44.4908 16.2133 44.2454 15.936 43.9148 15.744C43.5948 15.552 43.1948 15.456 42.7148 15.456C42.2348 15.456 41.8348 15.552 41.5148 15.744C41.1948 15.936 40.9548 16.2133 40.7948 16.576C40.6241 16.9493 40.5388 17.4507 40.5388 18.08C40.5388 18.6987 40.6241 19.2 40.7948 19.584C40.9548 19.936 41.1948 20.2133 41.5148 20.416C41.8348 20.608 42.2348 20.704 42.7148 20.704ZM52.2904 13.952C53.2504 13.952 53.9917 14.224 54.5144 14.768C55.037 15.312 55.2984 16.1067 55.2984 17.152V22H53.5384V17.504C53.5384 16.8 53.3944 16.2827 53.1064 15.952C52.8184 15.6213 52.3757 15.456 51.7784 15.456C51.149 15.456 50.669 15.6373 50.3384 16C50.0077 16.352 49.8424 16.88 49.8424 17.584V22H48.0664V14.16H49.8424V15.04C50.3864 14.3147 51.2024 13.952 52.2904 13.952ZM57.6168 10.704H59.4888L57.9528 15.232H56.5128L57.6168 10.704ZM63.6384 22.128C62.785 22.128 62.161 21.9307 61.7664 21.536C61.3824 21.1307 61.1904 20.48 61.1904 19.584V15.616H59.9744V14.16H61.1904V12.272H62.9504V14.16H65.1744V15.616H62.9504V19.264C62.9504 19.7333 63.0464 20.08 63.2384 20.304C63.441 20.5173 63.7504 20.624 64.1664 20.624C64.5077 20.624 64.8224 20.5813 65.1104 20.496V21.968C64.609 22.0747 64.1184 22.128 63.6384 22.128ZM75.7681 22L71.1441 16.512V22H69.3041V10.704H71.1441V15.232L75.1761 10.704H77.3681L72.8241 15.808L78.0401 22H75.7681ZM83.0873 13.952C84.0473 13.952 84.7886 14.224 85.3113 14.768C85.8339 15.312 86.0953 16.1067 86.0953 17.152V22H84.3353V17.504C84.3353 16.8 84.1913 16.2827 83.9033 15.952C83.6153 15.6213 83.1726 15.456 82.5753 15.456C81.9459 15.456 81.4659 15.6373 81.1353 16C80.8046 16.352 80.6393 16.88 80.6393 17.584V22H78.8633V14.16H80.6393V15.04C81.1833 14.3147 81.9993 13.952 83.0873 13.952ZM91.3554 22.192C90.4594 22.192 89.702 22.0053 89.0834 21.632C88.4647 21.2587 88.006 20.7413 87.7074 20.08C87.4407 19.5147 87.3074 18.848 87.3074 18.08C87.3074 17.312 87.4407 16.64 87.7074 16.064C88.006 15.4027 88.4647 14.8853 89.0834 14.512C89.702 14.1387 90.4594 13.952 91.3554 13.952C92.2514 13.952 93.0087 14.1387 93.6274 14.512C94.2567 14.8853 94.7207 15.4027 95.0194 16.064C95.286 16.6613 95.4194 17.3333 95.4194 18.08C95.4194 18.8053 95.286 19.4773 95.0194 20.096C94.7207 20.7573 94.2567 21.2747 93.6274 21.648C93.0087 22.0107 92.2514 22.192 91.3554 22.192ZM91.3554 20.704C91.8354 20.704 92.2354 20.608 92.5554 20.416C92.886 20.2133 93.1314 19.936 93.2914 19.584C93.4514 19.2213 93.5314 18.72 93.5314 18.08C93.5314 17.4293 93.4514 16.928 93.2914 16.576C93.1314 16.2133 92.886 15.936 92.5554 15.744C92.2354 15.552 91.8354 15.456 91.3554 15.456C90.8754 15.456 90.4754 15.552 90.1554 15.744C89.8354 15.936 89.5954 16.2133 89.4354 16.576C89.2647 16.9493 89.1794 17.4507 89.1794 18.08C89.1794 18.6987 89.2647 19.2 89.4354 19.584C89.5954 19.936 89.8354 20.2133 90.1554 20.416C90.4754 20.608 90.8754 20.704 91.3554 20.704ZM108.14 14.16L105.324 22H103.532L101.852 16.56L100.172 22H98.3796L95.5636 14.16H97.4676L99.2436 19.808L100.956 14.16H102.732L104.444 19.792L106.236 14.16H108.14Z" fill="white"/>
<defs>
<linearGradient id="paint0_linear_432_5411" x1="68" y1="0" x2="68" y2="36" gradientUnits="userSpaceOnUse">
<stop stop-color="#62C565"/>
<stop offset="0.463542" stop-color="#5EBE61"/>
<stop offset="1" stop-color="#53A854"/>
</linearGradient>
</defs>
</svg>
