<svg width="78" height="38" viewBox="0 0 78 38" fill="none" xmlns="http://www.w3.org/2000/svg">
<path d="M0 5C0 2.23858 2.23858 0 5 0H73C75.7614 0 78 2.23858 78 5V33C78 35.7614 75.7614 38 73 38H5C2.23858 38 0 35.7614 0 33V5Z" fill="url(#paint0_linear_432_5397)"/>
<path d="M29.476 11.704H31.38L36.916 20.264V11.704H38.724V23H36.788L31.268 14.472V23H29.476V11.704ZM44.1835 23.192C43.2875 23.192 42.5302 23.0053 41.9115 22.632C41.2928 22.2587 40.8342 21.7413 40.5355 21.08C40.2688 20.5147 40.1355 19.848 40.1355 19.08C40.1355 18.312 40.2688 17.64 40.5355 17.064C40.8342 16.4027 41.2928 15.8853 41.9115 15.512C42.5302 15.1387 43.2875 14.952 44.1835 14.952C45.0795 14.952 45.8368 15.1387 46.4555 15.512C47.0848 15.8853 47.5488 16.4027 47.8475 17.064C48.1142 17.6613 48.2475 18.3333 48.2475 19.08C48.2475 19.8053 48.1142 20.4773 47.8475 21.096C47.5488 21.7573 47.0848 22.2747 46.4555 22.648C45.8368 23.0107 45.0795 23.192 44.1835 23.192ZM44.1835 21.704C44.6635 21.704 45.0635 21.608 45.3835 21.416C45.7142 21.2133 45.9595 20.936 46.1195 20.584C46.2795 20.2213 46.3595 19.72 46.3595 19.08C46.3595 18.4293 46.2795 17.928 46.1195 17.576C45.9595 17.2133 45.7142 16.936 45.3835 16.744C45.0635 16.552 44.6635 16.456 44.1835 16.456C43.7035 16.456 43.3035 16.552 42.9835 16.744C42.6635 16.936 42.4235 17.2133 42.2635 17.576C42.0928 17.9493 42.0075 18.4507 42.0075 19.08C42.0075 19.6987 42.0928 20.2 42.2635 20.584C42.4235 20.936 42.6635 21.2133 42.9835 21.416C43.3035 21.608 43.7035 21.704 44.1835 21.704Z" fill="white"/>
<defs>
<linearGradient id="paint0_linear_432_5397" x1="39" y1="0" x2="39" y2="38" gradientUnits="userSpaceOnUse">
<stop stop-color="#62C565"/>
<stop offset="0.463542" stop-color="#5EBE61"/>
<stop offset="1" stop-color="#53A854"/>
</linearGradient>
</defs>
</svg>
