<svg width="78" height="38" viewBox="0 0 78 38" fill="none" xmlns="http://www.w3.org/2000/svg">
<path d="M0 5C0 2.23858 2.23858 0 5 0H73C75.7614 0 78 2.23858 78 5V33C78 35.7614 75.7614 38 73 38H5C2.23858 38 0 35.7614 0 33V5Z" fill="url(#paint0_linear_432_5392)"/>
<path d="M30.324 18.12L26.484 11.704H28.58L31.252 16.36L33.908 11.704H35.972L32.164 18.12V23H30.324V18.12ZM40.6291 21.288C40.7678 21.16 40.8798 21.0053 40.9651 20.824C41.0611 20.6427 41.1198 20.4613 41.1411 20.28H42.9011C42.8265 21.0693 42.5171 21.72 41.9731 22.232C41.6211 22.5413 41.1945 22.7813 40.6931 22.952C40.1918 23.112 39.6425 23.192 39.0451 23.192C38.1278 23.192 37.3438 23.0107 36.6931 22.648C36.0531 22.2853 35.5838 21.7733 35.2851 21.112C35.0291 20.536 34.9011 19.8533 34.9011 19.064C34.9011 18.6587 34.9331 18.2907 34.9971 17.96C35.0611 17.6293 35.1571 17.32 35.2851 17.032C35.5838 16.3707 36.0425 15.8587 36.6611 15.496C37.2905 15.1333 38.0425 14.952 38.9171 14.952C39.7918 14.952 40.5385 15.1333 41.1571 15.496C41.7865 15.8587 42.2451 16.3653 42.5331 17.016C42.6931 17.3787 42.7998 17.7573 42.8531 18.152C42.9171 18.5467 42.9491 19.016 42.9491 19.56H36.6931C36.7251 20.0293 36.8051 20.3973 36.9331 20.664C37.0931 21.0267 37.3491 21.304 37.7011 21.496C38.0531 21.688 38.4905 21.784 39.0131 21.784C39.3545 21.784 39.6638 21.7413 39.9411 21.656C40.2185 21.5707 40.4478 21.448 40.6291 21.288ZM38.9491 16.376C37.9465 16.376 37.2745 16.7547 36.9331 17.512C36.8265 17.7467 36.7571 17.9973 36.7251 18.264H41.1251C41.0931 17.9867 41.0291 17.7147 40.9331 17.448C40.7625 17.096 40.5118 16.8293 40.1811 16.648C39.8505 16.4667 39.4398 16.376 38.9491 16.376ZM47.1826 23.24C46.3933 23.24 45.732 23.112 45.1986 22.856C44.676 22.6 44.2973 22.216 44.0626 21.704C43.892 21.3307 43.8066 20.8933 43.8066 20.392H45.5346C45.5346 20.6907 45.588 20.9413 45.6946 21.144C45.9293 21.656 46.436 21.912 47.2146 21.912C47.9933 21.912 48.4733 21.7093 48.6546 21.304C48.708 21.1653 48.7346 21.032 48.7346 20.904C48.7346 20.7547 48.708 20.616 48.6546 20.488C48.58 20.328 48.4573 20.2 48.2866 20.104C48.1266 20.008 47.924 19.928 47.6786 19.864C47.444 19.7893 47.108 19.7093 46.6706 19.624C46.0733 19.4853 45.5666 19.304 45.1506 19.08C44.7346 18.8453 44.436 18.5253 44.2546 18.12C44.148 17.8747 44.0946 17.5867 44.0946 17.256C44.0946 16.904 44.1586 16.5947 44.2866 16.328C44.4893 15.8907 44.8413 15.5547 45.3426 15.32C45.844 15.0747 46.4466 14.952 47.1506 14.952C47.8653 14.952 48.468 15.0693 48.9586 15.304C49.46 15.5387 49.8226 15.8853 50.0466 16.344C50.1853 16.664 50.2546 17.048 50.2546 17.496H48.5746C48.5746 17.2613 48.532 17.0427 48.4466 16.84C48.34 16.6267 48.1693 16.4667 47.9346 16.36C47.7106 16.2427 47.4386 16.184 47.1186 16.184C46.468 16.184 46.0573 16.36 45.8866 16.712C45.844 16.808 45.8226 16.9307 45.8226 17.08C45.8226 17.2187 45.844 17.3253 45.8866 17.4C45.9613 17.5707 46.0946 17.7093 46.2866 17.816C46.4786 17.9227 46.6813 18.008 46.8946 18.072C47.1186 18.1253 47.444 18.2 47.8706 18.296C48.532 18.4667 49.0706 18.6693 49.4866 18.904C49.9133 19.128 50.2226 19.4427 50.4146 19.848C50.5213 20.0933 50.5746 20.3867 50.5746 20.728C50.5746 21.1013 50.5106 21.448 50.3826 21.768C50.1586 22.248 49.7586 22.616 49.1826 22.872C48.6173 23.1173 47.9506 23.24 47.1826 23.24Z" fill="white"/>
<defs>
<linearGradient id="paint0_linear_432_5392" x1="39" y1="0" x2="39" y2="38" gradientUnits="userSpaceOnUse">
<stop stop-color="#62C565"/>
<stop offset="0.463542" stop-color="#5EBE61"/>
<stop offset="1" stop-color="#53A854"/>
</linearGradient>
</defs>
</svg>
