<svg width="352" height="45" viewBox="0 0 352 45" fill="none" xmlns="http://www.w3.org/2000/svg">
<path d="M0 4C0 1.79086 1.79086 0 4 0H348C350.209 0 352 1.79086 352 4V41C352 43.2091 350.209 45 348 45H4C1.79086 45 0 43.2091 0 41V4Z" fill="#0066EE"/>
<path d="M125.683 27.324C124.447 27.324 123.421 27.114 122.605 26.694C121.789 26.274 121.207 25.686 120.859 24.93C120.631 24.414 120.505 23.772 120.481 23.004H123.415C123.415 23.484 123.481 23.874 123.613 24.174C123.949 24.894 124.669 25.254 125.773 25.254C126.289 25.254 126.727 25.176 127.087 25.02C127.459 24.852 127.711 24.618 127.843 24.318C127.951 24.066 128.005 23.832 128.005 23.616C128.005 23.388 127.957 23.166 127.861 22.95C127.753 22.698 127.567 22.488 127.303 22.32C127.051 22.152 126.769 22.02 126.457 21.924C126.145 21.816 125.707 21.684 125.143 21.528L124.333 21.312C123.505 21.096 122.809 20.82 122.245 20.484C121.693 20.136 121.297 19.692 121.057 19.152C120.865 18.684 120.769 18.21 120.769 17.73C120.769 17.214 120.883 16.71 121.111 16.218C121.423 15.51 121.975 14.958 122.767 14.562C123.559 14.166 124.507 13.968 125.611 13.968C126.691 13.968 127.609 14.166 128.365 14.562C129.133 14.946 129.685 15.504 130.021 16.236C130.249 16.776 130.363 17.394 130.363 18.09H127.609C127.609 17.634 127.543 17.256 127.411 16.956C127.099 16.296 126.463 15.966 125.503 15.966C125.047 15.966 124.651 16.05 124.315 16.218C123.991 16.374 123.763 16.59 123.631 16.866C123.583 16.962 123.553 17.058 123.541 17.154C123.529 17.238 123.523 17.334 123.523 17.442C123.523 17.658 123.553 17.85 123.613 18.018C123.709 18.234 123.877 18.42 124.117 18.576C124.369 18.72 124.651 18.84 124.963 18.936C125.275 19.032 125.707 19.152 126.259 19.296C126.607 19.38 126.835 19.44 126.943 19.476C127.579 19.644 128.125 19.824 128.581 20.016C129.049 20.208 129.457 20.448 129.805 20.736C130.165 21.012 130.441 21.354 130.633 21.762C130.825 22.218 130.921 22.734 130.921 23.31C130.921 23.898 130.807 24.45 130.579 24.966C130.243 25.722 129.643 26.304 128.779 26.712C127.927 27.12 126.895 27.324 125.683 27.324ZM135.815 27.162C135.131 27.162 134.573 27.06 134.141 26.856C133.721 26.652 133.409 26.334 133.205 25.902C133.001 25.47 132.899 24.894 132.899 24.174V20.088H131.621V18.09H132.899V15.966H135.383V18.09H137.687V20.088H135.383V23.742C135.383 24.222 135.485 24.57 135.689 24.786C135.893 25.002 136.205 25.11 136.625 25.11C136.961 25.11 137.297 25.068 137.633 24.984V26.964C136.925 27.096 136.319 27.162 135.815 27.162ZM146.763 19.674C147.003 20.226 147.123 20.946 147.123 21.834V27H144.621V25.992C143.985 26.82 142.983 27.234 141.615 27.234C140.871 27.234 140.235 27.108 139.707 26.856C139.179 26.592 138.807 26.214 138.591 25.722C138.435 25.398 138.357 24.99 138.357 24.498C138.357 24.042 138.429 23.646 138.573 23.31C138.873 22.65 139.395 22.2 140.139 21.96C140.883 21.708 141.843 21.582 143.019 21.582H144.621V21.402C144.621 21.15 144.609 20.958 144.585 20.826C144.561 20.682 144.519 20.538 144.459 20.394C144.231 19.902 143.715 19.656 142.911 19.656C142.503 19.656 142.167 19.716 141.903 19.836C141.651 19.944 141.465 20.124 141.345 20.376C141.309 20.472 141.279 20.568 141.255 20.664C141.243 20.748 141.231 20.838 141.219 20.934H138.699C138.699 20.478 138.783 20.052 138.951 19.656C139.227 19.044 139.707 18.588 140.391 18.288C141.075 17.988 141.909 17.838 142.893 17.838C143.925 17.838 144.753 17.988 145.377 18.288C146.013 18.588 146.475 19.05 146.763 19.674ZM142.497 25.362C142.989 25.362 143.397 25.278 143.721 25.11C144.045 24.93 144.285 24.678 144.441 24.354C144.561 24.078 144.621 23.712 144.621 23.256V23.13H143.199C142.623 23.13 142.149 23.178 141.777 23.274C141.417 23.37 141.177 23.544 141.057 23.796C140.997 23.94 140.967 24.09 140.967 24.246C140.967 24.414 140.997 24.576 141.057 24.732C141.153 24.948 141.327 25.11 141.579 25.218C141.843 25.314 142.149 25.362 142.497 25.362ZM148.739 18.09H151.205V18.792C151.409 18.468 151.625 18.234 151.853 18.09C152.093 17.946 152.369 17.874 152.681 17.874C153.149 17.874 153.521 18.012 153.797 18.288C154.073 18.564 154.211 18.93 154.211 19.386C154.211 19.83 154.073 20.196 153.797 20.484C153.521 20.76 153.161 20.898 152.717 20.898C152.453 20.898 152.207 20.838 151.979 20.718C151.763 20.586 151.601 20.418 151.493 20.214C151.385 20.262 151.313 20.34 151.277 20.448C151.241 20.544 151.223 20.73 151.223 21.006V27H148.739V18.09ZM158.93 27.162C158.246 27.162 157.688 27.06 157.256 26.856C156.836 26.652 156.524 26.334 156.32 25.902C156.116 25.47 156.014 24.894 156.014 24.174V20.088H154.736V18.09H156.014V15.966H158.498V18.09H160.802V20.088H158.498V23.742C158.498 24.222 158.6 24.57 158.804 24.786C159.008 25.002 159.32 25.11 159.74 25.11C160.076 25.11 160.412 25.068 160.748 24.984V26.964C160.04 27.096 159.434 27.162 158.93 27.162ZM165.768 20.088H164.562V18.09H165.768V17.1C165.768 16.032 166.032 15.252 166.56 14.76C167.1 14.268 167.964 14.022 169.152 14.022C169.62 14.022 170.052 14.064 170.448 14.148V16.164C170.232 16.08 169.944 16.038 169.584 16.038C168.708 16.038 168.27 16.476 168.27 17.352V18.09H170.412V20.088H168.27V27H165.768V20.088ZM171.485 18.09H173.951V18.792C174.155 18.468 174.371 18.234 174.599 18.09C174.839 17.946 175.115 17.874 175.427 17.874C175.895 17.874 176.267 18.012 176.543 18.288C176.819 18.564 176.957 18.93 176.957 19.386C176.957 19.83 176.819 20.196 176.543 20.484C176.267 20.76 175.907 20.898 175.463 20.898C175.199 20.898 174.953 20.838 174.725 20.718C174.509 20.586 174.347 20.418 174.239 20.214C174.131 20.262 174.059 20.34 174.023 20.448C173.987 20.544 173.969 20.73 173.969 21.006V27H171.485V18.09ZM183.523 24.876C183.655 24.768 183.763 24.63 183.847 24.462C183.931 24.294 183.985 24.126 184.009 23.958H186.511C186.439 24.81 186.091 25.53 185.467 26.118C185.059 26.478 184.555 26.754 183.955 26.946C183.367 27.138 182.725 27.234 182.029 27.234C180.961 27.234 180.049 27.03 179.293 26.622C178.537 26.202 177.985 25.602 177.637 24.822C177.349 24.21 177.205 23.442 177.205 22.518C177.205 22.062 177.241 21.654 177.313 21.294C177.385 20.934 177.493 20.592 177.637 20.268C177.973 19.5 178.501 18.906 179.221 18.486C179.953 18.054 180.835 17.838 181.867 17.838C182.887 17.838 183.763 18.054 184.495 18.486C185.227 18.906 185.767 19.5 186.115 20.268C186.283 20.688 186.397 21.12 186.457 21.564C186.529 21.996 186.565 22.536 186.565 23.184H179.725C179.761 23.628 179.839 23.994 179.959 24.282C180.283 24.99 180.955 25.344 181.975 25.344C182.683 25.344 183.199 25.188 183.523 24.876ZM181.903 19.71C180.931 19.71 180.283 20.07 179.959 20.79C179.851 21.054 179.779 21.324 179.743 21.6H184.027C184.003 21.3 183.931 21.018 183.811 20.754C183.643 20.406 183.397 20.148 183.073 19.98C182.761 19.8 182.371 19.71 181.903 19.71ZM193.842 24.876C193.974 24.768 194.082 24.63 194.166 24.462C194.25 24.294 194.304 24.126 194.328 23.958H196.83C196.758 24.81 196.41 25.53 195.786 26.118C195.378 26.478 194.874 26.754 194.274 26.946C193.686 27.138 193.044 27.234 192.348 27.234C191.28 27.234 190.368 27.03 189.612 26.622C188.856 26.202 188.304 25.602 187.956 24.822C187.668 24.21 187.524 23.442 187.524 22.518C187.524 22.062 187.56 21.654 187.632 21.294C187.704 20.934 187.812 20.592 187.956 20.268C188.292 19.5 188.82 18.906 189.54 18.486C190.272 18.054 191.154 17.838 192.186 17.838C193.206 17.838 194.082 18.054 194.814 18.486C195.546 18.906 196.086 19.5 196.434 20.268C196.602 20.688 196.716 21.12 196.776 21.564C196.848 21.996 196.884 22.536 196.884 23.184H190.044C190.08 23.628 190.158 23.994 190.278 24.282C190.602 24.99 191.274 25.344 192.294 25.344C193.002 25.344 193.518 25.188 193.842 24.876ZM192.222 19.71C191.25 19.71 190.602 20.07 190.278 20.79C190.17 21.054 190.098 21.324 190.062 21.6H194.346C194.322 21.3 194.25 21.018 194.13 20.754C193.962 20.406 193.716 20.148 193.392 19.98C193.08 19.8 192.69 19.71 192.222 19.71ZM205.003 27.162C204.319 27.162 203.761 27.06 203.329 26.856C202.909 26.652 202.597 26.334 202.393 25.902C202.189 25.47 202.087 24.894 202.087 24.174V20.088H200.809V18.09H202.087V15.966H204.571V18.09H206.875V20.088H204.571V23.742C204.571 24.222 204.673 24.57 204.877 24.786C205.081 25.002 205.393 25.11 205.813 25.11C206.149 25.11 206.485 25.068 206.821 24.984V26.964C206.113 27.096 205.507 27.162 205.003 27.162ZM208.012 18.09H210.478V18.792C210.682 18.468 210.898 18.234 211.126 18.09C211.366 17.946 211.642 17.874 211.954 17.874C212.422 17.874 212.794 18.012 213.07 18.288C213.346 18.564 213.484 18.93 213.484 19.386C213.484 19.83 213.346 20.196 213.07 20.484C212.794 20.76 212.434 20.898 211.99 20.898C211.726 20.898 211.48 20.838 211.252 20.718C211.036 20.586 210.874 20.418 210.766 20.214C210.658 20.262 210.586 20.34 210.55 20.448C210.514 20.544 210.496 20.73 210.496 21.006V27H208.012V18.09ZM215.758 16.974C215.35 16.974 215.014 16.854 214.75 16.614C214.486 16.362 214.354 16.044 214.354 15.66C214.354 15.276 214.486 14.964 214.75 14.724C215.014 14.472 215.35 14.346 215.758 14.346C216.154 14.346 216.478 14.472 216.73 14.724C216.994 14.964 217.126 15.276 217.126 15.66C217.126 16.044 216.994 16.362 216.73 16.614C216.478 16.854 216.154 16.974 215.758 16.974ZM214.498 18.09H216.982V27H214.498V18.09ZM226.656 19.674C226.896 20.226 227.016 20.946 227.016 21.834V27H224.514V25.992C223.878 26.82 222.876 27.234 221.508 27.234C220.764 27.234 220.128 27.108 219.6 26.856C219.072 26.592 218.7 26.214 218.484 25.722C218.328 25.398 218.25 24.99 218.25 24.498C218.25 24.042 218.322 23.646 218.466 23.31C218.766 22.65 219.288 22.2 220.032 21.96C220.776 21.708 221.736 21.582 222.912 21.582H224.514V21.402C224.514 21.15 224.502 20.958 224.478 20.826C224.454 20.682 224.412 20.538 224.352 20.394C224.124 19.902 223.608 19.656 222.804 19.656C222.396 19.656 222.06 19.716 221.796 19.836C221.544 19.944 221.358 20.124 221.238 20.376C221.202 20.472 221.172 20.568 221.148 20.664C221.136 20.748 221.124 20.838 221.112 20.934H218.592C218.592 20.478 218.676 20.052 218.844 19.656C219.12 19.044 219.6 18.588 220.284 18.288C220.968 17.988 221.802 17.838 222.786 17.838C223.818 17.838 224.646 17.988 225.27 18.288C225.906 18.588 226.368 19.05 226.656 19.674ZM222.39 25.362C222.882 25.362 223.29 25.278 223.614 25.11C223.938 24.93 224.178 24.678 224.334 24.354C224.454 24.078 224.514 23.712 224.514 23.256V23.13H223.092C222.516 23.13 222.042 23.178 221.67 23.274C221.31 23.37 221.07 23.544 220.95 23.796C220.89 23.94 220.86 24.09 220.86 24.246C220.86 24.414 220.89 24.576 220.95 24.732C221.046 24.948 221.22 25.11 221.472 25.218C221.736 25.314 222.042 25.362 222.39 25.362ZM228.631 14.292H231.115V27H228.631V14.292Z" fill="white"/>
</svg>
