<svg width="145" height="48" viewBox="0 0 145 48" fill="none" xmlns="http://www.w3.org/2000/svg">
<path d="M0.5 5C0.5 2.23858 2.73858 0 5.5 0H139.5C142.261 0 144.5 2.23858 144.5 5V43C144.5 45.7614 142.261 48 139.5 48H5.5C2.73857 48 0.5 45.7614 0.5 43V5Z" fill="url(#paint0_linear_1038_3153)"/>
<path d="M17.856 25.344H12.832L11.92 28H9.984L13.968 16.704H16.72L20.672 28H18.768L17.856 25.344ZM17.344 23.824L15.36 18H15.328L13.344 23.824H17.344ZM28.9473 16.704V28H27.2193V27.056C26.9206 27.4293 26.5473 27.712 26.0993 27.904C25.6619 28.096 25.1659 28.192 24.6113 28.192C23.8433 28.192 23.1873 28.0213 22.6432 27.68C22.0992 27.3387 21.6886 26.8587 21.4113 26.24C21.2726 25.9307 21.1659 25.5947 21.0913 25.232C21.0166 24.8587 20.9793 24.4747 20.9793 24.08C20.9793 23.2693 21.1233 22.544 21.4113 21.904C21.6886 21.2853 22.0992 20.8053 22.6432 20.464C23.1873 20.1227 23.8433 19.952 24.6113 19.952C25.1553 19.952 25.6459 20.048 26.0833 20.24C26.5206 20.4213 26.8886 20.6933 27.1873 21.056V16.704H28.9473ZM27.1873 23.872C27.1873 23.0933 26.9953 22.496 26.6113 22.08C26.2379 21.664 25.7206 21.456 25.0593 21.456C24.6006 21.456 24.2059 21.552 23.8753 21.744C23.5446 21.9253 23.2939 22.2027 23.1233 22.576C22.9526 22.9813 22.8673 23.4827 22.8673 24.08C22.8673 24.6667 22.9526 25.1627 23.1233 25.568C23.2939 25.9413 23.5446 26.224 23.8753 26.416C24.2059 26.608 24.6006 26.704 25.0593 26.704C25.7206 26.704 26.2379 26.496 26.6113 26.08C26.9953 25.6533 27.1873 25.0507 27.1873 24.272V23.872ZM38.2129 16.704V28H36.4849V27.056C36.1862 27.4293 35.8129 27.712 35.3649 27.904C34.9275 28.096 34.4315 28.192 33.8769 28.192C33.1089 28.192 32.4529 28.0213 31.9089 27.68C31.3649 27.3387 30.9542 26.8587 30.6769 26.24C30.5382 25.9307 30.4315 25.5947 30.3569 25.232C30.2822 24.8587 30.2449 24.4747 30.2449 24.08C30.2449 23.2693 30.3889 22.544 30.6769 21.904C30.9542 21.2853 31.3649 20.8053 31.9089 20.464C32.4529 20.1227 33.1089 19.952 33.8769 19.952C34.4209 19.952 34.9115 20.048 35.3489 20.24C35.7862 20.4213 36.1542 20.6933 36.4529 21.056V16.704H38.2129ZM36.4529 23.872C36.4529 23.0933 36.2609 22.496 35.8769 22.08C35.5035 21.664 34.9862 21.456 34.3249 21.456C33.8662 21.456 33.4715 21.552 33.1409 21.744C32.8102 21.9253 32.5595 22.2027 32.3889 22.576C32.2182 22.9813 32.1329 23.4827 32.1329 24.08C32.1329 24.6667 32.2182 25.1627 32.3889 25.568C32.5595 25.9413 32.8102 26.224 33.1409 26.416C33.4715 26.608 33.8662 26.704 34.3249 26.704C34.9862 26.704 35.5035 26.496 35.8769 26.08C36.2609 25.6533 36.4529 25.0507 36.4529 24.272V23.872ZM42.9135 16.704H48.7695V18.304H44.7535V21.472H48.7375V23.088H44.7535V28H42.9135V16.704ZM53.6679 28.192C52.7719 28.192 52.0145 28.0053 51.3959 27.632C50.7772 27.2587 50.3185 26.7413 50.0199 26.08C49.7532 25.5147 49.6199 24.848 49.6199 24.08C49.6199 23.312 49.7532 22.64 50.0199 22.064C50.3185 21.4027 50.7772 20.8853 51.3959 20.512C52.0145 20.1387 52.7719 19.952 53.6679 19.952C54.5639 19.952 55.3212 20.1387 55.9399 20.512C56.5692 20.8853 57.0332 21.4027 57.3319 22.064C57.5985 22.6613 57.7319 23.3333 57.7319 24.08C57.7319 24.8053 57.5985 25.4773 57.3319 26.096C57.0332 26.7573 56.5692 27.2747 55.9399 27.648C55.3212 28.0107 54.5639 28.192 53.6679 28.192ZM53.6679 26.704C54.1479 26.704 54.5479 26.608 54.8679 26.416C55.1985 26.2133 55.4439 25.936 55.6039 25.584C55.7639 25.2213 55.8439 24.72 55.8439 24.08C55.8439 23.4293 55.7639 22.928 55.6039 22.576C55.4439 22.2133 55.1985 21.936 54.8679 21.744C54.5479 21.552 54.1479 21.456 53.6679 21.456C53.1879 21.456 52.7879 21.552 52.4679 21.744C52.1479 21.936 51.9079 22.2133 51.7479 22.576C51.5772 22.9493 51.4919 23.4507 51.4919 24.08C51.4919 24.6987 51.5772 25.2 51.7479 25.584C51.9079 25.936 52.1479 26.2133 52.4679 26.416C52.7879 26.608 53.1879 26.704 53.6679 26.704ZM62.746 28.192C61.85 28.192 61.0927 28.0053 60.474 27.632C59.8553 27.2587 59.3967 26.7413 59.098 26.08C58.8313 25.5147 58.698 24.848 58.698 24.08C58.698 23.312 58.8313 22.64 59.098 22.064C59.3967 21.4027 59.8553 20.8853 60.474 20.512C61.0927 20.1387 61.85 19.952 62.746 19.952C63.642 19.952 64.3993 20.1387 65.018 20.512C65.6473 20.8853 66.1113 21.4027 66.41 22.064C66.6767 22.6613 66.81 23.3333 66.81 24.08C66.81 24.8053 66.6767 25.4773 66.41 26.096C66.1113 26.7573 65.6473 27.2747 65.018 27.648C64.3993 28.0107 63.642 28.192 62.746 28.192ZM62.746 26.704C63.226 26.704 63.626 26.608 63.946 26.416C64.2767 26.2133 64.522 25.936 64.682 25.584C64.842 25.2213 64.922 24.72 64.922 24.08C64.922 23.4293 64.842 22.928 64.682 22.576C64.522 22.2133 64.2767 21.936 63.946 21.744C63.626 21.552 63.226 21.456 62.746 21.456C62.266 21.456 61.866 21.552 61.546 21.744C61.226 21.936 60.986 22.2133 60.826 22.576C60.6553 22.9493 60.57 23.4507 60.57 24.08C60.57 24.6987 60.6553 25.2 60.826 25.584C60.986 25.936 61.226 26.2133 61.546 26.416C61.866 26.608 62.266 26.704 62.746 26.704ZM75.7441 16.704V28H74.0161V27.056C73.7175 27.4293 73.3441 27.712 72.8961 27.904C72.4588 28.096 71.9628 28.192 71.4081 28.192C70.6401 28.192 69.9841 28.0213 69.4401 27.68C68.8961 27.3387 68.4855 26.8587 68.2081 26.24C68.0695 25.9307 67.9628 25.5947 67.8881 25.232C67.8135 24.8587 67.7761 24.4747 67.7761 24.08C67.7761 23.2693 67.9201 22.544 68.2081 21.904C68.4855 21.2853 68.8961 20.8053 69.4401 20.464C69.9841 20.1227 70.6401 19.952 71.4081 19.952C71.9521 19.952 72.4428 20.048 72.8801 20.24C73.3175 20.4213 73.6855 20.6933 73.9841 21.056V16.704H75.7441ZM73.9841 23.872C73.9841 23.0933 73.7921 22.496 73.4081 22.08C73.0348 21.664 72.5175 21.456 71.8561 21.456C71.3975 21.456 71.0028 21.552 70.6721 21.744C70.3415 21.9253 70.0908 22.2027 69.9201 22.576C69.7495 22.9813 69.6641 23.4827 69.6641 24.08C69.6641 24.6667 69.7495 25.1627 69.9201 25.568C70.0908 25.9413 70.3415 26.224 70.6721 26.416C71.0028 26.608 71.3975 26.704 71.8561 26.704C72.5175 26.704 73.0348 26.496 73.4081 26.08C73.7921 25.6533 73.9841 25.0507 73.9841 24.272V23.872ZM83.3728 28.128C82.5194 28.128 81.8954 27.9307 81.5008 27.536C81.1168 27.1307 80.9248 26.48 80.9248 25.584V21.616H79.7088V20.16H80.9248V18.272H82.6848V20.16H84.9088V21.616H82.6848V25.264C82.6848 25.7333 82.7808 26.08 82.9728 26.304C83.1754 26.5173 83.4848 26.624 83.9008 26.624C84.2421 26.624 84.5568 26.5813 84.8448 26.496V27.968C84.3434 28.0747 83.8528 28.128 83.3728 28.128ZM89.5585 28.192C88.6625 28.192 87.9052 28.0053 87.2865 27.632C86.6678 27.2587 86.2092 26.7413 85.9105 26.08C85.6438 25.5147 85.5105 24.848 85.5105 24.08C85.5105 23.312 85.6438 22.64 85.9105 22.064C86.2092 21.4027 86.6678 20.8853 87.2865 20.512C87.9052 20.1387 88.6625 19.952 89.5585 19.952C90.4545 19.952 91.2118 20.1387 91.8305 20.512C92.4598 20.8853 92.9238 21.4027 93.2225 22.064C93.4892 22.6613 93.6225 23.3333 93.6225 24.08C93.6225 24.8053 93.4892 25.4773 93.2225 26.096C92.9238 26.7573 92.4598 27.2747 91.8305 27.648C91.2118 28.0107 90.4545 28.192 89.5585 28.192ZM89.5585 26.704C90.0385 26.704 90.4385 26.608 90.7585 26.416C91.0892 26.2133 91.3345 25.936 91.4945 25.584C91.6545 25.2213 91.7345 24.72 91.7345 24.08C91.7345 23.4293 91.6545 22.928 91.4945 22.576C91.3345 22.2133 91.0892 21.936 90.7585 21.744C90.4385 21.552 90.0385 21.456 89.5585 21.456C89.0785 21.456 88.6785 21.552 88.3585 21.744C88.0385 21.936 87.7985 22.2133 87.6385 22.576C87.4678 22.9493 87.3825 23.4507 87.3825 24.08C87.3825 24.6987 87.4678 25.2 87.6385 25.584C87.7985 25.936 88.0385 26.2133 88.3585 26.416C88.6785 26.608 89.0785 26.704 89.5585 26.704ZM97.9291 16.704H102.073C103.289 16.704 104.302 16.9333 105.113 17.392C105.934 17.8507 106.537 18.5173 106.921 19.392C107.284 20.192 107.465 21.1787 107.465 22.352C107.465 22.96 107.422 23.504 107.337 23.984C107.252 24.464 107.113 24.9067 106.921 25.312C106.537 26.1867 105.934 26.8533 105.113 27.312C104.302 27.7707 103.289 28 102.073 28H97.9291V16.704ZM101.801 26.4C102.665 26.4 103.369 26.2507 103.913 25.952C104.468 25.6533 104.873 25.2107 105.129 24.624C105.257 24.3253 105.353 23.9947 105.417 23.632C105.481 23.2693 105.513 22.8427 105.513 22.352C105.513 21.8613 105.481 21.4347 105.417 21.072C105.353 20.7093 105.257 20.3787 105.129 20.08C104.873 19.4933 104.468 19.0507 103.913 18.752C103.369 18.4533 102.665 18.304 101.801 18.304H99.7691V26.4H101.801ZM109.885 18.976C109.565 18.976 109.303 18.8853 109.101 18.704C108.898 18.512 108.797 18.272 108.797 17.984C108.797 17.6853 108.893 17.4453 109.085 17.264C109.287 17.072 109.554 16.976 109.885 16.976C110.194 16.976 110.445 17.072 110.637 17.264C110.829 17.4453 110.925 17.6853 110.925 17.984C110.925 18.272 110.823 18.512 110.621 18.704C110.429 18.8853 110.183 18.976 109.885 18.976ZM108.973 20.16H110.749V28H108.973V20.16ZM119.162 21.536C119.375 22.0053 119.482 22.6293 119.482 23.408V28H117.706V27.12C117.141 27.8347 116.245 28.192 115.018 28.192C114.325 28.192 113.738 28.08 113.258 27.856C112.778 27.632 112.442 27.3013 112.25 26.864C112.111 26.5547 112.042 26.2027 112.042 25.808C112.042 25.4133 112.106 25.072 112.234 24.784C112.501 24.1973 112.954 23.7973 113.594 23.584C114.234 23.36 115.061 23.248 116.074 23.248H117.706V23.04C117.706 22.8373 117.695 22.672 117.674 22.544C117.653 22.4053 117.61 22.2667 117.546 22.128C117.311 21.616 116.767 21.36 115.914 21.36C115.477 21.36 115.119 21.4187 114.842 21.536C114.565 21.6533 114.367 21.84 114.25 22.096C114.175 22.288 114.138 22.464 114.138 22.624H112.346C112.346 22.176 112.421 21.7973 112.57 21.488C113.029 20.464 114.138 19.952 115.898 19.952C116.762 19.952 117.461 20.08 117.994 20.336C118.538 20.592 118.927 20.992 119.162 21.536ZM117.514 25.712C117.642 25.4027 117.706 25.04 117.706 24.624V24.528H116.186C115.599 24.528 115.114 24.576 114.73 24.672C114.346 24.768 114.095 24.944 113.978 25.2C113.914 25.328 113.882 25.4773 113.882 25.648C113.882 25.8187 113.914 25.9787 113.978 26.128C114.085 26.352 114.271 26.5173 114.538 26.624C114.805 26.7307 115.119 26.784 115.482 26.784C115.994 26.784 116.421 26.6933 116.762 26.512C117.103 26.3307 117.354 26.064 117.514 25.712ZM124.922 20.048C125.231 20.048 125.498 20.08 125.722 20.144V21.712C125.487 21.6587 125.221 21.632 124.922 21.632C124.239 21.632 123.722 21.84 123.37 22.256C123.029 22.6613 122.858 23.2533 122.858 24.032V28H121.082V20.16H122.842V21.072C123.301 20.3893 123.994 20.048 124.922 20.048ZM134.351 20.16L129.647 31.232H127.823L129.247 27.92L126.111 20.16H128.079L130.207 26L132.431 20.16H134.351Z" fill="white"/>
<defs>
<linearGradient id="paint0_linear_1038_3153" x1="72.5" y1="0" x2="72.5" y2="48" gradientUnits="userSpaceOnUse">
<stop stop-color="#62C565"/>
<stop offset="0.463542" stop-color="#5EBE61"/>
<stop offset="1" stop-color="#53A854"/>
</linearGradient>
</defs>
</svg>
