<svg width="145" height="48" viewBox="0 0 145 48" fill="none" xmlns="http://www.w3.org/2000/svg">
<path d="M0.5 5C0.5 2.23858 2.73858 0 5.5 0H139.5C142.261 0 144.5 2.23858 144.5 5V43C144.5 45.7614 142.261 48 139.5 48H5.5C2.73857 48 0.5 45.7614 0.5 43V5Z" fill="url(#paint0_linear_1038_3155)"/>
<path d="M27.476 16.704H29.38L34.916 25.264V16.704H36.724V28H34.788L29.268 19.472V28H27.476V16.704ZM45.6875 20.16V28H43.9275V27.104C43.3835 27.84 42.5675 28.208 41.4795 28.208C40.5195 28.208 39.7728 27.936 39.2395 27.392C38.7168 26.848 38.4555 26.0533 38.4555 25.008V20.16H40.2155V24.656C40.2155 25.36 40.3595 25.8773 40.6475 26.208C40.9462 26.5387 41.3888 26.704 41.9755 26.704C42.6048 26.704 43.0848 26.5227 43.4155 26.16C43.7568 25.7973 43.9275 25.2693 43.9275 24.576V20.16H45.6875ZM50.3884 28.128C49.535 28.128 48.911 27.9307 48.5164 27.536C48.1324 27.1307 47.9404 26.48 47.9404 25.584V21.616H46.7244V20.16H47.9404V18.272H49.7004V20.16H51.9244V21.616H49.7004V25.264C49.7004 25.7333 49.7964 26.08 49.9884 26.304C50.191 26.5173 50.5004 26.624 50.9164 26.624C51.2577 26.624 51.5724 26.5813 51.8604 26.496V27.968C51.359 28.0747 50.8684 28.128 50.3884 28.128ZM56.8751 20.048C57.1845 20.048 57.4511 20.08 57.6751 20.144V21.712C57.4405 21.6587 57.1738 21.632 56.8751 21.632C56.1925 21.632 55.6751 21.84 55.3231 22.256C54.9818 22.6613 54.8111 23.2533 54.8111 24.032V28H53.0351V20.16H54.7951V21.072C55.2538 20.3893 55.9471 20.048 56.8751 20.048ZM59.6346 18.976C59.3146 18.976 59.0533 18.8853 58.8506 18.704C58.648 18.512 58.5466 18.272 58.5466 17.984C58.5466 17.6853 58.6426 17.4453 58.8346 17.264C59.0373 17.072 59.304 16.976 59.6346 16.976C59.944 16.976 60.1946 17.072 60.3866 17.264C60.5786 17.4453 60.6746 17.6853 60.6746 17.984C60.6746 18.272 60.5733 18.512 60.3706 18.704C60.1786 18.8853 59.9333 18.976 59.6346 18.976ZM58.7226 20.16H60.4986V28H58.7226V20.16ZM65.2009 28.128C64.3475 28.128 63.7235 27.9307 63.3289 27.536C62.9449 27.1307 62.7529 26.48 62.7529 25.584V21.616H61.5369V20.16H62.7529V18.272H64.5129V20.16H66.7369V21.616H64.5129V25.264C64.5129 25.7333 64.6089 26.08 64.8009 26.304C65.0035 26.5173 65.3129 26.624 65.7289 26.624C66.0702 26.624 66.3849 26.5813 66.6729 26.496V27.968C66.1715 28.0747 65.6809 28.128 65.2009 28.128ZM68.7596 18.976C68.4396 18.976 68.1783 18.8853 67.9756 18.704C67.773 18.512 67.6716 18.272 67.6716 17.984C67.6716 17.6853 67.7676 17.4453 67.9596 17.264C68.1623 17.072 68.429 16.976 68.7596 16.976C69.069 16.976 69.3196 17.072 69.5116 17.264C69.7036 17.4453 69.7996 17.6853 69.7996 17.984C69.7996 18.272 69.6983 18.512 69.4956 18.704C69.3036 18.8853 69.0583 18.976 68.7596 18.976ZM67.8476 20.16H69.6236V28H67.8476V20.16ZM74.9491 28.192C74.0531 28.192 73.2958 28.0053 72.6771 27.632C72.0585 27.2587 71.5998 26.7413 71.3011 26.08C71.0345 25.5147 70.9011 24.848 70.9011 24.08C70.9011 23.312 71.0345 22.64 71.3011 22.064C71.5998 21.4027 72.0585 20.8853 72.6771 20.512C73.2958 20.1387 74.0531 19.952 74.9491 19.952C75.8451 19.952 76.6025 20.1387 77.2211 20.512C77.8505 20.8853 78.3145 21.4027 78.6131 22.064C78.8798 22.6613 79.0131 23.3333 79.0131 24.08C79.0131 24.8053 78.8798 25.4773 78.6131 26.096C78.3145 26.7573 77.8505 27.2747 77.2211 27.648C76.6025 28.0107 75.8451 28.192 74.9491 28.192ZM74.9491 26.704C75.4291 26.704 75.8291 26.608 76.1491 26.416C76.4798 26.2133 76.7251 25.936 76.8851 25.584C77.0451 25.2213 77.1251 24.72 77.1251 24.08C77.1251 23.4293 77.0451 22.928 76.8851 22.576C76.7251 22.2133 76.4798 21.936 76.1491 21.744C75.8291 21.552 75.4291 21.456 74.9491 21.456C74.4691 21.456 74.0691 21.552 73.7491 21.744C73.4291 21.936 73.1891 22.2133 73.0291 22.576C72.8585 22.9493 72.7731 23.4507 72.7731 24.08C72.7731 24.6987 72.8585 25.2 73.0291 25.584C73.1891 25.936 73.4291 26.2133 73.7491 26.416C74.0691 26.608 74.4691 26.704 74.9491 26.704ZM84.5248 19.952C85.4848 19.952 86.2261 20.224 86.7488 20.768C87.2714 21.312 87.5328 22.1067 87.5328 23.152V28H85.7728V23.504C85.7728 22.8 85.6288 22.2827 85.3408 21.952C85.0528 21.6213 84.6101 21.456 84.0128 21.456C83.3834 21.456 82.9034 21.6373 82.5728 22C82.2421 22.352 82.0768 22.88 82.0768 23.584V28H80.3008V20.16H82.0768V21.04C82.6208 20.3147 83.4368 19.952 84.5248 19.952ZM92.1479 16.704H93.9879V28H92.1479V16.704ZM100.009 19.952C100.969 19.952 101.71 20.224 102.233 20.768C102.756 21.312 103.017 22.1067 103.017 23.152V28H101.257V23.504C101.257 22.8 101.113 22.2827 100.825 21.952C100.537 21.6213 100.094 21.456 99.4971 21.456C98.8678 21.456 98.3878 21.6373 98.0571 22C97.7265 22.352 97.5611 22.88 97.5611 23.584V28H95.7851V20.16H97.5611V21.04C98.1051 20.3147 98.9211 19.952 100.009 19.952ZM105.064 21.616H103.912V20.16H105.064V19.104C105.064 18.208 105.288 17.552 105.736 17.136C106.184 16.7093 106.888 16.496 107.848 16.496C108.211 16.496 108.563 16.5333 108.904 16.608V18.08C108.691 18.0053 108.435 17.968 108.136 17.968C107.272 17.968 106.84 18.4053 106.84 19.28V20.16H108.872V21.616H106.84V28H105.064V21.616ZM113.371 28.192C112.475 28.192 111.718 28.0053 111.099 27.632C110.48 27.2587 110.022 26.7413 109.723 26.08C109.456 25.5147 109.323 24.848 109.323 24.08C109.323 23.312 109.456 22.64 109.723 22.064C110.022 21.4027 110.48 20.8853 111.099 20.512C111.718 20.1387 112.475 19.952 113.371 19.952C114.267 19.952 115.024 20.1387 115.643 20.512C116.272 20.8853 116.736 21.4027 117.035 22.064C117.302 22.6613 117.435 23.3333 117.435 24.08C117.435 24.8053 117.302 25.4773 117.035 26.096C116.736 26.7573 116.272 27.2747 115.643 27.648C115.024 28.0107 114.267 28.192 113.371 28.192ZM113.371 26.704C113.851 26.704 114.251 26.608 114.571 26.416C114.902 26.2133 115.147 25.936 115.307 25.584C115.467 25.2213 115.547 24.72 115.547 24.08C115.547 23.4293 115.467 22.928 115.307 22.576C115.147 22.2133 114.902 21.936 114.571 21.744C114.251 21.552 113.851 21.456 113.371 21.456C112.891 21.456 112.491 21.552 112.171 21.744C111.851 21.936 111.611 22.2133 111.451 22.576C111.28 22.9493 111.195 23.4507 111.195 24.08C111.195 24.6987 111.28 25.2 111.451 25.584C111.611 25.936 111.851 26.2133 112.171 26.416C112.491 26.608 112.891 26.704 113.371 26.704Z" fill="white"/>
<defs>
<linearGradient id="paint0_linear_1038_3155" x1="72.5" y1="0" x2="72.5" y2="48" gradientUnits="userSpaceOnUse">
<stop stop-color="#62C565"/>
<stop offset="0.463542" stop-color="#5EBE61"/>
<stop offset="1" stop-color="#53A854"/>
</linearGradient>
</defs>
</svg>
