<svg width="12" height="12" viewBox="0 0 12 12" fill="none" xmlns="http://www.w3.org/2000/svg">
<path fill-rule="evenodd" clip-rule="evenodd" d="M5.8016 0.052671C5.86203 0.0181548 5.93041 0 6 0C6.06959 0 6.13797 0.0181548 6.1984 0.052671L11.7984 3.25267C11.8596 3.28764 11.9105 3.33817 11.9459 3.39915C11.9813 3.46012 12 3.52937 12 3.59987V4.17587C12 7.80147 9.596 10.9887 6.1096 11.9839C6.03796 12.0043 5.96204 12.0043 5.8904 11.9839C4.19359 11.4991 2.70085 10.4748 1.63806 9.06599C0.575261 7.6572 0.000240276 5.94058 0 4.17587L0 3.59987C2.27416e-05 3.52937 0.018681 3.46012 0.0540844 3.39915C0.0894878 3.33817 0.140378 3.28764 0.2016 3.25267L5.8016 0.052671ZM5.6576 8.56867L9.112 4.24947L8.488 3.75027L5.5424 7.43107L3.456 5.69267L2.944 6.30707L5.6576 8.56867Z" fill="#85C400"/>
</svg>
