<svg width="582" height="129" viewBox="0 0 582 129" fill="none" xmlns="http://www.w3.org/2000/svg">
<rect x="56" y="93" width="526" height="12" fill="#222628" fill-opacity="0.3"/>
<path fill-rule="evenodd" clip-rule="evenodd" d="M76.05 111.35C76.4226 111.629 76.725 111.992 76.9333 112.408C77.1415 112.825 77.25 113.284 77.25 113.75V124.75C77.25 125.546 76.9339 126.309 76.3713 126.871C75.8087 127.434 75.0456 127.75 74.25 127.75H62.25C61.4543 127.75 60.6913 127.434 60.1286 126.871C59.566 126.309 59.25 125.546 59.25 124.75V113.75C59.25 113.284 59.3584 112.825 59.5667 112.408C59.775 111.992 60.0774 111.629 60.45 111.35L66.45 106.85C66.9693 106.461 67.6009 106.25 68.25 106.25C68.8991 106.25 69.5307 106.461 70.05 106.85L76.05 111.35V111.35Z" fill="#85C400"/>
<path d="M230.99 31.374C229.626 31.374 228.474 31.088 227.536 30.516C226.597 29.944 225.886 29.108 225.402 28.008C224.874 26.732 224.61 25.1407 224.61 23.234C224.61 21.3273 224.874 19.736 225.402 18.46C225.886 17.36 226.597 16.524 227.536 15.952C228.474 15.38 229.626 15.094 230.99 15.094C232.339 15.094 233.483 15.38 234.422 15.952C235.375 16.524 236.086 17.36 236.556 18.46C237.113 19.7067 237.392 21.298 237.392 23.234C237.392 25.17 237.113 26.7613 236.556 28.008C236.086 29.108 235.375 29.944 234.422 30.516C233.483 31.088 232.339 31.374 230.99 31.374ZM230.99 29.086C231.782 29.086 232.442 28.9247 232.97 28.602C233.498 28.2647 233.908 27.7807 234.202 27.15C234.407 26.71 234.546 26.1747 234.62 25.544C234.708 24.9133 234.752 24.1433 234.752 23.234C234.752 22.3247 234.708 21.5547 234.62 20.924C234.546 20.2787 234.407 19.736 234.202 19.296C233.908 18.6653 233.498 18.1887 232.97 17.866C232.442 17.5287 231.782 17.36 230.99 17.36C229.42 17.36 228.342 18.0053 227.756 19.296C227.565 19.736 227.426 20.2787 227.338 20.924C227.264 21.5547 227.228 22.3247 227.228 23.234C227.228 24.1287 227.264 24.8987 227.338 25.544C227.426 26.1747 227.565 26.71 227.756 27.15C228.342 28.4407 229.42 29.086 230.99 29.086Z" fill="#999999"/>
<path d="M203.08 45.468H211.132V47.668H205.61V52.024H211.088V54.246H205.61V61H203.08V45.468ZM220.023 61.374C218.644 61.374 217.449 61.1393 216.437 60.67C215.439 60.186 214.647 59.504 214.061 58.624C213.577 57.9787 213.21 57.194 212.961 56.27C212.726 55.3313 212.609 54.3193 212.609 53.234C212.609 51.606 212.873 50.176 213.401 48.944C213.958 47.7267 214.794 46.7807 215.909 46.106C217.023 45.4313 218.395 45.094 220.023 45.094C221.665 45.094 223.044 45.4313 224.159 46.106C225.273 46.766 226.102 47.7047 226.645 48.922C227.187 50.1393 227.459 51.5767 227.459 53.234C227.459 54.906 227.18 56.3433 226.623 57.546C226.08 58.7633 225.251 59.7093 224.137 60.384C223.022 61.044 221.651 61.374 220.023 61.374ZM220.023 59.042C221.064 59.042 221.929 58.8293 222.619 58.404C223.323 57.9787 223.843 57.3847 224.181 56.622C224.401 56.1527 224.555 55.6467 224.643 55.104C224.745 54.5467 224.797 53.9233 224.797 53.234C224.797 52.5447 224.745 51.9287 224.643 51.386C224.555 50.8287 224.401 50.3153 224.181 49.846C223.843 49.0833 223.323 48.4893 222.619 48.064C221.929 47.6387 221.064 47.426 220.023 47.426C218.981 47.426 218.116 47.6387 217.427 48.064C216.737 48.4893 216.224 49.0833 215.887 49.846C215.667 50.3153 215.505 50.8287 215.403 51.386C215.315 51.9287 215.271 52.5447 215.271 53.234C215.271 53.9233 215.315 54.5467 215.403 55.104C215.505 55.6467 215.667 56.1527 215.887 56.622C216.224 57.3847 216.737 57.9787 217.427 58.404C218.116 58.8293 218.981 59.042 220.023 59.042ZM236.63 61.374C235.251 61.374 234.056 61.1393 233.044 60.67C232.047 60.186 231.255 59.504 230.668 58.624C230.184 57.9787 229.817 57.194 229.568 56.27C229.333 55.3313 229.216 54.3193 229.216 53.234C229.216 51.606 229.48 50.176 230.008 48.944C230.565 47.7267 231.401 46.7807 232.516 46.106C233.631 45.4313 235.002 45.094 236.63 45.094C238.273 45.094 239.651 45.4313 240.766 46.106C241.881 46.766 242.709 47.7047 243.252 48.922C243.795 50.1393 244.066 51.5767 244.066 53.234C244.066 54.906 243.787 56.3433 243.23 57.546C242.687 58.7633 241.859 59.7093 240.744 60.384C239.629 61.044 238.258 61.374 236.63 61.374ZM236.63 59.042C237.671 59.042 238.537 58.8293 239.226 58.404C239.93 57.9787 240.451 57.3847 240.788 56.622C241.008 56.1527 241.162 55.6467 241.25 55.104C241.353 54.5467 241.404 53.9233 241.404 53.234C241.404 52.5447 241.353 51.9287 241.25 51.386C241.162 50.8287 241.008 50.3153 240.788 49.846C240.451 49.0833 239.93 48.4893 239.226 48.064C238.537 47.6387 237.671 47.426 236.63 47.426C235.589 47.426 234.723 47.6387 234.034 48.064C233.345 48.4893 232.831 49.0833 232.494 49.846C232.274 50.3153 232.113 50.8287 232.01 51.386C231.922 51.9287 231.878 52.5447 231.878 53.234C231.878 53.9233 231.922 54.5467 232.01 55.104C232.113 55.6467 232.274 56.1527 232.494 56.622C232.831 57.3847 233.345 57.9787 234.034 58.404C234.723 58.8293 235.589 59.042 236.63 59.042ZM246.264 45.468H251.962C253.634 45.468 255.027 45.7833 256.142 46.414C257.271 47.0447 258.1 47.9613 258.628 49.164C259.127 50.264 259.376 51.6207 259.376 53.234C259.376 54.07 259.317 54.818 259.2 55.478C259.083 56.138 258.892 56.7467 258.628 57.304C258.1 58.5067 257.271 59.4233 256.142 60.054C255.027 60.6847 253.634 61 251.962 61H246.264V45.468ZM251.588 58.8C252.776 58.8 253.744 58.5947 254.492 58.184C255.255 57.7733 255.812 57.1647 256.164 56.358C256.34 55.9473 256.472 55.4927 256.56 54.994C256.648 54.4953 256.692 53.9087 256.692 53.234C256.692 52.5593 256.648 51.9727 256.56 51.474C256.472 50.9753 256.34 50.5207 256.164 50.11C255.812 49.3033 255.255 48.6947 254.492 48.284C253.744 47.8733 252.776 47.668 251.588 47.668H248.794V58.8H251.588Z" fill="#222628"/>
<path d="M393.99 31.374C392.626 31.374 391.474 31.088 390.536 30.516C389.597 29.944 388.886 29.108 388.402 28.008C387.874 26.732 387.61 25.1407 387.61 23.234C387.61 21.3273 387.874 19.736 388.402 18.46C388.886 17.36 389.597 16.524 390.536 15.952C391.474 15.38 392.626 15.094 393.99 15.094C395.339 15.094 396.483 15.38 397.422 15.952C398.375 16.524 399.086 17.36 399.556 18.46C400.113 19.7067 400.392 21.298 400.392 23.234C400.392 25.17 400.113 26.7613 399.556 28.008C399.086 29.108 398.375 29.944 397.422 30.516C396.483 31.088 395.339 31.374 393.99 31.374ZM393.99 29.086C394.782 29.086 395.442 28.9247 395.97 28.602C396.498 28.2647 396.908 27.7807 397.202 27.15C397.407 26.71 397.546 26.1747 397.62 25.544C397.708 24.9133 397.752 24.1433 397.752 23.234C397.752 22.3247 397.708 21.5547 397.62 20.924C397.546 20.2787 397.407 19.736 397.202 19.296C396.908 18.6653 396.498 18.1887 395.97 17.866C395.442 17.5287 394.782 17.36 393.99 17.36C392.42 17.36 391.342 18.0053 390.756 19.296C390.565 19.736 390.426 20.2787 390.338 20.924C390.264 21.5547 390.228 22.3247 390.228 23.234C390.228 24.1287 390.264 24.8987 390.338 25.544C390.426 26.1747 390.565 26.71 390.756 27.15C391.342 28.4407 392.42 29.086 393.99 29.086Z" fill="#999999"/>
<path d="M338.398 45.468H347.968V47.646H340.928V52.024H347.902V54.224H340.928V58.822H347.968V61H338.398V45.468ZM354.836 52.728L349.49 45.468H352.504L356.376 50.88L360.27 45.468H363.24L357.938 52.772L363.922 61H360.908L356.376 54.708L351.844 61H348.786L354.836 52.728ZM371.411 61.374C369.769 61.374 368.383 61.0367 367.253 60.362C366.124 59.6873 365.288 58.7267 364.745 57.48C364.217 56.3213 363.953 54.906 363.953 53.234C363.953 51.5913 364.217 50.1687 364.745 48.966C365.303 47.734 366.139 46.7807 367.253 46.106C368.383 45.4313 369.761 45.094 371.389 45.094C372.401 45.094 373.333 45.2407 374.183 45.534C375.034 45.8273 375.767 46.26 376.383 46.832C376.955 47.3453 377.403 47.9687 377.725 48.702C378.048 49.4353 378.224 50.2347 378.253 51.1H375.591C375.533 49.9853 375.144 49.0907 374.425 48.416C373.633 47.712 372.592 47.36 371.301 47.36C370.304 47.36 369.461 47.5727 368.771 47.998C368.082 48.4087 367.561 48.9953 367.209 49.758C367.019 50.2127 366.872 50.726 366.769 51.298C366.681 51.8553 366.637 52.5007 366.637 53.234C366.637 53.982 366.681 54.642 366.769 55.214C366.857 55.7713 367.004 56.27 367.209 56.71C367.561 57.4873 368.082 58.0813 368.771 58.492C369.461 58.9027 370.304 59.108 371.301 59.108C371.961 59.108 372.563 59.02 373.105 58.844C373.648 58.6533 374.11 58.3893 374.491 58.052C375.21 57.4067 375.591 56.4973 375.635 55.324H378.297C378.283 56.204 378.114 57.0107 377.791 57.744C377.483 58.4773 377.043 59.108 376.471 59.636C375.855 60.208 375.115 60.6407 374.249 60.934C373.384 61.2273 372.438 61.374 371.411 61.374ZM380.443 45.468H390.013V47.646H382.973V52.024H389.947V54.224H382.973V58.822H390.013V61H380.443V45.468ZM396.573 54.378H394.725V61H392.195V45.468H398.289C400.753 45.468 402.329 46.238 403.019 47.778C403.283 48.35 403.415 49.0247 403.415 49.802C403.415 50.6233 403.29 51.3273 403.041 51.914C402.718 52.6327 402.256 53.19 401.655 53.586C401.053 53.982 400.298 54.2313 399.389 54.334L404.449 61H401.479L396.573 54.378ZM394.725 52.266H397.629C398.45 52.266 399.103 52.1707 399.587 51.98C400.071 51.7893 400.408 51.4887 400.599 51.078C400.76 50.726 400.841 50.3227 400.841 49.868C400.841 49.4427 400.775 49.0833 400.643 48.79C400.437 48.35 400.085 48.042 399.587 47.866C399.103 47.6753 398.45 47.58 397.629 47.58H394.725V52.266ZM412.532 61.374C410.89 61.374 409.504 61.0367 408.374 60.362C407.245 59.6873 406.409 58.7267 405.866 57.48C405.338 56.3213 405.074 54.906 405.074 53.234C405.074 51.5913 405.338 50.1687 405.866 48.966C406.424 47.734 407.26 46.7807 408.374 46.106C409.504 45.4313 410.882 45.094 412.51 45.094C413.522 45.094 414.454 45.2407 415.304 45.534C416.155 45.8273 416.888 46.26 417.504 46.832C418.076 47.3453 418.524 47.9687 418.846 48.702C419.169 49.4353 419.345 50.2347 419.374 51.1H416.712C416.654 49.9853 416.265 49.0907 415.546 48.416C414.754 47.712 413.713 47.36 412.422 47.36C411.425 47.36 410.582 47.5727 409.892 47.998C409.203 48.4087 408.682 48.9953 408.33 49.758C408.14 50.2127 407.993 50.726 407.89 51.298C407.802 51.8553 407.758 52.5007 407.758 53.234C407.758 53.982 407.802 54.642 407.89 55.214C407.978 55.7713 408.125 56.27 408.33 56.71C408.682 57.4873 409.203 58.0813 409.892 58.492C410.582 58.9027 411.425 59.108 412.422 59.108C413.082 59.108 413.684 59.02 414.226 58.844C414.769 58.6533 415.231 58.3893 415.612 58.052C416.331 57.4067 416.712 56.4973 416.756 55.324H419.418C419.404 56.204 419.235 57.0107 418.912 57.744C418.604 58.4773 418.164 59.108 417.592 59.636C416.976 60.208 416.236 60.6407 415.37 60.934C414.505 61.2273 413.559 61.374 412.532 61.374ZM421.564 45.468H424.094V61H421.564V45.468ZM432.307 61.374C430.84 61.374 429.623 61.1247 428.655 60.626C427.687 60.1273 426.998 59.4233 426.587 58.514C426.279 57.7807 426.125 56.9447 426.125 56.006H428.875C428.904 56.71 429.007 57.2747 429.183 57.7C429.418 58.2133 429.806 58.6093 430.349 58.888C430.892 59.152 431.574 59.284 432.395 59.284C433.187 59.284 433.854 59.1667 434.397 58.932C434.954 58.6827 435.328 58.338 435.519 57.898C435.666 57.5607 435.739 57.2233 435.739 56.886C435.739 56.5633 435.673 56.2553 435.541 55.962C435.394 55.6247 435.138 55.3387 434.771 55.104C434.419 54.8693 434.023 54.686 433.583 54.554C433.143 54.4073 432.527 54.2387 431.735 54.048L431.097 53.894C429.968 53.586 429.044 53.234 428.325 52.838C427.621 52.4273 427.115 51.8847 426.807 51.21C426.587 50.6967 426.477 50.1393 426.477 49.538C426.477 48.9513 426.609 48.3573 426.873 47.756C427.24 46.92 427.892 46.2673 428.831 45.798C429.784 45.3287 430.899 45.094 432.175 45.094C433.466 45.094 434.558 45.3287 435.453 45.798C436.348 46.2673 436.986 46.942 437.367 47.822C437.528 48.174 437.646 48.548 437.719 48.944C437.792 49.3253 437.829 49.7507 437.829 50.22H435.211C435.196 49.868 435.167 49.5673 435.123 49.318C435.079 49.054 435.013 48.8193 434.925 48.614C434.705 48.1153 434.353 47.7413 433.869 47.492C433.385 47.2427 432.791 47.118 432.087 47.118C431.398 47.118 430.796 47.2427 430.283 47.492C429.784 47.7267 429.447 48.0493 429.271 48.46C429.198 48.592 429.146 48.724 429.117 48.856C429.102 48.9733 429.095 49.1127 429.095 49.274C429.095 49.45 429.102 49.604 429.117 49.736C429.146 49.8533 429.19 49.9707 429.249 50.088C429.381 50.396 429.608 50.66 429.931 50.88C430.268 51.0853 430.642 51.254 431.053 51.386C431.464 51.5033 432.036 51.6573 432.769 51.848C432.93 51.8773 433.172 51.936 433.495 52.024C434.331 52.244 435.035 52.464 435.607 52.684C436.179 52.904 436.685 53.19 437.125 53.542C437.58 53.8793 437.924 54.3047 438.159 54.818C438.379 55.3167 438.489 55.9253 438.489 56.644C438.489 57.3627 438.364 58.008 438.115 58.58C437.719 59.4893 437.015 60.186 436.003 60.67C434.991 61.1393 433.759 61.374 432.307 61.374ZM440.534 45.468H450.104V47.646H443.064V52.024H450.038V54.224H443.064V58.822H450.104V61H440.534V45.468Z" fill="#222628"/>
<path d="M550.99 31.374C549.626 31.374 548.474 31.088 547.536 30.516C546.597 29.944 545.886 29.108 545.402 28.008C544.874 26.732 544.61 25.1407 544.61 23.234C544.61 21.3273 544.874 19.736 545.402 18.46C545.886 17.36 546.597 16.524 547.536 15.952C548.474 15.38 549.626 15.094 550.99 15.094C552.339 15.094 553.483 15.38 554.422 15.952C555.375 16.524 556.086 17.36 556.556 18.46C557.113 19.7067 557.392 21.298 557.392 23.234C557.392 25.17 557.113 26.7613 556.556 28.008C556.086 29.108 555.375 29.944 554.422 30.516C553.483 31.088 552.339 31.374 550.99 31.374ZM550.99 29.086C551.782 29.086 552.442 28.9247 552.97 28.602C553.498 28.2647 553.908 27.7807 554.202 27.15C554.407 26.71 554.546 26.1747 554.62 25.544C554.708 24.9133 554.752 24.1433 554.752 23.234C554.752 22.3247 554.708 21.5547 554.62 20.924C554.546 20.2787 554.407 19.736 554.202 19.296C553.908 18.6653 553.498 18.1887 552.97 17.866C552.442 17.5287 551.782 17.36 550.99 17.36C549.42 17.36 548.342 18.0053 547.756 19.296C547.565 19.736 547.426 20.2787 547.338 20.924C547.264 21.5547 547.228 22.3247 547.228 23.234C547.228 24.1287 547.264 24.8987 547.338 25.544C547.426 26.1747 547.565 26.71 547.756 27.15C548.342 28.4407 549.42 29.086 550.99 29.086Z" fill="#999999"/>
<path d="M533.554 45.468H536.172L543.784 57.238V45.468H546.27V61H543.608L536.018 49.274V61H533.554V45.468ZM548.937 45.468H558.507V47.646H551.467V52.024H558.441V54.224H551.467V58.822H558.507V61H548.937V45.468ZM563.265 47.668H559.437V45.468H569.645V47.668H565.795V61H563.265V47.668Z" fill="#222628"/>
<path d="M295.249 38.542H301.783V40.808H295.249V38.542Z" fill="#363636"/>
<path d="M486.24 36.496H496.778V38.432H486.24V36.496ZM486.24 40.94H496.778V42.876H486.24V40.94Z" fill="#363636"/>
<path d="M64.16 29.456C62.56 29.456 61.2 29.136 60.08 28.496C58.976 27.856 58.152 26.896 57.608 25.616C57.32 24.944 57.104 24.2 56.96 23.384C56.816 22.552 56.744 21.6 56.744 20.528C56.744 19.456 56.816 18.512 56.96 17.696C57.104 16.864 57.32 16.112 57.608 15.44C58.152 14.16 58.976 13.2 60.08 12.56C61.2 11.92 62.56 11.6 64.16 11.6C65.744 11.6 67.088 11.92 68.192 12.56C69.312 13.2 70.144 14.16 70.688 15.44C70.976 16.112 71.192 16.864 71.336 17.696C71.496 18.528 71.576 19.472 71.576 20.528C71.576 21.584 71.496 22.528 71.336 23.36C71.192 24.192 70.976 24.944 70.688 25.616C70.144 26.896 69.312 27.856 68.192 28.496C67.088 29.136 65.744 29.456 64.16 29.456ZM64.16 25.76C65.376 25.76 66.2 25.288 66.632 24.344C66.792 24.008 66.896 23.56 66.944 23C66.992 22.44 67.016 21.616 67.016 20.528C67.016 19.44 66.992 18.616 66.944 18.056C66.896 17.496 66.792 17.04 66.632 16.688C66.2 15.744 65.376 15.272 64.16 15.272C62.928 15.272 62.096 15.744 61.664 16.688C61.52 17.04 61.416 17.504 61.352 18.08C61.304 18.656 61.28 19.472 61.28 20.528C61.28 21.584 61.304 22.4 61.352 22.976C61.416 23.536 61.52 23.992 61.664 24.344C62.096 25.288 62.928 25.76 64.16 25.76ZM85.337 29L81.617 24.008V29H77.609V12.056H81.617V20.936L84.953 17.024H89.921L85.097 22.424L90.449 29H85.337ZM103.235 17.024V28.328C103.235 29.512 103.043 30.52 102.659 31.352C101.811 33.24 99.9066 34.184 96.9466 34.184C94.7546 34.184 93.0906 33.68 91.9546 32.672C91.5546 32.32 91.2426 31.92 91.0186 31.472C90.7946 31.024 90.6346 30.504 90.5386 29.912H94.7386C94.7866 30.264 94.9386 30.552 95.1946 30.776C95.5786 31.112 96.1546 31.28 96.9226 31.28C98.0266 31.28 98.7306 30.92 99.0346 30.2C99.1786 29.912 99.2506 29.544 99.2506 29.096V27.416C98.8346 27.976 98.3226 28.408 97.7146 28.712C97.1066 29 96.3786 29.144 95.5306 29.144C94.4586 29.144 93.5306 28.904 92.7466 28.424C91.9786 27.928 91.3866 27.224 90.9706 26.312C90.7626 25.816 90.6026 25.296 90.4906 24.752C90.3946 24.208 90.3466 23.592 90.3466 22.904C90.3466 22.216 90.3946 21.6 90.4906 21.056C90.6026 20.512 90.7626 20 90.9706 19.52C91.3866 18.608 91.9786 17.904 92.7466 17.408C93.5306 16.912 94.4586 16.664 95.5306 16.664C97.1946 16.664 98.4506 17.264 99.2986 18.464V17.024H103.235ZM96.9706 26C97.7066 26 98.2666 25.776 98.6506 25.328C99.0506 24.864 99.2506 24.2 99.2506 23.336V22.616C99.2506 21.736 99.0506 21.064 98.6506 20.6C98.2666 20.136 97.7066 19.904 96.9706 19.904C96.4746 19.904 96.0506 20.008 95.6986 20.216C95.3466 20.408 95.0826 20.696 94.9066 21.08C94.7946 21.32 94.7146 21.584 94.6666 21.872C94.6346 22.16 94.6186 22.504 94.6186 22.904C94.6186 23.368 94.6346 23.744 94.6666 24.032C94.7146 24.32 94.7946 24.592 94.9066 24.848C95.0826 25.216 95.3466 25.504 95.6986 25.712C96.0506 25.904 96.4746 26 96.9706 26Z" fill="#85C400"/>
<path d="M73.232 51.688V52.792C73.232 54.52 72.936 56.032 72.344 57.328C71.736 58.704 70.832 59.736 69.632 60.424C68.432 61.112 66.96 61.456 65.216 61.456C63.344 61.456 61.752 61.072 60.44 60.304C59.128 59.52 58.144 58.416 57.488 56.992C56.944 55.728 56.672 54.24 56.672 52.528C56.672 50.848 56.952 49.36 57.512 48.064C58.168 46.624 59.152 45.52 60.464 44.752C61.776 43.984 63.36 43.6 65.216 43.6C66.4 43.6 67.48 43.768 68.456 44.104C69.448 44.424 70.288 44.904 70.976 45.544C71.584 46.104 72.072 46.768 72.44 47.536C72.808 48.288 73.024 49.096 73.088 49.96H68.6C68.472 49.16 68.168 48.552 67.688 48.136C67.4 47.864 67.04 47.664 66.608 47.536C66.192 47.392 65.712 47.32 65.168 47.32C63.536 47.32 62.416 47.968 61.808 49.264C61.632 49.68 61.504 50.136 61.424 50.632C61.344 51.112 61.304 51.744 61.304 52.528C61.304 53.296 61.344 53.928 61.424 54.424C61.504 54.904 61.632 55.352 61.808 55.768C62.4 57.08 63.576 57.736 65.336 57.736C66.136 57.736 66.808 57.592 67.352 57.304C67.912 57.016 68.32 56.592 68.576 56.032C68.752 55.648 68.848 55.208 68.864 54.712H65.12V51.688H73.232ZM85.1568 57.808H78.5328L77.5488 61H73.0368L78.6048 44.056H85.0848L90.6528 61H86.1408L85.1568 57.808ZM84.1488 54.544L81.8688 47.2H81.8208L79.5408 54.544H84.1488ZM91.8641 44.056H96.2081V61H91.8641V44.056ZM98.6141 44.056H102.958L109.654 54.52V44.056H113.878V61H109.486L102.838 50.56V61H98.6141V44.056ZM116.286 44.056H127.518V47.608H120.63V50.704H127.446V54.112H120.63V57.448H127.518V61H116.286V44.056ZM129.481 44.056H136.633C138.489 44.056 140.049 44.416 141.313 45.136C142.593 45.856 143.529 46.888 144.121 48.232C144.393 48.808 144.593 49.448 144.721 50.152C144.849 50.856 144.913 51.648 144.913 52.528C144.913 53.408 144.849 54.2 144.721 54.904C144.593 55.608 144.393 56.248 144.121 56.824C143.529 58.168 142.593 59.2 141.313 59.92C140.049 60.64 138.489 61 136.633 61H129.481V44.056ZM135.937 57.304C136.961 57.304 137.793 57.128 138.433 56.776C139.073 56.424 139.545 55.904 139.849 55.216C140.009 54.88 140.121 54.496 140.185 54.064C140.249 53.632 140.281 53.12 140.281 52.528C140.281 51.936 140.249 51.424 140.185 50.992C140.121 50.544 140.009 50.152 139.849 49.816C139.529 49.128 139.049 48.616 138.409 48.28C137.785 47.928 136.961 47.752 135.937 47.752H133.825V57.304H135.937Z" fill="#222628"/>
<path d="M34.0782 124.812C34.008 125.985 33.5051 126.977 32.5694 127.786C31.6338 128.595 30.546 129 29.3063 129H6.85014C5.61038 129 4.52266 128.595 3.58698 127.786C2.65131 126.977 2.13669 125.985 2.04312 124.812L0.0431242 98.4897C-0.0504431 96.9883 0.37061 95.6979 1.30628 94.6188C2.24195 93.5396 3.43494 93 4.88523 93H31.0958C32.546 93 33.7449 93.5396 34.6922 94.6188C35.6396 95.6979 36.0665 96.9883 35.9729 98.4897L34.0782 124.812ZM18.008 97.5044C15.6689 97.5044 13.4876 98.085 11.4642 99.2463C9.44079 100.408 7.87938 102.079 6.77997 104.261L14.4291 107.323L11.587 101.657C11.3765 101.422 11.2712 101.152 11.2712 100.848C11.2712 100.543 11.3823 100.279 11.6045 100.056C11.8268 99.8328 12.0899 99.7214 12.394 99.7214C12.6981 99.7214 12.9554 99.8387 13.1659 100.073L18.8151 106.548C19.8911 106.642 20.78 106.912 21.4817 107.358L29.2361 104.261C28.1367 102.079 26.5753 100.408 24.5519 99.2463C22.5285 98.085 20.3472 97.5044 18.008 97.5044Z" fill="#0066EE"/>
</svg>
