<svg width="188" height="44" viewBox="0 0 188 44" fill="none" xmlns="http://www.w3.org/2000/svg">
<path d="M5.264 40.224C4.23733 40.224 3.37867 40.014 2.688 39.594C1.99733 39.174 1.484 38.5813 1.148 37.816C0.802667 37.0693 0.63 36.15 0.63 35.058C0.63 33.994 0.802667 33.0747 1.148 32.3C1.484 31.5347 1.99733 30.942 2.688 30.522C3.37867 30.102 4.23733 29.892 5.264 29.892C5.908 29.892 6.49133 29.9853 7.014 30.172C7.546 30.3493 8.00333 30.6153 8.386 30.97C8.74067 31.2873 9.016 31.6747 9.212 32.132C9.408 32.58 9.51533 33.0747 9.534 33.616H8.302C8.246 32.8133 7.97067 32.1787 7.476 31.712C6.90667 31.2173 6.15533 30.97 5.222 30.97C4.48467 30.97 3.86867 31.1193 3.374 31.418C2.88867 31.7167 2.52467 32.1367 2.282 32.678C2.01133 33.3127 1.876 34.106 1.876 35.058C1.876 36.0193 2.01133 36.8127 2.282 37.438C2.534 37.9887 2.90267 38.4133 3.388 38.712C3.88267 39.0013 4.494 39.146 5.222 39.146C5.70733 39.146 6.14133 39.0853 6.524 38.964C6.916 38.8333 7.24267 38.6467 7.504 38.404C8.02667 37.9373 8.302 37.284 8.33 36.444H9.562C9.55267 37.0133 9.44533 37.5267 9.24 37.984C9.044 38.4413 8.76867 38.8333 8.414 39.16C8.05 39.5053 7.59733 39.7713 7.056 39.958C6.51467 40.1353 5.91733 40.224 5.264 40.224ZM14.3445 33.028C15.1939 33.028 15.8379 33.2707 16.2765 33.756C16.7245 34.232 16.9485 34.9413 16.9485 35.884V40H15.8285V36.094C15.8285 35.3753 15.6839 34.848 15.3945 34.512C15.1052 34.176 14.6619 34.008 14.0645 34.008C13.4299 34.008 12.9399 34.19 12.5945 34.554C12.2585 34.918 12.0905 35.4453 12.0905 36.136V40H10.9705V30.116H12.0905V34.12C12.5572 33.392 13.3085 33.028 14.3445 33.028ZM24.0891 34.372C24.2757 34.7733 24.3691 35.3053 24.3691 35.968V40H23.2491V39.034C22.7544 39.79 21.9144 40.168 20.7291 40.168C20.1504 40.168 19.6557 40.07 19.2451 39.874C18.8344 39.678 18.5451 39.3933 18.3771 39.02C18.2651 38.7493 18.2091 38.4507 18.2091 38.124C18.2091 37.7973 18.2651 37.508 18.3771 37.256C18.5917 36.78 18.9697 36.4533 19.5111 36.276C20.0617 36.0893 20.7617 35.996 21.6111 35.996H23.2491V35.772C23.2491 35.5667 23.2351 35.3847 23.2071 35.226C23.1791 35.0673 23.1324 34.9133 23.0671 34.764C22.8337 34.232 22.2831 33.966 21.4151 33.966C20.5284 33.966 19.9637 34.218 19.7211 34.722C19.6371 34.918 19.5951 35.1187 19.5951 35.324H18.4611C18.4797 34.9133 18.5497 34.582 18.6711 34.33C18.8577 33.8913 19.1844 33.5647 19.6511 33.35C20.1271 33.1353 20.7104 33.028 21.4011 33.028C22.1104 33.028 22.6844 33.14 23.1231 33.364C23.5711 33.5787 23.8931 33.9147 24.0891 34.372ZM21.0091 39.23C21.5131 39.23 21.9331 39.1413 22.2691 38.964C22.6144 38.7773 22.8664 38.5067 23.0251 38.152C23.1744 37.8253 23.2491 37.4147 23.2491 36.92V36.85H21.6951C21.1071 36.85 20.6171 36.906 20.2251 37.018C19.8424 37.1207 19.5904 37.3073 19.4691 37.578C19.4037 37.7273 19.3711 37.8767 19.3711 38.026C19.3711 38.194 19.4037 38.362 19.4691 38.53C19.5717 38.7727 19.7584 38.95 20.0291 39.062C20.2997 39.174 20.6264 39.23 21.0091 39.23ZM29.3426 33.028C30.1919 33.028 30.8359 33.2707 31.2746 33.756C31.7226 34.232 31.9466 34.9413 31.9466 35.884V40H30.8266V36.094C30.8266 35.3753 30.6819 34.848 30.3926 34.512C30.1032 34.176 29.6599 34.008 29.0626 34.008C28.4279 34.008 27.9379 34.19 27.5926 34.554C27.2566 34.918 27.0886 35.4453 27.0886 36.136V40H25.9686V33.196H27.0886V34.12C27.5552 33.392 28.3066 33.028 29.3426 33.028ZM39.8151 33.196V39.86C39.8151 40.476 39.7078 41.0127 39.4931 41.47C39.2598 41.974 38.8958 42.352 38.4011 42.604C37.9158 42.856 37.3045 42.982 36.5671 42.982C35.4471 42.982 34.6165 42.73 34.0751 42.226C33.6178 41.8153 33.3705 41.2647 33.3331 40.574H34.4951C34.5045 40.994 34.6585 41.3347 34.9571 41.596C35.1345 41.7547 35.3585 41.876 35.6291 41.96C35.8998 42.044 36.2078 42.086 36.5531 42.086C37.5425 42.086 38.1911 41.75 38.4991 41.078C38.6205 40.7607 38.6811 40.4107 38.6811 40.028V38.95C38.4291 39.342 38.0931 39.636 37.6731 39.832C37.2625 40.028 36.7958 40.126 36.2731 40.126C35.6198 40.126 35.0551 39.9813 34.5791 39.692C34.1031 39.3933 33.7485 38.978 33.5151 38.446C33.2725 37.9047 33.1511 37.284 33.1511 36.584C33.1511 35.8747 33.2725 35.2493 33.5151 34.708C33.7485 34.176 34.1031 33.7653 34.5791 33.476C35.0551 33.1773 35.6198 33.028 36.2731 33.028C36.7958 33.028 37.2671 33.1307 37.6871 33.336C38.1071 33.5413 38.4431 33.84 38.6951 34.232V33.196H39.8151ZM36.5251 39.16C36.9638 39.16 37.3418 39.0667 37.6591 38.88C37.9858 38.6933 38.2378 38.4227 38.4151 38.068C38.5925 37.704 38.6811 37.2653 38.6811 36.752V36.416C38.6811 35.9027 38.5925 35.4687 38.4151 35.114C38.2378 34.75 37.9858 34.4747 37.6591 34.288C37.3418 34.1013 36.9638 34.008 36.5251 34.008C36.0678 34.008 35.6711 34.106 35.3351 34.302C35.0085 34.498 34.7611 34.7827 34.5931 35.156C34.4251 35.5293 34.3411 36.0053 34.3411 36.584C34.3411 37.144 34.4251 37.62 34.5931 38.012C34.7611 38.3853 35.0131 38.67 35.3491 38.866C35.6851 39.062 36.0771 39.16 36.5251 39.16ZM46.1628 38.726C46.3121 38.586 46.4335 38.4227 46.5268 38.236C46.6201 38.04 46.6761 37.83 46.6948 37.606H47.8148C47.7588 38.3153 47.4881 38.8987 47.0028 39.356C46.7041 39.6173 46.3495 39.818 45.9388 39.958C45.5281 40.0887 45.0708 40.154 44.5668 40.154C43.8015 40.154 43.1481 40 42.6068 39.692C42.0655 39.384 41.6735 38.9453 41.4308 38.376C41.1975 37.9 41.0808 37.3073 41.0808 36.598C41.0808 36.234 41.1088 35.9073 41.1648 35.618C41.2208 35.3287 41.3095 35.058 41.4308 34.806C41.6828 34.246 42.0701 33.812 42.5928 33.504C43.1155 33.1867 43.7455 33.028 44.4828 33.028C45.2201 33.028 45.8455 33.182 46.3588 33.49C46.8815 33.798 47.2641 34.2227 47.5068 34.764C47.6375 35.0627 47.7261 35.3753 47.7728 35.702C47.8288 36.0287 47.8568 36.4113 47.8568 36.85H42.2148C42.2428 37.3447 42.3268 37.7507 42.4668 38.068C42.6348 38.4413 42.8961 38.7307 43.2508 38.936C43.6055 39.132 44.0395 39.23 44.5528 39.23C44.8888 39.23 45.1921 39.188 45.4628 39.104C45.7428 39.02 45.9761 38.894 46.1628 38.726ZM44.4968 33.966C43.4888 33.966 42.8121 34.358 42.4668 35.142C42.3548 35.4033 42.2801 35.688 42.2428 35.996H46.7088C46.6715 35.6507 46.5968 35.3427 46.4848 35.072C46.3261 34.708 46.0788 34.4327 45.7428 34.246C45.4068 34.0593 44.9915 33.966 44.4968 33.966ZM57.9304 33.196V39.86C57.9304 40.476 57.823 41.0127 57.6084 41.47C57.375 41.974 57.011 42.352 56.5164 42.604C56.031 42.856 55.4197 42.982 54.6824 42.982C53.5624 42.982 52.7317 42.73 52.1904 42.226C51.733 41.8153 51.4857 41.2647 51.4484 40.574H52.6104C52.6197 40.994 52.7737 41.3347 53.0724 41.596C53.2497 41.7547 53.4737 41.876 53.7444 41.96C54.015 42.044 54.323 42.086 54.6684 42.086C55.6577 42.086 56.3064 41.75 56.6144 41.078C56.7357 40.7607 56.7964 40.4107 56.7964 40.028V38.95C56.5444 39.342 56.2084 39.636 55.7884 39.832C55.3777 40.028 54.911 40.126 54.3884 40.126C53.735 40.126 53.1704 39.9813 52.6944 39.692C52.2184 39.3933 51.8637 38.978 51.6304 38.446C51.3877 37.9047 51.2664 37.284 51.2664 36.584C51.2664 35.8747 51.3877 35.2493 51.6304 34.708C51.8637 34.176 52.2184 33.7653 52.6944 33.476C53.1704 33.1773 53.735 33.028 54.3884 33.028C54.911 33.028 55.3824 33.1307 55.8024 33.336C56.2224 33.5413 56.5584 33.84 56.8104 34.232V33.196H57.9304ZM54.6404 39.16C55.079 39.16 55.457 39.0667 55.7744 38.88C56.101 38.6933 56.353 38.4227 56.5304 38.068C56.7077 37.704 56.7964 37.2653 56.7964 36.752V36.416C56.7964 35.9027 56.7077 35.4687 56.5304 35.114C56.353 34.75 56.101 34.4747 55.7744 34.288C55.457 34.1013 55.079 34.008 54.6404 34.008C54.183 34.008 53.7864 34.106 53.4504 34.302C53.1237 34.498 52.8764 34.7827 52.7084 35.156C52.5404 35.5293 52.4564 36.0053 52.4564 36.584C52.4564 37.144 52.5404 37.62 52.7084 38.012C52.8764 38.3853 53.1284 38.67 53.4644 38.866C53.8004 39.062 54.1924 39.16 54.6404 39.16ZM62.598 40.168C61.8514 40.168 61.2167 40.0093 60.694 39.692C60.1807 39.3747 59.798 38.936 59.546 38.376C59.3127 37.872 59.196 37.2793 59.196 36.598C59.196 35.9353 59.3127 35.3427 59.546 34.82C59.798 34.26 60.1807 33.8213 60.694 33.504C61.2167 33.1867 61.8514 33.028 62.598 33.028C63.3447 33.028 63.9747 33.1867 64.488 33.504C65.0107 33.8213 65.398 34.26 65.65 34.82C65.8834 35.3613 66 35.954 66 36.598C66 37.242 65.8834 37.8347 65.65 38.376C65.398 38.936 65.0107 39.3747 64.488 39.692C63.9747 40.0093 63.3447 40.168 62.598 40.168ZM62.598 39.188C63.0834 39.188 63.4894 39.09 63.816 38.894C64.1427 38.6887 64.39 38.404 64.558 38.04C64.726 37.6667 64.81 37.186 64.81 36.598C64.81 36.0007 64.726 35.52 64.558 35.156C64.39 34.792 64.1427 34.512 63.816 34.316C63.4894 34.1107 63.0834 34.008 62.598 34.008C62.1127 34.008 61.702 34.1107 61.366 34.316C61.0394 34.512 60.7967 34.792 60.638 35.156C60.47 35.52 60.386 36.0007 60.386 36.598C60.386 37.186 60.47 37.6667 60.638 38.04C60.806 38.404 61.0534 38.6887 61.38 38.894C61.7067 39.09 62.1127 39.188 62.598 39.188ZM72.8293 34.372C73.016 34.7733 73.1093 35.3053 73.1093 35.968V40H71.9893V39.034C71.4946 39.79 70.6546 40.168 69.4693 40.168C68.8906 40.168 68.396 40.07 67.9853 39.874C67.5746 39.678 67.2853 39.3933 67.1173 39.02C67.0053 38.7493 66.9493 38.4507 66.9493 38.124C66.9493 37.7973 67.0053 37.508 67.1173 37.256C67.332 36.78 67.71 36.4533 68.2513 36.276C68.802 36.0893 69.502 35.996 70.3513 35.996H71.9893V35.772C71.9893 35.5667 71.9753 35.3847 71.9473 35.226C71.9193 35.0673 71.8726 34.9133 71.8073 34.764C71.574 34.232 71.0233 33.966 70.1553 33.966C69.2686 33.966 68.704 34.218 68.4613 34.722C68.3773 34.918 68.3353 35.1187 68.3353 35.324H67.2013C67.22 34.9133 67.29 34.582 67.4113 34.33C67.598 33.8913 67.9246 33.5647 68.3913 33.35C68.8673 33.1353 69.4506 33.028 70.1413 33.028C70.8506 33.028 71.4246 33.14 71.8633 33.364C72.3113 33.5787 72.6333 33.9147 72.8293 34.372ZM69.7493 39.23C70.2533 39.23 70.6733 39.1413 71.0093 38.964C71.3546 38.7773 71.6066 38.5067 71.7653 38.152C71.9146 37.8253 71.9893 37.4147 71.9893 36.92V36.85H70.4353C69.8473 36.85 69.3573 36.906 68.9653 37.018C68.5826 37.1207 68.3306 37.3073 68.2093 37.578C68.144 37.7273 68.1113 37.8767 68.1113 38.026C68.1113 38.194 68.144 38.362 68.2093 38.53C68.312 38.7727 68.4986 38.95 68.7693 39.062C69.04 39.174 69.3666 39.23 69.7493 39.23ZM74.7088 30.116H75.8288V40H74.7088V30.116ZM82.0302 37.34C82.7768 36.1827 83.3275 35.3007 83.6822 34.694C84.0368 34.0873 84.2748 33.6207 84.3962 33.294C84.5175 32.9673 84.5782 32.664 84.5782 32.384C84.5782 31.3573 83.9622 30.844 82.7302 30.844C81.8248 30.844 81.2462 31.1427 80.9942 31.74C80.9288 31.8987 80.8822 32.0573 80.8542 32.216C80.8262 32.3653 80.8122 32.566 80.8122 32.818H79.6922C79.6922 32.4913 79.7108 32.216 79.7482 31.992C79.7855 31.7587 79.8508 31.5393 79.9442 31.334C80.1588 30.8673 80.5042 30.5127 80.9802 30.27C81.4655 30.018 82.0628 29.892 82.7722 29.892C83.7708 29.892 84.5222 30.1113 85.0262 30.55C85.5302 30.9887 85.7822 31.5907 85.7822 32.356C85.7822 32.6827 85.7215 33.014 85.6002 33.35C85.4788 33.686 85.2502 34.148 84.9142 34.736C84.5782 35.324 84.0462 36.192 83.3182 37.34H82.0302ZM82.6322 40.196C82.3988 40.196 82.2075 40.1307 82.0582 40C81.9182 39.86 81.8482 39.6733 81.8482 39.44C81.8482 39.2067 81.9182 39.02 82.0582 38.88C82.2075 38.74 82.3988 38.67 82.6322 38.67C82.8655 38.67 83.0568 38.74 83.2062 38.88C83.3555 39.02 83.4302 39.2067 83.4302 39.44C83.4302 39.664 83.3555 39.846 83.2062 39.986C83.0568 40.126 82.8655 40.196 82.6322 40.196Z" fill="#0066EE"/>
<path d="M8.338 21.374C6.69533 21.374 5.30933 21.0367 4.18 20.362C3.05067 19.6873 2.21467 18.7267 1.672 17.48C1.144 16.3213 0.88 14.906 0.88 13.234C0.88 11.5913 1.144 10.1687 1.672 8.966C2.22933 7.734 3.06533 6.78067 4.18 6.106C5.30933 5.43133 6.688 5.094 8.316 5.094C9.328 5.094 10.2593 5.24067 11.11 5.534C11.9607 5.82733 12.694 6.26 13.31 6.832C13.882 7.34533 14.3293 7.96867 14.652 8.702C14.9747 9.43533 15.1507 10.2347 15.18 11.1H12.518C12.4593 9.98533 12.0707 9.09067 11.352 8.416C10.56 7.712 9.51867 7.36 8.228 7.36C7.23067 7.36 6.38733 7.57267 5.698 7.998C5.00867 8.40867 4.488 8.99533 4.136 9.758C3.94533 10.2127 3.79867 10.726 3.696 11.298C3.608 11.8553 3.564 12.5007 3.564 13.234C3.564 13.982 3.608 14.642 3.696 15.214C3.784 15.7713 3.93067 16.27 4.136 16.71C4.488 17.4873 5.00867 18.0813 5.698 18.492C6.38733 18.9027 7.23067 19.108 8.228 19.108C8.888 19.108 9.48933 19.02 10.032 18.844C10.5747 18.6533 11.0367 18.3893 11.418 18.052C12.1367 17.4067 12.518 16.4973 12.562 15.324H15.224C15.2093 16.204 15.0407 17.0107 14.718 17.744C14.41 18.4773 13.97 19.108 13.398 19.636C12.782 20.208 12.0413 20.6407 11.176 20.934C10.3107 21.2273 9.36467 21.374 8.338 21.374ZM26.4553 12.112C26.7487 12.7573 26.8953 13.6153 26.8953 14.686V21H24.4533V19.79C23.676 20.7727 22.444 21.264 20.7573 21.264C19.804 21.264 18.9973 21.11 18.3373 20.802C17.6773 20.494 17.2153 20.0393 16.9513 19.438C16.7607 19.0127 16.6653 18.5287 16.6653 17.986C16.6653 17.4433 16.7533 16.974 16.9293 16.578C17.296 15.7713 17.9193 15.2213 18.7993 14.928C19.6793 14.62 20.816 14.466 22.2093 14.466H24.4533V14.18C24.4533 13.9013 24.4387 13.674 24.4093 13.498C24.38 13.3073 24.3213 13.1167 24.2333 12.926C23.9107 12.222 23.1627 11.87 21.9893 11.87C21.388 11.87 20.8967 11.9507 20.5153 12.112C20.134 12.2733 19.8627 12.53 19.7013 12.882C19.5987 13.146 19.5473 13.388 19.5473 13.608H17.0833C17.0833 12.992 17.186 12.4713 17.3913 12.046C18.022 10.638 19.5473 9.934 21.9673 9.934C23.1553 9.934 24.116 10.11 24.8493 10.462C25.5973 10.814 26.1327 11.364 26.4553 12.112ZM24.1893 17.854C24.3653 17.4287 24.4533 16.93 24.4533 16.358V16.226H22.3633C21.5567 16.226 20.8893 16.292 20.3613 16.424C19.8333 16.556 19.4887 16.798 19.3273 17.15C19.2393 17.326 19.1953 17.5313 19.1953 17.766C19.1953 18.0007 19.2393 18.2207 19.3273 18.426C19.474 18.734 19.7307 18.9613 20.0973 19.108C20.464 19.2547 20.8967 19.328 21.3953 19.328C22.0993 19.328 22.686 19.2033 23.1553 18.954C23.6247 18.7047 23.9693 18.338 24.1893 17.854ZM29.0952 5.468H31.5372V21H29.0952V5.468ZM38.8597 21.264C37.6277 21.264 36.5864 21.0073 35.7357 20.494C34.8851 19.9807 34.2544 19.2693 33.8437 18.36C33.4771 17.5827 33.2937 16.666 33.2937 15.61C33.2937 14.554 33.4771 13.63 33.8437 12.838C34.2544 11.9287 34.8851 11.2173 35.7357 10.704C36.5864 10.1907 37.6277 9.934 38.8597 9.934C40.0917 9.934 41.1331 10.1907 41.9837 10.704C42.8491 11.2173 43.4871 11.9287 43.8977 12.838C44.2644 13.6593 44.4477 14.5833 44.4477 15.61C44.4477 16.6073 44.2644 17.5313 43.8977 18.382C43.4871 19.2913 42.8491 20.0027 41.9837 20.516C41.1331 21.0147 40.0917 21.264 38.8597 21.264ZM38.8597 19.218C39.5197 19.218 40.0697 19.086 40.5097 18.822C40.9644 18.5433 41.3017 18.162 41.5217 17.678C41.7417 17.1793 41.8517 16.49 41.8517 15.61C41.8517 14.7153 41.7417 14.026 41.5217 13.542C41.3017 13.0433 40.9644 12.662 40.5097 12.398C40.0697 12.134 39.5197 12.002 38.8597 12.002C38.1997 12.002 37.6497 12.134 37.2097 12.398C36.7697 12.662 36.4397 13.0433 36.2197 13.542C35.9851 14.0553 35.8677 14.7447 35.8677 15.61C35.8677 16.4607 35.9851 17.15 36.2197 17.678C36.4397 18.162 36.7697 18.5433 37.2097 18.822C37.6497 19.086 38.1997 19.218 38.8597 19.218ZM51.4982 10.066C51.9236 10.066 52.2902 10.11 52.5982 10.198V12.354C52.2756 12.2807 51.9089 12.244 51.4982 12.244C50.5596 12.244 49.8482 12.53 49.3642 13.102C48.8949 13.6593 48.6602 14.4733 48.6602 15.544V21H46.2182V10.22H48.6382V11.474C49.2689 10.5353 50.2222 10.066 51.4982 10.066ZM55.2925 8.592C54.8525 8.592 54.4932 8.46733 54.2145 8.218C53.9359 7.954 53.7965 7.624 53.7965 7.228C53.7965 6.81733 53.9285 6.48733 54.1925 6.238C54.4712 5.974 54.8379 5.842 55.2925 5.842C55.7179 5.842 56.0625 5.974 56.3265 6.238C56.5905 6.48733 56.7225 6.81733 56.7225 7.228C56.7225 7.624 56.5832 7.954 56.3045 8.218C56.0405 8.46733 55.7032 8.592 55.2925 8.592ZM54.0385 10.22H56.4805V21H54.0385V10.22ZM66.1131 18.646C66.3038 18.47 66.4578 18.2573 66.5751 18.008C66.7071 17.7587 66.7878 17.5093 66.8171 17.26H69.2371C69.1344 18.3453 68.7091 19.24 67.9611 19.944C67.4771 20.3693 66.8904 20.6993 66.2011 20.934C65.5118 21.154 64.7564 21.264 63.9351 21.264C62.6738 21.264 61.5958 21.0147 60.7011 20.516C59.8211 20.0173 59.1758 19.3133 58.7651 18.404C58.4131 17.612 58.2371 16.6733 58.2371 15.588C58.2371 15.0307 58.2811 14.5247 58.3691 14.07C58.4571 13.6153 58.5891 13.19 58.7651 12.794C59.1758 11.8847 59.8064 11.1807 60.6571 10.682C61.5224 10.1833 62.5564 9.934 63.7591 9.934C64.9618 9.934 65.9884 10.1833 66.8391 10.682C67.7044 11.1807 68.3351 11.8773 68.7311 12.772C68.9511 13.2707 69.0978 13.7913 69.1711 14.334C69.2591 14.8767 69.3031 15.522 69.3031 16.27H60.7011C60.7451 16.9153 60.8551 17.4213 61.0311 17.788C61.2511 18.2867 61.6031 18.668 62.0871 18.932C62.5711 19.196 63.1724 19.328 63.8911 19.328C64.3604 19.328 64.7858 19.2693 65.1671 19.152C65.5484 19.0347 65.8638 18.866 66.1131 18.646ZM63.8031 11.892C62.4244 11.892 61.5004 12.4127 61.0311 13.454C60.8844 13.7767 60.7891 14.1213 60.7451 14.488H66.7951C66.7511 14.1067 66.6631 13.7327 66.5311 13.366C66.2964 12.882 65.9518 12.5153 65.4971 12.266C65.0424 12.0167 64.4778 11.892 63.8031 11.892ZM75.1242 21.33C74.0388 21.33 73.1295 21.154 72.3962 20.802C71.6775 20.45 71.1568 19.922 70.8342 19.218C70.5995 18.7047 70.4822 18.1033 70.4822 17.414H72.8582C72.8582 17.8247 72.9315 18.1693 73.0782 18.448C73.4008 19.152 74.0975 19.504 75.1682 19.504C76.2388 19.504 76.8988 19.2253 77.1482 18.668C77.2215 18.4773 77.2582 18.294 77.2582 18.118C77.2582 17.9127 77.2215 17.722 77.1482 17.546C77.0455 17.326 76.8768 17.15 76.6422 17.018C76.4222 16.886 76.1435 16.776 75.8062 16.688C75.4835 16.5853 75.0215 16.4753 74.4202 16.358C73.5988 16.1673 72.9022 15.918 72.3302 15.61C71.7582 15.2873 71.3475 14.8473 71.0982 14.29C70.9515 13.9527 70.8782 13.5567 70.8782 13.102C70.8782 12.618 70.9662 12.1927 71.1422 11.826C71.4208 11.2247 71.9048 10.7627 72.5942 10.44C73.2835 10.1027 74.1122 9.934 75.0802 9.934C76.0628 9.934 76.8915 10.0953 77.5662 10.418C78.2555 10.7407 78.7542 11.2173 79.0622 11.848C79.2528 12.288 79.3482 12.816 79.3482 13.432H77.0382C77.0382 13.1093 76.9795 12.8087 76.8622 12.53C76.7155 12.2367 76.4808 12.0167 76.1582 11.87C75.8502 11.7087 75.4762 11.628 75.0362 11.628C74.1415 11.628 73.5768 11.87 73.3422 12.354C73.2835 12.486 73.2542 12.6547 73.2542 12.86C73.2542 13.0507 73.2835 13.1973 73.3422 13.3C73.4448 13.5347 73.6282 13.7253 73.8922 13.872C74.1562 14.0187 74.4348 14.136 74.7282 14.224C75.0362 14.2973 75.4835 14.4 76.0702 14.532C76.9795 14.7667 77.7202 15.0453 78.2922 15.368C78.8788 15.676 79.3042 16.1087 79.5682 16.666C79.7148 17.0033 79.7882 17.4067 79.7882 17.876C79.7882 18.3893 79.7002 18.866 79.5242 19.306C79.2162 19.966 78.6662 20.472 77.8742 20.824C77.0968 21.1613 76.1802 21.33 75.1242 21.33ZM90.0247 14.378H88.1767V21H85.6467V5.468H91.7407C94.2047 5.468 95.7814 6.238 96.4707 7.778C96.7347 8.35 96.8667 9.02467 96.8667 9.802C96.8667 10.6233 96.742 11.3273 96.4927 11.914C96.17 12.6327 95.708 13.19 95.1067 13.586C94.5054 13.982 93.75 14.2313 92.8407 14.334L97.9007 21H94.9307L90.0247 14.378ZM88.1767 12.266H91.0807C91.902 12.266 92.5547 12.1707 93.0387 11.98C93.5227 11.7893 93.86 11.4887 94.0507 11.078C94.212 10.726 94.2927 10.3227 94.2927 9.868C94.2927 9.44267 94.2267 9.08333 94.0947 8.79C93.8894 8.35 93.5374 8.042 93.0387 7.866C92.5547 7.67533 91.902 7.58 91.0807 7.58H88.1767V12.266ZM105.881 18.646C106.071 18.47 106.225 18.2573 106.343 18.008C106.475 17.7587 106.555 17.5093 106.585 17.26H109.005C108.902 18.3453 108.477 19.24 107.729 19.944C107.245 20.3693 106.658 20.6993 105.969 20.934C105.279 21.154 104.524 21.264 103.703 21.264C102.441 21.264 101.363 21.0147 100.469 20.516C99.5887 20.0173 98.9433 19.3133 98.5327 18.404C98.1807 17.612 98.0047 16.6733 98.0047 15.588C98.0047 15.0307 98.0487 14.5247 98.1367 14.07C98.2247 13.6153 98.3567 13.19 98.5327 12.794C98.9433 11.8847 99.574 11.1807 100.425 10.682C101.29 10.1833 102.324 9.934 103.527 9.934C104.729 9.934 105.756 10.1833 106.607 10.682C107.472 11.1807 108.103 11.8773 108.499 12.772C108.719 13.2707 108.865 13.7913 108.939 14.334C109.027 14.8767 109.071 15.522 109.071 16.27H100.469C100.513 16.9153 100.623 17.4213 100.799 17.788C101.019 18.2867 101.371 18.668 101.855 18.932C102.339 19.196 102.94 19.328 103.659 19.328C104.128 19.328 104.553 19.2693 104.935 19.152C105.316 19.0347 105.631 18.866 105.881 18.646ZM103.571 11.892C102.192 11.892 101.268 12.4127 100.799 13.454C100.652 13.7767 100.557 14.1213 100.513 14.488H106.563C106.519 14.1067 106.431 13.7327 106.299 13.366C106.064 12.882 105.719 12.5153 105.265 12.266C104.81 12.0167 104.245 11.892 103.571 11.892ZM123.67 9.934C124.946 9.934 125.928 10.3153 126.618 11.078C127.322 11.826 127.674 12.9187 127.674 14.356V21H125.254V14.84C125.254 13.8573 125.063 13.1387 124.682 12.684C124.3 12.2293 123.728 12.002 122.966 12.002C122.144 12.002 121.521 12.2513 121.096 12.75C120.67 13.2487 120.458 13.9747 120.458 14.928V21H118.038V14.84C118.038 13.8573 117.847 13.1387 117.466 12.684C117.099 12.2293 116.527 12.002 115.75 12.002C114.943 12.002 114.327 12.2513 113.902 12.75C113.476 13.2487 113.264 13.9747 113.264 14.928V21H110.822V10.22H113.264V11.364C113.997 10.4107 115.082 9.934 116.52 9.934C117.37 9.934 118.096 10.0953 118.698 10.418C119.314 10.7407 119.768 11.2247 120.062 11.87C120.428 11.21 120.905 10.726 121.492 10.418C122.093 10.0953 122.819 9.934 123.67 9.934ZM139.162 12.112C139.456 12.7573 139.602 13.6153 139.602 14.686V21H137.16V19.79C136.383 20.7727 135.151 21.264 133.464 21.264C132.511 21.264 131.704 21.11 131.044 20.802C130.384 20.494 129.922 20.0393 129.658 19.438C129.468 19.0127 129.372 18.5287 129.372 17.986C129.372 17.4433 129.46 16.974 129.636 16.578C130.003 15.7713 130.626 15.2213 131.506 14.928C132.386 14.62 133.523 14.466 134.916 14.466H137.16V14.18C137.16 13.9013 137.146 13.674 137.116 13.498C137.087 13.3073 137.028 13.1167 136.94 12.926C136.618 12.222 135.87 11.87 134.696 11.87C134.095 11.87 133.604 11.9507 133.222 12.112C132.841 12.2733 132.57 12.53 132.408 12.882C132.306 13.146 132.254 13.388 132.254 13.608H129.79C129.79 12.992 129.893 12.4713 130.098 12.046C130.729 10.638 132.254 9.934 134.674 9.934C135.862 9.934 136.823 10.11 137.556 10.462C138.304 10.814 138.84 11.364 139.162 12.112ZM136.896 17.854C137.072 17.4287 137.16 16.93 137.16 16.358V16.226H135.07C134.264 16.226 133.596 16.292 133.068 16.424C132.54 16.556 132.196 16.798 132.034 17.15C131.946 17.326 131.902 17.5313 131.902 17.766C131.902 18.0007 131.946 18.2207 132.034 18.426C132.181 18.734 132.438 18.9613 132.804 19.108C133.171 19.2547 133.604 19.328 134.102 19.328C134.806 19.328 135.393 19.2033 135.862 18.954C136.332 18.7047 136.676 18.338 136.896 17.854ZM143.056 8.592C142.616 8.592 142.257 8.46733 141.978 8.218C141.7 7.954 141.56 7.624 141.56 7.228C141.56 6.81733 141.692 6.48733 141.956 6.238C142.235 5.974 142.602 5.842 143.056 5.842C143.482 5.842 143.826 5.974 144.09 6.238C144.354 6.48733 144.486 6.81733 144.486 7.228C144.486 7.624 144.347 7.954 144.068 8.218C143.804 8.46733 143.467 8.592 143.056 8.592ZM141.802 10.22H144.244V21H141.802V10.22ZM152.337 9.934C153.657 9.934 154.676 10.308 155.395 11.056C156.113 11.804 156.473 12.8967 156.473 14.334V21H154.053V14.818C154.053 13.85 153.855 13.1387 153.459 12.684C153.063 12.2293 152.454 12.002 151.633 12.002C150.767 12.002 150.107 12.2513 149.653 12.75C149.198 13.234 148.971 13.96 148.971 14.928V21H146.529V10.22H148.971V11.43C149.719 10.4327 150.841 9.934 152.337 9.934ZM159.921 8.592C159.481 8.592 159.122 8.46733 158.843 8.218C158.565 7.954 158.425 7.624 158.425 7.228C158.425 6.81733 158.557 6.48733 158.821 6.238C159.1 5.974 159.467 5.842 159.921 5.842C160.347 5.842 160.691 5.974 160.955 6.238C161.219 6.48733 161.351 6.81733 161.351 7.228C161.351 7.624 161.212 7.954 160.933 8.218C160.669 8.46733 160.332 8.592 159.921 8.592ZM158.667 10.22H161.109V21H158.667V10.22ZM169.202 9.934C170.522 9.934 171.541 10.308 172.26 11.056C172.979 11.804 173.338 12.8967 173.338 14.334V21H170.918V14.818C170.918 13.85 170.72 13.1387 170.324 12.684C169.928 12.2293 169.319 12.002 168.498 12.002C167.633 12.002 166.973 12.2513 166.518 12.75C166.063 13.234 165.836 13.96 165.836 14.928V21H163.394V10.22H165.836V11.43C166.584 10.4327 167.706 9.934 169.202 9.934ZM185.939 10.22V20.648C185.939 21.6747 185.763 22.5473 185.411 23.266C184.692 24.894 183.086 25.708 180.593 25.708C178.759 25.708 177.381 25.2973 176.457 24.476C175.767 23.8307 175.357 22.9653 175.225 21.88H177.755C177.784 22.1293 177.85 22.364 177.953 22.584C178.055 22.8187 178.202 23.0167 178.393 23.178C178.906 23.618 179.639 23.838 180.593 23.838C181.957 23.838 182.837 23.376 183.233 22.452C183.409 22.056 183.497 21.5867 183.497 21.044V19.68C183.086 20.1787 182.58 20.56 181.979 20.824C181.377 21.0733 180.703 21.198 179.955 21.198C178.913 21.198 178.019 20.9633 177.271 20.494C176.523 20.0247 175.958 19.3647 175.577 18.514C175.195 17.6633 175.005 16.6807 175.005 15.566C175.005 14.4367 175.195 13.4467 175.577 12.596C175.958 11.7453 176.515 11.0927 177.249 10.638C177.997 10.1687 178.899 9.934 179.955 9.934C180.717 9.934 181.399 10.066 182.001 10.33C182.617 10.594 183.13 10.9827 183.541 11.496V10.22H185.939ZM180.571 19.152C181.48 19.152 182.191 18.866 182.705 18.294C183.233 17.7073 183.497 16.886 183.497 15.83V15.302C183.497 14.246 183.233 13.432 182.705 12.86C182.191 12.288 181.48 12.002 180.571 12.002C179.94 12.002 179.397 12.134 178.943 12.398C178.503 12.6473 178.165 13.0287 177.931 13.542C177.711 14.0407 177.601 14.7153 177.601 15.566C177.601 16.3727 177.711 17.0547 177.931 17.612C178.165 18.1107 178.51 18.492 178.965 18.756C179.419 19.02 179.955 19.152 180.571 19.152Z" fill="#363636"/>
</svg>
