<svg width="80" height="80" viewBox="0 0 80 80" fill="none" xmlns="http://www.w3.org/2000/svg">
<path d="M59.12 13.509H27.88C24.6326 13.509 22 16.1416 22 19.389V67.629C22 70.8764 24.6326 73.509 27.88 73.509H59.12C62.3674 73.509 65 70.8764 65 67.629V19.389C65 16.1416 62.3674 13.509 59.12 13.509Z" fill="#0097FF"/>
<path fill-rule="evenodd" clip-rule="evenodd" d="M40.1773 51.154L37.3773 47.065L36.6803 46.493C36.6803 46.493 36.6903 46.053 36.8913 46.005C37.1113 45.952 37.5213 46.315 37.4553 46.2L37.6723 46.842L38.9253 48.403L40.3253 50.113L40.7673 50.633C40.7673 50.633 40.9883 51.005 41.2833 50.93C41.5773 50.856 41.6513 50.41 41.6513 50.41C41.6513 50.41 41.3213 49.912 41.3573 49.741C41.3933 49.571 41.8313 49.503 42.0203 49.37C42.2083 49.236 42.5103 49.034 42.7823 49.065C43.0543 49.095 43.2043 49.181 43.3863 49.327C43.6683 49.552 43.5663 49.89 43.5663 50.113C43.5663 50.336 43.1253 50.707 43.1253 50.707L42.6093 51.005L42.4623 51.376L43.0523 51.005L43.6413 50.782C43.6413 50.782 44.7463 50.782 45.0413 50.707C45.3353 50.633 46.5883 50.038 46.5883 50.038C46.5883 50.038 47.7673 49.741 47.9143 49.741C48.0623 49.741 48.3713 49.595 48.5773 49.741C48.7843 49.888 48.7303 49.942 48.6513 50.113C48.5723 50.283 48.5033 50.357 48.3563 50.336C48.2103 50.314 47.9883 50.187 47.9883 50.187L47.1043 50.633L46.4403 50.782L45.8513 51.079L44.8933 51.451L43.5673 51.822C43.5673 51.822 42.9773 52.492 42.9043 52.863C42.8303 53.235 42.4623 54.053 42.4623 54.053L42.6823 54.573C42.6823 54.573 43.1983 55.093 43.2723 55.539C43.3463 55.985 43.5673 55.837 43.8623 55.985C44.1563 56.134 44.5983 56.431 44.5983 56.431L45.3353 57.026L46.0723 57.546L46.8093 57.843C46.8093 57.843 47.6933 58.066 47.9883 58.215C48.2833 58.363 49.2403 58.884 49.2403 58.884L49.9033 59.33L50.7133 59.553H51.4513L51.7453 59.999C51.7453 59.999 51.7453 60.296 51.3773 60.222C51.0093 60.148 50.4933 60.148 50.4933 60.148L50.0513 60.074C50.0513 60.074 49.4613 59.627 49.1673 59.553C48.8723 59.478 47.3993 59.033 47.3993 59.033L45.4093 58.363C45.4093 58.363 43.4933 57.546 43.0513 57.546C42.6093 57.546 41.8723 57.472 41.6513 57.472C41.4303 57.472 40.3253 58.215 40.3253 58.215C40.3253 58.215 39.1453 58.81 38.8513 58.884C38.5573 58.959 37.5253 59.776 37.1573 59.924C36.7883 60.074 35.8303 60.296 35.6093 60.371C35.3893 60.445 33.9893 60.593 33.9893 60.593L33.4723 60.891C33.4723 60.891 33.1573 61.423 33.0303 61.486C32.9033 61.548 32.5243 61.468 32.4633 61.416C32.4033 61.362 32.4603 61.304 32.2393 61.304C32.0183 61.304 31.5723 61.408 31.4833 61.411C31.3943 61.415 31.0193 61.332 31.0003 61.183C30.9823 61.033 31.7533 60.823 31.7533 60.823L32.4553 60.452C32.4553 60.452 32.7703 60.292 32.9723 60.248C33.1883 60.201 33.6203 60.074 33.6203 60.074L35.1673 59.478L36.1993 59.033C36.1993 59.033 36.9353 58.363 37.2293 58.215C37.5253 58.067 38.4833 57.472 38.4833 57.472L39.5143 56.802C39.6703 56.702 40.0303 56.728 40.0303 56.432C40.0303 56.134 40.1773 55.316 40.1773 55.316L40.2853 54.185C40.2853 54.185 40.1043 53.458 40.1043 53.235C40.1043 53.012 39.8883 52.638 40.1043 52.343C40.3203 52.047 40.1773 51.673 40.1773 51.673V51.153V51.154Z" fill="white"/>
<path d="M50 20H34C32.8954 20 32 20.8954 32 22C32 23.1046 32.8954 24 34 24H50C51.1046 24 52 23.1046 52 22C52 20.8954 51.1046 20 50 20Z" fill="white"/>
<path d="M50 28H34C32.8954 28 32 28.8954 32 30C32 31.1046 32.8954 32 34 32H50C51.1046 32 52 31.1046 52 30C52 28.8954 51.1046 28 50 28Z" fill="white"/>
<path d="M50 36H34C32.8954 36 32 36.8954 32 38C32 39.1046 32.8954 40 34 40H50C51.1046 40 52 39.1046 52 38C52 36.8954 51.1046 36 50 36Z" fill="white"/>
<path d="M19 14.065V64.935C19 65.4654 19.2107 65.9741 19.5858 66.3492C19.9609 66.7243 20.4696 66.935 21 66.935H56C56.5304 66.935 57.0391 66.7243 57.4142 66.3492C57.7893 65.9741 58 65.4654 58 64.935V14.065C58 13.5346 57.7893 13.0259 57.4142 12.6508C57.0391 12.2757 56.5304 12.065 56 12.065H21C20.4696 12.065 19.9609 12.2757 19.5858 12.6508C19.2107 13.0259 19 13.5346 19 14.065ZM19 8H58C60.21 8 62 9.82 62 12.065V66.935C62 69.18 60.21 71 58 71H19C16.79 71 15 69.18 15 66.935V12.065C15 9.82 16.79 8 19 8Z" fill="#005FA1"/>
<path d="M24 27C26.2091 27 28 25.2091 28 23C28 20.7909 26.2091 19 24 19C21.7909 19 20 20.7909 20 23C20 25.2091 21.7909 27 24 27Z" fill="#005FA1"/>
<path fill-rule="evenodd" clip-rule="evenodd" d="M17 22H23V25H17V22Z" fill="#005FA1"/>
<path d="M24 42C26.2091 42 28 40.2091 28 38C28 35.7909 26.2091 34 24 34C21.7909 34 20 35.7909 20 38C20 40.2091 21.7909 42 24 42Z" fill="#005FA1"/>
<path fill-rule="evenodd" clip-rule="evenodd" d="M17 37H23V40H17V37Z" fill="#005FA1"/>
<path d="M24 58C26.2091 58 28 56.2091 28 54C28 51.7909 26.2091 50 24 50C21.7909 50 20 51.7909 20 54C20 56.2091 21.7909 58 24 58Z" fill="#005FA1"/>
<path fill-rule="evenodd" clip-rule="evenodd" d="M17 53H23V56H17V53Z" fill="#005FA1"/>
</svg>
