<svg width="80" height="80" viewBox="0 0 80 80" fill="none" xmlns="http://www.w3.org/2000/svg">
<path d="M44.7214 20.8389L44.7213 20.8386C44.6332 20.553 44.5352 20.2192 44.4305 19.8623C44.254 19.2611 44.0584 18.5948 43.859 17.9846C43.532 16.9834 43.1264 15.9046 42.5937 15.0153C42.0854 14.1668 41.282 13.1879 40.0337 12.9046C38.7075 12.6036 37.4704 13.2057 36.4082 14.1658L36.4081 14.1659C33.6585 16.6515 33.8797 20.1277 34.9658 23.649C35.1436 24.2253 35.2916 24.7757 35.4398 25.3271C35.5034 25.5635 35.567 25.8001 35.6331 26.039C35.8413 26.7925 36.077 27.5811 36.3958 28.2553C36.7116 28.923 37.1937 29.6657 38.0041 30.1156C38.8655 30.5938 39.8208 30.5932 40.7558 30.3181L40.7563 30.3179C44.553 29.1995 45.9088 24.6924 44.7214 20.8389Z" fill="white" stroke="#005FA1" stroke-width="3.01"/>
<path fill-rule="evenodd" clip-rule="evenodd" d="M5.53586 31.667L4 38.4934C4 38.4934 45.5546 61.0879 47.011 61.667C48.4674 62.2462 57.4428 65.6588 61.6517 64.8874C65.8605 64.116 68.75 61.667 68.75 61.667C68.75 61.667 58.2388 62.083 50.4921 58.2688C42.7453 54.4545 5.53586 31.667 5.53586 31.667Z" fill="white"/>
<path fill-rule="evenodd" clip-rule="evenodd" d="M6.64258 34.8038C6.64258 34.8038 16.5304 41.0109 20.7299 43.6262C31.9398 50.6072 42.5209 57.6163 49.8296 60.6504C64.8998 66.9065 71.4907 65.4092 74.6871 62.3951C77.8834 59.381 80.1778 54.7087 74.6871 51.1982C69.1963 47.6877 70.6415 50.9606 63.7059 46.047C56.7703 41.1334 46.6063 25.5616 45.8906 22.803C45.1749 20.0444 38.9267 27.9179 35.1844 26.5844C31.4421 25.251 29.5728 25.9814 28.8358 22.803C28.0988 19.6246 27.304 14.7482 26.1337 13.0035C24.9634 11.2588 22.1512 7.98574 17.2334 13.0035C12.3157 18.0212 8.05821 29.5248 8.05821 29.5248L6.64258 34.8038Z" fill="#0097FF"/>
<path d="M43.561 22.7493L75.0992 51.8531M3.99922 38.6004L2.51998 38.3231C2.40393 38.9422 2.68569 39.5681 3.2261 39.8917L3.99922 38.6004ZM3.99922 38.6004C3.2261 39.8917 3.22629 39.8918 3.22661 39.892L3.22794 39.8928L3.23307 39.8958L3.25308 39.9078L3.33158 39.9547L3.63757 40.1371C3.9059 40.2969 4.30045 40.5313 4.8063 40.8306C5.81798 41.4292 7.27498 42.2872 9.05788 43.3261C12.6231 45.4035 17.4942 48.2056 22.7151 51.1026C27.9338 53.9984 33.5132 56.9951 38.4921 59.459C43.4345 61.9049 47.8976 63.8831 50.8371 64.6766C56.4412 66.1894 59.8325 66.6548 62.5422 66.4647C64.6943 66.3137 66.3913 65.7365 68.2339 65.1098C68.6962 64.9526 69.1676 64.7922 69.6577 64.6347H69.6579C71.9596 63.8946 74.3708 62.0244 75.7308 59.7668C76.4213 58.6206 76.8922 57.2886 76.8598 55.8853C76.8266 54.4463 76.265 53.0534 75.0992 51.8531L3.99922 38.6004ZM3.99922 38.6004C2.51998 38.3231 2.52005 38.3228 2.52012 38.3224L2.52035 38.3212L2.52105 38.3175L2.52348 38.3046L2.53248 38.2578C2.54031 38.2172 2.55183 38.1582 2.56707 38.0818C2.59755 37.9289 2.64293 37.7061 2.7035 37.4213C2.82461 36.8517 3.0066 36.0334 3.25185 35.0292C3.74192 33.0224 4.48676 30.2643 5.50638 27.2604C7.51738 21.3358 10.6977 14.141 15.3203 10.0522C17.3896 8.22193 19.326 7.34301 21.1424 7.51617C23.003 7.69353 24.24 8.92067 25.0099 10.1287C25.7812 11.339 26.2313 12.745 26.4888 13.7847C26.6205 14.3163 26.7082 14.7787 26.7634 15.1109C26.791 15.2775 26.8107 15.4125 26.8238 15.5084C26.8303 15.5564 26.8352 15.5948 26.8386 15.6225L26.8427 15.656L26.8439 15.6667L26.8443 15.6704L26.8445 15.6719C26.8445 15.6725 26.8446 15.6731 25.3488 15.839L75.0992 51.8531L3.99922 38.6004ZM43.561 22.7493L44.8357 21.949C44.5687 21.5238 44.1073 21.2597 43.6054 21.2449C43.105 21.2302 42.6302 21.4652 42.3384 21.8717L42.3381 21.8722C42.3378 21.8726 42.3375 21.873 42.3372 21.8734C42.3369 21.8737 42.3367 21.874 42.3365 21.8743C42.3363 21.8746 42.336 21.875 42.3358 21.8753L42.3342 21.8775C42.3289 21.8846 42.319 21.8979 42.3046 21.9169C42.2757 21.9549 42.2286 22.0155 42.1643 22.0943C42.0354 22.2522 41.8385 22.4813 41.5799 22.7484C41.0585 23.2867 40.3089 23.9554 39.3824 24.5083C37.5734 25.5878 35.1381 26.2225 32.2109 24.5783C29.1897 22.8813 27.8819 20.686 27.3011 18.9599C27.0061 18.0834 26.8943 17.312 26.8558 16.7688C26.8366 16.498 26.8358 16.2867 26.8391 16.1511C26.8407 16.0834 26.8433 16.0349 26.8451 16.0076C26.846 15.994 26.8466 15.9858 26.8469 15.9831C26.8469 15.983 26.8469 15.983 26.8469 15.983C26.847 15.9817 26.847 15.9818 26.8468 15.9833L26.8465 15.9866L26.8463 15.9891L43.561 22.7493ZM43.561 22.7493C44.8357 21.949 44.8357 21.9491 44.8357 21.9492L44.8361 21.9497L44.8377 21.9523L44.8444 21.9629L44.8714 22.0059L44.9785 22.1755C45.0727 22.3246 45.2119 22.5442 45.3908 22.8251C45.7486 23.3869 46.2653 24.1936 46.8996 25.1714C48.1687 27.1277 49.9062 29.765 51.7825 32.4935C53.6611 35.2253 55.668 38.0325 57.4773 40.3351C58.3823 41.4868 59.2264 42.4976 59.9719 43.3035C60.7344 44.128 61.3305 44.6683 61.7413 44.9417C63.5118 46.1193 65.3393 46.7785 67.301 47.4861C67.6325 47.6057 67.9679 47.7266 68.3074 47.8517C70.6004 48.6963 73.0252 49.7167 75.0992 51.8531L43.561 22.7493Z" stroke="#005FA1" stroke-width="3.01" stroke-linecap="round" stroke-linejoin="round"/>
<path d="M6.64258 23.667C17.6247 28.5301 20.7 33.8711 19.6699 38.3337" stroke="#005FA1" stroke-width="2.71237"/>
<path d="M75.3576 52.2518C64.6044 53.5431 58.2084 53.8017 54.2148 47.667" stroke="#005FA1" stroke-width="2.71237"/>
<path d="M5.32141 30.4649V29.3899H4.96299L4.67628 29.605L5.32141 30.4649ZM4.74712 32.4486L4.17185 33.3568L4.17319 33.3576L4.74712 32.4486ZM5.90815 30.639L5.32063 31.5392L5.32814 31.5441L5.33572 31.5489L5.90815 30.639ZM5.92165 30.6475L5.34923 31.5574L5.34957 31.5576L5.92165 30.6475ZM6.00423 30.6994L5.43214 31.6095L5.4325 31.6097L6.00423 30.6994ZM6.32784 30.9026L5.75611 31.813L5.75629 31.8131L6.32784 30.9026ZM7.56225 31.6768L8.13305 30.7658L7.56225 31.6768ZM12.0126 34.4591L12.5816 33.547L12.0126 34.4591ZM25.9051 43.0693L26.4683 42.1537L25.9051 43.0693ZM40.8604 52.1369L41.4086 51.2122L40.8604 52.1369ZM50.076 57.2942L50.5022 56.3072L50.076 57.2942ZM50.0761 57.2942L50.5023 56.3073H50.5022L50.0761 57.2942ZM64.4245 60.5853L64.552 59.5179L64.4245 60.5853ZM70.3492 61.1323L70.4198 60.0596L70.3492 61.1323ZM72.1144 61.2329L72.1648 60.159L72.1144 61.2329ZM72.5883 61.2534L72.5465 62.3276H72.5483L72.5883 61.2534ZM72.7094 61.2579L72.6694 62.3321L72.6726 62.3323L72.7094 61.2579ZM72.7393 61.2589L72.7025 62.3333H72.7039L72.7393 61.2589ZM72.7464 61.2591L72.7821 60.1847H72.7817L72.7464 61.2591ZM72.7479 61.2592L72.7122 62.3336L72.7172 62.3338L72.7479 61.2592ZM72.7482 61.2592L73.4955 60.4865L73.1958 60.1965L72.7789 60.1846L72.7482 61.2592ZM72.887 63.3947L73.0596 64.4557L73.4695 64.389L73.728 64.0642L72.887 63.3947ZM72.6563 63.4073L72.7132 62.3338L72.7032 62.3333L72.6931 62.333L72.6563 63.4073ZM72.634 63.4066L72.594 64.4808L72.5971 64.4809L72.634 63.4066ZM72.5047 63.4018L72.463 64.4759L72.4648 64.476L72.5047 63.4018ZM72.0135 63.3805L71.963 64.4543L72.0135 63.3805ZM70.2079 63.2776L70.2786 62.205L70.2079 63.2776ZM64.1695 62.7202L64.042 63.7876L64.1695 62.7202ZM49.2237 59.268L48.6686 60.1886L48.7308 60.2261L48.7974 60.2549L49.2237 59.268ZM4.74978 32.4503L4.17584 33.3593L4.17684 33.3599L4.74978 32.4503ZM4.75573 32.4541L4.1828 33.3637L4.1833 33.364L4.75573 32.4541ZM4.77709 32.4675L4.20466 33.3774L4.205 33.3776L4.77709 32.4675ZM4.8603 32.5198L4.28821 33.4299L4.28857 33.4302L4.8603 32.5198ZM5.18473 32.7236L4.613 33.6339L4.61317 33.634L5.18473 32.7236ZM6.42064 33.4986L5.84984 34.4096L6.42064 33.4986ZM10.8746 36.2832L10.3055 37.1952L10.8746 36.2832ZM24.7788 44.9007L24.2156 45.8163L24.7788 44.9007ZM49.2236 59.268L48.7974 60.2549L49.7477 58.3294L49.2236 59.268ZM5.89654 30.6317L5.33454 31.5481L6.46982 29.7223L5.89654 30.6317ZM5.89652 30.6317L5.32227 31.5404L5.32837 31.5443L5.33452 31.5481L5.89652 30.6317ZM49.3592 28.8853L49.9265 29.7984L49.3592 28.8853ZM49.705 27.4048L48.7918 27.9721L49.705 27.4048ZM42.8743 32.9142L43.4416 33.8274L42.8743 32.9142ZM41.7396 31.088L42.3069 32.0011L41.7396 31.088ZM48.2245 27.059L48.7918 27.9721L48.2245 27.059ZM50.7721 32.9307L51.3133 33.8596L50.7721 32.9307ZM51.1599 31.4607L50.231 32.0018L51.1599 31.4607ZM45.7588 35.8514L45.2177 34.9225L45.7588 35.8514ZM44.2888 35.4636L45.2177 34.9225L44.2888 35.4636ZM44.6766 33.9936L45.2177 34.9225L44.6766 33.9936ZM49.6899 31.073L49.1487 30.1441L49.6899 31.073ZM53.6829 35.8514L54.224 36.7802L53.6829 35.8514ZM54.0706 34.3814L53.1417 34.9225L54.0706 34.3814ZM48.6696 38.772L48.1284 37.8431L48.6696 38.772ZM47.1996 38.3843L48.1284 37.8431L47.1996 38.3843ZM47.5873 36.9143L48.1284 37.8431L47.5873 36.9143ZM52.6006 33.9936L52.0595 33.0648L52.6006 33.9936ZM29.2804 24.6096L29.7972 25.5522L29.2804 24.6096ZM29.7062 23.1502L30.6488 22.6333L29.7062 23.1502ZM16.8772 31.4102L17.3941 32.3528L16.8772 31.4102ZM15.4178 30.9844L16.3604 30.4676L15.4178 30.9844ZM15.8436 29.525L16.3604 30.4676L15.8436 29.525ZM28.2467 22.7244L27.7299 21.7818L28.2467 22.7244ZM60.9614 45.7041L61.4096 46.6812L60.9614 45.7041ZM61.4904 44.2788L60.5133 44.727L61.4904 44.2788ZM41.8502 54.47L41.4021 53.4929L41.8502 54.47ZM40.425 53.941L39.4478 54.3892L40.425 53.941ZM40.9539 52.5157L40.5057 51.5386L40.9539 52.5157ZM60.0651 43.7498L60.5133 44.727L60.0651 43.7498ZM4.67628 29.605C3.84015 30.2323 3.596 31.068 3.57236 31.707C3.56092 32.0161 3.59927 32.2826 3.63984 32.4721C3.6604 32.5682 3.68241 32.6486 3.70113 32.7097C3.71049 32.7402 3.71931 32.7669 3.72714 32.7893C3.73096 32.8003 3.73508 32.8117 3.73939 32.8232C3.74131 32.8283 3.74459 32.8369 3.74872 32.8472C3.7503 32.8512 3.75492 32.8627 3.7612 32.8771C3.76355 32.8825 3.77157 32.901 3.78293 32.924C3.78965 32.9374 3.80887 32.9733 3.82174 32.9957C3.85151 33.0432 4.01544 33.2362 4.17185 33.3568L5.3224 31.5405C5.4788 31.6611 5.64272 31.854 5.67248 31.9015C5.68534 31.9239 5.70454 31.9598 5.71124 31.9731C5.72256 31.9961 5.73053 32.0144 5.73281 32.0197C5.73895 32.0338 5.74338 32.0448 5.74473 32.0482C5.74837 32.0573 5.75097 32.0642 5.75201 32.0669C5.75456 32.0737 5.75615 32.0782 5.7568 32.0801C5.75826 32.0843 5.75813 32.0841 5.75687 32.08C5.75436 32.0719 5.74853 32.0516 5.74222 32.0221C5.72905 31.9606 5.71756 31.8764 5.72089 31.7865C5.72416 31.698 5.7411 31.6191 5.77243 31.5511C5.80096 31.4892 5.85289 31.4101 5.96653 31.3248L4.67628 29.605ZM6.49567 29.7387C6.15755 29.5181 5.75281 29.3899 5.32141 29.3899V31.5399C5.32321 31.5399 5.32304 31.5401 5.32187 31.5397C5.32096 31.5395 5.32054 31.5392 5.32063 31.5392L6.49567 29.7387ZM6.49408 29.7376L6.48058 29.7291L5.33572 31.5489L5.34923 31.5574L6.49408 29.7376ZM6.57632 29.7892L6.49374 29.7373L5.34957 31.5576L5.43214 31.6095L6.57632 29.7892ZM6.89957 29.9923L6.57596 29.789L5.4325 31.6097L5.75611 31.813L6.89957 29.9923ZM8.13305 30.7658C7.6001 30.4319 7.18307 30.1702 6.8994 29.9922L5.75629 31.8131C6.04044 31.9915 6.45798 32.2534 6.99144 32.5877L8.13305 30.7658ZM12.5816 33.547C10.7284 32.3908 9.19895 31.4337 8.13305 30.7658L6.99144 32.5877C8.05836 33.2562 9.58897 34.214 11.4436 35.3711L12.5816 33.547ZM26.4683 42.1537C21.2896 38.9684 16.2885 35.8597 12.5816 33.547L11.4436 35.3711C15.1528 37.6853 20.1581 40.7966 25.342 43.985L26.4683 42.1537ZM41.4086 51.2122C36.9997 48.5983 31.6486 45.3398 26.4683 42.1537L25.342 43.985C30.5259 47.1734 35.8884 50.4389 40.3122 53.0616L41.4086 51.2122ZM50.5022 56.3072C49.2299 55.7579 45.8845 53.8658 41.4086 51.2122L40.3122 53.0616C44.7357 55.6841 48.2209 57.6641 49.6498 58.2811L50.5022 56.3072ZM50.5022 56.3073V56.3072L49.6498 58.2811H49.6499L50.5022 56.3073ZM64.552 59.5179C59.8549 58.9569 54.3522 57.9701 50.5023 56.3073L49.6498 58.2811C53.8032 60.0749 59.5693 61.0881 64.297 61.6528L64.552 59.5179ZM70.4198 60.0596C68.9348 59.9618 66.8695 59.7947 64.552 59.5179L64.297 61.6528C66.6609 61.9351 68.7652 62.1053 70.2786 62.205L70.4198 60.0596ZM72.1648 60.159C71.7571 60.1399 71.1617 60.1085 70.4198 60.0596L70.2786 62.205C71.0352 62.2548 71.6442 62.287 72.0639 62.3067L72.1648 60.159ZM72.63 60.1792C72.5254 60.1751 72.3686 60.1686 72.1648 60.159L72.0639 62.3067C72.2738 62.3165 72.4364 62.3233 72.5465 62.3276L72.63 60.1792ZM72.7493 60.1836L72.6282 60.1791L72.5483 62.3276L72.6694 62.3321L72.7493 60.1836ZM72.7761 60.1845L72.7462 60.1835L72.6726 62.3323L72.7025 62.3333L72.7761 60.1845ZM72.7817 60.1847L72.7746 60.1845L72.7039 62.3333L72.711 62.3336L72.7817 60.1847ZM72.7836 60.1848L72.7821 60.1847L72.7106 62.3335L72.7122 62.3336L72.7836 60.1848ZM72.7789 60.1846H72.7786L72.7172 62.3338H72.7175L72.7789 60.1846ZM73.728 64.0642C74.4549 63.151 74.4163 62.2046 74.1616 61.5255C74.0431 61.2093 73.8836 60.9595 73.7585 60.7917C73.6948 60.7061 73.6365 60.6371 73.591 60.5864C73.5682 60.561 73.5482 60.5398 73.5321 60.5232C73.5241 60.5148 73.5169 60.5076 73.5108 60.5015C73.5077 60.4984 73.5049 60.4956 73.5024 60.4931C73.5011 60.4919 73.4999 60.4907 73.4988 60.4896C73.4982 60.489 73.4976 60.4885 73.4971 60.488C73.4968 60.4877 73.4964 60.4874 73.4963 60.4872C73.4959 60.4869 73.4955 60.4865 72.7482 61.2592C72.0008 62.0319 72.0005 62.0316 72.0001 62.0312C72 62.0311 71.9996 62.0307 71.9994 62.0305C71.9989 62.03 71.9984 62.0296 71.998 62.0292C71.9971 62.0283 71.9963 62.0275 71.9955 62.0267C71.994 62.0252 71.9926 62.0239 71.9915 62.0228C71.9892 62.0205 71.9878 62.0191 71.9872 62.0183C71.9858 62.017 71.9873 62.0185 71.9911 62.0227C71.999 62.0314 72.0148 62.0498 72.0343 62.076C72.0759 62.1319 72.1199 62.204 72.1485 62.2804C72.176 62.3537 72.1827 62.4121 72.1771 62.4609C72.1724 62.5016 72.1539 62.5895 72.0459 62.7252L73.728 64.0642ZM72.5993 64.4808C72.7512 64.4889 72.9055 64.4808 73.0596 64.4557L72.7143 62.3337C72.7128 62.3339 72.7126 62.3338 72.7132 62.3338L72.5993 64.4808ZM72.5971 64.4809L72.6194 64.4817L72.6931 62.333L72.6708 62.3322L72.5971 64.4809ZM72.4648 64.476L72.594 64.4808L72.6739 62.3323L72.5447 62.3275L72.4648 64.476ZM71.963 64.4543C72.179 64.4645 72.3474 64.4715 72.463 64.4759L72.5465 62.3276C72.4364 62.3233 72.2738 62.3165 72.0639 62.3067L71.963 64.4543ZM70.1373 64.3503C70.9088 64.4011 71.5312 64.434 71.963 64.4543L72.0639 62.3067C71.6442 62.287 71.0352 62.2548 70.2786 62.205L70.1373 64.3503ZM64.042 63.7876C66.4523 64.0755 68.5957 64.2488 70.1373 64.3503L70.2786 62.205C68.7652 62.1053 66.6609 61.9351 64.297 61.6528L64.042 63.7876ZM48.7974 60.2549C53.254 62.1797 59.2834 63.2192 64.042 63.7876L64.297 61.6528C59.5694 61.0881 53.8032 60.075 49.6499 58.2811L48.7974 60.2549ZM49.7788 58.3474L5.30224 31.5281L4.19201 33.3692L48.6686 60.1886L49.7788 58.3474ZM4.17319 33.3576L4.17584 33.3593L5.32371 31.5413L5.32106 31.5397L4.17319 33.3576ZM4.17319 33.3576L4.17584 33.3593L5.32371 31.5413L5.32106 31.5397L4.17319 33.3576ZM4.17684 33.3599L4.1828 33.3637L5.32867 31.5445L5.32271 31.5407L4.17684 33.3599ZM4.17684 33.3599L4.1828 33.3637L5.32867 31.5445L5.32271 31.5407L4.17684 33.3599ZM4.1833 33.364L4.20466 33.3774L5.34952 31.5576L5.32816 31.5441L4.1833 33.364ZM4.1833 33.364L4.20466 33.3774L5.34952 31.5576L5.32816 31.5441L4.1833 33.364ZM4.205 33.3776L4.28821 33.4299L5.43239 31.6097L5.34918 31.5574L4.205 33.3776ZM4.205 33.3776L4.28821 33.4299L5.43239 31.6097L5.34918 31.5574L4.205 33.3776ZM4.28857 33.4302L4.613 33.6339L5.75646 31.8132L5.43203 31.6094L4.28857 33.4302ZM4.28857 33.4302L4.613 33.6339L5.75646 31.8132L5.43203 31.6094L4.28857 33.4302ZM4.61317 33.634C4.89782 33.8127 5.31586 34.075 5.84984 34.4096L6.99144 32.5877C6.45798 32.2534 6.04044 31.9915 5.75629 31.8131L4.61317 33.634ZM4.61358 33.6343L5.8495 34.4094L6.99179 32.5879L5.75587 31.8128L4.61358 33.6343ZM5.84984 34.4096C6.91778 35.0788 8.44958 36.0373 10.3055 37.1952L11.4436 35.3711C9.58897 34.214 8.05836 33.2562 6.99144 32.5877L5.84984 34.4096ZM5.85077 34.4102L10.3047 37.1947L11.4444 35.3717L6.99052 32.5871L5.85077 34.4102ZM10.3055 37.1952C14.0171 39.5109 19.0265 42.6247 24.2156 45.8163L25.342 43.985C20.1581 40.7966 15.1528 37.6853 11.4436 35.3711L10.3055 37.1952ZM10.3082 37.1969L24.2125 45.8144L25.3451 43.9869L11.4409 35.3694L10.3082 37.1969ZM24.2156 45.8163C29.4031 49.0069 34.7771 52.2795 39.2157 54.911L40.3122 53.0616C35.8884 50.4389 30.5259 47.1734 25.342 43.985L24.2156 45.8163ZM24.2214 45.8199L39.2066 54.9055L40.3213 53.0671L25.3361 43.9814L24.2214 45.8199ZM39.2157 54.911C43.5877 57.503 47.212 59.5703 48.7974 60.2549L49.6498 58.2811C48.2208 57.664 44.7357 55.6841 40.3122 53.0616L39.2157 54.911ZM39.2399 54.9249L48.6995 60.2066L49.7477 58.3294L40.288 53.0477L39.2399 54.9249ZM6.46982 29.7223C6.46974 29.7222 6.46943 29.722 6.46909 29.7218C6.46899 29.7218 6.4688 29.7216 6.46856 29.7215C6.46845 29.7214 6.4678 29.721 6.46697 29.7205C6.46676 29.7204 6.46539 29.7195 6.46364 29.7184C6.46329 29.7182 6.46021 29.7163 6.45631 29.7139C6.45597 29.7137 6.4481 29.7089 6.43818 29.7031C6.43504 29.7013 6.42723 29.6968 6.42256 29.6941C6.41487 29.6899 6.39223 29.6778 6.37717 29.6701C6.33568 29.6504 5.87666 29.5567 5.46299 29.6478C4.84196 30.4221 5.16962 31.4237 5.22246 31.4691C5.23932 31.4824 5.26479 31.5015 5.27321 31.5075C5.27821 31.5111 5.28653 31.5168 5.28985 31.5191C5.29617 31.5234 5.30116 31.5267 5.30304 31.528C5.30737 31.5309 5.31078 31.5331 5.31177 31.5337C5.31435 31.5354 5.31639 31.5367 5.31687 31.537C5.3183 31.5379 5.31941 31.5386 5.31965 31.5388C5.32039 31.5392 5.32098 31.5396 5.3211 31.5397C5.32132 31.5398 5.3215 31.5399 5.32159 31.54C5.32178 31.5401 5.32194 31.5402 5.322 31.5403C5.32213 31.5403 5.32226 31.5404 5.32227 31.5404L6.47076 29.7229C6.46948 29.7221 6.47145 29.7233 6.47306 29.7243C6.47329 29.7245 6.47441 29.7252 6.47583 29.7261C6.47631 29.7264 6.47835 29.7277 6.48093 29.7294C6.48192 29.73 6.48533 29.7322 6.48966 29.7351C6.49154 29.7364 6.49653 29.7397 6.50285 29.744C6.50617 29.7463 6.51449 29.7521 6.51949 29.7556C6.52791 29.7616 6.55338 29.7807 6.57024 29.794C6.62308 29.8394 6.95074 30.841 6.32971 31.6153C5.91604 31.7064 5.45702 31.6127 5.41553 31.593C5.40047 31.5854 5.37783 31.5732 5.37014 31.569C5.36547 31.5663 5.35766 31.5618 5.35452 31.56C5.3446 31.5542 5.33673 31.5494 5.33639 31.5492C5.33249 31.5468 5.32941 31.5449 5.32906 31.5447C5.32731 31.5436 5.32594 31.5427 5.32574 31.5426C5.32491 31.5421 5.32427 31.5417 5.32417 31.5416C5.32394 31.5415 5.32376 31.5414 5.32367 31.5413C5.32339 31.5411 5.32319 31.541 5.32327 31.5411L6.46982 29.7223ZM5.33452 31.5481H5.33454L6.45854 29.7153H6.45852L5.33452 31.5481ZM49.9265 29.7984C50.9351 29.1718 51.2447 27.8461 50.6181 26.8375L48.7918 27.9721L49.9265 29.7984ZM43.4416 33.8274L49.9265 29.7984L48.7918 27.9721L42.3069 32.0011L43.4416 33.8274ZM40.4807 33.1357C41.1073 34.1443 42.433 34.454 43.4416 33.8274L42.3069 32.0011L40.4807 33.1357ZM41.1723 30.1749C40.1637 30.8015 39.8541 32.1271 40.4807 33.1357L42.3069 32.0011L41.1723 30.1749ZM47.6572 26.1459L41.1723 30.1749L42.3069 32.0011L48.7918 27.9721L47.6572 26.1459ZM50.6181 26.8375C49.9915 25.8289 48.6658 25.5193 47.6572 26.1459L48.7918 27.9721L50.6181 26.8375ZM51.3133 33.8596C52.3393 33.2618 52.6865 31.9456 52.0887 30.9196L50.231 32.0018L51.3133 33.8596ZM46.3 36.7802L51.3133 33.8596L50.231 32.0018L45.2177 34.9225L46.3 36.7802ZM43.36 36.0048C43.9577 37.0308 45.274 37.3779 46.3 36.7802L45.2177 34.9225L43.36 36.0048ZM44.1354 33.0648C43.1094 33.6625 42.7622 34.9788 43.36 36.0048L45.2177 34.9225L44.1354 33.0648ZM49.1487 30.1441L44.1354 33.0648L45.2177 34.9225L50.231 32.0018L49.1487 30.1441ZM52.0887 30.9196C51.491 29.8936 50.1747 29.5464 49.1487 30.1441L50.231 32.0018L52.0887 30.9196ZM54.224 36.7802C55.25 36.1825 55.5972 34.8662 54.9995 33.8402L53.1417 34.9225L54.224 36.7802ZM49.2107 39.7009L54.224 36.7802L53.1417 34.9225L48.1284 37.8431L49.2107 39.7009ZM46.2707 38.9254C46.8684 39.9514 48.1847 40.2986 49.2107 39.7009L48.1284 37.8431L46.2707 38.9254ZM47.0461 35.9854C46.0201 36.5831 45.673 37.8994 46.2707 38.9254L48.1284 37.8431L47.0461 35.9854ZM52.0595 33.0648L47.0461 35.9854L48.1284 37.8431L53.1417 34.9225L52.0595 33.0648ZM54.9995 33.8402C54.4018 32.8142 53.0855 32.467 52.0595 33.0648L53.1417 34.9225L54.9995 33.8402ZM29.7972 25.5522C30.8384 24.9813 31.2197 23.6745 30.6488 22.6333L28.7636 23.667L29.7972 25.5522ZM17.3941 32.3528L29.7972 25.5522L28.7636 23.667L16.3604 30.4676L17.3941 32.3528ZM14.4752 31.5013C15.0461 32.5424 16.3529 32.9237 17.3941 32.3528L16.3604 30.4676L14.4752 31.5013ZM15.3268 28.5824C14.2856 29.1533 13.9043 30.4601 14.4752 31.5013L16.3604 30.4676L15.3268 28.5824ZM27.7299 21.7818L15.3268 28.5824L16.3604 30.4676L28.7636 23.667L27.7299 21.7818ZM30.6488 22.6333C30.0779 21.5922 28.7711 21.2109 27.7299 21.7818L28.7636 23.667L30.6488 22.6333ZM61.4096 46.6812C62.4889 46.1862 62.9625 44.9099 62.4675 43.8306L60.5133 44.727L61.4096 46.6812ZM42.2984 55.4471L61.4096 46.6812L60.5133 44.727L41.4021 53.4929L42.2984 55.4471ZM39.4478 54.3892C39.9429 55.4685 41.2191 55.9422 42.2984 55.4471L41.4021 53.4929L39.4478 54.3892ZM40.5057 51.5386C39.4264 52.0337 38.9528 53.3099 39.4478 54.3892L41.4021 53.4929L40.5057 51.5386ZM59.6169 42.7727L40.5057 51.5386L41.4021 53.4929L60.5133 44.727L59.6169 42.7727ZM62.4675 43.8306C61.9724 42.7513 60.6962 42.2777 59.6169 42.7727L60.5133 44.727L62.4675 43.8306Z" fill="#005FA1"/>
</svg>
