<svg width="80" height="80" viewBox="0 0 80 80" fill="none" xmlns="http://www.w3.org/2000/svg">
<path d="M69.5101 21.354H16.5741C15.3811 21.354 14.4141 22.3211 14.4141 23.514V61.202C14.4141 62.3949 15.3811 63.362 16.5741 63.362H69.5101C70.703 63.362 71.6701 62.3949 71.6701 61.202V23.514C71.6701 22.3211 70.703 21.354 69.5101 21.354Z" fill="#0097FF"/>
<path d="M11.8703 20.646V58.25C11.8703 58.4887 11.9651 58.7176 12.1339 58.8864C12.3027 59.0552 12.5316 59.15 12.7703 59.15H66.2303C66.469 59.15 66.6979 59.0552 66.8667 58.8864C67.0355 58.7176 67.1303 58.4887 67.1303 58.25V20.646C67.1303 20.4073 67.0355 20.1784 66.8667 20.0096C66.6979 19.8408 66.469 19.746 66.2303 19.746H12.7703C12.5316 19.746 12.3027 19.8408 12.1339 20.0096C11.9651 20.1784 11.8703 20.4073 11.8703 20.646ZM11.8703 17.06H67.1303C68.6303 17.06 69.8473 18.263 69.8473 19.746V59.15C69.8473 60.634 68.6303 61.837 67.1293 61.837H11.8713C10.3703 61.837 9.15332 60.634 9.15332 59.15V19.746C9.15332 18.263 10.3703 17.06 11.8713 17.06H11.8703Z" fill="#005FA1"/>
<path d="M20.445 24.247C19.9212 24.2467 19.4185 24.4534 19.0464 24.822C18.6742 25.1905 18.4628 25.6912 18.458 26.215V51.606C18.458 52.702 19.348 53.59 20.445 53.59C20.9716 53.5903 21.4767 53.3814 21.8493 53.0094C22.2219 52.6373 22.4315 52.1325 22.432 51.606V26.215C22.4273 25.6912 22.2158 25.1905 21.8436 24.822C21.4715 24.4534 20.9688 24.2467 20.445 24.247ZM29.724 24.247C29.2002 24.2467 28.6975 24.4534 28.3254 24.822C27.9532 25.1905 27.7418 25.6912 27.737 26.215V51.606C27.737 52.702 28.627 53.59 29.724 53.59C29.9848 53.5903 30.2431 53.5392 30.4842 53.4396C30.7252 53.34 30.9443 53.194 31.1289 53.0097C31.3135 52.8255 31.46 52.6067 31.5601 52.3659C31.6601 52.125 31.7117 51.8668 31.712 51.606V26.215C31.7073 25.6911 31.4957 25.1902 31.1233 24.8216C30.7509 24.453 30.248 24.2464 29.724 24.247ZM39.003 24.247C38.4792 24.2467 37.9765 24.4534 37.6044 24.822C37.2322 25.1905 37.0208 25.6912 37.016 26.215V51.606C37.016 52.702 37.906 53.59 39.003 53.59C39.2638 53.5903 39.5221 53.5392 39.7632 53.4396C40.0042 53.34 40.2233 53.194 40.4079 53.0097C40.5925 52.8255 40.739 52.6067 40.8391 52.3659C40.9391 52.125 40.9907 51.8668 40.991 51.606V26.215C40.9863 25.6911 40.7747 25.1902 40.4023 24.8216C40.0299 24.453 39.527 24.2464 39.003 24.247ZM48.282 24.247C47.7582 24.2467 47.2555 24.4534 46.8834 24.822C46.5112 25.1905 46.2998 25.6912 46.295 26.215V51.606C46.295 52.702 47.185 53.59 48.282 53.59C48.5428 53.5903 48.8011 53.5392 49.0422 53.4396C49.2832 53.34 49.5023 53.194 49.6869 53.0097C49.8715 52.8255 50.018 52.6067 50.1181 52.3659C50.2181 52.125 50.2697 51.8668 50.27 51.606V26.215C50.2653 25.6911 50.0537 25.1902 49.6813 24.8216C49.3089 24.453 48.806 24.2464 48.282 24.247Z" fill="white"/>
<path d="M2.473 17.432C2.86289 17.4315 3.23669 17.2765 3.51257 17.001C3.78845 16.7255 3.94394 16.3519 3.945 15.962V12.846C3.945 12.348 4.348 11.943 4.847 11.94H7.975C8.788 11.94 9.448 11.282 9.448 10.47C9.448 9.658 8.788 9 7.975 9H4.847C3.82713 9.00079 2.84924 9.40622 2.12799 10.1273C1.40674 10.8483 1.00106 11.8261 1 12.846V15.968C1.003 16.778 1.662 17.432 2.473 17.432ZM7.975 65.873H4.847C4.60758 65.8719 4.37831 65.7762 4.2093 65.6066C4.04028 65.437 3.94526 65.2074 3.945 64.968V61.85C3.945 61.038 3.286 60.38 2.473 60.38C1.659 60.38 1 61.038 1 61.85V64.973C1.00132 65.9927 1.40712 66.9702 2.12834 67.6911C2.84957 68.4119 3.8273 68.8172 4.847 68.818H7.975C8.788 68.818 9.448 68.16 9.448 67.348C9.448 66.536 8.788 65.878 7.975 65.878V65.872V65.873ZM76.527 60.381C75.714 60.381 75.055 61.039 75.055 61.851V64.974C75.0547 65.2134 74.9597 65.443 74.7907 65.6126C74.6217 65.7822 74.3924 65.8779 74.153 65.879H71.025C70.212 65.879 69.552 66.537 69.552 67.349C69.552 68.161 70.212 68.819 71.025 68.819H74.153C75.1745 68.8179 76.1538 68.4115 76.876 67.689C77.233 67.3316 77.5161 66.9073 77.709 66.4404C77.9018 65.9735 78.0007 65.4732 78 64.968V61.85C78 61.038 77.34 60.38 76.527 60.38V60.381ZM74.153 9H71.025C70.212 9 69.552 9.658 69.552 10.47C69.552 11.282 70.212 11.94 71.025 11.94H74.153C74.3926 11.9411 74.622 12.037 74.7911 12.2068C74.9601 12.3766 75.055 12.6064 75.055 12.846V15.968C75.055 16.78 75.714 17.438 76.527 17.438C77.341 17.438 78 16.78 78 15.968V12.846C77.9989 11.8261 77.5933 10.8483 76.872 10.1273C76.1508 9.40622 75.1729 9.00079 74.153 9Z" fill="#005FA1"/>
<path d="M57.5622 24.247C57.3014 24.2467 57.0431 24.2978 56.8021 24.3974C56.561 24.497 56.3419 24.643 56.1573 24.8273C55.9727 25.0115 55.8262 25.2303 55.7262 25.4711C55.6261 25.712 55.5745 25.9702 55.5742 26.231V51.606C55.5742 52.702 56.4642 53.59 57.5622 53.59C58.0888 53.5903 58.5939 53.3814 58.9665 53.0094C59.3391 52.6373 59.5487 52.1325 59.5492 51.606V26.215C59.5445 25.6912 59.333 25.1905 58.9608 24.822C58.5887 24.4534 58.086 24.2467 57.5622 24.247Z" fill="white"/>
</svg>
