<svg width="89" height="35" viewBox="0 0 89 35" fill="none" xmlns="http://www.w3.org/2000/svg">
<path d="M0.792 2.528H1.872L6.408 9.512V2.528H7.392V11H6.288L1.776 4.016V11H0.792V2.528ZM11.4797 11.144C10.8397 11.144 10.2957 11.008 9.84769 10.736C9.40769 10.464 9.07969 10.088 8.86369 9.608C8.66369 9.176 8.56369 8.668 8.56369 8.084C8.56369 7.516 8.66369 7.008 8.86369 6.56C9.07969 6.08 9.40769 5.704 9.84769 5.432C10.2957 5.16 10.8397 5.024 11.4797 5.024C12.1197 5.024 12.6597 5.16 13.0997 5.432C13.5477 5.704 13.8797 6.08 14.0957 6.56C14.2957 7.024 14.3957 7.532 14.3957 8.084C14.3957 8.636 14.2957 9.144 14.0957 9.608C13.8797 10.088 13.5477 10.464 13.0997 10.736C12.6597 11.008 12.1197 11.144 11.4797 11.144ZM11.4797 10.304C11.8957 10.304 12.2437 10.22 12.5237 10.052C12.8037 9.876 13.0157 9.632 13.1597 9.32C13.3037 9 13.3757 8.588 13.3757 8.084C13.3757 7.572 13.3037 7.16 13.1597 6.848C13.0157 6.536 12.8037 6.296 12.5237 6.128C12.2437 5.952 11.8957 5.864 11.4797 5.864C11.0637 5.864 10.7117 5.952 10.4237 6.128C10.1437 6.296 9.93569 6.536 9.79969 6.848C9.65569 7.16 9.58369 7.572 9.58369 8.084C9.58369 8.588 9.65569 9 9.79969 9.32C9.94369 9.632 10.1557 9.876 10.4357 10.052C10.7157 10.22 11.0637 10.304 11.4797 10.304ZM17.5053 11.096C16.9133 11.096 16.4773 10.948 16.1973 10.652C15.9173 10.356 15.7773 9.892 15.7773 9.26V5.984H14.8053V5.168H15.7773V3.752H16.7373V5.168H18.5493V5.984H16.7373V9.116C16.7373 9.5 16.8213 9.788 16.9893 9.98C17.1573 10.164 17.4093 10.256 17.7453 10.256C17.9773 10.256 18.2293 10.224 18.5013 10.16V10.976C18.1573 11.056 17.8253 11.096 17.5053 11.096ZM26.8937 5.168L23.2937 13.424H22.2857L23.3657 10.94L21.0257 5.168H22.0937L23.9057 9.896L25.8497 5.168H26.8937ZM30.0305 11.144C29.3905 11.144 28.8465 11.008 28.3985 10.736C27.9585 10.464 27.6305 10.088 27.4145 9.608C27.2145 9.176 27.1145 8.668 27.1145 8.084C27.1145 7.516 27.2145 7.008 27.4145 6.56C27.6305 6.08 27.9585 5.704 28.3985 5.432C28.8465 5.16 29.3905 5.024 30.0305 5.024C30.6705 5.024 31.2105 5.16 31.6505 5.432C32.0985 5.704 32.4305 6.08 32.6465 6.56C32.8465 7.024 32.9465 7.532 32.9465 8.084C32.9465 8.636 32.8465 9.144 32.6465 9.608C32.4305 10.088 32.0985 10.464 31.6505 10.736C31.2105 11.008 30.6705 11.144 30.0305 11.144ZM30.0305 10.304C30.4465 10.304 30.7945 10.22 31.0745 10.052C31.3545 9.876 31.5665 9.632 31.7105 9.32C31.8545 9 31.9265 8.588 31.9265 8.084C31.9265 7.572 31.8545 7.16 31.7105 6.848C31.5665 6.536 31.3545 6.296 31.0745 6.128C30.7945 5.952 30.4465 5.864 30.0305 5.864C29.6145 5.864 29.2625 5.952 28.9745 6.128C28.6945 6.296 28.4865 6.536 28.3505 6.848C28.2065 7.16 28.1345 7.572 28.1345 8.084C28.1345 8.588 28.2065 9 28.3505 9.32C28.4945 9.632 28.7065 9.876 28.9865 10.052C29.2665 10.22 29.6145 10.304 30.0305 10.304ZM39.1121 5.168V11H38.1521V10.196C37.7441 10.828 37.1001 11.144 36.2201 11.144C35.4921 11.144 34.9361 10.94 34.5521 10.532C34.1681 10.116 33.9761 9.504 33.9761 8.696V5.168H34.9361V8.516C34.9361 9.132 35.0601 9.584 35.3081 9.872C35.5641 10.16 35.9481 10.304 36.4601 10.304C37.0041 10.304 37.4201 10.148 37.7081 9.836C38.0041 9.524 38.1521 9.076 38.1521 8.492V5.168H39.1121ZM43.0486 5.096C43.2566 5.096 43.4526 5.12 43.6366 5.168V6.032C43.4526 5.992 43.2566 5.972 43.0486 5.972C42.5286 5.972 42.1366 6.128 41.8726 6.44C41.6086 6.744 41.4766 7.184 41.4766 7.76V11H40.5166V5.168H41.4646V5.924C41.6246 5.66 41.8366 5.456 42.1006 5.312C42.3646 5.168 42.6806 5.096 43.0486 5.096ZM53.4252 5.024C54.1212 5.024 54.6532 5.232 55.0212 5.648C55.3892 6.064 55.5732 6.676 55.5732 7.484V11H54.6132V7.664C54.6132 7.048 54.4932 6.596 54.2532 6.308C54.0212 6.012 53.6652 5.864 53.1852 5.864C52.6732 5.864 52.2772 6.024 51.9972 6.344C51.7252 6.656 51.5892 7.104 51.5892 7.688V11H50.6292V7.664C50.6292 7.04 50.5132 6.584 50.2812 6.296C50.0492 6.008 49.6892 5.864 49.2012 5.864C48.6892 5.864 48.2972 6.024 48.0252 6.344C47.7532 6.656 47.6172 7.104 47.6172 7.688V11H46.6572V5.168H47.6172V5.924C47.8092 5.628 48.0612 5.404 48.3732 5.252C48.6852 5.1 49.0492 5.024 49.4652 5.024C49.9532 5.024 50.3612 5.128 50.6892 5.336C51.0252 5.536 51.2652 5.832 51.4092 6.224C51.7772 5.424 52.4492 5.024 53.4252 5.024ZM61.7103 6.176C61.8703 6.52 61.9503 6.976 61.9503 7.544V11H60.9903V10.172C60.5663 10.82 59.8463 11.144 58.8303 11.144C58.3343 11.144 57.9103 11.06 57.5583 10.892C57.2063 10.724 56.9583 10.48 56.8143 10.16C56.7183 9.928 56.6703 9.672 56.6703 9.392C56.6703 9.112 56.7183 8.864 56.8143 8.648C56.9983 8.24 57.3223 7.96 57.7863 7.808C58.2583 7.648 58.8583 7.568 59.5863 7.568H60.9903V7.376C60.9903 7.2 60.9783 7.044 60.9543 6.908C60.9303 6.772 60.8903 6.64 60.8343 6.512C60.6343 6.056 60.1623 5.828 59.4183 5.828C58.6583 5.828 58.1743 6.044 57.9663 6.476C57.8943 6.644 57.8583 6.816 57.8583 6.992H56.8863C56.9023 6.64 56.9623 6.356 57.0663 6.14C57.2263 5.764 57.5063 5.484 57.9063 5.3C58.3143 5.116 58.8143 5.024 59.4063 5.024C60.0143 5.024 60.5063 5.12 60.8823 5.312C61.2663 5.496 61.5423 5.784 61.7103 6.176ZM59.0703 10.34C59.5023 10.34 59.8623 10.264 60.1503 10.112C60.4463 9.952 60.6623 9.72 60.7983 9.416C60.9263 9.136 60.9903 8.784 60.9903 8.36V8.3H59.6583C59.1543 8.3 58.7343 8.348 58.3983 8.444C58.0703 8.532 57.8543 8.692 57.7503 8.924C57.6943 9.052 57.6663 9.18 57.6663 9.308C57.6663 9.452 57.6943 9.596 57.7503 9.74C57.8383 9.948 57.9983 10.1 58.2303 10.196C58.4623 10.292 58.7423 10.34 59.0703 10.34ZM63.8133 4.124C63.6133 4.124 63.4533 4.072 63.3333 3.968C63.2213 3.856 63.1653 3.708 63.1653 3.524C63.1653 3.348 63.2253 3.204 63.3453 3.092C63.4653 2.98 63.6213 2.924 63.8133 2.924C63.9893 2.924 64.1373 2.98 64.2573 3.092C64.3773 3.204 64.4373 3.348 64.4373 3.524C64.4373 3.7 64.3773 3.844 64.2573 3.956C64.1373 4.068 63.9893 4.124 63.8133 4.124ZM63.3213 5.168H64.2813V11H63.3213V5.168ZM65.6885 2.528H66.6485V11H65.6885V2.528ZM70.2959 2.528H71.3039V11H70.2959V2.528ZM72.8857 2.528H75.7778C76.6738 2.528 77.4258 2.7 78.0338 3.044C78.6418 3.38 79.0898 3.872 79.3778 4.52C79.6498 5.12 79.7858 5.868 79.7858 6.764C79.7858 7.652 79.6498 8.404 79.3778 9.02C79.0898 9.66 78.6418 10.152 78.0338 10.496C77.4258 10.832 76.6738 11 75.7778 11H72.8857V2.528ZM75.6578 10.112C76.3618 10.112 76.9378 9.988 77.3858 9.74C77.8418 9.492 78.1778 9.124 78.3938 8.636C78.5058 8.396 78.5858 8.124 78.6338 7.82C78.6898 7.516 78.7178 7.164 78.7178 6.764C78.7178 6.364 78.6898 6.012 78.6338 5.708C78.5858 5.404 78.5058 5.132 78.3938 4.892C78.1778 4.404 77.8418 4.036 77.3858 3.788C76.9378 3.54 76.3618 3.416 75.6578 3.416H73.8938V10.112H75.6578ZM84.9366 8.72C85.5766 7.728 86.0486 6.972 86.3526 6.452C86.6566 5.932 86.8606 5.532 86.9646 5.252C87.0686 4.972 87.1206 4.712 87.1206 4.472C87.1206 3.592 86.5926 3.152 85.5366 3.152C84.7606 3.152 84.2646 3.408 84.0486 3.92C83.9926 4.056 83.9526 4.192 83.9286 4.328C83.9046 4.456 83.8926 4.628 83.8926 4.844H82.9326C82.9326 4.564 82.9486 4.328 82.9806 4.136C83.0126 3.936 83.0686 3.748 83.1486 3.572C83.3326 3.172 83.6286 2.868 84.0366 2.66C84.4526 2.444 84.9646 2.336 85.5726 2.336C86.4286 2.336 87.0726 2.524 87.5046 2.9C87.9366 3.276 88.1526 3.792 88.1526 4.448C88.1526 4.728 88.1006 5.012 87.9966 5.3C87.8926 5.588 87.6966 5.984 87.4086 6.488C87.1206 6.992 86.6646 7.736 86.0406 8.72H84.9366ZM85.4526 11.168C85.2526 11.168 85.0886 11.112 84.9606 11C84.8406 10.88 84.7806 10.72 84.7806 10.52C84.7806 10.32 84.8406 10.16 84.9606 10.04C85.0886 9.92 85.2526 9.86 85.4526 9.86C85.6526 9.86 85.8166 9.92 85.9446 10.04C86.0726 10.16 86.1366 10.32 86.1366 10.52C86.1366 10.712 86.0726 10.868 85.9446 10.988C85.8166 11.108 85.6526 11.168 85.4526 11.168Z" fill="#363636"/>
<path d="M4.512 30.192C3.632 30.192 2.896 30.012 2.304 29.652C1.712 29.292 1.272 28.784 0.984 28.128C0.688 27.488 0.54 26.7 0.54 25.764C0.54 24.852 0.688 24.064 0.984 23.4C1.272 22.744 1.712 22.236 2.304 21.876C2.896 21.516 3.632 21.336 4.512 21.336C5.064 21.336 5.564 21.416 6.012 21.576C6.468 21.728 6.86 21.956 7.188 22.26C7.492 22.532 7.728 22.864 7.896 23.256C8.064 23.64 8.156 24.064 8.172 24.528H7.116C7.068 23.84 6.832 23.296 6.408 22.896C5.92 22.472 5.276 22.26 4.476 22.26C3.844 22.26 3.316 22.388 2.892 22.644C2.476 22.9 2.164 23.26 1.956 23.724C1.724 24.268 1.608 24.948 1.608 25.764C1.608 26.588 1.724 27.268 1.956 27.804C2.172 28.276 2.488 28.64 2.904 28.896C3.328 29.144 3.852 29.268 4.476 29.268C4.892 29.268 5.264 29.216 5.592 29.112C5.928 29 6.208 28.84 6.432 28.632C6.88 28.232 7.116 27.672 7.14 26.952H8.196C8.188 27.44 8.096 27.88 7.92 28.272C7.752 28.664 7.516 29 7.212 29.28C6.9 29.576 6.512 29.804 6.048 29.964C5.584 30.116 5.072 30.192 4.512 30.192ZM12.2953 24.024C13.0233 24.024 13.5753 24.232 13.9513 24.648C14.3353 25.056 14.5273 25.664 14.5273 26.472V30H13.5673V26.652C13.5673 26.036 13.4433 25.584 13.1953 25.296C12.9473 25.008 12.5673 24.864 12.0553 24.864C11.5113 24.864 11.0913 25.02 10.7953 25.332C10.5073 25.644 10.3633 26.096 10.3633 26.688V30H9.40331V21.528H10.3633V24.96C10.7633 24.336 11.4073 24.024 12.2953 24.024ZM20.6478 25.176C20.8078 25.52 20.8878 25.976 20.8878 26.544V30H19.9278V29.172C19.5038 29.82 18.7838 30.144 17.7678 30.144C17.2718 30.144 16.8478 30.06 16.4958 29.892C16.1438 29.724 15.8958 29.48 15.7518 29.16C15.6558 28.928 15.6078 28.672 15.6078 28.392C15.6078 28.112 15.6558 27.864 15.7518 27.648C15.9358 27.24 16.2598 26.96 16.7238 26.808C17.1958 26.648 17.7958 26.568 18.5238 26.568H19.9278V26.376C19.9278 26.2 19.9158 26.044 19.8918 25.908C19.8678 25.772 19.8278 25.64 19.7718 25.512C19.5718 25.056 19.0998 24.828 18.3558 24.828C17.5958 24.828 17.1118 25.044 16.9038 25.476C16.8318 25.644 16.7958 25.816 16.7958 25.992H15.8238C15.8398 25.64 15.8998 25.356 16.0038 25.14C16.1638 24.764 16.4438 24.484 16.8438 24.3C17.2518 24.116 17.7518 24.024 18.3438 24.024C18.9518 24.024 19.4438 24.12 19.8198 24.312C20.2038 24.496 20.4798 24.784 20.6478 25.176ZM18.0078 29.34C18.4398 29.34 18.7998 29.264 19.0878 29.112C19.3838 28.952 19.5998 28.72 19.7358 28.416C19.8638 28.136 19.9278 27.784 19.9278 27.36V27.3H18.5958C18.0918 27.3 17.6718 27.348 17.3358 27.444C17.0078 27.532 16.7918 27.692 16.6878 27.924C16.6318 28.052 16.6038 28.18 16.6038 28.308C16.6038 28.452 16.6318 28.596 16.6878 28.74C16.7758 28.948 16.9358 29.1 17.1678 29.196C17.3998 29.292 17.6798 29.34 18.0078 29.34ZM25.1508 24.024C25.8788 24.024 26.4308 24.232 26.8068 24.648C27.1908 25.056 27.3828 25.664 27.3828 26.472V30H26.4228V26.652C26.4228 26.036 26.2988 25.584 26.0508 25.296C25.8028 25.008 25.4228 24.864 24.9108 24.864C24.3668 24.864 23.9468 25.02 23.6508 25.332C23.3628 25.644 23.2188 26.096 23.2188 26.688V30H22.2588V24.168H23.2188V24.96C23.6188 24.336 24.2628 24.024 25.1508 24.024ZM34.1273 24.168V29.88C34.1273 30.408 34.0353 30.868 33.8513 31.26C33.6513 31.692 33.3393 32.016 32.9153 32.232C32.4993 32.448 31.9753 32.556 31.3433 32.556C30.3833 32.556 29.6713 32.34 29.2073 31.908C28.8153 31.556 28.6033 31.084 28.5713 30.492H29.5673C29.5753 30.852 29.7073 31.144 29.9633 31.368C30.1153 31.504 30.3073 31.608 30.5393 31.68C30.7713 31.752 31.0353 31.788 31.3313 31.788C32.1793 31.788 32.7353 31.5 32.9993 30.924C33.1033 30.652 33.1553 30.352 33.1553 30.024V29.1C32.9393 29.436 32.6513 29.688 32.2913 29.856C31.9393 30.024 31.5393 30.108 31.0913 30.108C30.5313 30.108 30.0473 29.984 29.6393 29.736C29.2313 29.48 28.9273 29.124 28.7273 28.668C28.5193 28.204 28.4153 27.672 28.4153 27.072C28.4153 26.464 28.5193 25.928 28.7273 25.464C28.9273 25.008 29.2313 24.656 29.6393 24.408C30.0473 24.152 30.5313 24.024 31.0913 24.024C31.5393 24.024 31.9433 24.112 32.3033 24.288C32.6633 24.464 32.9513 24.72 33.1673 25.056V24.168H34.1273ZM31.3073 29.28C31.6833 29.28 32.0073 29.2 32.2793 29.04C32.5593 28.88 32.7753 28.648 32.9273 28.344C33.0793 28.032 33.1553 27.656 33.1553 27.216V26.928C33.1553 26.488 33.0793 26.116 32.9273 25.812C32.7753 25.5 32.5593 25.264 32.2793 25.104C32.0073 24.944 31.6833 24.864 31.3073 24.864C30.9153 24.864 30.5753 24.948 30.2873 25.116C30.0073 25.284 29.7953 25.528 29.6513 25.848C29.5073 26.168 29.4353 26.576 29.4353 27.072C29.4353 27.552 29.5073 27.96 29.6513 28.296C29.7953 28.616 30.0113 28.86 30.2993 29.028C30.5873 29.196 30.9233 29.28 31.3073 29.28ZM39.5681 28.908C39.6961 28.788 39.8001 28.648 39.8801 28.488C39.9601 28.32 40.0081 28.14 40.0241 27.948H40.9841C40.9361 28.556 40.7041 29.056 40.2881 29.448C40.0321 29.672 39.7281 29.844 39.3761 29.964C39.0241 30.076 38.6321 30.132 38.2001 30.132C37.5441 30.132 36.9841 30 36.5201 29.736C36.0561 29.472 35.7201 29.096 35.5121 28.608C35.3121 28.2 35.2121 27.692 35.2121 27.084C35.2121 26.772 35.2361 26.492 35.2841 26.244C35.3321 25.996 35.4081 25.764 35.5121 25.548C35.7281 25.068 36.0601 24.696 36.5081 24.432C36.9561 24.16 37.4961 24.024 38.1281 24.024C38.7601 24.024 39.2961 24.156 39.7361 24.42C40.1841 24.684 40.5121 25.048 40.7201 25.512C40.8321 25.768 40.9081 26.036 40.9481 26.316C40.9961 26.596 41.0201 26.924 41.0201 27.3H36.1841C36.2081 27.724 36.2801 28.072 36.4001 28.344C36.5441 28.664 36.7681 28.912 37.0721 29.088C37.3761 29.256 37.7481 29.34 38.1881 29.34C38.4761 29.34 38.7361 29.304 38.9681 29.232C39.2081 29.16 39.4081 29.052 39.5681 28.908ZM38.1401 24.828C37.2761 24.828 36.6961 25.164 36.4001 25.836C36.3041 26.06 36.2401 26.304 36.2081 26.568H40.0361C40.0041 26.272 39.9401 26.008 39.8441 25.776C39.7081 25.464 39.4961 25.228 39.2081 25.068C38.9201 24.908 38.5641 24.828 38.1401 24.828ZM47.1586 24.024C47.8866 24.024 48.4386 24.232 48.8146 24.648C49.1986 25.056 49.3906 25.664 49.3906 26.472V30H48.4306V26.652C48.4306 26.036 48.3066 25.584 48.0586 25.296C47.8106 25.008 47.4306 24.864 46.9186 24.864C46.3746 24.864 45.9546 25.02 45.6586 25.332C45.3706 25.644 45.2266 26.096 45.2266 26.688V30H44.2666V21.528H45.2266V24.96C45.6266 24.336 46.2706 24.024 47.1586 24.024ZM54.7791 28.908C54.9071 28.788 55.0111 28.648 55.0911 28.488C55.1711 28.32 55.2191 28.14 55.2351 27.948H56.1951C56.1471 28.556 55.9151 29.056 55.4991 29.448C55.2431 29.672 54.9391 29.844 54.5871 29.964C54.2351 30.076 53.8431 30.132 53.4111 30.132C52.7551 30.132 52.1951 30 51.7311 29.736C51.2671 29.472 50.9311 29.096 50.7231 28.608C50.5231 28.2 50.4231 27.692 50.4231 27.084C50.4231 26.772 50.4471 26.492 50.4951 26.244C50.5431 25.996 50.6191 25.764 50.7231 25.548C50.9391 25.068 51.2711 24.696 51.7191 24.432C52.1671 24.16 52.7071 24.024 53.3391 24.024C53.9711 24.024 54.5071 24.156 54.9471 24.42C55.3951 24.684 55.7231 25.048 55.9311 25.512C56.0431 25.768 56.1191 26.036 56.1591 26.316C56.2071 26.596 56.2311 26.924 56.2311 27.3H51.3951C51.4191 27.724 51.4911 28.072 51.6111 28.344C51.7551 28.664 51.9791 28.912 52.2831 29.088C52.5871 29.256 52.9591 29.34 53.3991 29.34C53.6871 29.34 53.9471 29.304 54.1791 29.232C54.4191 29.16 54.6191 29.052 54.7791 28.908ZM53.3511 24.828C52.4871 24.828 51.9071 25.164 51.6111 25.836C51.5151 26.06 51.4511 26.304 51.4191 26.568H55.2471C55.2151 26.272 55.1511 26.008 55.0551 25.776C54.9191 25.464 54.7071 25.228 54.4191 25.068C54.1311 24.908 53.7751 24.828 53.3511 24.828ZM59.8533 24.096C60.0613 24.096 60.2573 24.12 60.4413 24.168V25.032C60.2573 24.992 60.0613 24.972 59.8533 24.972C59.3333 24.972 58.9413 25.128 58.6773 25.44C58.4133 25.744 58.2813 26.184 58.2813 26.76V30H57.3213V24.168H58.2693V24.924C58.4293 24.66 58.6413 24.456 58.9053 24.312C59.1693 24.168 59.4853 24.096 59.8533 24.096ZM65.2088 28.908C65.3368 28.788 65.4408 28.648 65.5208 28.488C65.6008 28.32 65.6488 28.14 65.6648 27.948H66.6248C66.5768 28.556 66.3448 29.056 65.9288 29.448C65.6728 29.672 65.3688 29.844 65.0168 29.964C64.6648 30.076 64.2728 30.132 63.8408 30.132C63.1848 30.132 62.6248 30 62.1608 29.736C61.6968 29.472 61.3608 29.096 61.1528 28.608C60.9528 28.2 60.8528 27.692 60.8528 27.084C60.8528 26.772 60.8768 26.492 60.9248 26.244C60.9728 25.996 61.0488 25.764 61.1528 25.548C61.3688 25.068 61.7008 24.696 62.1488 24.432C62.5968 24.16 63.1368 24.024 63.7688 24.024C64.4008 24.024 64.9368 24.156 65.3768 24.42C65.8248 24.684 66.1528 25.048 66.3608 25.512C66.4728 25.768 66.5488 26.036 66.5888 26.316C66.6368 26.596 66.6608 26.924 66.6608 27.3H61.8248C61.8488 27.724 61.9208 28.072 62.0408 28.344C62.1848 28.664 62.4088 28.912 62.7128 29.088C63.0168 29.256 63.3888 29.34 63.8288 29.34C64.1168 29.34 64.3768 29.304 64.6088 29.232C64.8488 29.16 65.0488 29.052 65.2088 28.908ZM63.7808 24.828C62.9168 24.828 62.3368 25.164 62.0408 25.836C61.9448 26.06 61.8808 26.304 61.8488 26.568H65.6768C65.6448 26.272 65.5808 26.008 65.4848 25.776C65.3488 25.464 65.1368 25.228 64.8488 25.068C64.5608 24.908 64.2048 24.828 63.7808 24.828Z" fill="#0066EE"/>
</svg>
