<svg width="604" height="64" viewBox="0 0 604 64" fill="none" xmlns="http://www.w3.org/2000/svg">
<path d="M53.3333 10.6667H10.6667C7.73334 10.6667 5.36001 13.0667 5.36001 16L5.33334 48C5.33334 50.9333 7.73334 53.3333 10.6667 53.3333H53.3333C56.2667 53.3333 58.6667 50.9333 58.6667 48V16C58.6667 13.0667 56.2667 10.6667 53.3333 10.6667ZM53.3333 21.3333L32 34.6667L10.6667 21.3333V16L32 29.3333L53.3333 16V21.3333Z" fill="black"/>
<path d="M468 2C468 0.89543 468.895 0 470 0H602C603.105 0 604 0.895431 604 2V40C604 41.1046 603.105 42 602 42H470C468.895 42 468 41.1046 468 40V2Z" fill="#0066EE"/>
<path d="M513.16 20.184H511.816V25H509.976V13.704H514.408C516.2 13.704 517.347 14.264 517.848 15.384C518.04 15.8 518.136 16.2907 518.136 16.856C518.136 17.4533 518.045 17.9653 517.864 18.392C517.629 18.9147 517.293 19.32 516.856 19.608C516.419 19.896 515.869 20.0773 515.208 20.152L518.888 25H516.728L513.16 20.184ZM511.816 18.648H513.928C514.525 18.648 515 18.5787 515.352 18.44C515.704 18.3013 515.949 18.0827 516.088 17.784C516.205 17.528 516.264 17.2347 516.264 16.904C516.264 16.5947 516.216 16.3333 516.12 16.12C515.971 15.8 515.715 15.576 515.352 15.448C515 15.3093 514.525 15.24 513.928 15.24H511.816V18.648ZM524.692 23.288C524.83 23.16 524.942 23.0053 525.028 22.824C525.124 22.6427 525.182 22.4613 525.204 22.28H526.964C526.889 23.0693 526.58 23.72 526.036 24.232C525.684 24.5413 525.257 24.7813 524.756 24.952C524.254 25.112 523.705 25.192 523.108 25.192C522.19 25.192 521.406 25.0107 520.756 24.648C520.116 24.2853 519.646 23.7733 519.348 23.112C519.092 22.536 518.964 21.8533 518.964 21.064C518.964 20.6587 518.996 20.2907 519.06 19.96C519.124 19.6293 519.22 19.32 519.348 19.032C519.646 18.3707 520.105 17.8587 520.724 17.496C521.353 17.1333 522.105 16.952 522.98 16.952C523.854 16.952 524.601 17.1333 525.22 17.496C525.849 17.8587 526.308 18.3653 526.596 19.016C526.756 19.3787 526.862 19.7573 526.916 20.152C526.98 20.5467 527.012 21.016 527.012 21.56H520.756C520.788 22.0293 520.868 22.3973 520.996 22.664C521.156 23.0267 521.412 23.304 521.764 23.496C522.116 23.688 522.553 23.784 523.076 23.784C523.417 23.784 523.726 23.7413 524.004 23.656C524.281 23.5707 524.51 23.448 524.692 23.288ZM523.012 18.376C522.009 18.376 521.337 18.7547 520.996 19.512C520.889 19.7467 520.82 19.9973 520.788 20.264H525.188C525.156 19.9867 525.092 19.7147 524.996 19.448C524.825 19.096 524.574 18.8293 524.244 18.648C523.913 18.4667 523.502 18.376 523.012 18.376ZM531.245 25.24C530.456 25.24 529.794 25.112 529.261 24.856C528.738 24.6 528.36 24.216 528.125 23.704C527.954 23.3307 527.869 22.8933 527.869 22.392H529.597C529.597 22.6907 529.65 22.9413 529.757 23.144C529.992 23.656 530.498 23.912 531.277 23.912C532.056 23.912 532.536 23.7093 532.717 23.304C532.77 23.1653 532.797 23.032 532.797 22.904C532.797 22.7547 532.77 22.616 532.717 22.488C532.642 22.328 532.52 22.2 532.349 22.104C532.189 22.008 531.986 21.928 531.741 21.864C531.506 21.7893 531.17 21.7093 530.733 21.624C530.136 21.4853 529.629 21.304 529.213 21.08C528.797 20.8453 528.498 20.5253 528.317 20.12C528.21 19.8747 528.157 19.5867 528.157 19.256C528.157 18.904 528.221 18.5947 528.349 18.328C528.552 17.8907 528.904 17.5547 529.405 17.32C529.906 17.0747 530.509 16.952 531.213 16.952C531.928 16.952 532.53 17.0693 533.021 17.304C533.522 17.5387 533.885 17.8853 534.109 18.344C534.248 18.664 534.317 19.048 534.317 19.496H532.637C532.637 19.2613 532.594 19.0427 532.509 18.84C532.402 18.6267 532.232 18.4667 531.997 18.36C531.773 18.2427 531.501 18.184 531.181 18.184C530.53 18.184 530.12 18.36 529.949 18.712C529.906 18.808 529.885 18.9307 529.885 19.08C529.885 19.2187 529.906 19.3253 529.949 19.4C530.024 19.5707 530.157 19.7093 530.349 19.816C530.541 19.9227 530.744 20.008 530.957 20.072C531.181 20.1253 531.506 20.2 531.933 20.296C532.594 20.4667 533.133 20.6693 533.549 20.904C533.976 21.128 534.285 21.4427 534.477 21.848C534.584 22.0933 534.637 22.3867 534.637 22.728C534.637 23.1013 534.573 23.448 534.445 23.768C534.221 24.248 533.821 24.616 533.245 24.872C532.68 25.1173 532.013 25.24 531.245 25.24ZM541.223 23.288C541.362 23.16 541.474 23.0053 541.559 22.824C541.655 22.6427 541.714 22.4613 541.735 22.28H543.495C543.42 23.0693 543.111 23.72 542.567 24.232C542.215 24.5413 541.788 24.7813 541.287 24.952C540.786 25.112 540.236 25.192 539.639 25.192C538.722 25.192 537.938 25.0107 537.287 24.648C536.647 24.2853 536.178 23.7733 535.879 23.112C535.623 22.536 535.495 21.8533 535.495 21.064C535.495 20.6587 535.527 20.2907 535.591 19.96C535.655 19.6293 535.751 19.32 535.879 19.032C536.178 18.3707 536.636 17.8587 537.255 17.496C537.884 17.1333 538.636 16.952 539.511 16.952C540.386 16.952 541.132 17.1333 541.751 17.496C542.38 17.8587 542.839 18.3653 543.127 19.016C543.287 19.3787 543.394 19.7573 543.447 20.152C543.511 20.5467 543.543 21.016 543.543 21.56H537.287C537.319 22.0293 537.399 22.3973 537.527 22.664C537.687 23.0267 537.943 23.304 538.295 23.496C538.647 23.688 539.084 23.784 539.607 23.784C539.948 23.784 540.258 23.7413 540.535 23.656C540.812 23.5707 541.042 23.448 541.223 23.288ZM539.543 18.376C538.54 18.376 537.868 18.7547 537.527 19.512C537.42 19.7467 537.351 19.9973 537.319 20.264H541.719C541.687 19.9867 541.623 19.7147 541.527 19.448C541.356 19.096 541.106 18.8293 540.775 18.648C540.444 18.4667 540.034 18.376 539.543 18.376ZM549.04 16.952C550 16.952 550.742 17.224 551.264 17.768C551.787 18.312 552.048 19.1067 552.048 20.152V25H550.288V20.504C550.288 19.8 550.144 19.2827 549.856 18.952C549.568 18.6213 549.126 18.456 548.528 18.456C547.899 18.456 547.419 18.6373 547.088 19C546.758 19.352 546.592 19.88 546.592 20.584V25H544.816V17.16H546.592V18.04C547.136 17.3147 547.952 16.952 549.04 16.952ZM561.229 13.704V25H559.501V24.056C559.202 24.4293 558.829 24.712 558.381 24.904C557.943 25.096 557.447 25.192 556.893 25.192C556.125 25.192 555.469 25.0213 554.924 24.68C554.38 24.3387 553.97 23.8587 553.693 23.24C553.554 22.9307 553.447 22.5947 553.373 22.232C553.298 21.8587 553.261 21.4747 553.261 21.08C553.261 20.2693 553.405 19.544 553.693 18.904C553.97 18.2853 554.38 17.8053 554.924 17.464C555.469 17.1227 556.125 16.952 556.893 16.952C557.437 16.952 557.927 17.048 558.365 17.24C558.802 17.4213 559.17 17.6933 559.469 18.056V13.704H561.229ZM559.469 20.872C559.469 20.0933 559.277 19.496 558.893 19.08C558.519 18.664 558.002 18.456 557.341 18.456C556.882 18.456 556.487 18.552 556.157 18.744C555.826 18.9253 555.575 19.2027 555.405 19.576C555.234 19.9813 555.149 20.4827 555.149 21.08C555.149 21.6667 555.234 22.1627 555.405 22.568C555.575 22.9413 555.826 23.224 556.157 23.416C556.487 23.608 556.882 23.704 557.341 23.704C558.002 23.704 558.519 23.496 558.893 23.08C559.277 22.6533 559.469 22.0507 559.469 21.272V20.872Z" fill="white"/>
<path d="M93.088 37.704L89.872 49H87.856L85.552 40.2L83.232 49H81.248L77.984 37.704H79.856L82.256 46.536L84.544 37.704H86.56L88.848 46.456L91.248 37.704H93.088ZM98.5198 47.288C98.6584 47.16 98.7704 47.0053 98.8558 46.824C98.9518 46.6427 99.0104 46.4613 99.0318 46.28H100.792C100.717 47.0693 100.408 47.72 99.8638 48.232C99.5118 48.5413 99.0851 48.7813 98.5838 48.952C98.0824 49.112 97.5331 49.192 96.9358 49.192C96.0184 49.192 95.2344 49.0107 94.5838 48.648C93.9438 48.2853 93.4744 47.7733 93.1758 47.112C92.9198 46.536 92.7918 45.8533 92.7918 45.064C92.7918 44.6587 92.8238 44.2907 92.8878 43.96C92.9518 43.6293 93.0478 43.32 93.1758 43.032C93.4744 42.3707 93.9331 41.8587 94.5518 41.496C95.1811 41.1333 95.9331 40.952 96.8078 40.952C97.6824 40.952 98.4291 41.1333 99.0478 41.496C99.6771 41.8587 100.136 42.3653 100.424 43.016C100.584 43.3787 100.69 43.7573 100.744 44.152C100.808 44.5467 100.84 45.016 100.84 45.56H94.5838C94.6158 46.0293 94.6958 46.3973 94.8238 46.664C94.9838 47.0267 95.2398 47.304 95.5918 47.496C95.9438 47.688 96.3811 47.784 96.9038 47.784C97.2451 47.784 97.5544 47.7413 97.8318 47.656C98.1091 47.5707 98.3384 47.448 98.5198 47.288ZM96.8398 42.376C95.8371 42.376 95.1651 42.7547 94.8238 43.512C94.7171 43.7467 94.6478 43.9973 94.6158 44.264H99.0158C98.9838 43.9867 98.9198 43.7147 98.8238 43.448C98.6531 43.096 98.4024 42.8293 98.0718 42.648C97.7411 42.4667 97.3304 42.376 96.8398 42.376ZM109.212 40.952C110.172 40.952 110.914 41.224 111.436 41.768C111.959 42.312 112.22 43.1067 112.22 44.152V49H110.46V44.504C110.46 43.8 110.316 43.2827 110.028 42.952C109.74 42.6213 109.298 42.456 108.7 42.456C108.071 42.456 107.591 42.6373 107.26 43C106.93 43.352 106.764 43.88 106.764 44.584V49H104.988V37.704H106.764V42.04C107.308 41.3147 108.124 40.952 109.212 40.952ZM120.568 42.536C120.782 43.0053 120.888 43.6293 120.888 44.408V49H119.112V48.12C118.547 48.8347 117.651 49.192 116.424 49.192C115.731 49.192 115.144 49.08 114.664 48.856C114.184 48.632 113.848 48.3013 113.656 47.864C113.518 47.5547 113.448 47.2027 113.448 46.808C113.448 46.4133 113.512 46.072 113.64 45.784C113.907 45.1973 114.36 44.7973 115 44.584C115.64 44.36 116.467 44.248 117.48 44.248H119.112V44.04C119.112 43.8373 119.102 43.672 119.08 43.544C119.059 43.4053 119.016 43.2667 118.952 43.128C118.718 42.616 118.174 42.36 117.32 42.36C116.883 42.36 116.526 42.4187 116.248 42.536C115.971 42.6533 115.774 42.84 115.656 43.096C115.582 43.288 115.544 43.464 115.544 43.624H113.752C113.752 43.176 113.827 42.7973 113.976 42.488C114.435 41.464 115.544 40.952 117.304 40.952C118.168 40.952 118.867 41.08 119.4 41.336C119.944 41.592 120.334 41.992 120.568 42.536ZM118.92 46.712C119.048 46.4027 119.112 46.04 119.112 45.624V45.528H117.592C117.006 45.528 116.52 45.576 116.136 45.672C115.752 45.768 115.502 45.944 115.384 46.2C115.32 46.328 115.288 46.4773 115.288 46.648C115.288 46.8187 115.32 46.9787 115.384 47.128C115.491 47.352 115.678 47.5173 115.944 47.624C116.211 47.7307 116.526 47.784 116.888 47.784C117.4 47.784 117.827 47.6933 118.168 47.512C118.51 47.3307 118.76 47.064 118.92 46.712ZM121.282 41.16H123.202L125.346 47L127.474 41.16H129.394L126.338 49H124.354L121.282 41.16ZM135.27 47.288C135.408 47.16 135.52 47.0053 135.606 46.824C135.702 46.6427 135.76 46.4613 135.782 46.28H137.542C137.467 47.0693 137.158 47.72 136.614 48.232C136.262 48.5413 135.835 48.7813 135.334 48.952C134.832 49.112 134.283 49.192 133.686 49.192C132.768 49.192 131.984 49.0107 131.334 48.648C130.694 48.2853 130.224 47.7733 129.926 47.112C129.67 46.536 129.542 45.8533 129.542 45.064C129.542 44.6587 129.574 44.2907 129.638 43.96C129.702 43.6293 129.798 43.32 129.926 43.032C130.224 42.3707 130.683 41.8587 131.302 41.496C131.931 41.1333 132.683 40.952 133.558 40.952C134.432 40.952 135.179 41.1333 135.798 41.496C136.427 41.8587 136.886 42.3653 137.174 43.016C137.334 43.3787 137.44 43.7573 137.494 44.152C137.558 44.5467 137.59 45.016 137.59 45.56H131.334C131.366 46.0293 131.446 46.3973 131.574 46.664C131.734 47.0267 131.99 47.304 132.342 47.496C132.694 47.688 133.131 47.784 133.654 47.784C133.995 47.784 134.304 47.7413 134.582 47.656C134.859 47.5707 135.088 47.448 135.27 47.288ZM133.59 42.376C132.587 42.376 131.915 42.7547 131.574 43.512C131.467 43.7467 131.398 43.9973 131.366 44.264H135.766C135.734 43.9867 135.67 43.7147 135.574 43.448C135.403 43.096 135.152 42.8293 134.822 42.648C134.491 42.4667 134.08 42.376 133.59 42.376ZM144.698 49.24C143.909 49.24 143.248 49.112 142.714 48.856C142.192 48.6 141.813 48.216 141.578 47.704C141.408 47.3307 141.322 46.8933 141.322 46.392H143.05C143.05 46.6907 143.104 46.9413 143.21 47.144C143.445 47.656 143.952 47.912 144.73 47.912C145.509 47.912 145.989 47.7093 146.17 47.304C146.224 47.1653 146.25 47.032 146.25 46.904C146.25 46.7547 146.224 46.616 146.17 46.488C146.096 46.328 145.973 46.2 145.802 46.104C145.642 46.008 145.44 45.928 145.194 45.864C144.96 45.7893 144.624 45.7093 144.186 45.624C143.589 45.4853 143.082 45.304 142.666 45.08C142.25 44.8453 141.952 44.5253 141.77 44.12C141.664 43.8747 141.61 43.5867 141.61 43.256C141.61 42.904 141.674 42.5947 141.802 42.328C142.005 41.8907 142.357 41.5547 142.858 41.32C143.36 41.0747 143.962 40.952 144.666 40.952C145.381 40.952 145.984 41.0693 146.474 41.304C146.976 41.5387 147.338 41.8853 147.562 42.344C147.701 42.664 147.77 43.048 147.77 43.496H146.09C146.09 43.2613 146.048 43.0427 145.962 42.84C145.856 42.6267 145.685 42.4667 145.45 42.36C145.226 42.2427 144.954 42.184 144.634 42.184C143.984 42.184 143.573 42.36 143.402 42.712C143.36 42.808 143.338 42.9307 143.338 43.08C143.338 43.2187 143.36 43.3253 143.402 43.4C143.477 43.5707 143.61 43.7093 143.802 43.816C143.994 43.9227 144.197 44.008 144.41 44.072C144.634 44.1253 144.96 44.2 145.386 44.296C146.048 44.4667 146.586 44.6693 147.002 44.904C147.429 45.128 147.738 45.4427 147.93 45.848C148.037 46.0933 148.09 46.3867 148.09 46.728C148.09 47.1013 148.026 47.448 147.898 47.768C147.674 48.248 147.274 48.616 146.698 48.872C146.133 49.1173 145.466 49.24 144.698 49.24ZM154.676 47.288C154.815 47.16 154.927 47.0053 155.012 46.824C155.108 46.6427 155.167 46.4613 155.188 46.28H156.948C156.873 47.0693 156.564 47.72 156.02 48.232C155.668 48.5413 155.241 48.7813 154.74 48.952C154.239 49.112 153.689 49.192 153.092 49.192C152.175 49.192 151.391 49.0107 150.74 48.648C150.1 48.2853 149.631 47.7733 149.332 47.112C149.076 46.536 148.948 45.8533 148.948 45.064C148.948 44.6587 148.98 44.2907 149.044 43.96C149.108 43.6293 149.204 43.32 149.332 43.032C149.631 42.3707 150.089 41.8587 150.708 41.496C151.337 41.1333 152.089 40.952 152.964 40.952C153.839 40.952 154.585 41.1333 155.204 41.496C155.833 41.8587 156.292 42.3653 156.58 43.016C156.74 43.3787 156.847 43.7573 156.9 44.152C156.964 44.5467 156.996 45.016 156.996 45.56H150.74C150.772 46.0293 150.852 46.3973 150.98 46.664C151.14 47.0267 151.396 47.304 151.748 47.496C152.1 47.688 152.537 47.784 153.06 47.784C153.401 47.784 153.711 47.7413 153.988 47.656C154.265 47.5707 154.495 47.448 154.676 47.288ZM152.996 42.376C151.993 42.376 151.321 42.7547 150.98 43.512C150.873 43.7467 150.804 43.9973 150.772 44.264H155.172C155.14 43.9867 155.076 43.7147 154.98 43.448C154.809 43.096 154.559 42.8293 154.228 42.648C153.897 42.4667 153.487 42.376 152.996 42.376ZM162.494 40.952C163.454 40.952 164.195 41.224 164.718 41.768C165.24 42.312 165.502 43.1067 165.502 44.152V49H163.742V44.504C163.742 43.8 163.598 43.2827 163.31 42.952C163.022 42.6213 162.579 42.456 161.982 42.456C161.352 42.456 160.872 42.6373 160.542 43C160.211 43.352 160.046 43.88 160.046 44.584V49H158.27V41.16H160.046V42.04C160.59 41.3147 161.406 40.952 162.494 40.952ZM169.92 49.128C169.066 49.128 168.442 48.9307 168.048 48.536C167.664 48.1307 167.472 47.48 167.472 46.584V42.616H166.256V41.16H167.472V39.272H169.232V41.16H171.456V42.616H169.232V46.264C169.232 46.7333 169.328 47.08 169.52 47.304C169.722 47.5173 170.032 47.624 170.448 47.624C170.789 47.624 171.104 47.5813 171.392 47.496V48.968C170.89 49.0747 170.4 49.128 169.92 49.128ZM182.193 42.536C182.407 43.0053 182.513 43.6293 182.513 44.408V49H180.737V48.12C180.172 48.8347 179.276 49.192 178.049 49.192C177.356 49.192 176.769 49.08 176.289 48.856C175.809 48.632 175.473 48.3013 175.281 47.864C175.143 47.5547 175.073 47.2027 175.073 46.808C175.073 46.4133 175.137 46.072 175.265 45.784C175.532 45.1973 175.985 44.7973 176.625 44.584C177.265 44.36 178.092 44.248 179.105 44.248H180.737V44.04C180.737 43.8373 180.727 43.672 180.705 43.544C180.684 43.4053 180.641 43.2667 180.577 43.128C180.343 42.616 179.799 42.36 178.945 42.36C178.508 42.36 178.151 42.4187 177.873 42.536C177.596 42.6533 177.399 42.84 177.281 43.096C177.207 43.288 177.169 43.464 177.169 43.624H175.377C175.377 43.176 175.452 42.7973 175.601 42.488C176.06 41.464 177.169 40.952 178.929 40.952C179.793 40.952 180.492 41.08 181.025 41.336C181.569 41.592 181.959 41.992 182.193 42.536ZM180.545 46.712C180.673 46.4027 180.737 46.04 180.737 45.624V45.528H179.217C178.631 45.528 178.145 45.576 177.761 45.672C177.377 45.768 177.127 45.944 177.009 46.2C176.945 46.328 176.913 46.4773 176.913 46.648C176.913 46.8187 176.945 46.9787 177.009 47.128C177.116 47.352 177.303 47.5173 177.569 47.624C177.836 47.7307 178.151 47.784 178.513 47.784C179.025 47.784 179.452 47.6933 179.793 47.512C180.135 47.3307 180.385 47.064 180.545 46.712ZM188.337 40.952C189.297 40.952 190.039 41.224 190.561 41.768C191.084 42.312 191.345 43.1067 191.345 44.152V49H189.585V44.504C189.585 43.8 189.441 43.2827 189.153 42.952C188.865 42.6213 188.423 42.456 187.825 42.456C187.196 42.456 186.716 42.6373 186.385 43C186.055 43.352 185.889 43.88 185.889 44.584V49H184.113V41.16H185.889V42.04C186.433 41.3147 187.249 40.952 188.337 40.952ZM201.16 47.288C201.299 47.16 201.411 47.0053 201.496 46.824C201.592 46.6427 201.651 46.4613 201.672 46.28H203.432C203.358 47.0693 203.048 47.72 202.504 48.232C202.152 48.5413 201.726 48.7813 201.224 48.952C200.723 49.112 200.174 49.192 199.576 49.192C198.659 49.192 197.875 49.0107 197.224 48.648C196.584 48.2853 196.115 47.7733 195.816 47.112C195.56 46.536 195.432 45.8533 195.432 45.064C195.432 44.6587 195.464 44.2907 195.528 43.96C195.592 43.6293 195.688 43.32 195.816 43.032C196.115 42.3707 196.574 41.8587 197.192 41.496C197.822 41.1333 198.574 40.952 199.448 40.952C200.323 40.952 201.07 41.1333 201.688 41.496C202.318 41.8587 202.776 42.3653 203.064 43.016C203.224 43.3787 203.331 43.7573 203.384 44.152C203.448 44.5467 203.48 45.016 203.48 45.56H197.224C197.256 46.0293 197.336 46.3973 197.464 46.664C197.624 47.0267 197.88 47.304 198.232 47.496C198.584 47.688 199.022 47.784 199.544 47.784C199.886 47.784 200.195 47.7413 200.472 47.656C200.75 47.5707 200.979 47.448 201.16 47.288ZM199.48 42.376C198.478 42.376 197.806 42.7547 197.464 43.512C197.358 43.7467 197.288 43.9973 197.256 44.264H201.656C201.624 43.9867 201.56 43.7147 201.464 43.448C201.294 43.096 201.043 42.8293 200.712 42.648C200.382 42.4667 199.971 42.376 199.48 42.376ZM214.098 40.952C215.026 40.952 215.741 41.2293 216.242 41.784C216.754 42.328 217.01 43.1227 217.01 44.168V49H215.25V44.52C215.25 43.8053 215.111 43.2827 214.834 42.952C214.557 42.6213 214.141 42.456 213.586 42.456C212.989 42.456 212.535 42.6373 212.226 43C211.917 43.3627 211.762 43.8907 211.762 44.584V49H210.002V44.52C210.002 43.8053 209.863 43.2827 209.586 42.952C209.319 42.6213 208.903 42.456 208.338 42.456C207.751 42.456 207.303 42.6373 206.994 43C206.685 43.3627 206.53 43.8907 206.53 44.584V49H204.754V41.16H206.53V41.992C207.063 41.2987 207.853 40.952 208.898 40.952C209.517 40.952 210.045 41.0693 210.482 41.304C210.93 41.5387 211.261 41.8907 211.474 42.36C211.741 41.88 212.087 41.528 212.514 41.304C212.951 41.0693 213.479 40.952 214.098 40.952ZM225.365 42.536C225.579 43.0053 225.685 43.6293 225.685 44.408V49H223.909V48.12C223.344 48.8347 222.448 49.192 221.221 49.192C220.528 49.192 219.941 49.08 219.461 48.856C218.981 48.632 218.645 48.3013 218.453 47.864C218.315 47.5547 218.245 47.2027 218.245 46.808C218.245 46.4133 218.309 46.072 218.437 45.784C218.704 45.1973 219.157 44.7973 219.797 44.584C220.437 44.36 221.264 44.248 222.277 44.248H223.909V44.04C223.909 43.8373 223.899 43.672 223.877 43.544C223.856 43.4053 223.813 43.2667 223.749 43.128C223.515 42.616 222.971 42.36 222.117 42.36C221.68 42.36 221.323 42.4187 221.045 42.536C220.768 42.6533 220.571 42.84 220.453 43.096C220.379 43.288 220.341 43.464 220.341 43.624H218.549C218.549 43.176 218.624 42.7973 218.773 42.488C219.232 41.464 220.341 40.952 222.101 40.952C222.965 40.952 223.664 41.08 224.197 41.336C224.741 41.592 225.131 41.992 225.365 42.536ZM223.717 46.712C223.845 46.4027 223.909 46.04 223.909 45.624V45.528H222.389C221.803 45.528 221.317 45.576 220.933 45.672C220.549 45.768 220.299 45.944 220.181 46.2C220.117 46.328 220.085 46.4773 220.085 46.648C220.085 46.8187 220.117 46.9787 220.181 47.128C220.288 47.352 220.475 47.5173 220.741 47.624C221.008 47.7307 221.323 47.784 221.685 47.784C222.197 47.784 222.624 47.6933 222.965 47.512C223.307 47.3307 223.557 47.064 223.717 46.712ZM228.197 39.976C227.877 39.976 227.616 39.8853 227.413 39.704C227.21 39.512 227.109 39.272 227.109 38.984C227.109 38.6853 227.205 38.4453 227.397 38.264C227.6 38.072 227.866 37.976 228.197 37.976C228.506 37.976 228.757 38.072 228.949 38.264C229.141 38.4453 229.237 38.6853 229.237 38.984C229.237 39.272 229.136 39.512 228.933 39.704C228.741 39.8853 228.496 39.976 228.197 39.976ZM227.285 41.16H229.061V49H227.285V41.16ZM230.723 37.704H232.499V49H230.723V37.704ZM240.107 49.128C239.254 49.128 238.63 48.9307 238.235 48.536C237.851 48.1307 237.659 47.48 237.659 46.584V42.616H236.443V41.16H237.659V39.272H239.419V41.16H241.643V42.616H239.419V46.264C239.419 46.7333 239.515 47.08 239.707 47.304C239.91 47.5173 240.219 47.624 240.635 47.624C240.976 47.624 241.291 47.5813 241.579 47.496V48.968C241.078 49.0747 240.587 49.128 240.107 49.128ZM246.293 49.192C245.397 49.192 244.64 49.0053 244.021 48.632C243.402 48.2587 242.944 47.7413 242.645 47.08C242.378 46.5147 242.245 45.848 242.245 45.08C242.245 44.312 242.378 43.64 242.645 43.064C242.944 42.4027 243.402 41.8853 244.021 41.512C244.64 41.1387 245.397 40.952 246.293 40.952C247.189 40.952 247.946 41.1387 248.565 41.512C249.194 41.8853 249.658 42.4027 249.957 43.064C250.224 43.6613 250.357 44.3333 250.357 45.08C250.357 45.8053 250.224 46.4773 249.957 47.096C249.658 47.7573 249.194 48.2747 248.565 48.648C247.946 49.0107 247.189 49.192 246.293 49.192ZM246.293 47.704C246.773 47.704 247.173 47.608 247.493 47.416C247.824 47.2133 248.069 46.936 248.229 46.584C248.389 46.2213 248.469 45.72 248.469 45.08C248.469 44.4293 248.389 43.928 248.229 43.576C248.069 43.2133 247.824 42.936 247.493 42.744C247.173 42.552 246.773 42.456 246.293 42.456C245.813 42.456 245.413 42.552 245.093 42.744C244.773 42.936 244.533 43.2133 244.373 43.576C244.202 43.9493 244.117 44.4507 244.117 45.08C244.117 45.6987 244.202 46.2 244.373 46.584C244.533 46.936 244.773 47.2133 245.093 47.416C245.413 47.608 245.813 47.704 246.293 47.704ZM253.197 49.272C252.855 49.272 252.578 49.1707 252.365 48.968C252.151 48.7547 252.045 48.4827 252.045 48.152C252.045 47.8 252.151 47.5227 252.365 47.32C252.578 47.1173 252.855 47.016 253.197 47.016C253.549 47.016 253.831 47.1173 254.045 47.32C254.258 47.5227 254.365 47.8 254.365 48.152C254.365 48.4827 254.253 48.7547 254.029 48.968C253.815 49.1707 253.538 49.272 253.197 49.272ZM253.197 43.672C252.855 43.672 252.578 43.5707 252.365 43.368C252.151 43.1547 252.045 42.8827 252.045 42.552C252.045 42.2 252.151 41.9227 252.365 41.72C252.578 41.5173 252.855 41.416 253.197 41.416C253.549 41.416 253.831 41.5173 254.045 41.72C254.258 41.9227 254.365 42.2 254.365 42.552C254.365 42.8827 254.253 43.1547 254.029 43.368C253.815 43.5707 253.538 43.672 253.197 43.672Z" fill="#999999"/>
<path d="M79.2 5.056H86.352C88.208 5.056 89.768 5.416 91.032 6.136C92.312 6.856 93.248 7.888 93.84 9.232C94.112 9.808 94.312 10.448 94.44 11.152C94.568 11.856 94.632 12.648 94.632 13.528C94.632 14.408 94.568 15.2 94.44 15.904C94.312 16.608 94.112 17.248 93.84 17.824C93.248 19.168 92.312 20.2 91.032 20.92C89.768 21.64 88.208 22 86.352 22H79.2V5.056ZM85.656 18.304C86.68 18.304 87.512 18.128 88.152 17.776C88.792 17.424 89.264 16.904 89.568 16.216C89.728 15.88 89.84 15.496 89.904 15.064C89.968 14.632 90 14.12 90 13.528C90 12.936 89.968 12.424 89.904 11.992C89.84 11.544 89.728 11.152 89.568 10.816C89.248 10.128 88.768 9.616 88.128 9.28C87.504 8.928 86.68 8.752 85.656 8.752H83.544V18.304H85.656ZM102.47 22.336C101.014 22.336 99.7655 22.048 98.7255 21.472C97.7015 20.88 96.9495 20.048 96.4695 18.976C96.0855 18.112 95.8935 17.12 95.8935 16C95.8935 14.896 96.0855 13.912 96.4695 13.048C96.9495 11.976 97.7015 11.144 98.7255 10.552C99.7655 9.96 101.014 9.664 102.47 9.664C103.926 9.664 105.166 9.96 106.19 10.552C107.214 11.128 107.966 11.952 108.446 13.024C108.846 13.872 109.046 14.864 109.046 16C109.046 17.152 108.846 18.152 108.446 19C107.966 20.056 107.214 20.88 106.19 21.472C105.166 22.048 103.926 22.336 102.47 22.336ZM102.47 19.096C103.462 19.096 104.134 18.72 104.486 17.968C104.598 17.728 104.67 17.456 104.702 17.152C104.75 16.832 104.774 16.448 104.774 16C104.774 15.104 104.678 14.456 104.486 14.056C104.15 13.304 103.478 12.928 102.47 12.928C101.478 12.928 100.806 13.304 100.454 14.056C100.262 14.504 100.166 15.152 100.166 16C100.166 16.832 100.262 17.488 100.454 17.968C100.806 18.72 101.478 19.096 102.47 19.096ZM118.164 9.664C119.508 9.664 120.548 10.064 121.284 10.864C122.036 11.664 122.412 12.808 122.412 14.296V22H118.404V15.16C118.404 14.376 118.252 13.808 117.948 13.456C117.644 13.104 117.172 12.928 116.532 12.928C115.86 12.928 115.348 13.128 114.996 13.528C114.66 13.912 114.492 14.496 114.492 15.28V22H110.484V10.024H114.492V11.512C115.34 10.28 116.564 9.664 118.164 9.664ZM125.394 5.056H129.498L126.786 11.872H123.762L125.394 5.056ZM135.421 22.216C134.445 22.216 133.661 22.08 133.069 21.808C132.477 21.536 132.037 21.104 131.749 20.512C131.477 19.92 131.341 19.12 131.341 18.112V13.144H129.733V10.024H131.341V7.168H135.349V10.024H138.157V13.144H135.349V17.416C135.349 18.008 135.461 18.424 135.685 18.664C135.925 18.904 136.301 19.024 136.813 19.024C137.213 19.024 137.629 18.968 138.061 18.856V21.952C137.213 22.128 136.333 22.216 135.421 22.216ZM144.557 13.144H143.093V10.024H144.557V8.944C144.557 7.936 144.717 7.12 145.037 6.496C145.373 5.856 145.893 5.384 146.597 5.08C147.317 4.776 148.245 4.624 149.381 4.624C149.701 4.624 150.029 4.648 150.365 4.696C150.717 4.728 151.029 4.776 151.301 4.84V8.008C150.997 7.88 150.605 7.816 150.125 7.816C149.613 7.816 149.221 7.944 148.949 8.2C148.693 8.456 148.565 8.832 148.565 9.328V10.024H151.229V13.144H148.565V22H144.557V13.144ZM158.415 22.336C156.959 22.336 155.711 22.048 154.671 21.472C153.647 20.88 152.895 20.048 152.415 18.976C152.031 18.112 151.839 17.12 151.839 16C151.839 14.896 152.031 13.912 152.415 13.048C152.895 11.976 153.647 11.144 154.671 10.552C155.711 9.96 156.959 9.664 158.415 9.664C159.871 9.664 161.111 9.96 162.135 10.552C163.159 11.128 163.911 11.952 164.391 13.024C164.791 13.872 164.991 14.864 164.991 16C164.991 17.152 164.791 18.152 164.391 19C163.911 20.056 163.159 20.88 162.135 21.472C161.111 22.048 159.871 22.336 158.415 22.336ZM158.415 19.096C159.407 19.096 160.079 18.72 160.431 17.968C160.543 17.728 160.615 17.456 160.647 17.152C160.695 16.832 160.719 16.448 160.719 16C160.719 15.104 160.623 14.456 160.431 14.056C160.095 13.304 159.423 12.928 158.415 12.928C157.423 12.928 156.751 13.304 156.399 14.056C156.207 14.504 156.111 15.152 156.111 16C156.111 16.832 156.207 17.488 156.399 17.968C156.751 18.72 157.423 19.096 158.415 19.096ZM166.429 10.024H170.413V11.104C170.717 10.608 171.045 10.248 171.397 10.024C171.765 9.8 172.189 9.688 172.669 9.688C173.389 9.688 173.957 9.904 174.373 10.336C174.805 10.752 175.021 11.312 175.021 12.016C175.021 12.464 174.925 12.864 174.733 13.216C174.541 13.568 174.269 13.848 173.917 14.056C173.565 14.248 173.165 14.344 172.717 14.344C172.301 14.344 171.925 14.248 171.589 14.056C171.253 13.848 171.005 13.584 170.845 13.264C170.669 13.344 170.557 13.456 170.509 13.6C170.461 13.744 170.437 14.024 170.437 14.44V22H166.429V10.024ZM188.446 10.024V21.328C188.446 22.512 188.254 23.52 187.87 24.352C187.022 26.24 185.118 27.184 182.158 27.184C179.966 27.184 178.302 26.68 177.166 25.672C176.766 25.32 176.454 24.92 176.23 24.472C176.006 24.024 175.846 23.504 175.75 22.912H179.95C179.998 23.264 180.15 23.552 180.406 23.776C180.79 24.112 181.366 24.28 182.134 24.28C183.238 24.28 183.942 23.92 184.246 23.2C184.39 22.912 184.462 22.544 184.462 22.096V20.416C184.046 20.976 183.534 21.408 182.926 21.712C182.318 22 181.59 22.144 180.742 22.144C179.67 22.144 178.742 21.904 177.958 21.424C177.19 20.928 176.598 20.224 176.182 19.312C175.974 18.816 175.814 18.296 175.702 17.752C175.606 17.208 175.558 16.592 175.558 15.904C175.558 15.216 175.606 14.6 175.702 14.056C175.814 13.512 175.974 13 176.182 12.52C176.598 11.608 177.19 10.904 177.958 10.408C178.742 9.912 179.67 9.664 180.742 9.664C182.406 9.664 183.662 10.264 184.51 11.464V10.024H188.446ZM182.182 19C182.918 19 183.478 18.776 183.862 18.328C184.262 17.864 184.462 17.2 184.462 16.336V15.616C184.462 14.736 184.262 14.064 183.862 13.6C183.478 13.136 182.918 12.904 182.182 12.904C181.686 12.904 181.262 13.008 180.91 13.216C180.558 13.408 180.294 13.696 180.118 14.08C180.006 14.32 179.926 14.584 179.878 14.872C179.846 15.16 179.83 15.504 179.83 15.904C179.83 16.368 179.846 16.744 179.878 17.032C179.926 17.32 180.006 17.592 180.118 17.848C180.294 18.216 180.558 18.504 180.91 18.712C181.262 18.904 181.686 19 182.182 19ZM198.158 18.904C198.302 18.792 198.414 18.656 198.494 18.496C198.574 18.32 198.63 18.144 198.662 17.968H202.718C202.622 19.104 202.166 20.04 201.35 20.776C200.774 21.304 200.07 21.696 199.238 21.952C198.422 22.208 197.526 22.336 196.55 22.336C195.078 22.336 193.814 22.056 192.758 21.496C191.702 20.92 190.934 20.096 190.454 19.024C190.07 18.16 189.878 17.144 189.878 15.976C189.878 15.352 189.926 14.808 190.022 14.344C190.118 13.864 190.262 13.408 190.454 12.976C190.918 11.92 191.654 11.104 192.662 10.528C193.67 9.952 194.878 9.664 196.286 9.664C197.71 9.664 198.926 9.96 199.934 10.552C200.958 11.144 201.71 11.968 202.19 13.024C202.446 13.584 202.614 14.152 202.694 14.728C202.774 15.304 202.814 16.056 202.814 16.984H193.934C193.982 17.56 194.078 17.984 194.222 18.256C194.558 19.024 195.31 19.408 196.478 19.408C197.214 19.408 197.774 19.24 198.158 18.904ZM196.358 12.496C195.83 12.496 195.382 12.6 195.014 12.808C194.662 13 194.398 13.288 194.222 13.672C194.142 13.832 194.078 13.992 194.03 14.152C193.998 14.296 193.974 14.48 193.958 14.704H198.734C198.718 14.48 198.694 14.296 198.662 14.152C198.63 13.992 198.574 13.832 198.494 13.672C198.142 12.888 197.43 12.496 196.358 12.496ZM209.062 22.216C208.086 22.216 207.302 22.08 206.71 21.808C206.118 21.536 205.678 21.104 205.39 20.512C205.118 19.92 204.982 19.12 204.982 18.112V13.144H203.374V10.024H204.982V7.168H208.99V10.024H211.798V13.144H208.99V17.416C208.99 18.008 209.102 18.424 209.326 18.664C209.566 18.904 209.942 19.024 210.454 19.024C210.854 19.024 211.27 18.968 211.702 18.856V21.952C210.854 22.128 209.974 22.216 209.062 22.216ZM222.421 22.216C221.445 22.216 220.661 22.08 220.069 21.808C219.477 21.536 219.037 21.104 218.749 20.512C218.477 19.92 218.341 19.12 218.341 18.112V13.144H216.733V10.024H218.341V7.168H222.349V10.024H225.157V13.144H222.349V17.416C222.349 18.008 222.461 18.424 222.685 18.664C222.925 18.904 223.301 19.024 223.813 19.024C224.213 19.024 224.629 18.968 225.061 18.856V21.952C224.213 22.128 223.333 22.216 222.421 22.216ZM232.454 22.336C230.998 22.336 229.75 22.048 228.71 21.472C227.686 20.88 226.934 20.048 226.454 18.976C226.07 18.112 225.878 17.12 225.878 16C225.878 14.896 226.07 13.912 226.454 13.048C226.934 11.976 227.686 11.144 228.71 10.552C229.75 9.96 230.998 9.664 232.454 9.664C233.91 9.664 235.15 9.96 236.174 10.552C237.198 11.128 237.95 11.952 238.43 13.024C238.83 13.872 239.03 14.864 239.03 16C239.03 17.152 238.83 18.152 238.43 19C237.95 20.056 237.198 20.88 236.174 21.472C235.15 22.048 233.91 22.336 232.454 22.336ZM232.454 19.096C233.446 19.096 234.118 18.72 234.47 17.968C234.582 17.728 234.654 17.456 234.686 17.152C234.734 16.832 234.758 16.448 234.758 16C234.758 15.104 234.662 14.456 234.47 14.056C234.134 13.304 233.462 12.928 232.454 12.928C231.462 12.928 230.79 13.304 230.438 14.056C230.246 14.504 230.15 15.152 230.15 16C230.15 16.832 230.246 17.488 230.438 17.968C230.79 18.72 231.462 19.096 232.454 19.096ZM243.701 10H247.997L250.421 17.464L252.869 10H257.141L252.653 22H248.189L243.701 10ZM265.213 18.904C265.357 18.792 265.469 18.656 265.549 18.496C265.629 18.32 265.685 18.144 265.717 17.968H269.773C269.677 19.104 269.221 20.04 268.405 20.776C267.829 21.304 267.125 21.696 266.293 21.952C265.477 22.208 264.581 22.336 263.605 22.336C262.133 22.336 260.869 22.056 259.813 21.496C258.757 20.92 257.989 20.096 257.509 19.024C257.125 18.16 256.933 17.144 256.933 15.976C256.933 15.352 256.981 14.808 257.077 14.344C257.173 13.864 257.317 13.408 257.509 12.976C257.973 11.92 258.709 11.104 259.717 10.528C260.725 9.952 261.933 9.664 263.341 9.664C264.765 9.664 265.981 9.96 266.989 10.552C268.013 11.144 268.765 11.968 269.245 13.024C269.501 13.584 269.669 14.152 269.749 14.728C269.829 15.304 269.869 16.056 269.869 16.984H260.989C261.037 17.56 261.133 17.984 261.277 18.256C261.613 19.024 262.365 19.408 263.533 19.408C264.269 19.408 264.829 19.24 265.213 18.904ZM263.413 12.496C262.885 12.496 262.437 12.6 262.069 12.808C261.717 13 261.453 13.288 261.277 13.672C261.197 13.832 261.133 13.992 261.085 14.152C261.053 14.296 261.029 14.48 261.013 14.704H265.789C265.773 14.48 265.749 14.296 265.717 14.152C265.685 13.992 265.629 13.832 265.549 13.672C265.197 12.888 264.485 12.496 263.413 12.496ZM271.312 10.024H275.296V11.104C275.6 10.608 275.928 10.248 276.28 10.024C276.648 9.8 277.072 9.688 277.552 9.688C278.272 9.688 278.84 9.904 279.256 10.336C279.688 10.752 279.904 11.312 279.904 12.016C279.904 12.464 279.808 12.864 279.616 13.216C279.424 13.568 279.152 13.848 278.8 14.056C278.448 14.248 278.048 14.344 277.6 14.344C277.184 14.344 276.808 14.248 276.472 14.056C276.136 13.848 275.888 13.584 275.728 13.264C275.552 13.344 275.44 13.456 275.392 13.6C275.344 13.744 275.32 14.024 275.32 14.44V22H271.312V10.024ZM283.078 8.776C282.678 8.776 282.318 8.696 281.998 8.536C281.678 8.36 281.422 8.12 281.23 7.816C281.054 7.512 280.966 7.168 280.966 6.784C280.966 6.4 281.054 6.056 281.23 5.752C281.422 5.448 281.678 5.216 281.998 5.056C282.318 4.88 282.678 4.792 283.078 4.792C283.478 4.792 283.838 4.88 284.158 5.056C284.478 5.216 284.726 5.448 284.902 5.752C285.094 6.056 285.19 6.4 285.19 6.784C285.19 7.168 285.094 7.512 284.902 7.816C284.726 8.12 284.478 8.36 284.158 8.536C283.838 8.696 283.478 8.776 283.078 8.776ZM281.062 10.024H285.07V22H281.062V10.024ZM287.807 13.144H286.343V10.024H287.807V8.944C287.807 7.936 287.967 7.12 288.287 6.496C288.623 5.856 289.143 5.384 289.847 5.08C290.567 4.776 291.495 4.624 292.631 4.624C292.951 4.624 293.279 4.648 293.615 4.696C293.967 4.728 294.279 4.776 294.551 4.84V8.008C294.247 7.88 293.855 7.816 293.375 7.816C292.863 7.816 292.471 7.944 292.199 8.2C291.943 8.456 291.815 8.832 291.815 9.328V10.024H294.479V13.144H291.815V22H287.807V13.144ZM308.376 10.024L303.552 22L301.608 26.848H297.6L299.568 21.952L294.912 10.024H299.232L301.704 17.68L304.176 10.024H308.376ZM325.954 10.024L321.13 22L319.186 26.848H315.178L317.146 21.952L312.49 10.024H316.81L319.282 17.68L321.754 10.024H325.954ZM332.321 22.336C330.865 22.336 329.617 22.048 328.577 21.472C327.553 20.88 326.801 20.048 326.321 18.976C325.937 18.112 325.745 17.12 325.745 16C325.745 14.896 325.937 13.912 326.321 13.048C326.801 11.976 327.553 11.144 328.577 10.552C329.617 9.96 330.865 9.664 332.321 9.664C333.777 9.664 335.017 9.96 336.041 10.552C337.065 11.128 337.817 11.952 338.297 13.024C338.697 13.872 338.897 14.864 338.897 16C338.897 17.152 338.697 18.152 338.297 19C337.817 20.056 337.065 20.88 336.041 21.472C335.017 22.048 333.777 22.336 332.321 22.336ZM332.321 19.096C333.313 19.096 333.985 18.72 334.337 17.968C334.449 17.728 334.521 17.456 334.553 17.152C334.601 16.832 334.625 16.448 334.625 16C334.625 15.104 334.529 14.456 334.337 14.056C334.001 13.304 333.329 12.928 332.321 12.928C331.329 12.928 330.657 13.304 330.305 14.056C330.113 14.504 330.017 15.152 330.017 16C330.017 16.832 330.113 17.488 330.305 17.968C330.657 18.72 331.329 19.096 332.321 19.096ZM352.144 10.024V22H348.136V20.536C347.704 21.128 347.184 21.584 346.576 21.904C345.984 22.208 345.28 22.36 344.464 22.36C343.12 22.36 342.072 21.96 341.32 21.16C340.584 20.36 340.216 19.216 340.216 17.728V10.024H344.224V16.864C344.224 17.648 344.376 18.216 344.68 18.568C344.984 18.92 345.456 19.096 346.096 19.096C347.456 19.096 348.136 18.312 348.136 16.744V10.024H352.144ZM354.117 10.024H358.101V11.104C358.405 10.608 358.733 10.248 359.085 10.024C359.453 9.8 359.877 9.688 360.357 9.688C361.077 9.688 361.645 9.904 362.061 10.336C362.493 10.752 362.709 11.312 362.709 12.016C362.709 12.464 362.613 12.864 362.421 13.216C362.229 13.568 361.957 13.848 361.605 14.056C361.253 14.248 360.853 14.344 360.405 14.344C359.989 14.344 359.613 14.248 359.277 14.056C358.941 13.848 358.693 13.584 358.533 13.264C358.357 13.344 358.245 13.456 358.197 13.6C358.149 13.744 358.125 14.024 358.125 14.44V22H354.117V10.024ZM383.419 9.664C384.747 9.664 385.763 10.064 386.467 10.864C387.171 11.664 387.523 12.808 387.523 14.296V22H383.515V15.136C383.515 14.368 383.371 13.808 383.083 13.456C382.795 13.104 382.347 12.928 381.739 12.928C381.115 12.928 380.643 13.128 380.323 13.528C380.003 13.928 379.843 14.512 379.843 15.28V22H375.859V15.136C375.859 14.368 375.707 13.808 375.403 13.456C375.115 13.104 374.667 12.928 374.059 12.928C373.451 12.928 372.987 13.128 372.667 13.528C372.347 13.912 372.187 14.496 372.187 15.28V22H368.179V10.024H372.187V11.464C372.571 10.904 373.075 10.464 373.699 10.144C374.323 9.824 375.051 9.664 375.883 9.664C376.779 9.664 377.531 9.832 378.139 10.168C378.763 10.504 379.219 11.016 379.507 11.704C379.955 11.016 380.499 10.504 381.139 10.168C381.779 9.832 382.539 9.664 383.419 9.664ZM400.503 12.16C400.839 12.944 401.007 13.928 401.007 15.112V22H396.999V20.584C396.583 21.16 396.055 21.6 395.415 21.904C394.775 22.192 393.983 22.336 393.039 22.336C392.079 22.336 391.255 22.168 390.567 21.832C389.895 21.48 389.415 20.976 389.127 20.32C388.903 19.872 388.791 19.304 388.791 18.616C388.791 17.976 388.887 17.432 389.079 16.984C389.479 16.104 390.191 15.504 391.215 15.184C392.239 14.848 393.567 14.68 395.199 14.68H396.999V14.488C396.999 14.136 396.983 13.872 396.951 13.696C396.935 13.52 396.887 13.352 396.807 13.192C396.567 12.664 396.015 12.4 395.151 12.4C394.687 12.4 394.319 12.464 394.047 12.592C393.775 12.704 393.575 12.896 393.447 13.168C393.399 13.28 393.367 13.392 393.351 13.504C393.335 13.616 393.319 13.744 393.303 13.888H389.223C389.239 13.248 389.359 12.688 389.583 12.208C389.967 11.36 390.631 10.728 391.575 10.312C392.535 9.88 393.711 9.664 395.103 9.664C396.559 9.664 397.719 9.864 398.583 10.264C399.463 10.664 400.103 11.296 400.503 12.16ZM394.695 19.48C395.767 19.48 396.463 19.12 396.783 18.4C396.863 18.24 396.919 18.064 396.951 17.872C396.983 17.68 396.999 17.416 396.999 17.08V16.912H395.463C394.807 16.912 394.279 16.968 393.879 17.08C393.495 17.176 393.239 17.368 393.111 17.656C393.031 17.816 392.991 17.992 392.991 18.184C392.991 18.408 393.031 18.6 393.111 18.76C393.335 19.24 393.863 19.48 394.695 19.48ZM404.906 8.776C404.506 8.776 404.146 8.696 403.826 8.536C403.506 8.36 403.25 8.12 403.058 7.816C402.882 7.512 402.794 7.168 402.794 6.784C402.794 6.4 402.882 6.056 403.058 5.752C403.25 5.448 403.506 5.216 403.826 5.056C404.146 4.88 404.506 4.792 404.906 4.792C405.306 4.792 405.666 4.88 405.986 5.056C406.306 5.216 406.554 5.448 406.73 5.752C406.922 6.056 407.018 6.4 407.018 6.784C407.018 7.168 406.922 7.512 406.73 7.816C406.554 8.12 406.306 8.36 405.986 8.536C405.666 8.696 405.306 8.776 404.906 8.776ZM402.89 10.024H406.898V22H402.89V10.024ZM408.867 5.056H412.875V22H408.867V5.056Z" fill="#363636"/>
</svg>
