<svg width="760" height="140" viewBox="0 0 760 140" fill="none" xmlns="http://www.w3.org/2000/svg">
<path d="M31.842 48.468H34.372V61.8H39.256V64H31.842V48.468ZM45.3832 64.264C44.1512 64.264 43.1098 64.0073 42.2592 63.494C41.4085 62.9807 40.7778 62.2693 40.3672 61.36C40.0005 60.5827 39.8172 59.666 39.8172 58.61C39.8172 57.554 40.0005 56.63 40.3672 55.838C40.7778 54.9287 41.4085 54.2173 42.2592 53.704C43.1098 53.1907 44.1512 52.934 45.3832 52.934C46.6152 52.934 47.6565 53.1907 48.5072 53.704C49.3725 54.2173 50.0105 54.9287 50.4212 55.838C50.7878 56.6593 50.9712 57.5833 50.9712 58.61C50.9712 59.6073 50.7878 60.5313 50.4212 61.382C50.0105 62.2913 49.3725 63.0027 48.5072 63.516C47.6565 64.0147 46.6152 64.264 45.3832 64.264ZM45.3832 62.218C46.0432 62.218 46.5932 62.086 47.0332 61.822C47.4878 61.5433 47.8252 61.162 48.0452 60.678C48.2652 60.1793 48.3752 59.49 48.3752 58.61C48.3752 57.7153 48.2652 57.026 48.0452 56.542C47.8252 56.0433 47.4878 55.662 47.0332 55.398C46.5932 55.134 46.0432 55.002 45.3832 55.002C44.7232 55.002 44.1732 55.134 43.7332 55.398C43.2932 55.662 42.9632 56.0433 42.7432 56.542C42.5085 57.0553 42.3912 57.7447 42.3912 58.61C42.3912 59.4607 42.5085 60.15 42.7432 60.678C42.9632 61.162 43.2932 61.5433 43.7332 61.822C44.1732 62.086 44.7232 62.218 45.3832 62.218ZM56.8117 64.33C55.7263 64.33 54.817 64.154 54.0837 63.802C53.365 63.45 52.8443 62.922 52.5217 62.218C52.287 61.7047 52.1697 61.1033 52.1697 60.414H54.5457C54.5457 60.8247 54.619 61.1693 54.7657 61.448C55.0883 62.152 55.785 62.504 56.8557 62.504C57.9263 62.504 58.5863 62.2253 58.8357 61.668C58.909 61.4773 58.9457 61.294 58.9457 61.118C58.9457 60.9127 58.909 60.722 58.8357 60.546C58.733 60.326 58.5643 60.15 58.3297 60.018C58.1097 59.886 57.831 59.776 57.4937 59.688C57.171 59.5853 56.709 59.4753 56.1077 59.358C55.2863 59.1673 54.5897 58.918 54.0177 58.61C53.4457 58.2873 53.035 57.8473 52.7857 57.29C52.639 56.9527 52.5657 56.5567 52.5657 56.102C52.5657 55.618 52.6537 55.1927 52.8297 54.826C53.1083 54.2247 53.5923 53.7627 54.2817 53.44C54.971 53.1027 55.7997 52.934 56.7677 52.934C57.7503 52.934 58.579 53.0953 59.2537 53.418C59.943 53.7407 60.4417 54.2173 60.7497 54.848C60.9403 55.288 61.0357 55.816 61.0357 56.432H58.7257C58.7257 56.1093 58.667 55.8087 58.5497 55.53C58.403 55.2367 58.1683 55.0167 57.8457 54.87C57.5377 54.7087 57.1637 54.628 56.7237 54.628C55.829 54.628 55.2643 54.87 55.0297 55.354C54.971 55.486 54.9417 55.6547 54.9417 55.86C54.9417 56.0507 54.971 56.1973 55.0297 56.3C55.1323 56.5347 55.3157 56.7253 55.5797 56.872C55.8437 57.0187 56.1223 57.136 56.4157 57.224C56.7237 57.2973 57.171 57.4 57.7577 57.532C58.667 57.7667 59.4077 58.0453 59.9797 58.368C60.5663 58.676 60.9917 59.1087 61.2557 59.666C61.4023 60.0033 61.4757 60.4067 61.4757 60.876C61.4757 61.3893 61.3877 61.866 61.2117 62.306C60.9037 62.966 60.3537 63.472 59.5617 63.824C58.7843 64.1613 57.8677 64.33 56.8117 64.33ZM70.5311 61.646C70.7217 61.47 70.8757 61.2573 70.9931 61.008C71.1251 60.7587 71.2057 60.5093 71.2351 60.26H73.6551C73.5524 61.3453 73.1271 62.24 72.3791 62.944C71.8951 63.3693 71.3084 63.6993 70.6191 63.934C69.9297 64.154 69.1744 64.264 68.3531 64.264C67.0917 64.264 66.0137 64.0147 65.1191 63.516C64.2391 63.0173 63.5937 62.3133 63.1831 61.404C62.8311 60.612 62.6551 59.6733 62.6551 58.588C62.6551 58.0307 62.6991 57.5247 62.7871 57.07C62.8751 56.6153 63.0071 56.19 63.1831 55.794C63.5937 54.8847 64.2244 54.1807 65.0751 53.682C65.9404 53.1833 66.9744 52.934 68.1771 52.934C69.3797 52.934 70.4064 53.1833 71.2571 53.682C72.1224 54.1807 72.7531 54.8773 73.1491 55.772C73.3691 56.2707 73.5157 56.7913 73.5891 57.334C73.6771 57.8767 73.7211 58.522 73.7211 59.27H65.1191C65.1631 59.9153 65.2731 60.4213 65.4491 60.788C65.6691 61.2867 66.0211 61.668 66.5051 61.932C66.9891 62.196 67.5904 62.328 68.3091 62.328C68.7784 62.328 69.2037 62.2693 69.5851 62.152C69.9664 62.0347 70.2817 61.866 70.5311 61.646ZM68.2211 54.892C66.8424 54.892 65.9184 55.4127 65.4491 56.454C65.3024 56.7767 65.2071 57.1213 65.1631 57.488H71.2131C71.1691 57.1067 71.0811 56.7327 70.9491 56.366C70.7144 55.882 70.3697 55.5153 69.9151 55.266C69.4604 55.0167 68.8957 54.892 68.2211 54.892ZM89.2812 53.22V64H86.8613V62.768C86.1133 63.78 84.9913 64.286 83.4953 64.286C82.1753 64.286 81.1486 63.912 80.4153 63.164C79.6966 62.416 79.3373 61.3233 79.3373 59.886V53.22H81.7573V59.402C81.7573 60.37 81.9553 61.0813 82.3513 61.536C82.7619 61.9907 83.3706 62.218 84.1773 62.218C85.0426 62.218 85.7026 61.9687 86.1573 61.47C86.6266 60.9713 86.8613 60.2453 86.8613 59.292V53.22H89.2812ZM101.948 55.618C102.344 56.498 102.542 57.4953 102.542 58.61C102.542 59.1527 102.491 59.6807 102.388 60.194C102.285 60.6927 102.139 61.1547 101.948 61.58C101.567 62.4307 101.002 63.0907 100.254 63.56C99.5059 64.0293 98.6039 64.264 97.5479 64.264C96.7999 64.264 96.1253 64.1393 95.5239 63.89C94.9226 63.626 94.4166 63.2447 94.0059 62.746V68.444H91.5639V53.22H93.9399V54.518C94.3506 53.99 94.8566 53.594 95.4579 53.33C96.0739 53.066 96.7706 52.934 97.5479 52.934C98.6039 52.934 99.5059 53.1687 100.254 53.638C101.002 54.1073 101.567 54.7673 101.948 55.618ZM99.5939 60.656C99.8286 60.0987 99.9459 59.4167 99.9459 58.61C99.9459 57.7887 99.8286 57.0993 99.5939 56.542C99.3593 56.0287 99.0146 55.6473 98.5599 55.398C98.1053 55.134 97.5626 55.002 96.9319 55.002C96.0226 55.002 95.3039 55.2953 94.7759 55.882C94.2479 56.454 93.9839 57.268 93.9839 58.324V58.874C93.9839 59.9447 94.2479 60.7733 94.7759 61.36C95.3039 61.932 96.0226 62.218 96.9319 62.218C97.5626 62.218 98.1053 62.086 98.5599 61.822C99.0146 61.558 99.3593 61.1693 99.5939 60.656ZM108.292 64.176C107.118 64.176 106.26 63.9047 105.718 63.362C105.19 62.8047 104.926 61.91 104.926 60.678V55.222H103.254V53.22H104.926V50.624H107.346V53.22H110.404V55.222H107.346V60.238C107.346 60.8833 107.478 61.36 107.742 61.668C108.02 61.9613 108.446 62.108 109.018 62.108C109.487 62.108 109.92 62.0493 110.316 61.932V63.956C109.626 64.1027 108.952 64.176 108.292 64.176ZM116.797 64.264C115.565 64.264 114.524 64.0073 113.673 63.494C112.823 62.9807 112.192 62.2693 111.781 61.36C111.415 60.5827 111.231 59.666 111.231 58.61C111.231 57.554 111.415 56.63 111.781 55.838C112.192 54.9287 112.823 54.2173 113.673 53.704C114.524 53.1907 115.565 52.934 116.797 52.934C118.029 52.934 119.071 53.1907 119.921 53.704C120.787 54.2173 121.425 54.9287 121.835 55.838C122.202 56.6593 122.385 57.5833 122.385 58.61C122.385 59.6073 122.202 60.5313 121.835 61.382C121.425 62.2913 120.787 63.0027 119.921 63.516C119.071 64.0147 118.029 64.264 116.797 64.264ZM116.797 62.218C117.457 62.218 118.007 62.086 118.447 61.822C118.902 61.5433 119.239 61.162 119.459 60.678C119.679 60.1793 119.789 59.49 119.789 58.61C119.789 57.7153 119.679 57.026 119.459 56.542C119.239 56.0433 118.902 55.662 118.447 55.398C118.007 55.134 117.457 55.002 116.797 55.002C116.137 55.002 115.587 55.134 115.147 55.398C114.707 55.662 114.377 56.0433 114.157 56.542C113.923 57.0553 113.805 57.7447 113.805 58.61C113.805 59.4607 113.923 60.15 114.157 60.678C114.377 61.162 114.707 61.5433 115.147 61.822C115.587 62.086 116.137 62.218 116.797 62.218ZM138.911 57.862C139.16 58.4047 139.285 59.0207 139.285 59.71C139.285 60.4873 139.146 61.162 138.867 61.734C138.486 62.5847 137.848 63.2373 136.953 63.692C136.073 64.1467 134.929 64.374 133.521 64.374C132.201 64.374 131.072 64.1467 130.133 63.692C129.194 63.2373 128.534 62.5627 128.153 61.668C127.757 60.788 127.559 59.688 127.559 58.368H129.957C129.957 59.2333 130.089 59.9667 130.353 60.568C130.852 61.6533 131.871 62.196 133.411 62.196C134.174 62.196 134.812 62.0713 135.325 61.822C135.853 61.5727 136.227 61.206 136.447 60.722C136.608 60.3847 136.689 59.9593 136.689 59.446C136.689 59.0207 136.601 58.632 136.425 58.28C136.176 57.752 135.743 57.378 135.127 57.158C134.526 56.938 133.778 56.828 132.883 56.828H132.267V54.804H132.883C134.658 54.804 135.758 54.3493 136.183 53.44C136.256 53.308 136.308 53.1687 136.337 53.022C136.366 52.8753 136.381 52.6993 136.381 52.494C136.381 52.0833 136.315 51.7387 136.183 51.46C135.978 51.02 135.64 50.69 135.171 50.47C134.702 50.25 134.13 50.14 133.455 50.14C131.959 50.14 130.976 50.646 130.507 51.658C130.331 52.0833 130.236 52.5967 130.221 53.198H127.845C127.845 52.2593 127.999 51.4527 128.307 50.778C128.703 49.898 129.356 49.2307 130.265 48.776C131.189 48.3213 132.296 48.094 133.587 48.094C134.848 48.094 135.897 48.314 136.733 48.754C137.584 49.194 138.185 49.7953 138.537 50.558C138.772 51.0713 138.889 51.658 138.889 52.318C138.889 52.8607 138.786 53.3593 138.581 53.814C138.361 54.298 138.046 54.7087 137.635 55.046C137.239 55.3687 136.726 55.618 136.095 55.794C137.518 56.1313 138.456 56.8207 138.911 57.862ZM144.489 58.478L140.265 53.22H143.257L145.941 56.806L148.647 53.22H151.617L147.437 58.478L151.771 64H148.779L145.941 60.216L143.125 64H140.177L144.489 58.478ZM169.681 52.934C170.957 52.934 171.94 53.3153 172.629 54.078C173.333 54.826 173.685 55.9187 173.685 57.356V64H171.265V57.84C171.265 56.8573 171.075 56.1387 170.693 55.684C170.312 55.2293 169.74 55.002 168.977 55.002C168.156 55.002 167.533 55.2513 167.107 55.75C166.682 56.2487 166.469 56.9747 166.469 57.928V64H164.049V57.84C164.049 56.8573 163.859 56.1387 163.477 55.684C163.111 55.2293 162.539 55.002 161.761 55.002C160.955 55.002 160.339 55.2513 159.913 55.75C159.488 56.2487 159.275 56.9747 159.275 57.928V64H156.833V53.22H159.275V54.364C160.009 53.4107 161.094 52.934 162.531 52.934C163.382 52.934 164.108 53.0953 164.709 53.418C165.325 53.7407 165.78 54.2247 166.073 54.87C166.44 54.21 166.917 53.726 167.503 53.418C168.105 53.0953 168.831 52.934 169.681 52.934ZM180.928 64.264C179.696 64.264 178.655 64.0073 177.804 63.494C176.953 62.9807 176.323 62.2693 175.912 61.36C175.545 60.5827 175.362 59.666 175.362 58.61C175.362 57.554 175.545 56.63 175.912 55.838C176.323 54.9287 176.953 54.2173 177.804 53.704C178.655 53.1907 179.696 52.934 180.928 52.934C182.16 52.934 183.201 53.1907 184.052 53.704C184.917 54.2173 185.555 54.9287 185.966 55.838C186.333 56.6593 186.516 57.5833 186.516 58.61C186.516 59.6073 186.333 60.5313 185.966 61.382C185.555 62.2913 184.917 63.0027 184.052 63.516C183.201 64.0147 182.16 64.264 180.928 64.264ZM180.928 62.218C181.588 62.218 182.138 62.086 182.578 61.822C183.033 61.5433 183.37 61.162 183.59 60.678C183.81 60.1793 183.92 59.49 183.92 58.61C183.92 57.7153 183.81 57.026 183.59 56.542C183.37 56.0433 183.033 55.662 182.578 55.398C182.138 55.134 181.588 55.002 180.928 55.002C180.268 55.002 179.718 55.134 179.278 55.398C178.838 55.662 178.508 56.0433 178.288 56.542C178.053 57.0553 177.936 57.7447 177.936 58.61C177.936 59.4607 178.053 60.15 178.288 60.678C178.508 61.162 178.838 61.5433 179.278 61.822C179.718 62.086 180.268 62.218 180.928 62.218ZM193.567 53.066C193.992 53.066 194.359 53.11 194.667 53.198V55.354C194.344 55.2807 193.977 55.244 193.567 55.244C192.628 55.244 191.917 55.53 191.433 56.102C190.963 56.6593 190.729 57.4733 190.729 58.544V64H188.287V53.22H190.707V54.474C191.337 53.5353 192.291 53.066 193.567 53.066ZM203.305 61.646C203.495 61.47 203.649 61.2573 203.767 61.008C203.899 60.7587 203.979 60.5093 204.009 60.26H206.428C206.326 61.3453 205.901 62.24 205.153 62.944C204.669 63.3693 204.082 63.6993 203.393 63.934C202.703 64.154 201.948 64.264 201.127 64.264C199.865 64.264 198.787 64.0147 197.893 63.516C197.013 63.0173 196.367 62.3133 195.957 61.404C195.605 60.612 195.429 59.6733 195.429 58.588C195.429 58.0307 195.473 57.5247 195.561 57.07C195.649 56.6153 195.781 56.19 195.957 55.794C196.367 54.8847 196.998 54.1807 197.849 53.682C198.714 53.1833 199.748 52.934 200.951 52.934C202.153 52.934 203.18 53.1833 204.031 53.682C204.896 54.1807 205.527 54.8773 205.922 55.772C206.143 56.2707 206.289 56.7913 206.363 57.334C206.451 57.8767 206.495 58.522 206.495 59.27H197.893C197.937 59.9153 198.047 60.4213 198.223 60.788C198.443 61.2867 198.795 61.668 199.279 61.932C199.763 62.196 200.364 62.328 201.083 62.328C201.552 62.328 201.977 62.2693 202.359 62.152C202.74 62.0347 203.055 61.866 203.305 61.646ZM200.995 54.892C199.616 54.892 198.692 55.4127 198.223 56.454C198.076 56.7767 197.981 57.1213 197.937 57.488H203.987C203.943 57.1067 203.855 56.7327 203.723 56.366C203.488 55.882 203.143 55.5153 202.689 55.266C202.234 55.0167 201.669 54.892 200.995 54.892ZM228.413 53.22L224.541 64H222.077L219.767 56.52L217.457 64H214.993L211.121 53.22H213.739L216.181 60.986L218.535 53.22H220.977L223.331 60.964L225.795 53.22H228.413ZM230.877 51.592C230.437 51.592 230.077 51.4673 229.799 51.218C229.52 50.954 229.381 50.624 229.381 50.228C229.381 49.8173 229.513 49.4873 229.777 49.238C230.055 48.974 230.422 48.842 230.877 48.842C231.302 48.842 231.647 48.974 231.911 49.238C232.175 49.4873 232.307 49.8173 232.307 50.228C232.307 50.624 232.167 50.954 231.889 51.218C231.625 51.4673 231.287 51.592 230.877 51.592ZM229.623 53.22H232.065V64H229.623V53.22ZM238.53 64.176C237.357 64.176 236.499 63.9047 235.956 63.362C235.428 62.8047 235.164 61.91 235.164 60.678V55.222H233.492V53.22H235.164V50.624H237.584V53.22H240.642V55.222H237.584V60.238C237.584 60.8833 237.716 61.36 237.98 61.668C238.259 61.9613 238.684 62.108 239.256 62.108C239.725 62.108 240.158 62.0493 240.554 61.932V63.956C239.865 64.1027 239.19 64.176 238.53 64.176ZM247.977 52.934C249.297 52.934 250.317 53.308 251.035 54.056C251.754 54.804 252.113 55.8967 252.113 57.334V64H249.693V57.818C249.693 56.85 249.495 56.1387 249.099 55.684C248.703 55.2293 248.095 55.002 247.273 55.002C246.408 55.002 245.748 55.2513 245.293 55.75C244.839 56.234 244.611 56.96 244.611 57.928V64H242.169V48.468H244.611V54.43C245.359 53.4327 246.481 52.934 247.977 52.934ZM262.485 64.176C261.312 64.176 260.454 63.9047 259.911 63.362C259.383 62.8047 259.119 61.91 259.119 60.678V55.222H257.447V53.22H259.119V50.624H261.539V53.22H264.597V55.222H261.539V60.238C261.539 60.8833 261.671 61.36 261.935 61.668C262.214 61.9613 262.639 62.108 263.211 62.108C263.681 62.108 264.113 62.0493 264.509 61.932V63.956C263.82 64.1027 263.145 64.176 262.485 64.176ZM271.932 52.934C273.252 52.934 274.272 53.308 274.99 54.056C275.709 54.804 276.068 55.8967 276.068 57.334V64H273.648V57.818C273.648 56.85 273.45 56.1387 273.054 55.684C272.658 55.2293 272.05 55.002 271.228 55.002C270.363 55.002 269.703 55.2513 269.248 55.75C268.794 56.234 268.566 56.96 268.566 57.928V64H266.124V48.468H268.566V54.43C269.314 53.4327 270.436 52.934 271.932 52.934ZM285.611 61.646C285.802 61.47 285.956 61.2573 286.073 61.008C286.205 60.7587 286.286 60.5093 286.315 60.26H288.735C288.632 61.3453 288.207 62.24 287.459 62.944C286.975 63.3693 286.388 63.6993 285.699 63.934C285.01 64.154 284.254 64.264 283.433 64.264C282.172 64.264 281.094 64.0147 280.199 63.516C279.319 63.0173 278.674 62.3133 278.263 61.404C277.911 60.612 277.735 59.6733 277.735 58.588C277.735 58.0307 277.779 57.5247 277.867 57.07C277.955 56.6153 278.087 56.19 278.263 55.794C278.674 54.8847 279.304 54.1807 280.155 53.682C281.02 53.1833 282.054 52.934 283.257 52.934C284.46 52.934 285.486 53.1833 286.337 53.682C287.202 54.1807 287.833 54.8773 288.229 55.772C288.449 56.2707 288.596 56.7913 288.669 57.334C288.757 57.8767 288.801 58.522 288.801 59.27H280.199C280.243 59.9153 280.353 60.4213 280.529 60.788C280.749 61.2867 281.101 61.668 281.585 61.932C282.069 62.196 282.67 62.328 283.389 62.328C283.858 62.328 284.284 62.2693 284.665 62.152C285.046 62.0347 285.362 61.866 285.611 61.646ZM283.301 54.892C281.922 54.892 280.998 55.4127 280.529 56.454C280.382 56.7767 280.287 57.1213 280.243 57.488H286.293C286.249 57.1067 286.161 56.7327 286.029 56.366C285.794 55.882 285.45 55.5153 284.995 55.266C284.54 55.0167 283.976 54.892 283.301 54.892ZM298.575 64.33C297.49 64.33 296.581 64.154 295.847 63.802C295.129 63.45 294.608 62.922 294.285 62.218C294.051 61.7047 293.933 61.1033 293.933 60.414H296.309C296.309 60.8247 296.383 61.1693 296.529 61.448C296.852 62.152 297.549 62.504 298.619 62.504C299.69 62.504 300.35 62.2253 300.599 61.668C300.673 61.4773 300.709 61.294 300.709 61.118C300.709 60.9127 300.673 60.722 300.599 60.546C300.497 60.326 300.328 60.15 300.093 60.018C299.873 59.886 299.595 59.776 299.257 59.688C298.935 59.5853 298.473 59.4753 297.871 59.358C297.05 59.1673 296.353 58.918 295.781 58.61C295.209 58.2873 294.799 57.8473 294.549 57.29C294.403 56.9527 294.329 56.5567 294.329 56.102C294.329 55.618 294.417 55.1927 294.593 54.826C294.872 54.2247 295.356 53.7627 296.045 53.44C296.735 53.1027 297.563 52.934 298.531 52.934C299.514 52.934 300.343 53.0953 301.017 53.418C301.707 53.7407 302.205 54.2173 302.513 54.848C302.704 55.288 302.799 55.816 302.799 56.432H300.489C300.489 56.1093 300.431 55.8087 300.313 55.53C300.167 55.2367 299.932 55.0167 299.609 54.87C299.301 54.7087 298.927 54.628 298.487 54.628C297.593 54.628 297.028 54.87 296.793 55.354C296.735 55.486 296.705 55.6547 296.705 55.86C296.705 56.0507 296.735 56.1973 296.793 56.3C296.896 56.5347 297.079 56.7253 297.343 56.872C297.607 57.0187 297.886 57.136 298.179 57.224C298.487 57.2973 298.935 57.4 299.521 57.532C300.431 57.7667 301.171 58.0453 301.743 58.368C302.33 58.676 302.755 59.1087 303.019 59.666C303.166 60.0033 303.239 60.4067 303.239 60.876C303.239 61.3893 303.151 61.866 302.975 62.306C302.667 62.966 302.117 63.472 301.325 63.824C300.548 64.1613 299.631 64.33 298.575 64.33ZM314.76 53.22V64H312.34V62.768C311.592 63.78 310.47 64.286 308.974 64.286C307.654 64.286 306.627 63.912 305.894 63.164C305.175 62.416 304.816 61.3233 304.816 59.886V53.22H307.236V59.402C307.236 60.37 307.434 61.0813 307.83 61.536C308.24 61.9907 308.849 62.218 309.656 62.218C310.521 62.218 311.181 61.9687 311.636 61.47C312.105 60.9713 312.34 60.2453 312.34 59.292V53.22H314.76ZM327.426 55.618C327.822 56.498 328.02 57.4953 328.02 58.61C328.02 59.1527 327.969 59.6807 327.866 60.194C327.764 60.6927 327.617 61.1547 327.426 61.58C327.045 62.4307 326.48 63.0907 325.732 63.56C324.984 64.0293 324.082 64.264 323.026 64.264C322.278 64.264 321.604 64.1393 321.002 63.89C320.401 63.626 319.895 63.2447 319.484 62.746V68.444H317.042V53.22H319.418V54.518C319.829 53.99 320.335 53.594 320.936 53.33C321.552 53.066 322.249 52.934 323.026 52.934C324.082 52.934 324.984 53.1687 325.732 53.638C326.48 54.1073 327.045 54.7673 327.426 55.618ZM325.072 60.656C325.307 60.0987 325.424 59.4167 325.424 58.61C325.424 57.7887 325.307 57.0993 325.072 56.542C324.838 56.0287 324.493 55.6473 324.038 55.398C323.584 55.134 323.041 55.002 322.41 55.002C321.501 55.002 320.782 55.2953 320.254 55.882C319.726 56.454 319.462 57.268 319.462 58.324V58.874C319.462 59.9447 319.726 60.7733 320.254 61.36C320.782 61.932 321.501 62.218 322.41 62.218C323.041 62.218 323.584 62.086 324.038 61.822C324.493 61.558 324.838 61.1693 325.072 60.656ZM340.167 55.618C340.563 56.498 340.761 57.4953 340.761 58.61C340.761 59.1527 340.709 59.6807 340.607 60.194C340.504 60.6927 340.357 61.1547 340.167 61.58C339.785 62.4307 339.221 63.0907 338.473 63.56C337.725 64.0293 336.823 64.264 335.767 64.264C335.019 64.264 334.344 64.1393 333.743 63.89C333.141 63.626 332.635 63.2447 332.225 62.746V68.444H329.783V53.22H332.159V54.518C332.569 53.99 333.075 53.594 333.677 53.33C334.293 53.066 334.989 52.934 335.767 52.934C336.823 52.934 337.725 53.1687 338.473 53.638C339.221 54.1073 339.785 54.7673 340.167 55.618ZM337.813 60.656C338.047 60.0987 338.165 59.4167 338.165 58.61C338.165 57.7887 338.047 57.0993 337.813 56.542C337.578 56.0287 337.233 55.6473 336.779 55.398C336.324 55.134 335.781 55.002 335.151 55.002C334.241 55.002 333.523 55.2953 332.995 55.882C332.467 56.454 332.203 57.268 332.203 58.324V58.874C332.203 59.9447 332.467 60.7733 332.995 61.36C333.523 61.932 334.241 62.218 335.151 62.218C335.781 62.218 336.324 62.086 336.779 61.822C337.233 61.558 337.578 61.1693 337.813 60.656ZM347.647 64.264C346.415 64.264 345.374 64.0073 344.523 63.494C343.672 62.9807 343.042 62.2693 342.631 61.36C342.264 60.5827 342.081 59.666 342.081 58.61C342.081 57.554 342.264 56.63 342.631 55.838C343.042 54.9287 343.672 54.2173 344.523 53.704C345.374 53.1907 346.415 52.934 347.647 52.934C348.879 52.934 349.92 53.1907 350.771 53.704C351.636 54.2173 352.274 54.9287 352.685 55.838C353.052 56.6593 353.235 57.5833 353.235 58.61C353.235 59.6073 353.052 60.5313 352.685 61.382C352.274 62.2913 351.636 63.0027 350.771 63.516C349.92 64.0147 348.879 64.264 347.647 64.264ZM347.647 62.218C348.307 62.218 348.857 62.086 349.297 61.822C349.752 61.5433 350.089 61.162 350.309 60.678C350.529 60.1793 350.639 59.49 350.639 58.61C350.639 57.7153 350.529 57.026 350.309 56.542C350.089 56.0433 349.752 55.662 349.297 55.398C348.857 55.134 348.307 55.002 347.647 55.002C346.987 55.002 346.437 55.134 345.997 55.398C345.557 55.662 345.227 56.0433 345.007 56.542C344.772 57.0553 344.655 57.7447 344.655 58.61C344.655 59.4607 344.772 60.15 345.007 60.678C345.227 61.162 345.557 61.5433 345.997 61.822C346.437 62.086 346.987 62.218 347.647 62.218ZM360.285 53.066C360.711 53.066 361.077 53.11 361.385 53.198V55.354C361.063 55.2807 360.696 55.244 360.285 55.244C359.347 55.244 358.635 55.53 358.151 56.102C357.682 56.6593 357.447 57.4733 357.447 58.544V64H355.005V53.22H357.425V54.474C358.056 53.5353 359.009 53.066 360.285 53.066ZM367.179 64.176C366.005 64.176 365.147 63.9047 364.605 63.362C364.077 62.8047 363.813 61.91 363.813 60.678V55.222H362.141V53.22H363.813V50.624H366.233V53.22H369.291V55.222H366.233V60.238C366.233 60.8833 366.365 61.36 366.629 61.668C366.907 61.9613 367.333 62.108 367.905 62.108C368.374 62.108 368.807 62.0493 369.203 61.932V63.956C368.513 64.1027 367.839 64.176 367.179 64.176ZM379.809 64.264C378.577 64.264 377.536 64.0073 376.685 63.494C375.834 62.9807 375.204 62.2693 374.793 61.36C374.426 60.5827 374.243 59.666 374.243 58.61C374.243 57.554 374.426 56.63 374.793 55.838C375.204 54.9287 375.834 54.2173 376.685 53.704C377.536 53.1907 378.577 52.934 379.809 52.934C381.041 52.934 382.082 53.1907 382.933 53.704C383.798 54.2173 384.436 54.9287 384.847 55.838C385.214 56.6593 385.397 57.5833 385.397 58.61C385.397 59.6073 385.214 60.5313 384.847 61.382C384.436 62.2913 383.798 63.0027 382.933 63.516C382.082 64.0147 381.041 64.264 379.809 64.264ZM379.809 62.218C380.469 62.218 381.019 62.086 381.459 61.822C381.914 61.5433 382.251 61.162 382.471 60.678C382.691 60.1793 382.801 59.49 382.801 58.61C382.801 57.7153 382.691 57.026 382.471 56.542C382.251 56.0433 381.914 55.662 381.459 55.398C381.019 55.134 380.469 55.002 379.809 55.002C379.149 55.002 378.599 55.134 378.159 55.398C377.719 55.662 377.389 56.0433 377.169 56.542C376.934 57.0553 376.817 57.7447 376.817 58.61C376.817 59.4607 376.934 60.15 377.169 60.678C377.389 61.162 377.719 61.5433 378.159 61.822C378.599 62.086 379.149 62.218 379.809 62.218ZM387.787 55.222H386.203V53.22H387.787V51.768C387.787 50.536 388.095 49.634 388.711 49.062C389.327 48.4753 390.295 48.182 391.615 48.182C392.114 48.182 392.598 48.2333 393.067 48.336V50.36C392.774 50.2573 392.422 50.206 392.011 50.206C390.823 50.206 390.229 50.8073 390.229 52.01V53.22H393.023V55.222H390.229V64H387.787V55.222ZM399.26 55.222H397.676V53.22H399.26V51.768C399.26 50.536 399.568 49.634 400.184 49.062C400.8 48.4753 401.768 48.182 403.088 48.182C403.586 48.182 404.07 48.2333 404.54 48.336V50.36C404.246 50.2573 403.894 50.206 403.484 50.206C402.296 50.206 401.702 50.8073 401.702 52.01V53.22H404.496V55.222H401.702V64H399.26V55.222ZM411.246 53.066C411.672 53.066 412.038 53.11 412.346 53.198V55.354C412.024 55.2807 411.657 55.244 411.246 55.244C410.308 55.244 409.596 55.53 409.112 56.102C408.643 56.6593 408.408 57.4733 408.408 58.544V64H405.966V53.22H408.386V54.474C409.017 53.5353 409.97 53.066 411.246 53.066ZM415.041 51.592C414.601 51.592 414.241 51.4673 413.963 51.218C413.684 50.954 413.545 50.624 413.545 50.228C413.545 49.8173 413.677 49.4873 413.941 49.238C414.219 48.974 414.586 48.842 415.041 48.842C415.466 48.842 415.811 48.974 416.075 49.238C416.339 49.4873 416.471 49.8173 416.471 50.228C416.471 50.624 416.331 50.954 416.053 51.218C415.789 51.4673 415.451 51.592 415.041 51.592ZM413.787 53.22H416.229V64H413.787V53.22ZM425.861 61.646C426.052 61.47 426.206 61.2573 426.323 61.008C426.455 60.7587 426.536 60.5093 426.565 60.26H428.985C428.882 61.3453 428.457 62.24 427.709 62.944C427.225 63.3693 426.638 63.6993 425.949 63.934C425.26 64.154 424.504 64.264 423.683 64.264C422.422 64.264 421.344 64.0147 420.449 63.516C419.569 63.0173 418.924 62.3133 418.513 61.404C418.161 60.612 417.985 59.6733 417.985 58.588C417.985 58.0307 418.029 57.5247 418.117 57.07C418.205 56.6153 418.337 56.19 418.513 55.794C418.924 54.8847 419.554 54.1807 420.405 53.682C421.27 53.1833 422.304 52.934 423.507 52.934C424.71 52.934 425.736 53.1833 426.587 53.682C427.452 54.1807 428.083 54.8773 428.479 55.772C428.699 56.2707 428.846 56.7913 428.919 57.334C429.007 57.8767 429.051 58.522 429.051 59.27H420.449C420.493 59.9153 420.603 60.4213 420.779 60.788C420.999 61.2867 421.351 61.668 421.835 61.932C422.319 62.196 422.92 62.328 423.639 62.328C424.108 62.328 424.534 62.2693 424.915 62.152C425.296 62.0347 425.612 61.866 425.861 61.646ZM423.551 54.892C422.172 54.892 421.248 55.4127 420.779 56.454C420.632 56.7767 420.537 57.1213 420.493 57.488H426.543C426.499 57.1067 426.411 56.7327 426.279 56.366C426.044 55.882 425.7 55.5153 425.245 55.266C424.79 55.0167 424.226 54.892 423.551 54.892ZM436.61 52.934C437.93 52.934 438.95 53.308 439.668 54.056C440.387 54.804 440.746 55.8967 440.746 57.334V64H438.326V57.818C438.326 56.85 438.128 56.1387 437.732 55.684C437.336 55.2293 436.728 55.002 435.906 55.002C435.041 55.002 434.381 55.2513 433.926 55.75C433.472 56.234 433.244 56.96 433.244 57.928V64H430.802V53.22H433.244V54.43C433.992 53.4327 435.114 52.934 436.61 52.934ZM453.369 48.468V64H450.993V62.702C450.582 63.2153 450.069 63.604 449.453 63.868C448.852 64.132 448.17 64.264 447.407 64.264C446.351 64.264 445.449 64.0293 444.701 63.56C443.953 63.0907 443.388 62.4307 443.007 61.58C442.816 61.1547 442.67 60.6927 442.567 60.194C442.464 59.6807 442.413 59.1527 442.413 58.61C442.413 57.4953 442.611 56.498 443.007 55.618C443.388 54.7673 443.953 54.1073 444.701 53.638C445.449 53.1687 446.351 52.934 447.407 52.934C448.155 52.934 448.83 53.066 449.431 53.33C450.032 53.5793 450.538 53.9533 450.949 54.452V48.468H453.369ZM450.949 58.324C450.949 57.2533 450.685 56.432 450.157 55.86C449.644 55.288 448.932 55.002 448.023 55.002C447.392 55.002 446.85 55.134 446.395 55.398C445.94 55.6473 445.596 56.0287 445.361 56.542C445.126 57.0993 445.009 57.7887 445.009 58.61C445.009 59.4167 445.126 60.0987 445.361 60.656C445.596 61.1693 445.94 61.558 446.395 61.822C446.85 62.086 447.392 62.218 448.023 62.218C448.932 62.218 449.644 61.932 450.157 61.36C450.685 60.7733 450.949 59.9447 450.949 58.874V58.324ZM459.751 64.33C458.666 64.33 457.756 64.154 457.023 63.802C456.304 63.45 455.784 62.922 455.461 62.218C455.226 61.7047 455.109 61.1033 455.109 60.414H457.485C457.485 60.8247 457.558 61.1693 457.705 61.448C458.028 62.152 458.724 62.504 459.795 62.504C460.866 62.504 461.526 62.2253 461.775 61.668C461.848 61.4773 461.885 61.294 461.885 61.118C461.885 60.9127 461.848 60.722 461.775 60.546C461.672 60.326 461.504 60.15 461.269 60.018C461.049 59.886 460.77 59.776 460.433 59.688C460.11 59.5853 459.648 59.4753 459.047 59.358C458.226 59.1673 457.529 58.918 456.957 58.61C456.385 58.2873 455.974 57.8473 455.725 57.29C455.578 56.9527 455.505 56.5567 455.505 56.102C455.505 55.618 455.593 55.1927 455.769 54.826C456.048 54.2247 456.532 53.7627 457.221 53.44C457.91 53.1027 458.739 52.934 459.707 52.934C460.69 52.934 461.518 53.0953 462.193 53.418C462.882 53.7407 463.381 54.2173 463.689 54.848C463.88 55.288 463.975 55.816 463.975 56.432H461.665C461.665 56.1093 461.606 55.8087 461.489 55.53C461.342 55.2367 461.108 55.0167 460.785 54.87C460.477 54.7087 460.103 54.628 459.663 54.628C458.768 54.628 458.204 54.87 457.969 55.354C457.91 55.486 457.881 55.6547 457.881 55.86C457.881 56.0507 457.91 56.1973 457.969 56.3C458.072 56.5347 458.255 56.7253 458.519 56.872C458.783 57.0187 459.062 57.136 459.355 57.224C459.663 57.2973 460.11 57.4 460.697 57.532C461.606 57.7667 462.347 58.0453 462.919 58.368C463.506 58.676 463.931 59.1087 464.195 59.666C464.342 60.0033 464.415 60.4067 464.415 60.876C464.415 61.3893 464.327 61.866 464.151 62.306C463.843 62.966 463.293 63.472 462.501 63.824C461.724 64.1613 460.807 64.33 459.751 64.33ZM467.333 60.524H469.731L467.751 67.806H465.859L467.333 60.524ZM480.38 64.176C479.206 64.176 478.348 63.9047 477.806 63.362C477.278 62.8047 477.014 61.91 477.014 60.678V55.222H475.342V53.22H477.014V50.624H479.434V53.22H482.492V55.222H479.434V60.238C479.434 60.8833 479.566 61.36 479.83 61.668C480.108 61.9613 480.534 62.108 481.106 62.108C481.575 62.108 482.008 62.0493 482.404 61.932V63.956C481.714 64.1027 481.04 64.176 480.38 64.176ZM489.827 52.934C491.147 52.934 492.166 53.308 492.885 54.056C493.604 54.804 493.963 55.8967 493.963 57.334V64H491.543V57.818C491.543 56.85 491.345 56.1387 490.949 55.684C490.553 55.2293 489.944 55.002 489.123 55.002C488.258 55.002 487.598 55.2513 487.143 55.75C486.688 56.234 486.461 56.96 486.461 57.928V64H484.019V48.468H486.461V54.43C487.209 53.4327 488.331 52.934 489.827 52.934ZM505.442 55.112C505.735 55.7573 505.882 56.6153 505.882 57.686V64H503.44V62.79C502.662 63.7727 501.43 64.264 499.744 64.264C498.79 64.264 497.984 64.11 497.324 63.802C496.664 63.494 496.202 63.0393 495.938 62.438C495.747 62.0127 495.652 61.5287 495.652 60.986C495.652 60.4433 495.74 59.974 495.916 59.578C496.282 58.7713 496.906 58.2213 497.786 57.928C498.666 57.62 499.802 57.466 501.196 57.466H503.44V57.18C503.44 56.9013 503.425 56.674 503.396 56.498C503.366 56.3073 503.308 56.1167 503.22 55.926C502.897 55.222 502.149 54.87 500.976 54.87C500.374 54.87 499.883 54.9507 499.502 55.112C499.12 55.2733 498.849 55.53 498.688 55.882C498.585 56.146 498.534 56.388 498.534 56.608H496.07C496.07 55.992 496.172 55.4713 496.378 55.046C497.008 53.638 498.534 52.934 500.954 52.934C502.142 52.934 503.102 53.11 503.836 53.462C504.584 53.814 505.119 54.364 505.442 55.112ZM503.176 60.854C503.352 60.4287 503.44 59.93 503.44 59.358V59.226H501.35C500.543 59.226 499.876 59.292 499.348 59.424C498.82 59.556 498.475 59.798 498.314 60.15C498.226 60.326 498.182 60.5313 498.182 60.766C498.182 61.0007 498.226 61.2207 498.314 61.426C498.46 61.734 498.717 61.9613 499.084 62.108C499.45 62.2547 499.883 62.328 500.382 62.328C501.086 62.328 501.672 62.2033 502.142 61.954C502.611 61.7047 502.956 61.338 503.176 60.854ZM513.89 52.934C515.21 52.934 516.229 53.308 516.948 54.056C517.666 54.804 518.026 55.8967 518.026 57.334V64H515.606V57.818C515.606 56.85 515.408 56.1387 515.012 55.684C514.616 55.2293 514.007 55.002 513.186 55.002C512.32 55.002 511.66 55.2513 511.206 55.75C510.751 56.234 510.524 56.96 510.524 57.928V64H508.082V53.22H510.524V54.43C511.272 53.4327 512.394 52.934 513.89 52.934ZM528.397 64.176C527.224 64.176 526.366 63.9047 525.823 63.362C525.295 62.8047 525.031 61.91 525.031 60.678V55.222H523.359V53.22H525.031V50.624H527.451V53.22H530.509V55.222H527.451V60.238C527.451 60.8833 527.583 61.36 527.847 61.668C528.126 61.9613 528.551 62.108 529.123 62.108C529.593 62.108 530.025 62.0493 530.421 61.932V63.956C529.732 64.1027 529.057 64.176 528.397 64.176ZM537.845 52.934C539.165 52.934 540.184 53.308 540.903 54.056C541.621 54.804 541.981 55.8967 541.981 57.334V64H539.561V57.818C539.561 56.85 539.363 56.1387 538.967 55.684C538.571 55.2293 537.962 55.002 537.141 55.002C536.275 55.002 535.615 55.2513 535.161 55.75C534.706 56.234 534.479 56.96 534.479 57.928V64H532.037V48.468H534.479V54.43C535.227 53.4327 536.349 52.934 537.845 52.934ZM549.213 64.264C547.981 64.264 546.94 64.0073 546.089 63.494C545.239 62.9807 544.608 62.2693 544.197 61.36C543.831 60.5827 543.647 59.666 543.647 58.61C543.647 57.554 543.831 56.63 544.197 55.838C544.608 54.9287 545.239 54.2173 546.089 53.704C546.94 53.1907 547.981 52.934 549.213 52.934C550.445 52.934 551.487 53.1907 552.337 53.704C553.203 54.2173 553.841 54.9287 554.251 55.838C554.618 56.6593 554.801 57.5833 554.801 58.61C554.801 59.6073 554.618 60.5313 554.251 61.382C553.841 62.2913 553.203 63.0027 552.337 63.516C551.487 64.0147 550.445 64.264 549.213 64.264ZM549.213 62.218C549.873 62.218 550.423 62.086 550.863 61.822C551.318 61.5433 551.655 61.162 551.875 60.678C552.095 60.1793 552.205 59.49 552.205 58.61C552.205 57.7153 552.095 57.026 551.875 56.542C551.655 56.0433 551.318 55.662 550.863 55.398C550.423 55.134 549.873 55.002 549.213 55.002C548.553 55.002 548.003 55.134 547.563 55.398C547.123 55.662 546.793 56.0433 546.573 56.542C546.339 57.0553 546.221 57.7447 546.221 58.61C546.221 59.4607 546.339 60.15 546.573 60.678C546.793 61.162 547.123 61.5433 547.563 61.822C548.003 62.086 548.553 62.218 549.213 62.218ZM560.642 64.33C559.556 64.33 558.647 64.154 557.914 63.802C557.195 63.45 556.674 62.922 556.352 62.218C556.117 61.7047 556 61.1033 556 60.414H558.376C558.376 60.8247 558.449 61.1693 558.596 61.448C558.918 62.152 559.615 62.504 560.686 62.504C561.756 62.504 562.416 62.2253 562.666 61.668C562.739 61.4773 562.776 61.294 562.776 61.118C562.776 60.9127 562.739 60.722 562.666 60.546C562.563 60.326 562.394 60.15 562.16 60.018C561.94 59.886 561.661 59.776 561.324 59.688C561.001 59.5853 560.539 59.4753 559.938 59.358C559.116 59.1673 558.42 58.918 557.848 58.61C557.276 58.2873 556.865 57.8473 556.616 57.29C556.469 56.9527 556.396 56.5567 556.396 56.102C556.396 55.618 556.484 55.1927 556.66 54.826C556.938 54.2247 557.422 53.7627 558.112 53.44C558.801 53.1027 559.63 52.934 560.598 52.934C561.58 52.934 562.409 53.0953 563.084 53.418C563.773 53.7407 564.272 54.2173 564.58 54.848C564.77 55.288 564.866 55.816 564.866 56.432H562.556C562.556 56.1093 562.497 55.8087 562.38 55.53C562.233 55.2367 561.998 55.0167 561.676 54.87C561.368 54.7087 560.994 54.628 560.554 54.628C559.659 54.628 559.094 54.87 558.86 55.354C558.801 55.486 558.772 55.6547 558.772 55.86C558.772 56.0507 558.801 56.1973 558.86 56.3C558.962 56.5347 559.146 56.7253 559.41 56.872C559.674 57.0187 559.952 57.136 560.246 57.224C560.554 57.2973 561.001 57.4 561.588 57.532C562.497 57.7667 563.238 58.0453 563.81 58.368C564.396 58.676 564.822 59.1087 565.086 59.666C565.232 60.0033 565.306 60.4067 565.306 60.876C565.306 61.3893 565.218 61.866 565.042 62.306C564.734 62.966 564.184 63.472 563.392 63.824C562.614 64.1613 561.698 64.33 560.642 64.33ZM574.361 61.646C574.552 61.47 574.706 61.2573 574.823 61.008C574.955 60.7587 575.036 60.5093 575.065 60.26H577.485C577.382 61.3453 576.957 62.24 576.209 62.944C575.725 63.3693 575.138 63.6993 574.449 63.934C573.76 64.154 573.004 64.264 572.183 64.264C570.922 64.264 569.844 64.0147 568.949 63.516C568.069 63.0173 567.424 62.3133 567.013 61.404C566.661 60.612 566.485 59.6733 566.485 58.588C566.485 58.0307 566.529 57.5247 566.617 57.07C566.705 56.6153 566.837 56.19 567.013 55.794C567.424 54.8847 568.054 54.1807 568.905 53.682C569.77 53.1833 570.804 52.934 572.007 52.934C573.21 52.934 574.236 53.1833 575.087 53.682C575.952 54.1807 576.583 54.8773 576.979 55.772C577.199 56.2707 577.346 56.7913 577.419 57.334C577.507 57.8767 577.551 58.522 577.551 59.27H568.949C568.993 59.9153 569.103 60.4213 569.279 60.788C569.499 61.2867 569.851 61.668 570.335 61.932C570.819 62.196 571.42 62.328 572.139 62.328C572.608 62.328 573.034 62.2693 573.415 62.152C573.796 62.0347 574.112 61.866 574.361 61.646ZM572.051 54.892C570.672 54.892 569.748 55.4127 569.279 56.454C569.132 56.7767 569.037 57.1213 568.993 57.488H575.043C574.999 57.1067 574.911 56.7327 574.779 56.366C574.544 55.882 574.2 55.5153 573.745 55.266C573.29 55.0167 572.726 54.892 572.051 54.892ZM599.469 53.22L595.597 64H593.133L590.823 56.52L588.513 64H586.049L582.177 53.22H584.795L587.237 60.986L589.591 53.22H592.033L594.387 60.964L596.851 53.22H599.469ZM606.487 52.934C607.807 52.934 608.826 53.308 609.545 54.056C610.264 54.804 610.623 55.8967 610.623 57.334V64H608.203V57.818C608.203 56.85 608.005 56.1387 607.609 55.684C607.213 55.2293 606.604 55.002 605.783 55.002C604.918 55.002 604.258 55.2513 603.803 55.75C603.348 56.234 603.121 56.96 603.121 57.928V64H600.679V48.468H603.121V54.43C603.869 53.4327 604.991 52.934 606.487 52.934ZM617.856 64.264C616.624 64.264 615.582 64.0073 614.732 63.494C613.881 62.9807 613.25 62.2693 612.84 61.36C612.473 60.5827 612.29 59.666 612.29 58.61C612.29 57.554 612.473 56.63 612.84 55.838C613.25 54.9287 613.881 54.2173 614.732 53.704C615.582 53.1907 616.624 52.934 617.856 52.934C619.088 52.934 620.129 53.1907 620.98 53.704C621.845 54.2173 622.483 54.9287 622.894 55.838C623.26 56.6593 623.444 57.5833 623.444 58.61C623.444 59.6073 623.26 60.5313 622.894 61.382C622.483 62.2913 621.845 63.0027 620.98 63.516C620.129 64.0147 619.088 64.264 617.856 64.264ZM617.856 62.218C618.516 62.218 619.066 62.086 619.506 61.822C619.96 61.5433 620.298 61.162 620.518 60.678C620.738 60.1793 620.848 59.49 620.848 58.61C620.848 57.7153 620.738 57.026 620.518 56.542C620.298 56.0433 619.96 55.662 619.506 55.398C619.066 55.134 618.516 55.002 617.856 55.002C617.196 55.002 616.646 55.134 616.206 55.398C615.766 55.662 615.436 56.0433 615.216 56.542C614.981 57.0553 614.864 57.7447 614.864 58.61C614.864 59.4607 614.981 60.15 615.216 60.678C615.436 61.162 615.766 61.5433 616.206 61.822C616.646 62.086 617.196 62.218 617.856 62.218ZM639.595 48.468V64H637.219V62.702C636.809 63.2153 636.295 63.604 635.679 63.868C635.078 64.132 634.396 64.264 633.633 64.264C632.577 64.264 631.675 64.0293 630.927 63.56C630.179 63.0907 629.615 62.4307 629.233 61.58C629.043 61.1547 628.896 60.6927 628.793 60.194C628.691 59.6807 628.639 59.1527 628.639 58.61C628.639 57.4953 628.837 56.498 629.233 55.618C629.615 54.7673 630.179 54.1073 630.927 53.638C631.675 53.1687 632.577 52.934 633.633 52.934C634.381 52.934 635.056 53.066 635.657 53.33C636.259 53.5793 636.765 53.9533 637.175 54.452V48.468H639.595ZM637.175 58.324C637.175 57.2533 636.911 56.432 636.383 55.86C635.87 55.288 635.159 55.002 634.249 55.002C633.619 55.002 633.076 55.134 632.621 55.398C632.167 55.6473 631.822 56.0287 631.587 56.542C631.353 57.0993 631.235 57.7887 631.235 58.61C631.235 59.4167 631.353 60.0987 631.587 60.656C631.822 61.1693 632.167 61.558 632.621 61.822C633.076 62.086 633.619 62.218 634.249 62.218C635.159 62.218 635.87 61.932 636.383 61.36C636.911 60.7733 637.175 59.9447 637.175 58.874V58.324ZM643.162 51.592C642.722 51.592 642.362 51.4673 642.084 51.218C641.805 50.954 641.666 50.624 641.666 50.228C641.666 49.8173 641.798 49.4873 642.062 49.238C642.34 48.974 642.707 48.842 643.162 48.842C643.587 48.842 643.932 48.974 644.196 49.238C644.46 49.4873 644.592 49.8173 644.592 50.228C644.592 50.624 644.452 50.954 644.174 51.218C643.91 51.4673 643.572 51.592 643.162 51.592ZM641.908 53.22H644.35V64H641.908V53.22ZM653.982 61.646C654.173 61.47 654.327 61.2573 654.444 61.008C654.576 60.7587 654.657 60.5093 654.686 60.26H657.106C657.004 61.3453 656.578 62.24 655.83 62.944C655.346 63.3693 654.76 63.6993 654.07 63.934C653.381 64.154 652.626 64.264 651.804 64.264C650.543 64.264 649.465 64.0147 648.57 63.516C647.69 63.0173 647.045 62.3133 646.634 61.404C646.282 60.612 646.106 59.6733 646.106 58.588C646.106 58.0307 646.15 57.5247 646.238 57.07C646.326 56.6153 646.458 56.19 646.634 55.794C647.045 54.8847 647.676 54.1807 648.526 53.682C649.392 53.1833 650.426 52.934 651.628 52.934C652.831 52.934 653.858 53.1833 654.708 53.682C655.574 54.1807 656.204 54.8773 656.6 55.772C656.82 56.2707 656.967 56.7913 657.04 57.334C657.128 57.8767 657.172 58.522 657.172 59.27H648.57C648.614 59.9153 648.724 60.4213 648.9 60.788C649.12 61.2867 649.472 61.668 649.956 61.932C650.44 62.196 651.042 62.328 651.76 62.328C652.23 62.328 652.655 62.2693 653.036 62.152C653.418 62.0347 653.733 61.866 653.982 61.646ZM651.672 54.892C650.294 54.892 649.37 55.4127 648.9 56.454C648.754 56.7767 648.658 57.1213 648.614 57.488H654.664C654.62 57.1067 654.532 56.7327 654.4 56.366C654.166 55.882 653.821 55.5153 653.366 55.266C652.912 55.0167 652.347 54.892 651.672 54.892ZM662.911 64.176C661.738 64.176 660.88 63.9047 660.337 63.362C659.809 62.8047 659.545 61.91 659.545 60.678V55.222H657.873V53.22H659.545V50.624H661.965V53.22H665.023V55.222H661.965V60.238C661.965 60.8833 662.097 61.36 662.361 61.668C662.64 61.9613 663.065 62.108 663.637 62.108C664.106 62.108 664.539 62.0493 664.935 61.932V63.956C664.246 64.1027 663.571 64.176 662.911 64.176ZM679.787 55.112C680.081 55.7573 680.227 56.6153 680.227 57.686V64H677.785V62.79C677.008 63.7727 675.776 64.264 674.089 64.264C673.136 64.264 672.329 64.11 671.669 63.802C671.009 63.494 670.547 63.0393 670.283 62.438C670.093 62.0127 669.997 61.5287 669.997 60.986C669.997 60.4433 670.085 59.974 670.261 59.578C670.628 58.7713 671.251 58.2213 672.131 57.928C673.011 57.62 674.148 57.466 675.541 57.466H677.785V57.18C677.785 56.9013 677.771 56.674 677.741 56.498C677.712 56.3073 677.653 56.1167 677.565 55.926C677.243 55.222 676.495 54.87 675.321 54.87C674.72 54.87 674.229 54.9507 673.847 55.112C673.466 55.2733 673.195 55.53 673.033 55.882C672.931 56.146 672.879 56.388 672.879 56.608H670.415C670.415 55.992 670.518 55.4713 670.723 55.046C671.354 53.638 672.879 52.934 675.299 52.934C676.487 52.934 677.448 53.11 678.181 53.462C678.929 53.814 679.465 54.364 679.787 55.112ZM677.521 60.854C677.697 60.4287 677.785 59.93 677.785 59.358V59.226H675.695C674.889 59.226 674.221 59.292 673.693 59.424C673.165 59.556 672.821 59.798 672.659 60.15C672.571 60.326 672.527 60.5313 672.527 60.766C672.527 61.0007 672.571 61.2207 672.659 61.426C672.806 61.734 673.063 61.9613 673.429 62.108C673.796 62.2547 674.229 62.328 674.727 62.328C675.431 62.328 676.018 62.2033 676.487 61.954C676.957 61.7047 677.301 61.338 677.521 60.854ZM682.427 48.468H684.869V64H682.427V48.468ZM692.192 64.264C690.96 64.264 689.918 64.0073 689.068 63.494C688.217 62.9807 687.586 62.2693 687.176 61.36C686.809 60.5827 686.626 59.666 686.626 58.61C686.626 57.554 686.809 56.63 687.176 55.838C687.586 54.9287 688.217 54.2173 689.068 53.704C689.918 53.1907 690.96 52.934 692.192 52.934C693.424 52.934 694.465 53.1907 695.316 53.704C696.181 54.2173 696.819 54.9287 697.23 55.838C697.596 56.6593 697.78 57.5833 697.78 58.61C697.78 59.6073 697.596 60.5313 697.23 61.382C696.819 62.2913 696.181 63.0027 695.316 63.516C694.465 64.0147 693.424 64.264 692.192 64.264ZM692.192 62.218C692.852 62.218 693.402 62.086 693.842 61.822C694.296 61.5433 694.634 61.162 694.854 60.678C695.074 60.1793 695.184 59.49 695.184 58.61C695.184 57.7153 695.074 57.026 694.854 56.542C694.634 56.0433 694.296 55.662 693.842 55.398C693.402 55.134 692.852 55.002 692.192 55.002C691.532 55.002 690.982 55.134 690.542 55.398C690.102 55.662 689.772 56.0433 689.552 56.542C689.317 57.0553 689.2 57.7447 689.2 58.61C689.2 59.4607 689.317 60.15 689.552 60.678C689.772 61.162 690.102 61.5433 690.542 61.822C690.982 62.086 691.532 62.218 692.192 62.218ZM705.358 52.934C706.678 52.934 707.698 53.308 708.416 54.056C709.135 54.804 709.494 55.8967 709.494 57.334V64H707.074V57.818C707.074 56.85 706.876 56.1387 706.48 55.684C706.084 55.2293 705.476 55.002 704.654 55.002C703.789 55.002 703.129 55.2513 702.674 55.75C702.22 56.234 701.992 56.96 701.992 57.928V64H699.55V53.22H701.992V54.43C702.74 53.4327 703.862 52.934 705.358 52.934ZM719.037 61.646C719.228 61.47 719.382 61.2573 719.499 61.008C719.631 60.7587 719.712 60.5093 719.741 60.26H722.161C722.058 61.3453 721.633 62.24 720.885 62.944C720.401 63.3693 719.814 63.6993 719.125 63.934C718.436 64.154 717.68 64.264 716.859 64.264C715.598 64.264 714.52 64.0147 713.625 63.516C712.745 63.0173 712.1 62.3133 711.689 61.404C711.337 60.612 711.161 59.6733 711.161 58.588C711.161 58.0307 711.205 57.5247 711.293 57.07C711.381 56.6153 711.513 56.19 711.689 55.794C712.1 54.8847 712.73 54.1807 713.581 53.682C714.446 53.1833 715.48 52.934 716.683 52.934C717.886 52.934 718.912 53.1833 719.763 53.682C720.628 54.1807 721.259 54.8773 721.655 55.772C721.875 56.2707 722.022 56.7913 722.095 57.334C722.183 57.8767 722.227 58.522 722.227 59.27H713.625C713.669 59.9153 713.779 60.4213 713.955 60.788C714.175 61.2867 714.527 61.668 715.011 61.932C715.495 62.196 716.096 62.328 716.815 62.328C717.284 62.328 717.71 62.2693 718.091 62.152C718.472 62.0347 718.788 61.866 719.037 61.646ZM716.727 54.892C715.348 54.892 714.424 55.4127 713.955 56.454C713.808 56.7767 713.713 57.1213 713.669 57.488H719.719C719.675 57.1067 719.587 56.7327 719.455 56.366C719.22 55.882 718.876 55.5153 718.421 55.266C717.966 55.0167 717.402 54.892 716.727 54.892ZM726.005 64.374C725.535 64.374 725.154 64.2347 724.861 63.956C724.567 63.6627 724.421 63.2887 724.421 62.834C724.421 62.35 724.567 61.9687 724.861 61.69C725.154 61.4113 725.535 61.272 726.005 61.272C726.489 61.272 726.877 61.4113 727.171 61.69C727.464 61.9687 727.611 62.35 727.611 62.834C727.611 63.2887 727.457 63.6627 727.149 63.956C726.855 64.2347 726.474 64.374 726.005 64.374Z" fill="#222628" fill-opacity="0.5"/>
<path d="M156 91C156 88.2386 158.239 86 161 86H365C367.761 86 370 88.2386 370 91V135C370 137.761 367.761 140 365 140H161C158.239 140 156 137.761 156 135V91Z" fill="#0066EE"/>
<path d="M215.46 115.063C214.726 115.063 214.009 114.863 213.398 114.489C212.788 114.116 212.312 113.584 212.031 112.963C211.751 112.341 211.677 111.657 211.82 110.997C211.963 110.337 212.317 109.731 212.836 109.255L216.666 105.746C217.362 105.108 218.305 104.75 219.29 104.75C220.274 104.75 221.218 105.108 221.914 105.746C222.61 106.384 223.001 107.25 223.001 108.152C223.001 109.054 222.61 109.919 221.914 110.557L221.499 110.937L220.438 109.965L220.856 109.582C221.269 109.202 221.501 108.687 221.5 108.15C221.499 107.613 221.267 107.098 220.853 106.718C220.431 106.35 219.871 106.144 219.289 106.144C218.707 106.144 218.147 106.35 217.725 106.718L213.897 110.227C213.692 110.415 213.529 110.639 213.418 110.885C213.306 111.131 213.249 111.395 213.249 111.661C213.249 111.927 213.306 112.191 213.418 112.437C213.529 112.683 213.692 112.906 213.897 113.094C214.319 113.463 214.879 113.668 215.461 113.668C216.043 113.668 216.603 113.463 217.025 113.094L218.085 114.066C217.741 114.383 217.332 114.634 216.882 114.805C216.431 114.976 215.948 115.064 215.46 115.063Z" fill="black"/>
<path d="M221.46 113.688C220.726 113.688 220.009 113.488 219.398 113.114C218.788 112.741 218.312 112.209 218.031 111.588C217.751 110.966 217.677 110.282 217.82 109.622C217.963 108.962 218.317 108.356 218.836 107.88L219.251 107.501L220.311 108.474L219.897 108.853C219.483 109.233 219.25 109.749 219.25 110.286C219.25 110.824 219.483 111.339 219.897 111.719C220.319 112.088 220.879 112.293 221.461 112.293C222.043 112.293 222.603 112.088 223.025 111.719L226.854 108.21C227.267 107.829 227.5 107.314 227.5 106.777C227.5 106.24 227.267 105.724 226.854 105.344C226.432 104.975 225.872 104.77 225.29 104.77C224.707 104.77 224.147 104.975 223.726 105.344L222.666 104.371C223.362 103.733 224.305 103.375 225.29 103.375C226.274 103.375 227.218 103.733 227.914 104.371C228.61 105.009 229.001 105.875 229.001 106.777C229.001 107.679 228.61 108.544 227.914 109.182L224.086 112.691C223.742 113.008 223.333 113.259 222.882 113.43C222.432 113.601 221.949 113.689 221.461 113.688H221.46Z" fill="black"/>
<path d="M224.5 122.625H209.5C209.102 122.625 208.721 122.48 208.44 122.222C208.159 121.964 208 121.615 208 121.25V107.5C208 107.135 208.159 106.786 208.44 106.528C208.721 106.27 209.102 106.125 209.5 106.125H212.5V107.5H209.5V121.25H224.5V114.375H226V121.25C226 121.615 225.841 121.964 225.56 122.222C225.279 122.48 224.898 122.625 224.5 122.625Z" fill="black"/>
<path d="M248.564 117.272C247.369 117.272 246.361 117.027 245.54 116.536C244.719 116.045 244.111 115.347 243.716 114.44C243.332 113.597 243.14 112.568 243.14 111.352C243.14 110.157 243.332 109.123 243.716 108.248C244.121 107.352 244.729 106.659 245.54 106.168C246.361 105.677 247.364 105.432 248.548 105.432C249.284 105.432 249.961 105.539 250.58 105.752C251.199 105.965 251.732 106.28 252.18 106.696C252.596 107.069 252.921 107.523 253.156 108.056C253.391 108.589 253.519 109.171 253.54 109.8H251.604C251.561 108.989 251.279 108.339 250.756 107.848C250.18 107.336 249.423 107.08 248.484 107.08C247.759 107.08 247.145 107.235 246.644 107.544C246.143 107.843 245.764 108.269 245.508 108.824C245.369 109.155 245.263 109.528 245.188 109.944C245.124 110.349 245.092 110.819 245.092 111.352C245.092 111.896 245.124 112.376 245.188 112.792C245.252 113.197 245.359 113.56 245.508 113.88C245.764 114.445 246.143 114.877 246.644 115.176C247.145 115.475 247.759 115.624 248.484 115.624C248.964 115.624 249.401 115.56 249.796 115.432C250.191 115.293 250.527 115.101 250.804 114.856C251.327 114.387 251.604 113.725 251.636 112.872H253.572C253.561 113.512 253.439 114.099 253.204 114.632C252.98 115.165 252.66 115.624 252.244 116.008C251.796 116.424 251.257 116.739 250.628 116.952C249.999 117.165 249.311 117.272 248.564 117.272ZM260.188 117.272C259.186 117.272 258.316 117.101 257.58 116.76C256.855 116.408 256.279 115.912 255.852 115.272C255.5 114.803 255.234 114.232 255.052 113.56C254.882 112.877 254.796 112.141 254.796 111.352C254.796 110.168 254.988 109.128 255.372 108.232C255.778 107.347 256.386 106.659 257.196 106.168C258.007 105.677 259.004 105.432 260.188 105.432C261.383 105.432 262.386 105.677 263.196 106.168C264.007 106.648 264.61 107.331 265.004 108.216C265.399 109.101 265.596 110.147 265.596 111.352C265.596 112.568 265.394 113.613 264.988 114.488C264.594 115.373 263.991 116.061 263.18 116.552C262.37 117.032 261.372 117.272 260.188 117.272ZM260.188 115.576C260.946 115.576 261.575 115.421 262.076 115.112C262.588 114.803 262.967 114.371 263.212 113.816C263.372 113.475 263.484 113.107 263.548 112.712C263.623 112.307 263.66 111.853 263.66 111.352C263.66 110.851 263.623 110.403 263.548 110.008C263.484 109.603 263.372 109.229 263.212 108.888C262.967 108.333 262.588 107.901 262.076 107.592C261.575 107.283 260.946 107.128 260.188 107.128C259.431 107.128 258.802 107.283 258.3 107.592C257.799 107.901 257.426 108.333 257.18 108.888C257.02 109.229 256.903 109.603 256.828 110.008C256.764 110.403 256.732 110.851 256.732 111.352C256.732 111.853 256.764 112.307 256.828 112.712C256.903 113.107 257.02 113.475 257.18 113.816C257.426 114.371 257.799 114.803 258.3 115.112C258.802 115.421 259.431 115.576 260.188 115.576ZM267.195 105.704H271.451C272.325 105.704 273.051 105.843 273.627 106.12C274.203 106.387 274.613 106.803 274.859 107.368C275.061 107.805 275.163 108.344 275.163 108.984C275.163 109.315 275.136 109.608 275.083 109.864C275.04 110.12 274.965 110.365 274.859 110.6C274.613 111.155 274.197 111.571 273.611 111.848C273.035 112.125 272.315 112.264 271.451 112.264H269.035V117H267.195V105.704ZM270.987 110.712C271.573 110.712 272.037 110.648 272.379 110.52C272.731 110.392 272.976 110.168 273.115 109.848C273.221 109.624 273.275 109.336 273.275 108.984C273.275 108.643 273.221 108.349 273.115 108.104C272.965 107.795 272.72 107.576 272.379 107.448C272.037 107.32 271.573 107.256 270.987 107.256H269.035V110.712H270.987ZM279.137 112.12L275.296 105.704H277.393L280.065 110.36L282.721 105.704H284.785L280.977 112.12V117H279.137V112.12ZM288.632 105.704H290.472V115.4H294.024V117H288.632V105.704ZM295.132 105.704H296.972V117H295.132V105.704ZM298.914 105.704H300.818L306.354 114.264V105.704H308.162V117H306.226L300.706 108.472V117H298.914V105.704ZM316.565 117L311.941 111.512V117H310.101V105.704H311.941V110.232L315.973 105.704H318.165L313.621 110.808L318.837 117H316.565Z" fill="white"/>
<path d="M390 91C390 88.2386 392.239 86 395 86H599C601.761 86 604 88.2386 604 91V135C604 137.761 601.761 140 599 140H395C392.239 140 390 137.761 390 135V91Z" fill="#0066EE"/>
<path d="M472 113C472 106.925 466.627 102 460 102C453.373 102 448 106.925 448 113C448 118.49 452.388 123.041 458.125 123.866V116.18H455.078V113H458.125V110.577C458.125 107.82 459.917 106.297 462.658 106.297C463.97 106.297 465.344 106.512 465.344 106.512V109.219H463.831C462.34 109.219 461.875 110.067 461.875 110.938V113H465.203L464.671 116.18H461.875V123.866C467.612 123.041 472 118.49 472 113Z" fill="black"/>
<path d="M484.976 105.704H490.832V107.304H486.816V110.472H490.8V112.088H486.816V117H484.976V105.704ZM495.488 112.184H494.144V117H492.304V105.704H496.736C498.528 105.704 499.675 106.264 500.176 107.384C500.368 107.8 500.464 108.291 500.464 108.856C500.464 109.453 500.373 109.965 500.192 110.392C499.957 110.915 499.621 111.32 499.184 111.608C498.747 111.896 498.197 112.077 497.536 112.152L501.216 117H499.056L495.488 112.184ZM494.144 110.648H496.256C496.853 110.648 497.328 110.579 497.68 110.44C498.032 110.301 498.277 110.083 498.416 109.784C498.533 109.528 498.592 109.235 498.592 108.904C498.592 108.595 498.544 108.333 498.448 108.12C498.299 107.8 498.043 107.576 497.68 107.448C497.328 107.309 496.853 107.24 496.256 107.24H494.144V110.648ZM502.226 105.704H504.066V117H502.226V105.704ZM506.007 105.704H512.967V107.288H507.847V110.472H512.919V112.072H507.847V115.416H512.967V117H506.007V105.704ZM514.554 105.704H516.458L521.994 114.264V105.704H523.802V117H521.866L516.346 108.472V117H514.554V105.704ZM525.742 105.704H529.886C531.102 105.704 532.115 105.933 532.926 106.392C533.747 106.851 534.35 107.517 534.734 108.392C535.096 109.192 535.278 110.179 535.278 111.352C535.278 111.96 535.235 112.504 535.15 112.984C535.064 113.464 534.926 113.907 534.734 114.312C534.35 115.187 533.747 115.853 532.926 116.312C532.115 116.771 531.102 117 529.886 117H525.742V105.704ZM529.614 115.4C530.478 115.4 531.182 115.251 531.726 114.952C532.28 114.653 532.686 114.211 532.942 113.624C533.07 113.325 533.166 112.995 533.23 112.632C533.294 112.269 533.326 111.843 533.326 111.352C533.326 110.861 533.294 110.435 533.23 110.072C533.166 109.709 533.07 109.379 532.942 109.08C532.686 108.493 532.28 108.051 531.726 107.752C531.182 107.453 530.478 107.304 529.614 107.304H527.582V115.4H529.614ZM540.93 117.272C539.863 117.272 538.978 117.091 538.274 116.728C537.57 116.365 537.069 115.853 536.77 115.192C536.546 114.659 536.434 114.051 536.434 113.368H538.434C538.455 113.88 538.53 114.291 538.658 114.6C538.829 114.973 539.111 115.261 539.506 115.464C539.901 115.656 540.397 115.752 540.994 115.752C541.57 115.752 542.055 115.667 542.45 115.496C542.855 115.315 543.127 115.064 543.266 114.744C543.373 114.499 543.426 114.253 543.426 114.008C543.426 113.773 543.378 113.549 543.282 113.336C543.175 113.091 542.989 112.883 542.722 112.712C542.466 112.541 542.178 112.408 541.858 112.312C541.538 112.205 541.09 112.083 540.514 111.944L540.05 111.832C539.229 111.608 538.557 111.352 538.034 111.064C537.522 110.765 537.154 110.371 536.93 109.88C536.77 109.507 536.69 109.101 536.69 108.664C536.69 108.237 536.786 107.805 536.978 107.368C537.245 106.76 537.719 106.285 538.402 105.944C539.095 105.603 539.906 105.432 540.834 105.432C541.773 105.432 542.567 105.603 543.218 105.944C543.869 106.285 544.333 106.776 544.61 107.416C544.727 107.672 544.813 107.944 544.866 108.232C544.919 108.509 544.946 108.819 544.946 109.16H543.042C543.031 108.904 543.01 108.685 542.978 108.504C542.946 108.312 542.898 108.141 542.834 107.992C542.674 107.629 542.418 107.357 542.066 107.176C541.714 106.995 541.282 106.904 540.77 106.904C540.269 106.904 539.831 106.995 539.458 107.176C539.095 107.347 538.85 107.581 538.722 107.88C538.669 107.976 538.631 108.072 538.61 108.168C538.599 108.253 538.594 108.355 538.594 108.472C538.594 108.6 538.599 108.712 538.61 108.808C538.631 108.893 538.663 108.979 538.706 109.064C538.802 109.288 538.967 109.48 539.202 109.64C539.447 109.789 539.719 109.912 540.018 110.008C540.317 110.093 540.733 110.205 541.266 110.344C541.383 110.365 541.559 110.408 541.794 110.472C542.402 110.632 542.914 110.792 543.33 110.952C543.746 111.112 544.114 111.32 544.434 111.576C544.765 111.821 545.015 112.131 545.186 112.504C545.346 112.867 545.426 113.309 545.426 113.832C545.426 114.355 545.335 114.824 545.154 115.24C544.866 115.901 544.354 116.408 543.618 116.76C542.882 117.101 541.986 117.272 540.93 117.272Z" fill="white"/>
<path d="M114.212 24.688H104.164L102.34 30H98.468L106.436 7.408H111.94L119.844 30H116.036L114.212 24.688ZM113.188 21.648L109.22 10H109.156L105.188 21.648H113.188ZM136.395 7.408V30H132.939V28.112C132.341 28.8587 131.595 29.424 130.699 29.808C129.824 30.192 128.832 30.384 127.723 30.384C126.187 30.384 124.875 30.0427 123.786 29.36C122.698 28.6773 121.877 27.7173 121.323 26.48C121.045 25.8613 120.832 25.1893 120.683 24.464C120.533 23.7173 120.459 22.9493 120.459 22.16C120.459 20.5387 120.747 19.088 121.323 17.808C121.877 16.5707 122.698 15.6107 123.786 14.928C124.875 14.2453 126.187 13.904 127.723 13.904C128.811 13.904 129.792 14.096 130.667 14.48C131.541 14.8427 132.277 15.3867 132.875 16.112V7.408H136.395ZM132.875 21.744C132.875 20.1867 132.491 18.992 131.723 18.16C130.976 17.328 129.941 16.912 128.619 16.912C127.701 16.912 126.912 17.104 126.251 17.488C125.589 17.8507 125.088 18.4053 124.747 19.152C124.405 19.9627 124.235 20.9653 124.235 22.16C124.235 23.3333 124.405 24.3253 124.747 25.136C125.088 25.8827 125.589 26.448 126.251 26.832C126.912 27.216 127.701 27.408 128.619 27.408C129.941 27.408 130.976 26.992 131.723 26.16C132.491 25.3067 132.875 24.1013 132.875 22.544V21.744ZM154.926 7.408V30H151.47V28.112C150.872 28.8587 150.126 29.424 149.23 29.808C148.355 30.192 147.363 30.384 146.254 30.384C144.718 30.384 143.406 30.0427 142.318 29.36C141.23 28.6773 140.408 27.7173 139.854 26.48C139.576 25.8613 139.363 25.1893 139.214 24.464C139.064 23.7173 138.99 22.9493 138.99 22.16C138.99 20.5387 139.278 19.088 139.854 17.808C140.408 16.5707 141.23 15.6107 142.318 14.928C143.406 14.2453 144.718 13.904 146.254 13.904C147.342 13.904 148.323 14.096 149.198 14.48C150.072 14.8427 150.808 15.3867 151.406 16.112V7.408H154.926ZM151.406 21.744C151.406 20.1867 151.022 18.992 150.254 18.16C149.507 17.328 148.472 16.912 147.15 16.912C146.232 16.912 145.443 17.104 144.782 17.488C144.12 17.8507 143.619 18.4053 143.278 19.152C142.936 19.9627 142.766 20.9653 142.766 22.16C142.766 23.3333 142.936 24.3253 143.278 25.136C143.619 25.8827 144.12 26.448 144.782 26.832C145.443 27.216 146.232 27.408 147.15 27.408C148.472 27.408 149.507 26.992 150.254 26.16C151.022 25.3067 151.406 24.1013 151.406 22.544V21.744ZM164.327 7.408H176.039V10.608H168.007V16.944H175.975V20.176H168.007V30H164.327V7.408ZM186.375 14.096C186.994 14.096 187.527 14.16 187.975 14.288V17.424C187.506 17.3173 186.973 17.264 186.375 17.264C185.01 17.264 183.975 17.68 183.271 18.512C182.589 19.3227 182.247 20.5067 182.247 22.064V30H178.695V14.32H182.215V16.144C183.133 14.7787 184.519 14.096 186.375 14.096ZM191.894 11.952C191.254 11.952 190.732 11.7707 190.326 11.408C189.921 11.024 189.718 10.544 189.718 9.968C189.718 9.37067 189.91 8.89067 190.294 8.528C190.7 8.144 191.233 7.952 191.894 7.952C192.513 7.952 193.014 8.144 193.398 8.528C193.782 8.89067 193.974 9.37067 193.974 9.968C193.974 10.544 193.772 11.024 193.366 11.408C192.982 11.7707 192.492 11.952 191.894 11.952ZM190.07 14.32H193.622V30H190.07V14.32ZM207.633 26.576C207.911 26.32 208.135 26.0107 208.305 25.648C208.497 25.2853 208.615 24.9227 208.657 24.56H212.177C212.028 26.1387 211.409 27.44 210.321 28.464C209.617 29.0827 208.764 29.5627 207.761 29.904C206.759 30.224 205.66 30.384 204.465 30.384C202.631 30.384 201.063 30.0213 199.761 29.296C198.481 28.5707 197.543 27.5467 196.945 26.224C196.433 25.072 196.177 23.7067 196.177 22.128C196.177 21.3173 196.241 20.5813 196.369 19.92C196.497 19.2587 196.689 18.64 196.945 18.064C197.543 16.7413 198.46 15.7173 199.697 14.992C200.956 14.2667 202.46 13.904 204.209 13.904C205.959 13.904 207.452 14.2667 208.689 14.992C209.948 15.7173 210.865 16.7307 211.441 18.032C211.761 18.7573 211.975 19.5147 212.081 20.304C212.209 21.0933 212.273 22.032 212.273 23.12H199.761C199.825 24.0587 199.985 24.7947 200.241 25.328C200.561 26.0533 201.073 26.608 201.777 26.992C202.481 27.376 203.356 27.568 204.401 27.568C205.084 27.568 205.703 27.4827 206.257 27.312C206.812 27.1413 207.271 26.896 207.633 26.576ZM204.273 16.752C202.268 16.752 200.924 17.5093 200.241 19.024C200.028 19.4933 199.889 19.9947 199.825 20.528H208.625C208.561 19.9733 208.433 19.4293 208.241 18.896C207.9 18.192 207.399 17.6587 206.737 17.296C206.076 16.9333 205.255 16.752 204.273 16.752ZM223.268 13.904C225.188 13.904 226.671 14.448 227.716 15.536C228.762 16.624 229.284 18.2133 229.284 20.304V30H225.764V21.008C225.764 19.6 225.476 18.5653 224.9 17.904C224.324 17.2427 223.439 16.912 222.244 16.912C220.986 16.912 220.026 17.2747 219.364 18C218.703 18.704 218.372 19.76 218.372 21.168V30H214.82V14.32H218.372V16.08C219.46 14.6293 221.092 13.904 223.268 13.904ZM247.645 7.408V30H244.189V28.112C243.591 28.8587 242.845 29.424 241.949 29.808C241.074 30.192 240.082 30.384 238.973 30.384C237.437 30.384 236.125 30.0427 235.036 29.36C233.948 28.6773 233.127 27.7173 232.573 26.48C232.295 25.8613 232.082 25.1893 231.933 24.464C231.783 23.7173 231.709 22.9493 231.709 22.16C231.709 20.5387 231.997 19.088 232.573 17.808C233.127 16.5707 233.948 15.6107 235.036 14.928C236.125 14.2453 237.437 13.904 238.973 13.904C240.061 13.904 241.042 14.096 241.917 14.48C242.791 14.8427 243.527 15.3867 244.125 16.112V7.408H247.645ZM244.125 21.744C244.125 20.1867 243.741 18.992 242.973 18.16C242.226 17.328 241.191 16.912 239.869 16.912C238.951 16.912 238.162 17.104 237.501 17.488C236.839 17.8507 236.338 18.4053 235.997 19.152C235.655 19.9627 235.485 20.9653 235.485 22.16C235.485 23.3333 235.655 24.3253 235.997 25.136C236.338 25.8827 236.839 26.448 237.501 26.832C238.162 27.216 238.951 27.408 239.869 27.408C241.191 27.408 242.226 26.992 242.973 26.16C243.741 25.3067 244.125 24.1013 244.125 22.544V21.744ZM256.928 30.48C255.349 30.48 254.026 30.224 252.96 29.712C251.914 29.2 251.157 28.432 250.688 27.408C250.346 26.6613 250.176 25.7867 250.176 24.784H253.632C253.632 25.3813 253.738 25.8827 253.952 26.288C254.421 27.312 255.434 27.824 256.992 27.824C258.549 27.824 259.509 27.4187 259.872 26.608C259.978 26.3307 260.032 26.064 260.032 25.808C260.032 25.5093 259.978 25.232 259.872 24.976C259.722 24.656 259.477 24.4 259.136 24.208C258.816 24.016 258.41 23.856 257.92 23.728C257.45 23.5787 256.778 23.4187 255.904 23.248C254.709 22.9707 253.696 22.608 252.864 22.16C252.032 21.6907 251.434 21.0507 251.072 20.24C250.858 19.7493 250.752 19.1733 250.752 18.512C250.752 17.808 250.88 17.1893 251.136 16.656C251.541 15.7813 252.245 15.1093 253.248 14.64C254.25 14.1493 255.456 13.904 256.864 13.904C258.293 13.904 259.498 14.1387 260.48 14.608C261.482 15.0773 262.208 15.7707 262.656 16.688C262.933 17.328 263.072 18.096 263.072 18.992H259.712C259.712 18.5227 259.626 18.0853 259.456 17.68C259.242 17.2533 258.901 16.9333 258.432 16.72C257.984 16.4853 257.44 16.368 256.8 16.368C255.498 16.368 254.677 16.72 254.336 17.424C254.25 17.616 254.208 17.8613 254.208 18.16C254.208 18.4373 254.25 18.6507 254.336 18.8C254.485 19.1413 254.752 19.4187 255.136 19.632C255.52 19.8453 255.925 20.016 256.352 20.144C256.8 20.2507 257.45 20.4 258.304 20.592C259.626 20.9333 260.704 21.3387 261.536 21.808C262.389 22.256 263.008 22.8853 263.392 23.696C263.605 24.1867 263.712 24.7733 263.712 25.456C263.712 26.2027 263.584 26.896 263.328 27.536C262.88 28.496 262.08 29.232 260.928 29.744C259.797 30.2347 258.464 30.48 256.928 30.48ZM278.089 30.256C276.383 30.256 275.135 29.8613 274.345 29.072C273.577 28.2613 273.193 26.96 273.193 25.168V17.232H270.761V14.32H273.193V10.544H276.713V14.32H281.161V17.232H276.713V24.528C276.713 25.4667 276.905 26.16 277.289 26.608C277.695 27.0347 278.313 27.248 279.145 27.248C279.828 27.248 280.457 27.1627 281.033 26.992V29.936C280.031 30.1493 279.049 30.256 278.089 30.256ZM290.461 30.384C288.669 30.384 287.154 30.0107 285.917 29.264C284.679 28.5173 283.762 27.4827 283.165 26.16C282.631 25.0293 282.365 23.696 282.365 22.16C282.365 20.624 282.631 19.28 283.165 18.128C283.762 16.8053 284.679 15.7707 285.917 15.024C287.154 14.2773 288.669 13.904 290.461 13.904C292.253 13.904 293.767 14.2773 295.005 15.024C296.263 15.7707 297.191 16.8053 297.789 18.128C298.322 19.3227 298.589 20.6667 298.589 22.16C298.589 23.6107 298.322 24.9547 297.789 26.192C297.191 27.5147 296.263 28.5493 295.005 29.296C293.767 30.0213 292.253 30.384 290.461 30.384ZM290.461 27.408C291.421 27.408 292.221 27.216 292.861 26.832C293.522 26.4267 294.013 25.872 294.333 25.168C294.653 24.4427 294.813 23.44 294.813 22.16C294.813 20.8587 294.653 19.856 294.333 19.152C294.013 18.4267 293.522 17.872 292.861 17.488C292.221 17.104 291.421 16.912 290.461 16.912C289.501 16.912 288.701 17.104 288.061 17.488C287.421 17.872 286.941 18.4267 286.621 19.152C286.279 19.8987 286.109 20.9013 286.109 22.16C286.109 23.3973 286.279 24.4 286.621 25.168C286.941 25.872 287.421 26.4267 288.061 26.832C288.701 27.216 289.501 27.408 290.461 27.408ZM315.362 13.904C317.282 13.904 318.765 14.448 319.81 15.536C320.855 16.624 321.378 18.2133 321.378 20.304V30H317.858V21.008C317.858 19.6 317.57 18.5653 316.994 17.904C316.418 17.2427 315.533 16.912 314.338 16.912C313.079 16.912 312.119 17.2747 311.458 18C310.797 18.704 310.466 19.76 310.466 21.168V30H306.914V7.408H310.466V16.08C311.554 14.6293 313.186 13.904 315.362 13.904ZM335.258 26.576C335.536 26.32 335.76 26.0107 335.93 25.648C336.122 25.2853 336.24 24.9227 336.282 24.56H339.802C339.653 26.1387 339.034 27.44 337.946 28.464C337.242 29.0827 336.389 29.5627 335.386 29.904C334.384 30.224 333.285 30.384 332.09 30.384C330.256 30.384 328.688 30.0213 327.386 29.296C326.106 28.5707 325.168 27.5467 324.57 26.224C324.058 25.072 323.802 23.7067 323.802 22.128C323.802 21.3173 323.866 20.5813 323.994 19.92C324.122 19.2587 324.314 18.64 324.57 18.064C325.168 16.7413 326.085 15.7173 327.322 14.992C328.581 14.2667 330.085 13.904 331.834 13.904C333.584 13.904 335.077 14.2667 336.314 14.992C337.573 15.7173 338.49 16.7307 339.066 18.032C339.386 18.7573 339.6 19.5147 339.706 20.304C339.834 21.0933 339.898 22.032 339.898 23.12H327.386C327.45 24.0587 327.61 24.7947 327.866 25.328C328.186 26.0533 328.698 26.608 329.402 26.992C330.106 27.376 330.981 27.568 332.026 27.568C332.709 27.568 333.328 27.4827 333.882 27.312C334.437 27.1413 334.896 26.896 335.258 26.576ZM331.898 16.752C329.893 16.752 328.549 17.5093 327.866 19.024C327.653 19.4933 327.514 19.9947 327.45 20.528H336.25C336.186 19.9733 336.058 19.4293 335.866 18.896C335.525 18.192 335.024 17.6587 334.362 17.296C333.701 16.9333 332.88 16.752 331.898 16.752ZM342.445 7.408H345.997V30H342.445V7.408ZM364.424 17.808C365 19.088 365.288 20.5387 365.288 22.16C365.288 22.9493 365.214 23.7173 365.064 24.464C364.915 25.1893 364.702 25.8613 364.424 26.48C363.87 27.7173 363.048 28.6773 361.96 29.36C360.872 30.0427 359.56 30.384 358.024 30.384C356.936 30.384 355.955 30.2027 355.08 29.84C354.206 29.456 353.47 28.9013 352.872 28.176V36.464H349.32V14.32H352.776V16.208C353.374 15.44 354.11 14.864 354.984 14.48C355.88 14.096 356.894 13.904 358.024 13.904C359.56 13.904 360.872 14.2453 361.96 14.928C363.048 15.6107 363.87 16.5707 364.424 17.808ZM361 25.136C361.342 24.3253 361.512 23.3333 361.512 22.16C361.512 20.9653 361.342 19.9627 361 19.152C360.659 18.4053 360.158 17.8507 359.496 17.488C358.835 17.104 358.046 16.912 357.128 16.912C355.806 16.912 354.76 17.3387 353.992 18.192C353.224 19.024 352.84 20.208 352.84 21.744V22.544C352.84 24.1013 353.224 25.3067 353.992 26.16C354.76 26.992 355.806 27.408 357.128 27.408C358.046 27.408 358.835 27.216 359.496 26.832C360.158 26.448 360.659 25.8827 361 25.136ZM388.514 14.32L379.106 36.464H375.458L378.306 29.84L372.034 14.32H375.97L380.226 26L384.674 14.32H388.514ZM396.93 30.384C395.138 30.384 393.623 30.0107 392.386 29.264C391.148 28.5173 390.231 27.4827 389.634 26.16C389.1 25.0293 388.834 23.696 388.834 22.16C388.834 20.624 389.1 19.28 389.634 18.128C390.231 16.8053 391.148 15.7707 392.386 15.024C393.623 14.2773 395.138 13.904 396.93 13.904C398.722 13.904 400.236 14.2773 401.474 15.024C402.732 15.7707 403.66 16.8053 404.258 18.128C404.791 19.3227 405.058 20.6667 405.058 22.16C405.058 23.6107 404.791 24.9547 404.258 26.192C403.66 27.5147 402.732 28.5493 401.474 29.296C400.236 30.0213 398.722 30.384 396.93 30.384ZM396.93 27.408C397.89 27.408 398.69 27.216 399.33 26.832C399.991 26.4267 400.482 25.872 400.802 25.168C401.122 24.4427 401.282 23.44 401.282 22.16C401.282 20.8587 401.122 19.856 400.802 19.152C400.482 18.4267 399.991 17.872 399.33 17.488C398.69 17.104 397.89 16.912 396.93 16.912C395.97 16.912 395.17 17.104 394.53 17.488C393.89 17.872 393.41 18.4267 393.09 19.152C392.748 19.8987 392.578 20.9013 392.578 22.16C392.578 23.3973 392.748 24.4 393.09 25.168C393.41 25.872 393.89 26.4267 394.53 26.832C395.17 27.216 395.97 27.408 396.93 27.408ZM421.969 14.32V30H418.449V28.208C417.361 29.68 415.729 30.416 413.553 30.416C411.633 30.416 410.139 29.872 409.073 28.784C408.027 27.696 407.505 26.1067 407.505 24.016V14.32H411.025V23.312C411.025 24.72 411.313 25.7547 411.889 26.416C412.486 27.0773 413.371 27.408 414.545 27.408C415.803 27.408 416.763 27.0453 417.425 26.32C418.107 25.5947 418.449 24.5387 418.449 23.152V14.32H421.969ZM438.719 14.096C439.338 14.096 439.871 14.16 440.319 14.288V17.424C439.85 17.3173 439.316 17.264 438.719 17.264C437.354 17.264 436.319 17.68 435.615 18.512C434.932 19.3227 434.591 20.5067 434.591 22.064V30H431.039V14.32H434.559V16.144C435.476 14.7787 436.863 14.096 438.719 14.096ZM452.883 26.576C453.161 26.32 453.385 26.0107 453.555 25.648C453.747 25.2853 453.865 24.9227 453.907 24.56H457.427C457.278 26.1387 456.659 27.44 455.571 28.464C454.867 29.0827 454.014 29.5627 453.011 29.904C452.009 30.224 450.91 30.384 449.715 30.384C447.881 30.384 446.313 30.0213 445.011 29.296C443.731 28.5707 442.793 27.5467 442.195 26.224C441.683 25.072 441.427 23.7067 441.427 22.128C441.427 21.3173 441.491 20.5813 441.619 19.92C441.747 19.2587 441.939 18.64 442.195 18.064C442.793 16.7413 443.71 15.7173 444.947 14.992C446.206 14.2667 447.71 13.904 449.459 13.904C451.209 13.904 452.702 14.2667 453.939 14.992C455.198 15.7173 456.115 16.7307 456.691 18.032C457.011 18.7573 457.225 19.5147 457.331 20.304C457.459 21.0933 457.523 22.032 457.523 23.12H445.011C445.075 24.0587 445.235 24.7947 445.491 25.328C445.811 26.0533 446.323 26.608 447.027 26.992C447.731 27.376 448.606 27.568 449.651 27.568C450.334 27.568 450.953 27.4827 451.507 27.312C452.062 27.1413 452.521 26.896 452.883 26.576ZM449.523 16.752C447.518 16.752 446.174 17.5093 445.491 19.024C445.278 19.4933 445.139 19.9947 445.075 20.528H453.875C453.811 19.9733 453.683 19.4293 453.491 18.896C453.15 18.192 452.649 17.6587 451.987 17.296C451.326 16.9333 450.505 16.752 449.523 16.752ZM473.574 17.072C474.001 18.0107 474.214 19.2587 474.214 20.816V30H470.662V28.24C469.532 29.6693 467.74 30.384 465.286 30.384C463.9 30.384 462.726 30.16 461.766 29.712C460.806 29.264 460.134 28.6027 459.75 27.728C459.473 27.1093 459.334 26.4053 459.334 25.616C459.334 24.8267 459.462 24.144 459.718 23.568C460.252 22.3947 461.158 21.5947 462.438 21.168C463.718 20.72 465.372 20.496 467.398 20.496H470.662V20.08C470.662 19.6747 470.641 19.344 470.598 19.088C470.556 18.8107 470.47 18.5333 470.342 18.256C469.873 17.232 468.785 16.72 467.078 16.72C466.204 16.72 465.489 16.8373 464.934 17.072C464.38 17.3067 463.985 17.68 463.75 18.192C463.601 18.576 463.526 18.928 463.526 19.248H459.942C459.942 18.352 460.092 17.5947 460.39 16.976C461.308 14.928 463.526 13.904 467.046 13.904C468.774 13.904 470.172 14.16 471.238 14.672C472.326 15.184 473.105 15.984 473.574 17.072ZM470.278 25.424C470.534 24.8053 470.662 24.08 470.662 23.248V23.056H467.622C466.449 23.056 465.478 23.152 464.71 23.344C463.942 23.536 463.441 23.888 463.206 24.4C463.078 24.656 463.014 24.9547 463.014 25.296C463.014 25.6373 463.078 25.9573 463.206 26.256C463.42 26.704 463.793 27.0347 464.326 27.248C464.86 27.4613 465.489 27.568 466.214 27.568C467.238 27.568 468.092 27.3867 468.774 27.024C469.457 26.6613 469.958 26.128 470.278 25.424ZM484.646 30.384C482.918 30.384 481.435 30.032 480.198 29.328C478.961 28.6027 478.033 27.5787 477.414 26.256C476.902 25.104 476.646 23.7387 476.646 22.16C476.646 20.5813 476.902 19.216 477.414 18.064C478.033 16.72 478.961 15.696 480.198 14.992C481.435 14.2667 482.918 13.904 484.646 13.904C485.819 13.904 486.875 14.064 487.814 14.384C488.774 14.704 489.595 15.1733 490.278 15.792C490.875 16.3467 491.345 16.9973 491.686 17.744C492.027 18.4693 492.209 19.28 492.23 20.176H488.422C488.358 19.1947 488.006 18.3947 487.366 17.776C487.046 17.4987 486.651 17.2853 486.182 17.136C485.713 16.9867 485.201 16.912 484.646 16.912C483.771 16.912 483.014 17.104 482.374 17.488C481.734 17.872 481.254 18.4053 480.934 19.088C480.593 19.856 480.422 20.88 480.422 22.16C480.422 22.8 480.465 23.3653 480.55 23.856C480.635 24.3253 480.763 24.7733 480.934 25.2C481.254 25.8827 481.734 26.416 482.374 26.8C483.014 27.1627 483.771 27.344 484.646 27.344C485.222 27.344 485.745 27.2693 486.214 27.12C486.683 26.9707 487.067 26.7573 487.366 26.48C487.686 26.2027 487.931 25.8613 488.102 25.456C488.294 25.0507 488.401 24.6133 488.422 24.144H492.23C492.209 25.0187 492.027 25.8293 491.686 26.576C491.366 27.3227 490.907 27.9733 490.31 28.528C489.606 29.1253 488.774 29.584 487.814 29.904C486.854 30.224 485.798 30.384 484.646 30.384ZM503.268 13.904C505.188 13.904 506.671 14.448 507.716 15.536C508.762 16.624 509.284 18.2133 509.284 20.304V30H505.764V21.008C505.764 19.6 505.476 18.5653 504.9 17.904C504.324 17.2427 503.439 16.912 502.244 16.912C500.986 16.912 500.026 17.2747 499.364 18C498.703 18.704 498.372 19.76 498.372 21.168V30H494.82V7.408H498.372V16.08C499.46 14.6293 501.092 13.904 503.268 13.904ZM533.139 14.32L523.731 36.464H520.083L522.931 29.84L516.659 14.32H520.595L524.851 26L529.299 14.32H533.139ZM541.555 30.384C539.763 30.384 538.248 30.0107 537.011 29.264C535.773 28.5173 534.856 27.4827 534.259 26.16C533.725 25.0293 533.459 23.696 533.459 22.16C533.459 20.624 533.725 19.28 534.259 18.128C534.856 16.8053 535.773 15.7707 537.011 15.024C538.248 14.2773 539.763 13.904 541.555 13.904C543.347 13.904 544.861 14.2773 546.099 15.024C547.357 15.7707 548.285 16.8053 548.883 18.128C549.416 19.3227 549.683 20.6667 549.683 22.16C549.683 23.6107 549.416 24.9547 548.883 26.192C548.285 27.5147 547.357 28.5493 546.099 29.296C544.861 30.0213 543.347 30.384 541.555 30.384ZM541.555 27.408C542.515 27.408 543.315 27.216 543.955 26.832C544.616 26.4267 545.107 25.872 545.427 25.168C545.747 24.4427 545.907 23.44 545.907 22.16C545.907 20.8587 545.747 19.856 545.427 19.152C545.107 18.4267 544.616 17.872 543.955 17.488C543.315 17.104 542.515 16.912 541.555 16.912C540.595 16.912 539.795 17.104 539.155 17.488C538.515 17.872 538.035 18.4267 537.715 19.152C537.373 19.8987 537.203 20.9013 537.203 22.16C537.203 23.3973 537.373 24.4 537.715 25.168C538.035 25.872 538.515 26.4267 539.155 26.832C539.795 27.216 540.595 27.408 541.555 27.408ZM566.594 14.32V30H563.074V28.208C561.986 29.68 560.354 30.416 558.178 30.416C556.258 30.416 554.764 29.872 553.698 28.784C552.652 27.696 552.13 26.1067 552.13 24.016V14.32H555.65V23.312C555.65 24.72 555.938 25.7547 556.514 26.416C557.111 27.0773 557.996 27.408 559.17 27.408C560.428 27.408 561.388 27.0453 562.05 26.32C562.732 25.5947 563.074 24.5387 563.074 23.152V14.32H566.594ZM577.594 14.096C578.213 14.096 578.746 14.16 579.194 14.288V17.424C578.725 17.3173 578.191 17.264 577.594 17.264C576.229 17.264 575.194 17.68 574.49 18.512C573.807 19.3227 573.466 20.5067 573.466 22.064V30H569.914V14.32H573.434V16.144C574.351 14.7787 575.738 14.096 577.594 14.096ZM602.175 14.32V29.488C602.175 30.9813 601.919 32.2507 601.407 33.296C600.362 35.664 598.026 36.848 594.399 36.848C591.732 36.848 589.727 36.2507 588.383 35.056C587.38 34.1173 586.783 32.8587 586.591 31.28H590.271C590.314 31.6427 590.41 31.984 590.559 32.304C590.708 32.6453 590.922 32.9333 591.199 33.168C591.946 33.808 593.012 34.128 594.399 34.128C596.383 34.128 597.663 33.456 598.239 32.112C598.495 31.536 598.623 30.8533 598.623 30.064V28.08C598.026 28.8053 597.29 29.36 596.415 29.744C595.54 30.1067 594.559 30.288 593.471 30.288C591.956 30.288 590.655 29.9467 589.567 29.264C588.479 28.5813 587.658 27.6213 587.103 26.384C586.548 25.1467 586.271 23.7173 586.271 22.096C586.271 20.4533 586.548 19.0133 587.103 17.776C587.658 16.5387 588.468 15.5893 589.535 14.928C590.623 14.2453 591.935 13.904 593.471 13.904C594.58 13.904 595.572 14.096 596.447 14.48C597.343 14.864 598.09 15.4293 598.687 16.176V14.32H602.175ZM594.367 27.312C595.69 27.312 596.724 26.896 597.471 26.064C598.239 25.2107 598.623 24.016 598.623 22.48V21.712C598.623 20.176 598.239 18.992 597.471 18.16C596.724 17.328 595.69 16.912 594.367 16.912C593.45 16.912 592.66 17.104 591.999 17.488C591.359 17.8507 590.868 18.4053 590.527 19.152C590.207 19.8773 590.047 20.8587 590.047 22.096C590.047 23.2693 590.207 24.2613 590.527 25.072C590.868 25.7973 591.37 26.352 592.031 26.736C592.692 27.12 593.471 27.312 594.367 27.312ZM612.867 30.384C611.075 30.384 609.56 30.0107 608.323 29.264C607.086 28.5173 606.168 27.4827 605.571 26.16C605.038 25.0293 604.771 23.696 604.771 22.16C604.771 20.624 605.038 19.28 605.571 18.128C606.168 16.8053 607.086 15.7707 608.323 15.024C609.56 14.2773 611.075 13.904 612.867 13.904C614.659 13.904 616.174 14.2773 617.411 15.024C618.67 15.7707 619.598 16.8053 620.195 18.128C620.728 19.3227 620.995 20.6667 620.995 22.16C620.995 23.6107 620.728 24.9547 620.195 26.192C619.598 27.5147 618.67 28.5493 617.411 29.296C616.174 30.0213 614.659 30.384 612.867 30.384ZM612.867 27.408C613.827 27.408 614.627 27.216 615.267 26.832C615.928 26.4267 616.419 25.872 616.739 25.168C617.059 24.4427 617.219 23.44 617.219 22.16C617.219 20.8587 617.059 19.856 616.739 19.152C616.419 18.4267 615.928 17.872 615.267 17.488C614.627 17.104 613.827 16.912 612.867 16.912C611.907 16.912 611.107 17.104 610.467 17.488C609.827 17.872 609.347 18.4267 609.027 19.152C608.686 19.8987 608.515 20.9013 608.515 22.16C608.515 23.3973 608.686 24.4 609.027 25.168C609.347 25.872 609.827 26.4267 610.467 26.832C611.107 27.216 611.907 27.408 612.867 27.408ZM637.074 17.072C637.501 18.0107 637.714 19.2587 637.714 20.816V30H634.162V28.24C633.032 29.6693 631.24 30.384 628.786 30.384C627.4 30.384 626.226 30.16 625.266 29.712C624.306 29.264 623.634 28.6027 623.25 27.728C622.973 27.1093 622.834 26.4053 622.834 25.616C622.834 24.8267 622.962 24.144 623.218 23.568C623.752 22.3947 624.658 21.5947 625.938 21.168C627.218 20.72 628.872 20.496 630.898 20.496H634.162V20.08C634.162 19.6747 634.141 19.344 634.098 19.088C634.056 18.8107 633.97 18.5333 633.842 18.256C633.373 17.232 632.285 16.72 630.578 16.72C629.704 16.72 628.989 16.8373 628.434 17.072C627.88 17.3067 627.485 17.68 627.25 18.192C627.101 18.576 627.026 18.928 627.026 19.248H623.442C623.442 18.352 623.592 17.5947 623.89 16.976C624.808 14.928 627.026 13.904 630.546 13.904C632.274 13.904 633.672 14.16 634.738 14.672C635.826 15.184 636.605 15.984 637.074 17.072ZM633.778 25.424C634.034 24.8053 634.162 24.08 634.162 23.248V23.056H631.122C629.949 23.056 628.978 23.152 628.21 23.344C627.442 23.536 626.941 23.888 626.706 24.4C626.578 24.656 626.514 24.9547 626.514 25.296C626.514 25.6373 626.578 25.9573 626.706 26.256C626.92 26.704 627.293 27.0347 627.826 27.248C628.36 27.4613 628.989 27.568 629.714 27.568C630.738 27.568 631.592 27.3867 632.274 27.024C632.957 26.6613 633.458 26.128 633.778 25.424ZM640.914 7.408H644.466V30H640.914V7.408ZM653.709 30.48C652.13 30.48 650.808 30.224 649.741 29.712C648.696 29.2 647.938 28.432 647.469 27.408C647.128 26.6613 646.957 25.7867 646.957 24.784H650.413C650.413 25.3813 650.52 25.8827 650.733 26.288C651.202 27.312 652.216 27.824 653.773 27.824C655.33 27.824 656.29 27.4187 656.653 26.608C656.76 26.3307 656.813 26.064 656.813 25.808C656.813 25.5093 656.76 25.232 656.653 24.976C656.504 24.656 656.258 24.4 655.917 24.208C655.597 24.016 655.192 23.856 654.701 23.728C654.232 23.5787 653.56 23.4187 652.685 23.248C651.49 22.9707 650.477 22.608 649.645 22.16C648.813 21.6907 648.216 21.0507 647.853 20.24C647.64 19.7493 647.533 19.1733 647.533 18.512C647.533 17.808 647.661 17.1893 647.917 16.656C648.322 15.7813 649.026 15.1093 650.029 14.64C651.032 14.1493 652.237 13.904 653.645 13.904C655.074 13.904 656.28 14.1387 657.261 14.608C658.264 15.0773 658.989 15.7707 659.437 16.688C659.714 17.328 659.853 18.096 659.853 18.992H656.493C656.493 18.5227 656.408 18.0853 656.237 17.68C656.024 17.2533 655.682 16.9333 655.213 16.72C654.765 16.4853 654.221 16.368 653.581 16.368C652.28 16.368 651.458 16.72 651.117 17.424C651.032 17.616 650.989 17.8613 650.989 18.16C650.989 18.4373 651.032 18.6507 651.117 18.8C651.266 19.1413 651.533 19.4187 651.917 19.632C652.301 19.8453 652.706 20.016 653.133 20.144C653.581 20.2507 654.232 20.4 655.085 20.592C656.408 20.9333 657.485 21.3387 658.317 21.808C659.17 22.256 659.789 22.8853 660.173 23.696C660.386 24.1867 660.493 24.7733 660.493 25.456C660.493 26.2027 660.365 26.896 660.109 27.536C659.661 28.496 658.861 29.232 657.709 29.744C656.578 30.2347 655.245 30.48 653.709 30.48Z" fill="#222628"/>
</svg>
