<svg width="158" height="152" viewBox="0 0 158 152" fill="none" xmlns="http://www.w3.org/2000/svg">
<rect width="158" height="152" fill="#222628" fill-opacity="0.2"/>
<path d="M46.424 26.116H47.684L52.976 34.264V26.116H54.124V36H52.836L47.572 27.852V36H46.424V26.116ZM60.293 36.224C59.369 36.224 58.585 36.0513 57.941 35.706C57.297 35.3607 56.7976 34.8753 56.443 34.25C56.191 33.8393 55.9996 33.3633 55.869 32.822C55.7383 32.2713 55.673 31.6833 55.673 31.058C55.673 29.966 55.8456 29.042 56.191 28.286C56.5363 27.53 57.0496 26.942 57.731 26.522C58.4216 26.102 59.2756 25.892 60.293 25.892C61.3196 25.892 62.1736 26.102 62.855 26.522C63.5456 26.9327 64.059 27.516 64.395 28.272C64.7496 29.0467 64.927 29.9753 64.927 31.058C64.927 32.1407 64.7496 33.0693 64.395 33.844C64.0496 34.6 63.5363 35.188 62.855 35.608C62.1736 36.0187 61.3196 36.224 60.293 36.224ZM60.293 35.132C61.049 35.132 61.6696 34.9827 62.155 34.684C62.6496 34.376 63.0183 33.9467 63.261 33.396C63.4103 33.0693 63.5176 32.7147 63.583 32.332C63.6483 31.9493 63.681 31.5247 63.681 31.058C63.681 30.5913 63.6483 30.1667 63.583 29.784C63.5176 29.4013 63.4103 29.0467 63.261 28.72C63.0183 28.1693 62.6496 27.7447 62.155 27.446C61.6696 27.138 61.049 26.984 60.293 26.984C59.5463 26.984 58.9256 27.138 58.431 27.446C57.9456 27.7447 57.577 28.1693 57.325 28.72C57.0543 29.336 56.919 30.1153 56.919 31.058C56.919 32.0007 57.0543 32.78 57.325 33.396C57.577 33.9467 57.9456 34.376 58.431 34.684C58.9256 34.9827 59.5463 35.132 60.293 35.132ZM68.9963 26.116H72.4403C73.1963 26.116 73.8263 26.2327 74.3303 26.466C74.8343 26.6993 75.1983 27.0587 75.4223 27.544C75.5809 27.8987 75.6603 28.3327 75.6603 28.846C75.6603 29.3687 75.5809 29.8073 75.4223 30.162C75.1983 30.638 74.8343 30.9973 74.3303 31.24C73.8263 31.4733 73.1963 31.59 72.4403 31.59H70.1723V36H68.9963V26.116ZM72.2023 30.568C72.7716 30.568 73.2289 30.5027 73.5743 30.372C73.9196 30.232 74.1623 30.0033 74.3023 29.686C74.4049 29.434 74.4563 29.1587 74.4563 28.86C74.4563 28.5333 74.4003 28.2533 74.2883 28.02C74.1483 27.7027 73.9056 27.474 73.5603 27.334C73.2149 27.194 72.7623 27.124 72.2023 27.124H70.1723V30.568H72.2023ZM76.9123 26.116H78.0883V30.442H83.0723V26.116H84.2483V36H83.0723V31.492H78.0883V36H76.9123V26.116ZM90.4258 36.224C89.5018 36.224 88.7178 36.0513 88.0738 35.706C87.4298 35.3607 86.9304 34.8753 86.5758 34.25C86.3238 33.8393 86.1324 33.3633 86.0018 32.822C85.8711 32.2713 85.8058 31.6833 85.8058 31.058C85.8058 29.966 85.9784 29.042 86.3238 28.286C86.6691 27.53 87.1824 26.942 87.8638 26.522C88.5544 26.102 89.4084 25.892 90.4258 25.892C91.4524 25.892 92.3064 26.102 92.9878 26.522C93.6784 26.9327 94.1918 27.516 94.5278 28.272C94.8824 29.0467 95.0598 29.9753 95.0598 31.058C95.0598 32.1407 94.8824 33.0693 94.5278 33.844C94.1824 34.6 93.6691 35.188 92.9878 35.608C92.3064 36.0187 91.4524 36.224 90.4258 36.224ZM90.4258 35.132C91.1818 35.132 91.8024 34.9827 92.2878 34.684C92.7824 34.376 93.1511 33.9467 93.3938 33.396C93.5431 33.0693 93.6504 32.7147 93.7158 32.332C93.7811 31.9493 93.8138 31.5247 93.8138 31.058C93.8138 30.5913 93.7811 30.1667 93.7158 29.784C93.6504 29.4013 93.5431 29.0467 93.3938 28.72C93.1511 28.1693 92.7824 27.7447 92.2878 27.446C91.8024 27.138 91.1818 26.984 90.4258 26.984C89.6791 26.984 89.0584 27.138 88.5638 27.446C88.0784 27.7447 87.7098 28.1693 87.4578 28.72C87.1871 29.336 87.0518 30.1153 87.0518 31.058C87.0518 32.0007 87.1871 32.78 87.4578 33.396C87.7098 33.9467 88.0784 34.376 88.5638 34.684C89.0584 34.9827 89.6791 35.132 90.4258 35.132ZM97.9816 27.152H95.3916V26.116H101.748V27.152H99.1576V36H97.9816V27.152ZM106.695 36.224C105.771 36.224 104.987 36.0513 104.343 35.706C103.699 35.3607 103.2 34.8753 102.845 34.25C102.593 33.8393 102.402 33.3633 102.271 32.822C102.141 32.2713 102.075 31.6833 102.075 31.058C102.075 29.966 102.248 29.042 102.593 28.286C102.939 27.53 103.452 26.942 104.133 26.522C104.824 26.102 105.678 25.892 106.695 25.892C107.722 25.892 108.576 26.102 109.257 26.522C109.948 26.9327 110.461 27.516 110.797 28.272C111.152 29.0467 111.329 29.9753 111.329 31.058C111.329 32.1407 111.152 33.0693 110.797 33.844C110.452 34.6 109.939 35.188 109.257 35.608C108.576 36.0187 107.722 36.224 106.695 36.224ZM106.695 35.132C107.451 35.132 108.072 34.9827 108.557 34.684C109.052 34.376 109.421 33.9467 109.663 33.396C109.813 33.0693 109.92 32.7147 109.985 32.332C110.051 31.9493 110.083 31.5247 110.083 31.058C110.083 30.5913 110.051 30.1667 109.985 29.784C109.92 29.4013 109.813 29.0467 109.663 28.72C109.421 28.1693 109.052 27.7447 108.557 27.446C108.072 27.138 107.451 26.984 106.695 26.984C105.949 26.984 105.328 27.138 104.833 27.446C104.348 27.7447 103.979 28.1693 103.727 28.72C103.457 29.336 103.321 30.1153 103.321 31.058C103.321 32.0007 103.457 32.78 103.727 33.396C103.979 33.9467 104.348 34.376 104.833 34.684C105.328 34.9827 105.949 35.132 106.695 35.132Z" fill="#222628"/>
<path d="M41.976 101.824C40.788 101.824 39.816 101.656 39.06 101.32C38.304 100.984 37.74 100.474 37.368 99.79C37.008 99.094 36.828 98.206 36.828 97.126V88.792H39.474V96.928C39.474 97.792 39.678 98.44 40.086 98.872C40.494 99.292 41.124 99.502 41.976 99.502C42.84 99.502 43.476 99.292 43.884 98.872C44.292 98.44 44.496 97.792 44.496 96.928V88.792H47.16V97.126C47.16 98.206 46.974 99.094 46.602 99.79C46.242 100.474 45.678 100.984 44.91 101.32C44.154 101.656 43.176 101.824 41.976 101.824ZM57.6547 94.534C57.9787 95.254 58.1407 96.094 58.1407 97.054C58.1407 97.978 57.9787 98.812 57.6547 99.556C57.3427 100.252 56.8807 100.792 56.2687 101.176C55.6687 101.548 54.9487 101.734 54.1087 101.734C52.8847 101.734 51.9487 101.32 51.3007 100.492V105.136H48.8167V92.59H51.2467V93.67C51.9067 92.782 52.8607 92.338 54.1087 92.338C54.9487 92.338 55.6687 92.53 56.2687 92.914C56.8807 93.298 57.3427 93.838 57.6547 94.534ZM55.2247 98.584C55.3927 98.176 55.4767 97.666 55.4767 97.054C55.4767 96.418 55.3927 95.902 55.2247 95.506C55.0687 95.146 54.8287 94.876 54.5047 94.696C54.1807 94.516 53.7967 94.426 53.3527 94.426C52.6927 94.426 52.1827 94.63 51.8227 95.038C51.4627 95.446 51.2827 96.034 51.2827 96.802V97.27C51.2827 98.038 51.4627 98.632 51.8227 99.052C52.1947 99.46 52.7047 99.664 53.3527 99.664C53.7967 99.664 54.1807 99.574 54.5047 99.394C54.8287 99.202 55.0687 98.932 55.2247 98.584ZM59.4163 88.792H61.9003V101.5H59.4163V88.792ZM67.9199 101.734C66.8639 101.734 65.9699 101.524 65.2379 101.104C64.5059 100.672 63.9659 100.066 63.6179 99.286C63.3299 98.674 63.1859 97.93 63.1859 97.054C63.1859 96.166 63.3299 95.416 63.6179 94.804C63.9659 94.024 64.5059 93.418 65.2379 92.986C65.9819 92.554 66.8759 92.338 67.9199 92.338C68.9759 92.338 69.8699 92.554 70.6019 92.986C71.3459 93.418 71.8859 94.018 72.2219 94.786C72.5219 95.422 72.6719 96.178 72.6719 97.054C72.6719 97.918 72.5219 98.668 72.2219 99.304C71.8859 100.072 71.3459 100.672 70.6019 101.104C69.8699 101.524 68.9759 101.734 67.9199 101.734ZM67.9199 99.682C68.3759 99.682 68.7599 99.592 69.0719 99.412C69.3839 99.22 69.6179 98.956 69.7739 98.62C69.9299 98.236 70.0079 97.714 70.0079 97.054C70.0079 96.382 69.9299 95.854 69.7739 95.47C69.4619 94.762 68.8439 94.408 67.9199 94.408C67.4639 94.408 67.0799 94.504 66.7679 94.696C66.4559 94.876 66.2279 95.134 66.0839 95.47C65.9159 95.842 65.8319 96.37 65.8319 97.054C65.8319 97.726 65.9159 98.248 66.0839 98.62C66.2279 98.956 66.4559 99.22 66.7679 99.412C67.0799 99.592 67.4639 99.682 67.9199 99.682ZM81.9274 94.174C82.1674 94.726 82.2874 95.446 82.2874 96.334V101.5H79.7854V100.492C79.1494 101.32 78.1474 101.734 76.7794 101.734C76.0354 101.734 75.3994 101.608 74.8714 101.356C74.3434 101.092 73.9714 100.714 73.7554 100.222C73.5994 99.898 73.5214 99.49 73.5214 98.998C73.5214 98.542 73.5934 98.146 73.7374 97.81C74.0374 97.15 74.5594 96.7 75.3034 96.46C76.0474 96.208 77.0074 96.082 78.1834 96.082H79.7854V95.902C79.7854 95.65 79.7734 95.458 79.7494 95.326C79.7254 95.182 79.6834 95.038 79.6234 94.894C79.3954 94.402 78.8794 94.156 78.0754 94.156C77.6674 94.156 77.3314 94.216 77.0674 94.336C76.8154 94.444 76.6294 94.624 76.5094 94.876C76.4734 94.972 76.4434 95.068 76.4194 95.164C76.4074 95.248 76.3954 95.338 76.3834 95.434H73.8634C73.8634 94.978 73.9474 94.552 74.1154 94.156C74.3914 93.544 74.8714 93.088 75.5554 92.788C76.2394 92.488 77.0734 92.338 78.0574 92.338C79.0894 92.338 79.9174 92.488 80.5414 92.788C81.1774 93.088 81.6394 93.55 81.9274 94.174ZM77.6614 99.862C78.1534 99.862 78.5614 99.778 78.8854 99.61C79.2094 99.43 79.4494 99.178 79.6054 98.854C79.7254 98.578 79.7854 98.212 79.7854 97.756V97.63H78.3634C77.7874 97.63 77.3134 97.678 76.9414 97.774C76.5814 97.87 76.3414 98.044 76.2214 98.296C76.1614 98.44 76.1314 98.59 76.1314 98.746C76.1314 98.914 76.1614 99.076 76.2214 99.232C76.3174 99.448 76.4914 99.61 76.7434 99.718C77.0074 99.814 77.3134 99.862 77.6614 99.862ZM92.8126 88.792V101.5H90.3646V100.438C89.7166 101.302 88.7686 101.734 87.5206 101.734C86.6806 101.734 85.9546 101.548 85.3426 101.176C84.7426 100.792 84.2866 100.252 83.9746 99.556C83.6506 98.812 83.4886 97.978 83.4886 97.054C83.4886 96.094 83.6506 95.254 83.9746 94.534C84.2866 93.838 84.7426 93.298 85.3426 92.914C85.9546 92.53 86.6806 92.338 87.5206 92.338C88.7206 92.338 89.6506 92.752 90.3106 93.58V88.792H92.8126ZM90.3286 96.802C90.3286 96.034 90.1486 95.446 89.7886 95.038C89.4286 94.618 88.9186 94.408 88.2586 94.408C87.8146 94.408 87.4306 94.504 87.1066 94.696C86.7946 94.876 86.5606 95.146 86.4046 95.506C86.2366 95.854 86.1526 96.37 86.1526 97.054C86.1526 97.714 86.2366 98.23 86.4046 98.602C86.5726 98.95 86.8126 99.22 87.1246 99.412C87.4366 99.592 87.8146 99.682 88.2586 99.682C88.9186 99.682 89.4286 99.478 89.7886 99.07C90.1486 98.65 90.3286 98.056 90.3286 97.288V96.802ZM97.8806 88.792H103.047C105.087 88.792 106.383 89.422 106.935 90.682C107.163 91.21 107.277 91.846 107.277 92.59C107.277 93.31 107.163 93.934 106.935 94.462C106.371 95.746 105.075 96.388 103.047 96.388H100.545V101.5H97.8806V88.792ZM102.327 94.336C102.891 94.336 103.341 94.27 103.677 94.138C104.013 94.006 104.247 93.79 104.379 93.49C104.499 93.25 104.559 92.956 104.559 92.608C104.559 92.248 104.499 91.948 104.379 91.708C104.235 91.408 103.995 91.198 103.659 91.078C103.335 90.946 102.891 90.88 102.327 90.88H100.545V94.336H102.327ZM109.684 91.474C109.276 91.474 108.94 91.354 108.676 91.114C108.412 90.862 108.28 90.544 108.28 90.16C108.28 89.776 108.412 89.464 108.676 89.224C108.94 88.972 109.276 88.846 109.684 88.846C110.08 88.846 110.404 88.972 110.656 89.224C110.92 89.464 111.052 89.776 111.052 90.16C111.052 90.544 110.92 90.862 110.656 91.114C110.404 91.354 110.08 91.474 109.684 91.474ZM108.424 92.59H110.908V101.5H108.424V92.59ZM116.856 101.734C115.848 101.734 114.978 101.53 114.246 101.122C113.514 100.714 112.974 100.126 112.626 99.358C112.338 98.686 112.194 97.918 112.194 97.054C112.194 96.166 112.338 95.398 112.626 94.75C112.974 93.97 113.508 93.376 114.228 92.968C114.96 92.548 115.836 92.338 116.856 92.338C117.552 92.338 118.182 92.434 118.746 92.626C119.322 92.818 119.814 93.1 120.222 93.472C120.57 93.784 120.84 94.156 121.032 94.588C121.236 95.008 121.344 95.476 121.356 95.992H118.656C118.62 95.512 118.452 95.122 118.152 94.822C117.996 94.69 117.804 94.588 117.576 94.516C117.36 94.444 117.126 94.408 116.874 94.408C116.466 94.408 116.112 94.498 115.812 94.678C115.512 94.846 115.284 95.098 115.128 95.434C115.044 95.638 114.978 95.866 114.93 96.118C114.894 96.37 114.876 96.676 114.876 97.036C114.876 97.408 114.894 97.72 114.93 97.972C114.978 98.224 115.044 98.446 115.128 98.638C115.284 98.974 115.512 99.232 115.812 99.412C116.112 99.58 116.466 99.664 116.874 99.664C117.15 99.664 117.396 99.628 117.612 99.556C117.828 99.484 118.008 99.382 118.152 99.25C118.308 99.106 118.428 98.932 118.512 98.728C118.596 98.524 118.644 98.308 118.656 98.08H121.356C121.32 99.124 120.948 99.97 120.24 100.618C119.832 100.978 119.34 101.254 118.764 101.446C118.188 101.638 117.552 101.734 116.856 101.734Z" fill="#0066EE"/>
</svg>
