<svg width="604" height="194" viewBox="0 0 604 194" fill="none" xmlns="http://www.w3.org/2000/svg">
<rect width="604" height="46" fill="#003A87"/>
<path d="M18.5666 28.34C17.2333 28.34 16.1266 28.1133 15.2466 27.66C14.3666 27.2067 13.74 26.5667 13.3666 25.74C13.0866 25.0733 12.9466 24.3133 12.9466 23.46H15.4466C15.4733 24.1 15.5666 24.6133 15.7266 25C15.94 25.4667 16.2933 25.8267 16.7866 26.08C17.28 26.32 17.9 26.44 18.6466 26.44C19.3666 26.44 19.9733 26.3333 20.4666 26.12C20.9733 25.8933 21.3133 25.58 21.4866 25.18C21.62 24.8733 21.6866 24.5667 21.6866 24.26C21.6866 23.9667 21.6266 23.6867 21.5066 23.42C21.3733 23.1133 21.14 22.8533 20.8066 22.64C20.4866 22.4267 20.1266 22.26 19.7266 22.14C19.3266 22.0067 18.7666 21.8533 18.0466 21.68L17.4666 21.54C16.44 21.26 15.6 20.94 14.9466 20.58C14.3066 20.2067 13.8466 19.7133 13.5666 19.1C13.3666 18.6333 13.2666 18.1267 13.2666 17.58C13.2666 17.0467 13.3866 16.5067 13.6266 15.96C13.96 15.2 14.5533 14.6067 15.4066 14.18C16.2733 13.7533 17.2866 13.54 18.4466 13.54C19.62 13.54 20.6133 13.7533 21.4266 14.18C22.24 14.6067 22.82 15.22 23.1666 16.02C23.3133 16.34 23.42 16.68 23.4866 17.04C23.5533 17.3867 23.5866 17.7733 23.5866 18.2H21.2066C21.1933 17.88 21.1666 17.6067 21.1266 17.38C21.0866 17.14 21.0266 16.9267 20.9466 16.74C20.7466 16.2867 20.4266 15.9467 19.9866 15.72C19.5466 15.4933 19.0066 15.38 18.3666 15.38C17.74 15.38 17.1933 15.4933 16.7266 15.72C16.2733 15.9333 15.9666 16.2267 15.8066 16.6C15.74 16.72 15.6933 16.84 15.6666 16.96C15.6533 17.0667 15.6466 17.1933 15.6466 17.34C15.6466 17.5 15.6533 17.64 15.6666 17.76C15.6933 17.8667 15.7333 17.9733 15.7866 18.08C15.9066 18.36 16.1133 18.6 16.4066 18.8C16.7133 18.9867 17.0533 19.14 17.4266 19.26C17.8 19.3667 18.32 19.5067 18.9866 19.68C19.1333 19.7067 19.3533 19.76 19.6466 19.84C20.4066 20.04 21.0466 20.24 21.5666 20.44C22.0866 20.64 22.5466 20.9 22.9466 21.22C23.36 21.5267 23.6733 21.9133 23.8866 22.38C24.0866 22.8333 24.1866 23.3867 24.1866 24.04C24.1866 24.6933 24.0733 25.28 23.8466 25.8C23.4866 26.6267 22.8466 27.26 21.9266 27.7C21.0066 28.1267 19.8866 28.34 18.5666 28.34ZM31.1462 17.94C32.3462 17.94 33.2728 18.28 33.9262 18.96C34.5795 19.64 34.9062 20.6333 34.9062 21.94V28H32.7062V22.38C32.7062 21.5 32.5262 20.8533 32.1662 20.44C31.8062 20.0267 31.2528 19.82 30.5062 19.82C29.7195 19.82 29.1195 20.0467 28.7062 20.5C28.2928 20.94 28.0862 21.6 28.0862 22.48V28H25.8662V13.88H28.0862V19.3C28.7662 18.3933 29.7862 17.94 31.1462 17.94ZM45.3413 19.92C45.608 20.5067 45.7413 21.2867 45.7413 22.26V28H43.5213V26.9C42.8147 27.7933 41.6947 28.24 40.1613 28.24C39.2947 28.24 38.5613 28.1 37.9613 27.82C37.3613 27.54 36.9413 27.1267 36.7013 26.58C36.528 26.1933 36.4413 25.7533 36.4413 25.26C36.4413 24.7667 36.5213 24.34 36.6813 23.98C37.0147 23.2467 37.5813 22.7467 38.3813 22.48C39.1813 22.2 40.2147 22.06 41.4813 22.06H43.5213V21.8C43.5213 21.5467 43.508 21.34 43.4813 21.18C43.4547 21.0067 43.4013 20.8333 43.3213 20.66C43.028 20.02 42.348 19.7 41.2813 19.7C40.7347 19.7 40.288 19.7733 39.9413 19.92C39.5947 20.0667 39.348 20.3 39.2013 20.62C39.108 20.86 39.0613 21.08 39.0613 21.28H36.8213C36.8213 20.72 36.9147 20.2467 37.1013 19.86C37.6747 18.58 39.0613 17.94 41.2613 17.94C42.3413 17.94 43.2147 18.1 43.8813 18.42C44.5613 18.74 45.048 19.24 45.3413 19.92ZM43.2813 25.14C43.4413 24.7533 43.5213 24.3 43.5213 23.78V23.66H41.6213C40.888 23.66 40.2813 23.72 39.8013 23.84C39.3213 23.96 39.008 24.18 38.8613 24.5C38.7813 24.66 38.7413 24.8467 38.7413 25.06C38.7413 25.2733 38.7813 25.4733 38.8613 25.66C38.9947 25.94 39.228 26.1467 39.5613 26.28C39.8947 26.4133 40.288 26.48 40.7413 26.48C41.3813 26.48 41.9147 26.3667 42.3413 26.14C42.768 25.9133 43.0813 25.58 43.2813 25.14ZM52.5412 18.06C52.9278 18.06 53.2612 18.1 53.5412 18.18V20.14C53.2478 20.0733 52.9145 20.04 52.5412 20.04C51.6878 20.04 51.0412 20.3 50.6012 20.82C50.1745 21.3267 49.9612 22.0667 49.9612 23.04V28H47.7412V18.2H49.9412V19.34C50.5145 18.4867 51.3812 18.06 52.5412 18.06ZM61.3938 25.86C61.5672 25.7 61.7072 25.5067 61.8138 25.28C61.9338 25.0533 62.0072 24.8267 62.0338 24.6H64.2338C64.1405 25.5867 63.7538 26.4 63.0738 27.04C62.6338 27.4267 62.1005 27.7267 61.4738 27.94C60.8472 28.14 60.1605 28.24 59.4138 28.24C58.2672 28.24 57.2872 28.0133 56.4738 27.56C55.6738 27.1067 55.0872 26.4667 54.7138 25.64C54.3938 24.92 54.2338 24.0667 54.2338 23.08C54.2338 22.5733 54.2738 22.1133 54.3538 21.7C54.4338 21.2867 54.5538 20.9 54.7138 20.54C55.0872 19.7133 55.6605 19.0733 56.4338 18.62C57.2205 18.1667 58.1605 17.94 59.2538 17.94C60.3472 17.94 61.2805 18.1667 62.0538 18.62C62.8405 19.0733 63.4138 19.7067 63.7738 20.52C63.9738 20.9733 64.1072 21.4467 64.1738 21.94C64.2538 22.4333 64.2938 23.02 64.2938 23.7H56.4738C56.5138 24.2867 56.6138 24.7467 56.7738 25.08C56.9738 25.5333 57.2938 25.88 57.7338 26.12C58.1738 26.36 58.7205 26.48 59.3738 26.48C59.8005 26.48 60.1872 26.4267 60.5338 26.32C60.8805 26.2133 61.1672 26.06 61.3938 25.86ZM59.2938 19.72C58.0405 19.72 57.2005 20.1933 56.7738 21.14C56.6405 21.4333 56.5538 21.7467 56.5138 22.08H62.0138C61.9738 21.7333 61.8938 21.3933 61.7738 21.06C61.5605 20.62 61.2472 20.2867 60.8338 20.06C60.4205 19.8333 59.9072 19.72 59.2938 19.72ZM78.7995 18.2L72.9195 32.04H70.6395L72.4195 27.9L68.4995 18.2H70.9595L73.6195 25.5L76.3995 18.2H78.7995ZM84.0595 28.24C82.9395 28.24 81.9928 28.0067 81.2195 27.54C80.4461 27.0733 79.8728 26.4267 79.4995 25.6C79.1661 24.8933 78.9995 24.06 78.9995 23.1C78.9995 22.14 79.1661 21.3 79.4995 20.58C79.8728 19.7533 80.4461 19.1067 81.2195 18.64C81.9928 18.1733 82.9395 17.94 84.0595 17.94C85.1795 17.94 86.1261 18.1733 86.8995 18.64C87.6861 19.1067 88.2661 19.7533 88.6395 20.58C88.9728 21.3267 89.1395 22.1667 89.1395 23.1C89.1395 24.0067 88.9728 24.8467 88.6395 25.62C88.2661 26.4467 87.6861 27.0933 86.8995 27.56C86.1261 28.0133 85.1795 28.24 84.0595 28.24ZM84.0595 26.38C84.6595 26.38 85.1595 26.26 85.5595 26.02C85.9728 25.7667 86.2795 25.42 86.4795 24.98C86.6795 24.5267 86.7795 23.9 86.7795 23.1C86.7795 22.2867 86.6795 21.66 86.4795 21.22C86.2795 20.7667 85.9728 20.42 85.5595 20.18C85.1595 19.94 84.6595 19.82 84.0595 19.82C83.4595 19.82 82.9595 19.94 82.5595 20.18C82.1595 20.42 81.8595 20.7667 81.6595 21.22C81.4461 21.6867 81.3395 22.3133 81.3395 23.1C81.3395 23.8733 81.4461 24.5 81.6595 24.98C81.8595 25.42 82.1595 25.7667 82.5595 26.02C82.9595 26.26 83.4595 26.38 84.0595 26.38ZM99.709 18.2V28H97.509V26.88C96.829 27.8 95.809 28.26 94.449 28.26C93.249 28.26 92.3157 27.92 91.649 27.24C90.9957 26.56 90.669 25.5667 90.669 24.26V18.2H92.869V23.82C92.869 24.7 93.049 25.3467 93.409 25.76C93.7823 26.1733 94.3357 26.38 95.069 26.38C95.8557 26.38 96.4557 26.1533 96.869 25.7C97.2957 25.2467 97.509 24.5867 97.509 23.72V18.2H99.709ZM106.584 18.06C106.971 18.06 107.304 18.1 107.584 18.18V20.14C107.291 20.0733 106.957 20.04 106.584 20.04C105.731 20.04 105.084 20.3 104.644 20.82C104.217 21.3267 104.004 22.0667 104.004 23.04V28H101.784V18.2H103.984V19.34C104.557 18.4867 105.424 18.06 106.584 18.06ZM116.327 28.16C115.261 28.16 114.481 27.9133 113.987 27.42C113.507 26.9133 113.267 26.1 113.267 24.98V20.02H111.747V18.2H113.267V15.84H115.467V18.2H118.247V20.02H115.467V24.58C115.467 25.1667 115.587 25.6 115.827 25.88C116.081 26.1467 116.467 26.28 116.987 26.28C117.414 26.28 117.807 26.2267 118.167 26.12V27.96C117.541 28.0933 116.927 28.16 116.327 28.16ZM124.916 17.94C126.116 17.94 127.042 18.28 127.696 18.96C128.349 19.64 128.676 20.6333 128.676 21.94V28H126.476V22.38C126.476 21.5 126.296 20.8533 125.936 20.44C125.576 20.0267 125.022 19.82 124.276 19.82C123.489 19.82 122.889 20.0467 122.476 20.5C122.062 20.94 121.856 21.6 121.856 22.48V28H119.636V13.88H121.856V19.3C122.536 18.3933 123.556 17.94 124.916 17.94ZM135.251 28.24C134.131 28.24 133.184 28.0067 132.411 27.54C131.638 27.0733 131.064 26.4267 130.691 25.6C130.358 24.8933 130.191 24.06 130.191 23.1C130.191 22.14 130.358 21.3 130.691 20.58C131.064 19.7533 131.638 19.1067 132.411 18.64C133.184 18.1733 134.131 17.94 135.251 17.94C136.371 17.94 137.318 18.1733 138.091 18.64C138.878 19.1067 139.458 19.7533 139.831 20.58C140.164 21.3267 140.331 22.1667 140.331 23.1C140.331 24.0067 140.164 24.8467 139.831 25.62C139.458 26.4467 138.878 27.0933 138.091 27.56C137.318 28.0133 136.371 28.24 135.251 28.24ZM135.251 26.38C135.851 26.38 136.351 26.26 136.751 26.02C137.164 25.7667 137.471 25.42 137.671 24.98C137.871 24.5267 137.971 23.9 137.971 23.1C137.971 22.2867 137.871 21.66 137.671 21.22C137.471 20.7667 137.164 20.42 136.751 20.18C136.351 19.94 135.851 19.82 135.251 19.82C134.651 19.82 134.151 19.94 133.751 20.18C133.351 20.42 133.051 20.7667 132.851 21.22C132.638 21.6867 132.531 22.3133 132.531 23.1C132.531 23.8733 132.638 24.5 132.851 24.98C133.051 25.42 133.351 25.7667 133.751 26.02C134.151 26.26 134.651 26.38 135.251 26.38ZM150.9 18.2V28H148.7V26.88C148.02 27.8 147 28.26 145.64 28.26C144.44 28.26 143.507 27.92 142.84 27.24C142.187 26.56 141.86 25.5667 141.86 24.26V18.2H144.06V23.82C144.06 24.7 144.24 25.3467 144.6 25.76C144.974 26.1733 145.527 26.38 146.26 26.38C147.047 26.38 147.647 26.1533 148.06 25.7C148.487 25.2467 148.7 24.5867 148.7 23.72V18.2H150.9ZM162.436 18.2V27.68C162.436 28.6133 162.276 29.4067 161.956 30.06C161.302 31.54 159.842 32.28 157.576 32.28C155.909 32.28 154.656 31.9067 153.816 31.16C153.189 30.5733 152.816 29.7867 152.696 28.8H154.996C155.022 29.0267 155.082 29.24 155.176 29.44C155.269 29.6533 155.402 29.8333 155.576 29.98C156.042 30.38 156.709 30.58 157.576 30.58C158.816 30.58 159.616 30.16 159.976 29.32C160.136 28.96 160.216 28.5333 160.216 28.04V26.8C159.842 27.2533 159.382 27.6 158.836 27.84C158.289 28.0667 157.676 28.18 156.996 28.18C156.049 28.18 155.236 27.9667 154.556 27.54C153.876 27.1133 153.362 26.5133 153.016 25.74C152.669 24.9667 152.496 24.0733 152.496 23.06C152.496 22.0333 152.669 21.1333 153.016 20.36C153.362 19.5867 153.869 18.9933 154.536 18.58C155.216 18.1533 156.036 17.94 156.996 17.94C157.689 17.94 158.309 18.06 158.856 18.3C159.416 18.54 159.882 18.8933 160.256 19.36V18.2H162.436ZM157.556 26.32C158.382 26.32 159.029 26.06 159.496 25.54C159.976 25.0067 160.216 24.26 160.216 23.3V22.82C160.216 21.86 159.976 21.12 159.496 20.6C159.029 20.08 158.382 19.82 157.556 19.82C156.982 19.82 156.489 19.94 156.076 20.18C155.676 20.4067 155.369 20.7533 155.156 21.22C154.956 21.6733 154.856 22.2867 154.856 23.06C154.856 23.7933 154.956 24.4133 155.156 24.92C155.369 25.3733 155.682 25.72 156.096 25.96C156.509 26.2 156.996 26.32 157.556 26.32ZM169.818 17.94C171.018 17.94 171.945 18.28 172.598 18.96C173.251 19.64 173.578 20.6333 173.578 21.94V28H171.378V22.38C171.378 21.5 171.198 20.8533 170.838 20.44C170.478 20.0267 169.925 19.82 169.178 19.82C168.391 19.82 167.791 20.0467 167.378 20.5C166.965 20.94 166.758 21.6 166.758 22.48V28H164.538V13.88H166.758V19.3C167.438 18.3933 168.458 17.94 169.818 17.94ZM179.101 28.16C178.034 28.16 177.254 27.9133 176.761 27.42C176.281 26.9133 176.041 26.1 176.041 24.98V20.02H174.521V18.2H176.041V15.84H178.241V18.2H181.021V20.02H178.241V24.58C178.241 25.1667 178.361 25.6 178.601 25.88C178.854 26.1467 179.241 26.28 179.761 26.28C180.187 26.28 180.581 26.2267 180.941 26.12V27.96C180.314 28.0933 179.701 28.16 179.101 28.16ZM186.07 28.3C185.083 28.3 184.257 28.14 183.59 27.82C182.937 27.5 182.463 27.02 182.17 26.38C181.957 25.9133 181.85 25.3667 181.85 24.74H184.01C184.01 25.1133 184.077 25.4267 184.21 25.68C184.503 26.32 185.137 26.64 186.11 26.64C187.083 26.64 187.683 26.3867 187.91 25.88C187.977 25.7067 188.01 25.54 188.01 25.38C188.01 25.1933 187.977 25.02 187.91 24.86C187.817 24.66 187.663 24.5 187.45 24.38C187.25 24.26 186.997 24.16 186.69 24.08C186.397 23.9867 185.977 23.8867 185.43 23.78C184.683 23.6067 184.05 23.38 183.53 23.1C183.01 22.8067 182.637 22.4067 182.41 21.9C182.277 21.5933 182.21 21.2333 182.21 20.82C182.21 20.38 182.29 19.9933 182.45 19.66C182.703 19.1133 183.143 18.6933 183.77 18.4C184.397 18.0933 185.15 17.94 186.03 17.94C186.923 17.94 187.677 18.0867 188.29 18.38C188.917 18.6733 189.37 19.1067 189.65 19.68C189.823 20.08 189.91 20.56 189.91 21.12H187.81C187.81 20.8267 187.757 20.5533 187.65 20.3C187.517 20.0333 187.303 19.8333 187.01 19.7C186.73 19.5533 186.39 19.48 185.99 19.48C185.177 19.48 184.663 19.7 184.45 20.14C184.397 20.26 184.37 20.4133 184.37 20.6C184.37 20.7733 184.397 20.9067 184.45 21C184.543 21.2133 184.71 21.3867 184.95 21.52C185.19 21.6533 185.443 21.76 185.71 21.84C185.99 21.9067 186.397 22 186.93 22.12C187.757 22.3333 188.43 22.5867 188.95 22.88C189.483 23.16 189.87 23.5533 190.11 24.06C190.243 24.3667 190.31 24.7333 190.31 25.16C190.31 25.6267 190.23 26.06 190.07 26.46C189.79 27.06 189.29 27.52 188.57 27.84C187.863 28.1467 187.03 28.3 186.07 28.3ZM193.802 28.34C193.376 28.34 193.029 28.2133 192.762 27.96C192.496 27.6933 192.362 27.3533 192.362 26.94C192.362 26.5 192.496 26.1533 192.762 25.9C193.029 25.6467 193.376 25.52 193.802 25.52C194.242 25.52 194.596 25.6467 194.862 25.9C195.129 26.1533 195.262 26.5 195.262 26.94C195.262 27.3533 195.122 27.6933 194.842 27.96C194.576 28.2133 194.229 28.34 193.802 28.34ZM199.759 28.34C199.333 28.34 198.986 28.2133 198.719 27.96C198.453 27.6933 198.319 27.3533 198.319 26.94C198.319 26.5 198.453 26.1533 198.719 25.9C198.986 25.6467 199.333 25.52 199.759 25.52C200.199 25.52 200.553 25.6467 200.819 25.9C201.086 26.1533 201.219 26.5 201.219 26.94C201.219 27.3533 201.079 27.6933 200.799 27.96C200.533 28.2133 200.186 28.34 199.759 28.34ZM205.716 28.34C205.29 28.34 204.943 28.2133 204.676 27.96C204.41 27.6933 204.276 27.3533 204.276 26.94C204.276 26.5 204.41 26.1533 204.676 25.9C204.943 25.6467 205.29 25.52 205.716 25.52C206.156 25.52 206.51 25.6467 206.776 25.9C207.043 26.1533 207.176 26.5 207.176 26.94C207.176 27.3533 207.036 27.6933 206.756 27.96C206.49 28.2133 206.143 28.34 205.716 28.34Z" fill="white"/>
<rect width="604" height="86" transform="translate(0 46)" fill="#F0F2F4"/>
<path d="M31.088 81.204L27.872 92.5H25.856L23.552 83.7L21.232 92.5H19.248L15.984 81.204H17.856L20.256 90.036L22.544 81.204H24.56L26.848 89.956L29.248 81.204H31.088ZM36.1341 84.452C37.0941 84.452 37.8355 84.724 38.3581 85.268C38.8808 85.812 39.1421 86.6067 39.1421 87.652V92.5H37.3821V88.004C37.3821 87.3 37.2381 86.7827 36.9501 86.452C36.6621 86.1213 36.2195 85.956 35.6221 85.956C34.9928 85.956 34.5128 86.1373 34.1821 86.5C33.8515 86.852 33.6861 87.38 33.6861 88.084V92.5H31.9101V81.204H33.6861V85.54C34.2301 84.8147 35.0461 84.452 36.1341 84.452ZM47.4903 86.036C47.7036 86.5053 47.8103 87.1293 47.8103 87.908V92.5H46.0343V91.62C45.4689 92.3347 44.5729 92.692 43.3463 92.692C42.6529 92.692 42.0663 92.58 41.5863 92.356C41.1063 92.132 40.7703 91.8013 40.5783 91.364C40.4396 91.0547 40.3703 90.7027 40.3703 90.308C40.3703 89.9133 40.4343 89.572 40.5623 89.284C40.8289 88.6973 41.2823 88.2973 41.9223 88.084C42.5623 87.86 43.3889 87.748 44.4023 87.748H46.0343V87.54C46.0343 87.3373 46.0236 87.172 46.0023 87.044C45.9809 86.9053 45.9383 86.7667 45.8743 86.628C45.6396 86.116 45.0956 85.86 44.2423 85.86C43.8049 85.86 43.4476 85.9187 43.1703 86.036C42.8929 86.1533 42.6956 86.34 42.5783 86.596C42.5036 86.788 42.4663 86.964 42.4663 87.124H40.6743C40.6743 86.676 40.7489 86.2973 40.8983 85.988C41.3569 84.964 42.4663 84.452 44.2263 84.452C45.0903 84.452 45.7889 84.58 46.3223 84.836C46.8663 85.092 47.2556 85.492 47.4903 86.036ZM45.8423 90.212C45.9703 89.9027 46.0343 89.54 46.0343 89.124V89.028H44.5143C43.9276 89.028 43.4423 89.076 43.0583 89.172C42.6743 89.268 42.4236 89.444 42.3063 89.7C42.2423 89.828 42.2103 89.9773 42.2103 90.148C42.2103 90.3187 42.2423 90.4787 42.3063 90.628C42.4129 90.852 42.5996 91.0173 42.8663 91.124C43.1329 91.2307 43.4476 91.284 43.8103 91.284C44.3223 91.284 44.7489 91.1933 45.0903 91.012C45.4316 90.8307 45.6823 90.564 45.8423 90.212ZM52.2478 92.628C51.3944 92.628 50.7704 92.4307 50.3758 92.036C49.9918 91.6307 49.7998 90.98 49.7998 90.084V86.116H48.5838V84.66H49.7998V82.772H51.5598V84.66H53.7838V86.116H51.5598V89.764C51.5598 90.2333 51.6558 90.58 51.8478 90.804C52.0504 91.0173 52.3598 91.124 52.7758 91.124C53.1171 91.124 53.4318 91.0813 53.7198 90.996V92.468C53.2184 92.5747 52.7278 92.628 52.2478 92.628ZM55.8355 81.204H57.7075L56.1715 85.732H54.7315L55.8355 81.204ZM60.9639 92.74C60.1745 92.74 59.5132 92.612 58.9799 92.356C58.4572 92.1 58.0785 91.716 57.8439 91.204C57.6732 90.8307 57.5879 90.3933 57.5879 89.892H59.3159C59.3159 90.1907 59.3692 90.4413 59.4759 90.644C59.7105 91.156 60.2172 91.412 60.9959 91.412C61.7745 91.412 62.2545 91.2093 62.4359 90.804C62.4892 90.6653 62.5159 90.532 62.5159 90.404C62.5159 90.2547 62.4892 90.116 62.4359 89.988C62.3612 89.828 62.2385 89.7 62.0679 89.604C61.9079 89.508 61.7052 89.428 61.4599 89.364C61.2252 89.2893 60.8892 89.2093 60.4519 89.124C59.8545 88.9853 59.3479 88.804 58.9319 88.58C58.5159 88.3453 58.2172 88.0253 58.0359 87.62C57.9292 87.3747 57.8759 87.0867 57.8759 86.756C57.8759 86.404 57.9399 86.0947 58.0679 85.828C58.2705 85.3907 58.6225 85.0547 59.1239 84.82C59.6252 84.5747 60.2279 84.452 60.9319 84.452C61.6465 84.452 62.2492 84.5693 62.7399 84.804C63.2412 85.0387 63.6039 85.3853 63.8279 85.844C63.9665 86.164 64.0359 86.548 64.0359 86.996H62.3559C62.3559 86.7613 62.3132 86.5427 62.2279 86.34C62.1212 86.1267 61.9505 85.9667 61.7159 85.86C61.4919 85.7427 61.2199 85.684 60.8999 85.684C60.2492 85.684 59.8385 85.86 59.6679 86.212C59.6252 86.308 59.6039 86.4307 59.6039 86.58C59.6039 86.7187 59.6252 86.8253 59.6679 86.9C59.7425 87.0707 59.8759 87.2093 60.0679 87.316C60.2599 87.4227 60.4625 87.508 60.6759 87.572C60.8999 87.6253 61.2252 87.7 61.6519 87.796C62.3132 87.9667 62.8519 88.1693 63.2679 88.404C63.6945 88.628 64.0039 88.9427 64.1959 89.348C64.3025 89.5933 64.3559 89.8867 64.3559 90.228C64.3559 90.6013 64.2919 90.948 64.1639 91.268C63.9399 91.748 63.5399 92.116 62.9639 92.372C62.3985 92.6173 61.7319 92.74 60.9639 92.74ZM69.3846 83.476C69.0646 83.476 68.8033 83.3853 68.6006 83.204C68.398 83.012 68.2966 82.772 68.2966 82.484C68.2966 82.1853 68.3926 81.9453 68.5846 81.764C68.7873 81.572 69.054 81.476 69.3846 81.476C69.694 81.476 69.9446 81.572 70.1366 81.764C70.3286 81.9453 70.4246 82.1853 70.4246 82.484C70.4246 82.772 70.3233 83.012 70.1206 83.204C69.9286 83.3853 69.6833 83.476 69.3846 83.476ZM68.4726 84.66H70.2486V92.5H68.4726V84.66ZM76.1341 84.452C77.0941 84.452 77.8355 84.724 78.3581 85.268C78.8808 85.812 79.1421 86.6067 79.1421 87.652V92.5H77.3821V88.004C77.3821 87.3 77.2381 86.7827 76.9501 86.452C76.6621 86.1213 76.2195 85.956 75.6221 85.956C74.9928 85.956 74.5128 86.1373 74.1821 86.5C73.8515 86.852 73.6861 87.38 73.6861 88.084V92.5H71.9101V84.66H73.6861V85.54C74.2301 84.8147 75.0461 84.452 76.1341 84.452ZM91.0693 84.66L86.3653 95.732H84.5413L85.9653 92.42L82.8293 84.66H84.7973L86.9253 90.5L89.1493 84.66H91.0693ZM95.2773 92.692C94.3813 92.692 93.6239 92.5053 93.0053 92.132C92.3866 91.7587 91.9279 91.2413 91.6293 90.58C91.3626 90.0147 91.2293 89.348 91.2293 88.58C91.2293 87.812 91.3626 87.14 91.6293 86.564C91.9279 85.9027 92.3866 85.3853 93.0053 85.012C93.6239 84.6387 94.3813 84.452 95.2773 84.452C96.1733 84.452 96.9306 84.6387 97.5493 85.012C98.1786 85.3853 98.6426 85.9027 98.9413 86.564C99.2079 87.1613 99.3413 87.8333 99.3413 88.58C99.3413 89.3053 99.2079 89.9773 98.9413 90.596C98.6426 91.2573 98.1786 91.7747 97.5493 92.148C96.9306 92.5107 96.1733 92.692 95.2773 92.692ZM95.2773 91.204C95.7573 91.204 96.1573 91.108 96.4773 90.916C96.8079 90.7133 97.0533 90.436 97.2133 90.084C97.3733 89.7213 97.4533 89.22 97.4533 88.58C97.4533 87.9293 97.3733 87.428 97.2133 87.076C97.0533 86.7133 96.8079 86.436 96.4773 86.244C96.1573 86.052 95.7573 85.956 95.2773 85.956C94.7973 85.956 94.3973 86.052 94.0773 86.244C93.7573 86.436 93.5173 86.7133 93.3573 87.076C93.1866 87.4493 93.1013 87.9507 93.1013 88.58C93.1013 89.1987 93.1866 89.7 93.3573 90.084C93.5173 90.436 93.7573 90.7133 94.0773 90.916C94.3973 91.108 94.7973 91.204 95.2773 91.204ZM107.797 84.66V92.5H106.037V91.604C105.493 92.34 104.677 92.708 103.589 92.708C102.629 92.708 101.882 92.436 101.349 91.892C100.826 91.348 100.565 90.5533 100.565 89.508V84.66H102.325V89.156C102.325 89.86 102.469 90.3773 102.757 90.708C103.056 91.0387 103.498 91.204 104.085 91.204C104.714 91.204 105.194 91.0227 105.525 90.66C105.866 90.2973 106.037 89.7693 106.037 89.076V84.66H107.797ZM113.297 84.548C113.606 84.548 113.873 84.58 114.097 84.644V86.212C113.862 86.1587 113.596 86.132 113.297 86.132C112.614 86.132 112.097 86.34 111.745 86.756C111.404 87.1613 111.233 87.7533 111.233 88.532V92.5H109.457V84.66H111.217V85.572C111.676 84.8893 112.369 84.548 113.297 84.548ZM127.364 84.452C128.292 84.452 129.006 84.7293 129.508 85.284C130.02 85.828 130.276 86.6227 130.276 87.668V92.5H128.516V88.02C128.516 87.3053 128.377 86.7827 128.1 86.452C127.822 86.1213 127.406 85.956 126.852 85.956C126.254 85.956 125.801 86.1373 125.492 86.5C125.182 86.8627 125.028 87.3907 125.028 88.084V92.5H123.268V88.02C123.268 87.3053 123.129 86.7827 122.852 86.452C122.585 86.1213 122.169 85.956 121.604 85.956C121.017 85.956 120.569 86.1373 120.26 86.5C119.95 86.8627 119.796 87.3907 119.796 88.084V92.5H118.02V84.66H119.796V85.492C120.329 84.7987 121.118 84.452 122.164 84.452C122.782 84.452 123.31 84.5693 123.748 84.804C124.196 85.0387 124.526 85.3907 124.74 85.86C125.006 85.38 125.353 85.028 125.78 84.804C126.217 84.5693 126.745 84.452 127.364 84.452ZM132.791 83.476C132.471 83.476 132.21 83.3853 132.007 83.204C131.804 83.012 131.703 82.772 131.703 82.484C131.703 82.1853 131.799 81.9453 131.991 81.764C132.194 81.572 132.46 81.476 132.791 81.476C133.1 81.476 133.351 81.572 133.543 81.764C133.735 81.9453 133.831 82.1853 133.831 82.484C133.831 82.772 133.73 83.012 133.527 83.204C133.335 83.3853 133.09 83.476 132.791 83.476ZM131.879 84.66H133.655V92.5H131.879V84.66ZM139.54 84.452C140.5 84.452 141.242 84.724 141.764 85.268C142.287 85.812 142.548 86.6067 142.548 87.652V92.5H140.788V88.004C140.788 87.3 140.644 86.7827 140.356 86.452C140.068 86.1213 139.626 85.956 139.028 85.956C138.399 85.956 137.919 86.1373 137.588 86.5C137.258 86.852 137.092 87.38 137.092 88.084V92.5H135.316V84.66H137.092V85.54C137.636 84.8147 138.452 84.452 139.54 84.452ZM151.729 81.204V92.5H150.001V91.556C149.702 91.9293 149.329 92.212 148.881 92.404C148.443 92.596 147.947 92.692 147.393 92.692C146.625 92.692 145.969 92.5213 145.424 92.18C144.88 91.8387 144.47 91.3587 144.193 90.74C144.054 90.4307 143.947 90.0947 143.873 89.732C143.798 89.3587 143.761 88.9747 143.761 88.58C143.761 87.7693 143.905 87.044 144.193 86.404C144.47 85.7853 144.88 85.3053 145.424 84.964C145.969 84.6227 146.625 84.452 147.393 84.452C147.937 84.452 148.427 84.548 148.865 84.74C149.302 84.9213 149.67 85.1933 149.969 85.556V81.204H151.729ZM149.969 88.372C149.969 87.5933 149.777 86.996 149.393 86.58C149.019 86.164 148.502 85.956 147.841 85.956C147.382 85.956 146.987 86.052 146.657 86.244C146.326 86.4253 146.075 86.7027 145.905 87.076C145.734 87.4813 145.649 87.9827 145.649 88.58C145.649 89.1667 145.734 89.6627 145.905 90.068C146.075 90.4413 146.326 90.724 146.657 90.916C146.987 91.108 147.382 91.204 147.841 91.204C148.502 91.204 149.019 90.996 149.393 90.58C149.777 90.1533 149.969 89.5507 149.969 88.772V88.372ZM158.573 89.22C159.394 87.9507 159.997 86.9907 160.381 86.34C160.776 85.6787 161.037 85.172 161.165 84.82C161.304 84.468 161.373 84.1427 161.373 83.844C161.373 83.3853 161.234 83.028 160.957 82.772C160.68 82.516 160.232 82.388 159.613 82.388C158.749 82.388 158.189 82.676 157.933 83.252C157.869 83.412 157.826 83.5667 157.805 83.716C157.784 83.8547 157.773 84.0413 157.773 84.276H156.013C156.013 83.924 156.034 83.62 156.077 83.364C156.12 83.108 156.189 82.8627 156.285 82.628C156.541 82.0733 156.957 81.652 157.533 81.364C158.109 81.076 158.824 80.932 159.677 80.932C160.445 80.932 161.096 81.0493 161.629 81.284C162.173 81.5187 162.578 81.8493 162.845 82.276C163.122 82.7027 163.261 83.2093 163.261 83.796C163.261 84.148 163.192 84.5107 163.053 84.884C162.925 85.2573 162.674 85.764 162.301 86.404C161.938 87.0333 161.357 87.972 160.557 89.22H158.573ZM159.517 92.772C159.176 92.772 158.898 92.6707 158.685 92.468C158.472 92.2547 158.365 91.9827 158.365 91.652C158.365 91.3 158.466 91.0227 158.669 90.82C158.882 90.6173 159.165 90.516 159.517 90.516C159.869 90.516 160.146 90.6173 160.349 90.82C160.562 91.0227 160.669 91.3 160.669 91.652C160.669 91.9827 160.562 92.2547 160.349 92.468C160.136 92.6707 159.858 92.772 159.517 92.772Z" fill="#999999"/>
<path d="M468 154C468 152.895 468.895 152 470 152H602C603.105 152 604 152.895 604 154V192C604 193.105 603.105 194 602 194H470C468.895 194 468 193.105 468 192V154Z" fill="#0066EE"/>
<path d="M517.476 165.704H521.732C522.607 165.704 523.332 165.843 523.908 166.12C524.484 166.387 524.895 166.803 525.14 167.368C525.343 167.805 525.444 168.344 525.444 168.984C525.444 169.315 525.417 169.608 525.364 169.864C525.321 170.12 525.247 170.365 525.14 170.6C524.895 171.155 524.479 171.571 523.892 171.848C523.316 172.125 522.596 172.264 521.732 172.264H519.316V177H517.476V165.704ZM521.268 170.712C521.855 170.712 522.319 170.648 522.66 170.52C523.012 170.392 523.257 170.168 523.396 169.848C523.503 169.624 523.556 169.336 523.556 168.984C523.556 168.643 523.503 168.349 523.396 168.104C523.247 167.795 523.001 167.576 522.66 167.448C522.319 167.32 521.855 167.256 521.268 167.256H519.316V170.712H521.268ZM531.704 177.272C530.701 177.272 529.832 177.101 529.096 176.76C528.371 176.408 527.795 175.912 527.368 175.272C527.016 174.803 526.749 174.232 526.568 173.56C526.397 172.877 526.312 172.141 526.312 171.352C526.312 170.168 526.504 169.128 526.888 168.232C527.293 167.347 527.901 166.659 528.712 166.168C529.523 165.677 530.52 165.432 531.704 165.432C532.899 165.432 533.901 165.677 534.712 166.168C535.523 166.648 536.125 167.331 536.52 168.216C536.915 169.101 537.112 170.147 537.112 171.352C537.112 172.568 536.909 173.613 536.504 174.488C536.109 175.373 535.507 176.061 534.696 176.552C533.885 177.032 532.888 177.272 531.704 177.272ZM531.704 175.576C532.461 175.576 533.091 175.421 533.592 175.112C534.104 174.803 534.483 174.371 534.728 173.816C534.888 173.475 535 173.107 535.064 172.712C535.139 172.307 535.176 171.853 535.176 171.352C535.176 170.851 535.139 170.403 535.064 170.008C535 169.603 534.888 169.229 534.728 168.888C534.483 168.333 534.104 167.901 533.592 167.592C533.091 167.283 532.461 167.128 531.704 167.128C530.947 167.128 530.317 167.283 529.816 167.592C529.315 167.901 528.941 168.333 528.696 168.888C528.536 169.229 528.419 169.603 528.344 170.008C528.28 170.403 528.248 170.851 528.248 171.352C528.248 171.853 528.28 172.307 528.344 172.712C528.419 173.107 528.536 173.475 528.696 173.816C528.941 174.371 529.315 174.803 529.816 175.112C530.317 175.421 530.947 175.576 531.704 175.576ZM542.758 177.272C541.691 177.272 540.806 177.091 540.102 176.728C539.398 176.365 538.897 175.853 538.598 175.192C538.374 174.659 538.262 174.051 538.262 173.368H540.262C540.283 173.88 540.358 174.291 540.486 174.6C540.657 174.973 540.939 175.261 541.334 175.464C541.729 175.656 542.225 175.752 542.822 175.752C543.398 175.752 543.883 175.667 544.278 175.496C544.683 175.315 544.955 175.064 545.094 174.744C545.201 174.499 545.254 174.253 545.254 174.008C545.254 173.773 545.206 173.549 545.11 173.336C545.003 173.091 544.817 172.883 544.55 172.712C544.294 172.541 544.006 172.408 543.686 172.312C543.366 172.205 542.918 172.083 542.342 171.944L541.878 171.832C541.057 171.608 540.385 171.352 539.862 171.064C539.35 170.765 538.982 170.371 538.758 169.88C538.598 169.507 538.518 169.101 538.518 168.664C538.518 168.237 538.614 167.805 538.806 167.368C539.073 166.76 539.547 166.285 540.23 165.944C540.923 165.603 541.734 165.432 542.662 165.432C543.601 165.432 544.395 165.603 545.046 165.944C545.697 166.285 546.161 166.776 546.438 167.416C546.555 167.672 546.641 167.944 546.694 168.232C546.747 168.509 546.774 168.819 546.774 169.16H544.87C544.859 168.904 544.838 168.685 544.806 168.504C544.774 168.312 544.726 168.141 544.662 167.992C544.502 167.629 544.246 167.357 543.894 167.176C543.542 166.995 543.11 166.904 542.598 166.904C542.097 166.904 541.659 166.995 541.286 167.176C540.923 167.347 540.678 167.581 540.55 167.88C540.497 167.976 540.459 168.072 540.438 168.168C540.427 168.253 540.422 168.355 540.422 168.472C540.422 168.6 540.427 168.712 540.438 168.808C540.459 168.893 540.491 168.979 540.534 169.064C540.63 169.288 540.795 169.48 541.03 169.64C541.275 169.789 541.547 169.912 541.846 170.008C542.145 170.093 542.561 170.205 543.094 170.344C543.211 170.365 543.387 170.408 543.622 170.472C544.23 170.632 544.742 170.792 545.158 170.952C545.574 171.112 545.942 171.32 546.262 171.576C546.593 171.821 546.843 172.131 547.014 172.504C547.174 172.867 547.254 173.309 547.254 173.832C547.254 174.355 547.163 174.824 546.982 175.24C546.694 175.901 546.182 176.408 545.446 176.76C544.71 177.101 543.814 177.272 542.758 177.272ZM550.365 167.304H547.581V165.704H555.005V167.304H552.205V177H550.365V167.304Z" fill="white"/>
</svg>
