<svg width="18" height="18" viewBox="0 0 18 18" fill="none" xmlns="http://www.w3.org/2000/svg">
<path d="M9 0C4.02891 0 0 4.0277 0 9C0 13.9699 4.02891 17.9994 9 17.9994C13.9711 17.9994 18 13.9699 18 9C17.9994 4.0277 13.9705 0 9 0ZM9 16.5313C4.83884 16.5313 1.46689 13.1599 1.46689 8.99939C1.46689 4.83823 4.83884 1.46567 9 1.46567C13.1599 1.46567 16.5319 4.83884 16.5319 8.99939C16.5319 13.1599 13.1599 16.5313 9 16.5313Z" fill="#0066EE"/>
<ellipse cx="9" cy="9" rx="8.25" ry="8.25" fill="#0066EE"/>
<path d="M8.76631 11.7844C7.9509 11.7844 7.37134 12.364 7.37134 13.2105C7.37134 14.0247 7.93567 14.6359 8.76631 14.6359C9.62804 14.6359 10.1765 14.0247 10.1765 13.2105C10.1601 12.364 9.61098 11.7844 8.76631 11.7844Z" fill="white"/>
<path d="M8.98424 3.71265C7.87265 3.71265 6.94876 4.02528 6.36798 4.35437L6.90123 6.0632C7.30832 5.78165 7.93542 5.59273 8.45222 5.59273C9.23533 5.60918 9.59733 5.9852 9.59733 6.53307C9.59733 7.05108 9.18901 7.56727 8.68685 8.17913C7.98235 9.01039 7.71542 9.82519 7.76296 10.6241L7.77819 11.0319H9.86243V10.7497C9.84719 10.044 10.0983 9.43211 10.6614 8.79038C11.258 8.1322 12.0088 7.34848 12.0088 6.15705C12.0088 4.85593 11.0545 3.71265 8.98424 3.71265Z" fill="white"/>
</svg>
