<svg width="417" height="94" viewBox="0 0 417 94" fill="none" xmlns="http://www.w3.org/2000/svg">
<path d="M17.5593 36.912C13.7833 36.912 10.5353 36.144 7.81525 34.608C5.12725 33.04 3.11125 30.768 1.76725 27.792C1.22325 26.576 0.80725 25.264 0.51925 23.856C0.26325 22.416 0.13525 20.816 0.13525 19.056C0.13525 17.296 0.26325 15.696 0.51925 14.256C0.80725 12.816 1.22325 11.488 1.76725 10.272C3.11125 7.36 5.12725 5.12 7.81525 3.552C10.5033 1.984 13.7353 1.2 17.5113 1.2C19.8473 1.2 22.0073 1.552 23.9913 2.256C25.9753 2.928 27.6873 3.904 29.1273 5.184C30.5353 6.496 31.6233 8.016 32.3913 9.744C33.1593 11.472 33.5593 13.344 33.5913 15.36H22.6473C22.6153 14.528 22.4553 13.776 22.1673 13.104C21.9113 12.432 21.5273 11.888 21.0153 11.472C20.5353 11.024 19.9913 10.704 19.3833 10.512C18.7753 10.288 18.0233 10.176 17.1273 10.176C14.5993 10.176 12.8713 11.2 11.9433 13.248C11.6553 13.92 11.4473 14.688 11.3193 15.552C11.1913 16.416 11.1273 17.568 11.1273 19.008C11.1273 20.48 11.1753 21.68 11.2713 22.608C11.3993 23.504 11.6073 24.272 11.8953 24.912C12.3753 25.968 13.0633 26.736 13.9593 27.216C14.8553 27.696 15.9273 27.936 17.1753 27.936C18.8713 27.936 20.2313 27.488 21.2553 26.592C21.6713 26.176 22.0233 25.68 22.3113 25.104C22.5993 24.528 22.7593 23.904 22.7913 23.232H33.7353C33.7033 25.12 33.3033 26.88 32.5353 28.512C31.7993 30.144 30.7753 31.552 29.4633 32.736C27.9913 34.08 26.2313 35.12 24.1833 35.856C22.1353 36.56 19.9273 36.912 17.5593 36.912ZM49.0083 36.72C45.9683 36.72 43.3763 36.128 41.2323 34.944C39.0883 33.728 37.5203 32.016 36.5283 29.808C36.1123 28.944 35.8083 28.048 35.6163 27.12C35.4563 26.16 35.3763 25.088 35.3763 23.904C35.3763 22.72 35.4563 21.664 35.6163 20.736C35.8083 19.776 36.1123 18.864 36.5283 18C37.5203 15.792 39.0883 14.096 41.2323 12.912C43.3763 11.696 45.9683 11.088 49.0083 11.088C52.0163 11.088 54.5923 11.696 56.7363 12.912C58.9123 14.096 60.4963 15.776 61.4883 17.952C62.2563 19.68 62.6403 21.664 62.6403 23.904C62.6403 25.088 62.5443 26.16 62.3523 27.12C62.1603 28.048 61.8723 28.96 61.4883 29.856C60.4963 32.064 58.9283 33.76 56.7843 34.944C54.6403 36.128 52.0483 36.72 49.0083 36.72ZM49.0083 29.232C50.6083 29.232 51.6643 28.656 52.1763 27.504C52.4963 26.768 52.6563 25.568 52.6563 23.904C52.6563 22.272 52.4963 21.072 52.1763 20.304C51.6643 19.152 50.6083 18.576 49.0083 18.576C47.4403 18.576 46.3843 19.168 45.8403 20.352C45.5203 21.088 45.3603 22.272 45.3603 23.904C45.3603 25.536 45.5203 26.736 45.8403 27.504C46.3843 28.656 47.4403 29.232 49.0083 29.232ZM81.7758 11.088C84.3998 11.088 86.4158 11.872 87.8238 13.44C89.2638 15.008 89.9838 17.248 89.9838 20.16V36H80.6238V22.176C80.6238 20.896 80.3678 19.984 79.8558 19.44C79.3758 18.864 78.6238 18.576 77.5998 18.576C76.5438 18.576 75.7438 18.896 75.1998 19.536C74.6878 20.176 74.4318 21.168 74.4318 22.512V36H65.0718V11.808H74.4318V14.88C75.3278 13.632 76.3678 12.688 77.5518 12.048C78.7358 11.408 80.1438 11.088 81.7758 11.088ZM109.854 11.088C112.478 11.088 114.494 11.872 115.902 13.44C117.342 15.008 118.062 17.248 118.062 20.16V36H108.702V22.176C108.702 20.896 108.446 19.984 107.934 19.44C107.454 18.864 106.702 18.576 105.678 18.576C104.622 18.576 103.822 18.896 103.278 19.536C102.766 20.176 102.51 21.168 102.51 22.512V36H93.1499V11.808H102.51V14.88C103.406 13.632 104.446 12.688 105.63 12.048C106.814 11.408 108.222 11.088 109.854 11.088ZM136.444 29.28C136.86 28.96 137.116 28.512 137.212 27.936H146.764C146.54 30.176 145.612 32.032 143.98 33.504C142.796 34.592 141.34 35.408 139.612 35.952C137.884 36.464 136.012 36.72 133.996 36.72C130.924 36.72 128.284 36.144 126.076 34.992C123.9 33.808 122.316 32.112 121.324 29.904C120.588 28.144 120.22 26.112 120.22 23.808C120.22 22.56 120.316 21.472 120.508 20.544C120.7 19.616 120.988 18.736 121.372 17.904C122.332 15.728 123.852 14.048 125.932 12.864C128.012 11.68 130.492 11.088 133.372 11.088C136.348 11.088 138.892 11.696 141.004 12.912C143.116 14.128 144.668 15.84 145.66 18.048C146.172 19.2 146.508 20.336 146.668 21.456C146.828 22.576 146.908 24.112 146.908 26.064H129.724C129.756 26.96 129.9 27.68 130.156 28.224C130.412 28.864 130.844 29.328 131.452 29.616C132.06 29.904 132.86 30.048 133.852 30.048C135.036 30.048 135.9 29.792 136.444 29.28ZM133.564 17.424C131.868 17.424 130.732 18.032 130.156 19.248C130.028 19.568 129.932 19.872 129.868 20.16C129.804 20.448 129.756 20.8 129.724 21.216H137.404C137.404 20.768 137.372 20.416 137.308 20.16C137.244 19.872 137.148 19.584 137.02 19.296C136.444 18.048 135.292 17.424 133.564 17.424ZM161.97 36.72C159.09 36.72 156.578 36.16 154.434 35.04C152.322 33.888 150.786 32.224 149.826 30.048C149.026 28.256 148.626 26.208 148.626 23.904C148.626 21.632 149.026 19.6 149.826 17.808C150.786 15.632 152.322 13.968 154.434 12.816C156.546 11.664 159.058 11.088 161.97 11.088C164.082 11.088 165.986 11.376 167.682 11.952C169.378 12.496 170.834 13.312 172.05 14.4C173.01 15.296 173.762 16.336 174.306 17.52C174.85 18.704 175.17 20 175.266 21.408H165.09C164.994 20.544 164.674 19.84 164.13 19.296C163.554 18.816 162.85 18.576 162.018 18.576C160.674 18.576 159.762 19.136 159.282 20.256C159.09 20.64 158.962 21.104 158.898 21.648C158.834 22.192 158.802 22.944 158.802 23.904C158.802 24.864 158.834 25.616 158.898 26.16C158.962 26.704 159.09 27.168 159.282 27.552C159.762 28.672 160.674 29.232 162.018 29.232C162.914 29.232 163.602 28.992 164.082 28.512C164.402 28.256 164.642 27.936 164.802 27.552C164.962 27.136 165.042 26.704 165.042 26.256H175.266C175.074 29.168 173.986 31.552 172.002 33.408C170.818 34.464 169.362 35.28 167.634 35.856C165.938 36.432 164.05 36.72 161.97 36.72ZM187.799 36.48C185.751 36.48 184.103 36.208 182.855 35.664C181.607 35.088 180.679 34.192 180.071 32.976C179.495 31.728 179.207 30.064 179.207 27.984V19.056H176.231V11.808H179.207V6.096H188.567V11.808H193.655V19.056H188.567V26.352C188.567 27.408 188.759 28.144 189.143 28.56C189.559 28.944 190.231 29.136 191.159 29.136C191.799 29.136 192.583 29.04 193.511 28.848V35.904C191.751 36.288 189.847 36.48 187.799 36.48ZM245.756 11.808L237.068 36H227.612L224.108 23.472L220.508 36H211.004L202.46 11.808H212.348L215.708 24.432L219.692 11.808H228.332L232.316 24.288L235.724 11.808H245.756ZM251.745 9.888C250.849 9.888 250.033 9.696 249.297 9.312C248.593 8.928 248.033 8.4 247.617 7.728C247.233 7.024 247.041 6.24 247.041 5.376C247.041 4.544 247.233 3.792 247.617 3.12C248.033 2.448 248.593 1.92 249.297 1.536C250.033 1.152 250.849 0.959999 251.745 0.959999C252.641 0.959999 253.441 1.152 254.145 1.536C254.849 1.92 255.409 2.448 255.825 3.12C256.241 3.792 256.449 4.544 256.449 5.376C256.449 6.24 256.241 7.024 255.825 7.728C255.409 8.4 254.849 8.928 254.145 9.312C253.441 9.696 252.641 9.888 251.745 9.888ZM247.041 11.808H256.401V36H247.041V11.808ZM270.159 36.48C268.111 36.48 266.463 36.208 265.215 35.664C263.967 35.088 263.039 34.192 262.431 32.976C261.855 31.728 261.567 30.064 261.567 27.984V19.056H258.591V11.808H261.567V6.096H270.927V11.808H276.015V19.056H270.927V26.352C270.927 27.408 271.119 28.144 271.503 28.56C271.919 28.944 272.591 29.136 273.519 29.136C274.159 29.136 274.943 29.04 275.871 28.848V35.904C274.111 36.288 272.207 36.48 270.159 36.48ZM295.01 11.088C297.634 11.088 299.65 11.872 301.058 13.44C302.498 15.008 303.218 17.248 303.218 20.16V36H293.858V22.176C293.858 20.896 293.602 19.984 293.09 19.44C292.61 18.864 291.858 18.576 290.834 18.576C289.778 18.576 288.978 18.896 288.434 19.536C287.922 20.176 287.666 21.168 287.666 22.512V36H278.306V2.112H287.666V14.88C288.562 13.632 289.602 12.688 290.786 12.048C291.97 11.408 293.378 11.088 295.01 11.088ZM327.633 36.72C324.593 36.72 322.001 36.128 319.857 34.944C317.713 33.728 316.145 32.016 315.153 29.808C314.737 28.944 314.433 28.048 314.241 27.12C314.081 26.16 314.001 25.088 314.001 23.904C314.001 22.72 314.081 21.664 314.241 20.736C314.433 19.776 314.737 18.864 315.153 18C316.145 15.792 317.713 14.096 319.857 12.912C322.001 11.696 324.593 11.088 327.633 11.088C330.641 11.088 333.217 11.696 335.361 12.912C337.537 14.096 339.121 15.776 340.113 17.952C340.881 19.68 341.265 21.664 341.265 23.904C341.265 25.088 341.169 26.16 340.977 27.12C340.785 28.048 340.497 28.96 340.113 29.856C339.121 32.064 337.553 33.76 335.409 34.944C333.265 36.128 330.673 36.72 327.633 36.72ZM327.633 29.232C329.233 29.232 330.289 28.656 330.801 27.504C331.121 26.768 331.281 25.568 331.281 23.904C331.281 22.272 331.121 21.072 330.801 20.304C330.289 19.152 329.233 18.576 327.633 18.576C326.065 18.576 325.009 19.168 324.465 20.352C324.145 21.088 323.985 22.272 323.985 23.904C323.985 25.536 324.145 26.736 324.465 27.504C325.009 28.656 326.065 29.232 327.633 29.232ZM340.46 11.808H350.444L354.572 25.392L358.652 11.808H368.684L359.804 36H349.292L340.46 11.808ZM384.085 29.28C384.501 28.96 384.757 28.512 384.853 27.936H394.405C394.181 30.176 393.253 32.032 391.621 33.504C390.437 34.592 388.981 35.408 387.253 35.952C385.525 36.464 383.653 36.72 381.637 36.72C378.565 36.72 375.925 36.144 373.717 34.992C371.541 33.808 369.957 32.112 368.965 29.904C368.229 28.144 367.861 26.112 367.861 23.808C367.861 22.56 367.957 21.472 368.149 20.544C368.341 19.616 368.629 18.736 369.013 17.904C369.973 15.728 371.493 14.048 373.573 12.864C375.653 11.68 378.133 11.088 381.013 11.088C383.989 11.088 386.533 11.696 388.645 12.912C390.757 14.128 392.309 15.84 393.301 18.048C393.813 19.2 394.149 20.336 394.309 21.456C394.469 22.576 394.549 24.112 394.549 26.064H377.365C377.397 26.96 377.541 27.68 377.797 28.224C378.053 28.864 378.485 29.328 379.093 29.616C379.701 29.904 380.501 30.048 381.493 30.048C382.677 30.048 383.541 29.792 384.085 29.28ZM381.205 17.424C379.509 17.424 378.373 18.032 377.797 19.248C377.669 19.568 377.573 19.872 377.509 20.16C377.445 20.448 377.397 20.8 377.365 21.216H385.045C385.045 20.768 385.013 20.416 384.949 20.16C384.885 19.872 384.789 19.584 384.661 19.296C384.085 18.048 382.933 17.424 381.205 17.424ZM396.994 11.808H406.258V14.352C406.994 13.168 407.762 12.336 408.562 11.856C409.362 11.344 410.306 11.088 411.394 11.088C412.482 11.088 413.426 11.312 414.226 11.76C415.026 12.176 415.634 12.784 416.05 13.584C416.498 14.384 416.722 15.312 416.722 16.368C416.722 17.392 416.498 18.304 416.05 19.104C415.602 19.904 414.978 20.528 414.178 20.976C413.41 21.424 412.514 21.648 411.49 21.648C410.53 21.648 409.666 21.424 408.898 20.976C408.162 20.496 407.618 19.872 407.266 19.104C406.914 19.264 406.674 19.52 406.546 19.872C406.418 20.192 406.354 20.8 406.354 21.696V36H396.994V11.808ZM123.764 84.96C120.372 84.96 117.604 84.432 115.46 83.376C113.348 82.32 111.796 80.688 110.804 78.48C109.94 76.56 109.508 74.176 109.508 71.328H119.348C119.348 72.96 119.556 74.24 119.972 75.168C120.228 75.808 120.628 76.288 121.172 76.608C121.716 76.928 122.42 77.088 123.284 77.088C124.852 77.088 125.94 76.416 126.548 75.072C126.836 74.432 126.98 73.728 126.98 72.96C126.98 72.128 126.82 71.344 126.5 70.608C125.956 69.424 124.884 68.592 123.284 68.112C121.716 67.6 119.668 67.344 117.14 67.344C114.932 67.344 112.948 67.424 111.188 67.584L114.164 50.112H136.436L134.612 58.464H122.18L121.508 62.016C122.98 61.664 124.452 61.488 125.924 61.488C128.484 61.488 130.644 61.968 132.404 62.928C134.196 63.888 135.508 65.28 136.34 67.104C137.076 68.768 137.444 70.672 137.444 72.816C137.444 74.864 137.076 76.704 136.34 78.336C135.38 80.512 133.828 82.16 131.684 83.28C129.54 84.4 126.9 84.96 123.764 84.96ZM154.644 84.96C151.348 84.96 148.548 84.304 146.244 82.992C143.94 81.68 142.228 79.728 141.108 77.136C140.532 75.856 140.1 74.4 139.812 72.768C139.524 71.104 139.38 69.2 139.38 67.056C139.38 64.88 139.524 62.976 139.812 61.344C140.1 59.712 140.532 58.256 141.108 56.976C142.228 54.384 143.94 52.432 146.244 51.12C148.548 49.808 151.348 49.152 154.644 49.152C157.94 49.152 160.724 49.808 162.996 51.12C165.3 52.4 167.012 54.352 168.132 56.976C168.708 58.256 169.14 59.712 169.428 61.344C169.716 62.976 169.86 64.88 169.86 67.056C169.86 69.2 169.716 71.104 169.428 72.768C169.14 74.4 168.708 75.856 168.132 77.136C167.012 79.76 165.3 81.728 162.996 83.04C160.724 84.32 157.94 84.96 154.644 84.96ZM154.644 76.368C156.628 76.368 157.94 75.664 158.58 74.256C158.836 73.712 158.98 72.976 159.012 72.048C159.076 71.088 159.108 69.424 159.108 67.056C159.108 64.688 159.076 63.04 159.012 62.112C158.98 61.152 158.836 60.4 158.58 59.856C157.94 58.448 156.628 57.744 154.644 57.744C152.628 57.744 151.3 58.448 150.66 59.856C150.436 60.4 150.292 61.184 150.228 62.208C150.164 63.2 150.132 64.816 150.132 67.056C150.132 69.296 150.164 70.928 150.228 71.952C150.292 72.944 150.436 73.712 150.66 74.256C151.3 75.664 152.628 76.368 154.644 76.368ZM204.624 64.224C205.328 65.76 205.68 67.76 205.68 70.224V84H196.32V81.168C195.488 82.32 194.432 83.2 193.152 83.808C191.904 84.416 190.352 84.72 188.496 84.72C186.608 84.72 185.008 84.384 183.696 83.712C182.384 83.008 181.44 81.984 180.864 80.64C180.384 79.68 180.144 78.512 180.144 77.136C180.144 75.92 180.352 74.8 180.768 73.776C181.568 72.016 183.024 70.8 185.136 70.128C187.248 69.456 189.984 69.12 193.344 69.12H196.32V68.88C196.32 68.08 196.304 67.536 196.272 67.248C196.24 66.928 196.16 66.64 196.032 66.384C195.648 65.552 194.784 65.136 193.44 65.136C192.704 65.136 192.128 65.248 191.712 65.472C191.296 65.664 191.008 65.968 190.848 66.384C190.752 66.544 190.688 66.736 190.656 66.96C190.624 67.184 190.608 67.44 190.608 67.728H181.056C181.088 66.448 181.328 65.328 181.776 64.368C182.576 62.608 183.968 61.296 185.952 60.432C187.968 59.536 190.432 59.088 193.344 59.088C196.416 59.088 198.864 59.504 200.688 60.336C202.512 61.168 203.824 62.464 204.624 64.224ZM192.72 78.24C194.416 78.24 195.504 77.712 195.984 76.656C196.112 76.336 196.192 76.016 196.224 75.696C196.288 75.376 196.32 74.896 196.32 74.256V73.92H194.016C192.928 73.92 192.064 74.016 191.424 74.208C190.816 74.368 190.416 74.688 190.224 75.168C190.096 75.392 190.032 75.696 190.032 76.08C190.032 76.464 190.096 76.8 190.224 77.088C190.576 77.856 191.408 78.24 192.72 78.24ZM234.3 64.848C235.196 66.8 235.644 69.152 235.644 71.904C235.644 74.656 235.196 77.008 234.3 78.96C233.468 80.784 232.268 82.208 230.7 83.232C229.132 84.224 227.292 84.72 225.18 84.72C223.644 84.72 222.316 84.464 221.196 83.952C220.076 83.408 219.1 82.56 218.268 81.408V93.696H208.908V59.808H218.028V62.736C218.86 61.488 219.852 60.576 221.004 60C222.188 59.392 223.58 59.088 225.18 59.088C227.292 59.088 229.132 59.6 230.7 60.624C232.268 61.616 233.468 63.024 234.3 64.848ZM225.18 75.216C225.5 74.48 225.66 73.376 225.66 71.904C225.66 71.104 225.612 70.432 225.516 69.888C225.452 69.344 225.34 68.88 225.18 68.496C224.604 67.248 223.5 66.624 221.868 66.624C220.62 66.624 219.676 67.008 219.036 67.776C218.428 68.544 218.124 69.68 218.124 71.184V72.528C218.124 74 218.428 75.136 219.036 75.936C219.676 76.704 220.62 77.088 221.868 77.088C223.5 77.088 224.604 76.464 225.18 75.216ZM263.503 64.848C264.399 66.8 264.847 69.152 264.847 71.904C264.847 74.656 264.399 77.008 263.503 78.96C262.671 80.784 261.471 82.208 259.903 83.232C258.335 84.224 256.495 84.72 254.383 84.72C252.847 84.72 251.519 84.464 250.399 83.952C249.279 83.408 248.303 82.56 247.471 81.408V93.696H238.111V59.808H247.231V62.736C248.063 61.488 249.055 60.576 250.207 60C251.391 59.392 252.783 59.088 254.383 59.088C256.495 59.088 258.335 59.6 259.903 60.624C261.471 61.616 262.671 63.024 263.503 64.848ZM254.383 75.216C254.703 74.48 254.863 73.376 254.863 71.904C254.863 71.104 254.815 70.432 254.719 69.888C254.655 69.344 254.543 68.88 254.383 68.496C253.807 67.248 252.703 66.624 251.071 66.624C249.823 66.624 248.879 67.008 248.239 67.776C247.631 68.544 247.327 69.68 247.327 71.184V72.528C247.327 74 247.631 75.136 248.239 75.936C248.879 76.704 249.823 77.088 251.071 77.088C252.703 77.088 253.807 76.464 254.383 75.216ZM277.682 84.912C274.994 84.912 272.738 84.496 270.914 83.664C269.09 82.832 267.81 81.6 267.074 79.968C266.562 78.752 266.322 77.456 266.354 76.08H275.522C275.522 76.784 275.618 77.36 275.81 77.808C276.002 78.192 276.258 78.48 276.578 78.672C276.898 78.832 277.298 78.912 277.778 78.912C278.61 78.912 279.138 78.64 279.362 78.096C279.458 77.84 279.506 77.6 279.506 77.376C279.506 77.088 279.458 76.848 279.362 76.656C279.138 76.176 278.722 75.808 278.114 75.552C277.538 75.264 276.882 75.024 276.146 74.832C275.41 74.64 274.93 74.512 274.706 74.448C273.042 74 271.602 73.44 270.386 72.768C269.17 72.064 268.29 71.104 267.746 69.888C267.554 69.44 267.41 68.992 267.314 68.544C267.218 68.096 267.17 67.584 267.17 67.008C267.17 65.76 267.394 64.672 267.842 63.744C268.546 62.208 269.778 61.056 271.538 60.288C273.298 59.488 275.394 59.088 277.826 59.088C280.258 59.088 282.338 59.472 284.066 60.24C285.826 60.976 287.042 62.112 287.714 63.648C288.162 64.608 288.386 65.696 288.386 66.912H279.602C279.602 66.304 279.506 65.808 279.314 65.424C279.026 64.816 278.498 64.512 277.73 64.512C277.026 64.512 276.562 64.736 276.338 65.184C276.242 65.376 276.194 65.584 276.194 65.808C276.194 66.064 276.242 66.288 276.338 66.48C276.562 66.96 277.074 67.36 277.874 67.68C278.674 68 279.794 68.352 281.234 68.736C283.154 69.248 284.738 69.872 285.986 70.608C287.266 71.312 288.194 72.304 288.77 73.584C289.122 74.32 289.298 75.28 289.298 76.464C289.298 77.808 289.09 78.944 288.674 79.872C287.906 81.568 286.546 82.832 284.594 83.664C282.674 84.496 280.37 84.912 277.682 84.912ZM298.647 84.96C297.623 84.96 296.695 84.736 295.863 84.288C295.063 83.872 294.439 83.28 293.991 82.512C293.543 81.744 293.319 80.848 293.319 79.824C293.319 78.768 293.543 77.856 293.991 77.088C294.439 76.32 295.063 75.728 295.863 75.312C296.663 74.864 297.591 74.64 298.647 74.64C299.671 74.64 300.567 74.864 301.335 75.312C302.135 75.728 302.743 76.32 303.159 77.088C303.607 77.856 303.831 78.768 303.831 79.824C303.831 80.848 303.607 81.744 303.159 82.512C302.743 83.28 302.135 83.872 301.335 84.288C300.567 84.736 299.671 84.96 298.647 84.96Z" fill="#222628"/>
</svg>
